<?xml version="1.0" encoding="utf-8" standalone="no"?>
<!DOCTYPE svg PUBLIC "-//W3C//DTD SVG 1.1//EN"
  "http://www.w3.org/Graphics/SVG/1.1/DTD/svg11.dtd">
<svg xmlns:xlink="http://www.w3.org/1999/xlink" width="460.8pt" height="345.6pt" viewBox="0 0 460.8 345.6" xmlns="http://www.w3.org/2000/svg" version="1.1">
 <metadata>
  <rdf:RDF xmlns:dc="http://purl.org/dc/elements/1.1/" xmlns:cc="http://creativecommons.org/ns#" xmlns:rdf="http://www.w3.org/1999/02/22-rdf-syntax-ns#">
   <cc:Work>
    <dc:type rdf:resource="http://purl.org/dc/dcmitype/StillImage"/>
    <dc:date>2025-01-07T20:19:45.227914</dc:date>
    <dc:format>image/svg+xml</dc:format>
    <dc:creator>
     <cc:Agent>
      <dc:title>Matplotlib v3.8.0, https://matplotlib.org/</dc:title>
     </cc:Agent>
    </dc:creator>
   </cc:Work>
  </rdf:RDF>
 </metadata>
 <defs>
  <style type="text/css">*{stroke-linejoin: round; stroke-linecap: butt}</style>
 </defs>
 <g id="figure_1">
  <g id="patch_1">
   <path d="M 0 345.6 
L 460.8 345.6 
L 460.8 0 
L 0 0 
z
" style="fill: #ffffff"/>
  </g>
  <g id="axes_1">
   <g id="patch_2">
    <path d="M 57.6 307.584 
L 414.72 307.584 
L 414.72 41.472 
L 57.6 41.472 
z
" style="fill: #ffffff"/>
   </g>
   <g id="matplotlib.axis_1">
    <g id="xtick_1">
     <g id="line2d_1">
      <defs>
       <path id="m6812b8c550" d="M 0 0 
L 0 3.5 
" style="stroke: #000000; stroke-width: 0.8"/>
      </defs>
      <g>
       <use xlink:href="#m6812b8c550" x="73.832727" y="307.584" style="stroke: #000000; stroke-width: 0.8"/>
      </g>
     </g>
     <g id="text_1">
      <!-- 0.0 -->
      <g transform="translate(65.881165 322.182437) scale(0.1 -0.1)">
       <defs>
        <path id="DejaVuSans-30" d="M 2034 4250 
Q 1547 4250 1301 3770 
Q 1056 3291 1056 2328 
Q 1056 1369 1301 889 
Q 1547 409 2034 409 
Q 2525 409 2770 889 
Q 3016 1369 3016 2328 
Q 3016 3291 2770 3770 
Q 2525 4250 2034 4250 
z
M 2034 4750 
Q 2819 4750 3233 4129 
Q 3647 3509 3647 2328 
Q 3647 1150 3233 529 
Q 2819 -91 2034 -91 
Q 1250 -91 836 529 
Q 422 1150 422 2328 
Q 422 3509 836 4129 
Q 1250 4750 2034 4750 
z
" transform="scale(0.015625)"/>
        <path id="DejaVuSans-2e" d="M 684 794 
L 1344 794 
L 1344 0 
L 684 0 
L 684 794 
z
" transform="scale(0.015625)"/>
       </defs>
       <use xlink:href="#DejaVuSans-30"/>
       <use xlink:href="#DejaVuSans-2e" x="63.623047"/>
       <use xlink:href="#DejaVuSans-30" x="95.410156"/>
      </g>
     </g>
    </g>
    <g id="xtick_2">
     <g id="line2d_2">
      <g>
       <use xlink:href="#m6812b8c550" x="115.455105" y="307.584" style="stroke: #000000; stroke-width: 0.8"/>
      </g>
     </g>
     <g id="text_2">
      <!-- 2.5 -->
      <g transform="translate(107.503542 322.182437) scale(0.1 -0.1)">
       <defs>
        <path id="DejaVuSans-32" d="M 1228 531 
L 3431 531 
L 3431 0 
L 469 0 
L 469 531 
Q 828 903 1448 1529 
Q 2069 2156 2228 2338 
Q 2531 2678 2651 2914 
Q 2772 3150 2772 3378 
Q 2772 3750 2511 3984 
Q 2250 4219 1831 4219 
Q 1534 4219 1204 4116 
Q 875 4013 500 3803 
L 500 4441 
Q 881 4594 1212 4672 
Q 1544 4750 1819 4750 
Q 2544 4750 2975 4387 
Q 3406 4025 3406 3419 
Q 3406 3131 3298 2873 
Q 3191 2616 2906 2266 
Q 2828 2175 2409 1742 
Q 1991 1309 1228 531 
z
" transform="scale(0.015625)"/>
        <path id="DejaVuSans-35" d="M 691 4666 
L 3169 4666 
L 3169 4134 
L 1269 4134 
L 1269 2991 
Q 1406 3038 1543 3061 
Q 1681 3084 1819 3084 
Q 2600 3084 3056 2656 
Q 3513 2228 3513 1497 
Q 3513 744 3044 326 
Q 2575 -91 1722 -91 
Q 1428 -91 1123 -41 
Q 819 9 494 109 
L 494 744 
Q 775 591 1075 516 
Q 1375 441 1709 441 
Q 2250 441 2565 725 
Q 2881 1009 2881 1497 
Q 2881 1984 2565 2268 
Q 2250 2553 1709 2553 
Q 1456 2553 1204 2497 
Q 953 2441 691 2322 
L 691 4666 
z
" transform="scale(0.015625)"/>
       </defs>
       <use xlink:href="#DejaVuSans-32"/>
       <use xlink:href="#DejaVuSans-2e" x="63.623047"/>
       <use xlink:href="#DejaVuSans-35" x="95.410156"/>
      </g>
     </g>
    </g>
    <g id="xtick_3">
     <g id="line2d_3">
      <g>
       <use xlink:href="#m6812b8c550" x="157.077483" y="307.584" style="stroke: #000000; stroke-width: 0.8"/>
      </g>
     </g>
     <g id="text_3">
      <!-- 5.0 -->
      <g transform="translate(149.12592 322.182437) scale(0.1 -0.1)">
       <use xlink:href="#DejaVuSans-35"/>
       <use xlink:href="#DejaVuSans-2e" x="63.623047"/>
       <use xlink:href="#DejaVuSans-30" x="95.410156"/>
      </g>
     </g>
    </g>
    <g id="xtick_4">
     <g id="line2d_4">
      <g>
       <use xlink:href="#m6812b8c550" x="198.69986" y="307.584" style="stroke: #000000; stroke-width: 0.8"/>
      </g>
     </g>
     <g id="text_4">
      <!-- 7.5 -->
      <g transform="translate(190.748298 322.182437) scale(0.1 -0.1)">
       <defs>
        <path id="DejaVuSans-37" d="M 525 4666 
L 3525 4666 
L 3525 4397 
L 1831 0 
L 1172 0 
L 2766 4134 
L 525 4134 
L 525 4666 
z
" transform="scale(0.015625)"/>
       </defs>
       <use xlink:href="#DejaVuSans-37"/>
       <use xlink:href="#DejaVuSans-2e" x="63.623047"/>
       <use xlink:href="#DejaVuSans-35" x="95.410156"/>
      </g>
     </g>
    </g>
    <g id="xtick_5">
     <g id="line2d_5">
      <g>
       <use xlink:href="#m6812b8c550" x="240.322238" y="307.584" style="stroke: #000000; stroke-width: 0.8"/>
      </g>
     </g>
     <g id="text_5">
      <!-- 10.0 -->
      <g transform="translate(229.189425 322.182437) scale(0.1 -0.1)">
       <defs>
        <path id="DejaVuSans-31" d="M 794 531 
L 1825 531 
L 1825 4091 
L 703 3866 
L 703 4441 
L 1819 4666 
L 2450 4666 
L 2450 531 
L 3481 531 
L 3481 0 
L 794 0 
L 794 531 
z
" transform="scale(0.015625)"/>
       </defs>
       <use xlink:href="#DejaVuSans-31"/>
       <use xlink:href="#DejaVuSans-30" x="63.623047"/>
       <use xlink:href="#DejaVuSans-2e" x="127.246094"/>
       <use xlink:href="#DejaVuSans-30" x="159.033203"/>
      </g>
     </g>
    </g>
    <g id="xtick_6">
     <g id="line2d_6">
      <g>
       <use xlink:href="#m6812b8c550" x="281.944615" y="307.584" style="stroke: #000000; stroke-width: 0.8"/>
      </g>
     </g>
     <g id="text_6">
      <!-- 12.5 -->
      <g transform="translate(270.811803 322.182437) scale(0.1 -0.1)">
       <use xlink:href="#DejaVuSans-31"/>
       <use xlink:href="#DejaVuSans-32" x="63.623047"/>
       <use xlink:href="#DejaVuSans-2e" x="127.246094"/>
       <use xlink:href="#DejaVuSans-35" x="159.033203"/>
      </g>
     </g>
    </g>
    <g id="xtick_7">
     <g id="line2d_7">
      <g>
       <use xlink:href="#m6812b8c550" x="323.566993" y="307.584" style="stroke: #000000; stroke-width: 0.8"/>
      </g>
     </g>
     <g id="text_7">
      <!-- 15.0 -->
      <g transform="translate(312.434181 322.182437) scale(0.1 -0.1)">
       <use xlink:href="#DejaVuSans-31"/>
       <use xlink:href="#DejaVuSans-35" x="63.623047"/>
       <use xlink:href="#DejaVuSans-2e" x="127.246094"/>
       <use xlink:href="#DejaVuSans-30" x="159.033203"/>
      </g>
     </g>
    </g>
    <g id="xtick_8">
     <g id="line2d_8">
      <g>
       <use xlink:href="#m6812b8c550" x="365.189371" y="307.584" style="stroke: #000000; stroke-width: 0.8"/>
      </g>
     </g>
     <g id="text_8">
      <!-- 17.5 -->
      <g transform="translate(354.056558 322.182437) scale(0.1 -0.1)">
       <use xlink:href="#DejaVuSans-31"/>
       <use xlink:href="#DejaVuSans-37" x="63.623047"/>
       <use xlink:href="#DejaVuSans-2e" x="127.246094"/>
       <use xlink:href="#DejaVuSans-35" x="159.033203"/>
      </g>
     </g>
    </g>
    <g id="xtick_9">
     <g id="line2d_9">
      <g>
       <use xlink:href="#m6812b8c550" x="406.811748" y="307.584" style="stroke: #000000; stroke-width: 0.8"/>
      </g>
     </g>
     <g id="text_9">
      <!-- 20.0 -->
      <g transform="translate(395.678936 322.182437) scale(0.1 -0.1)">
       <use xlink:href="#DejaVuSans-32"/>
       <use xlink:href="#DejaVuSans-30" x="63.623047"/>
       <use xlink:href="#DejaVuSans-2e" x="127.246094"/>
       <use xlink:href="#DejaVuSans-30" x="159.033203"/>
      </g>
     </g>
    </g>
    <g id="text_10">
     <!-- Retention Volume (mL) -->
     <g transform="translate(178.718594 335.860562) scale(0.1 -0.1)">
      <defs>
       <path id="DejaVuSans-52" d="M 2841 2188 
Q 3044 2119 3236 1894 
Q 3428 1669 3622 1275 
L 4263 0 
L 3584 0 
L 2988 1197 
Q 2756 1666 2539 1819 
Q 2322 1972 1947 1972 
L 1259 1972 
L 1259 0 
L 628 0 
L 628 4666 
L 2053 4666 
Q 2853 4666 3247 4331 
Q 3641 3997 3641 3322 
Q 3641 2881 3436 2590 
Q 3231 2300 2841 2188 
z
M 1259 4147 
L 1259 2491 
L 2053 2491 
Q 2509 2491 2742 2702 
Q 2975 2913 2975 3322 
Q 2975 3731 2742 3939 
Q 2509 4147 2053 4147 
L 1259 4147 
z
" transform="scale(0.015625)"/>
       <path id="DejaVuSans-65" d="M 3597 1894 
L 3597 1613 
L 953 1613 
Q 991 1019 1311 708 
Q 1631 397 2203 397 
Q 2534 397 2845 478 
Q 3156 559 3463 722 
L 3463 178 
Q 3153 47 2828 -22 
Q 2503 -91 2169 -91 
Q 1331 -91 842 396 
Q 353 884 353 1716 
Q 353 2575 817 3079 
Q 1281 3584 2069 3584 
Q 2775 3584 3186 3129 
Q 3597 2675 3597 1894 
z
M 3022 2063 
Q 3016 2534 2758 2815 
Q 2500 3097 2075 3097 
Q 1594 3097 1305 2825 
Q 1016 2553 972 2059 
L 3022 2063 
z
" transform="scale(0.015625)"/>
       <path id="DejaVuSans-74" d="M 1172 4494 
L 1172 3500 
L 2356 3500 
L 2356 3053 
L 1172 3053 
L 1172 1153 
Q 1172 725 1289 603 
Q 1406 481 1766 481 
L 2356 481 
L 2356 0 
L 1766 0 
Q 1100 0 847 248 
Q 594 497 594 1153 
L 594 3053 
L 172 3053 
L 172 3500 
L 594 3500 
L 594 4494 
L 1172 4494 
z
" transform="scale(0.015625)"/>
       <path id="DejaVuSans-6e" d="M 3513 2113 
L 3513 0 
L 2938 0 
L 2938 2094 
Q 2938 2591 2744 2837 
Q 2550 3084 2163 3084 
Q 1697 3084 1428 2787 
Q 1159 2491 1159 1978 
L 1159 0 
L 581 0 
L 581 3500 
L 1159 3500 
L 1159 2956 
Q 1366 3272 1645 3428 
Q 1925 3584 2291 3584 
Q 2894 3584 3203 3211 
Q 3513 2838 3513 2113 
z
" transform="scale(0.015625)"/>
       <path id="DejaVuSans-69" d="M 603 3500 
L 1178 3500 
L 1178 0 
L 603 0 
L 603 3500 
z
M 603 4863 
L 1178 4863 
L 1178 4134 
L 603 4134 
L 603 4863 
z
" transform="scale(0.015625)"/>
       <path id="DejaVuSans-6f" d="M 1959 3097 
Q 1497 3097 1228 2736 
Q 959 2375 959 1747 
Q 959 1119 1226 758 
Q 1494 397 1959 397 
Q 2419 397 2687 759 
Q 2956 1122 2956 1747 
Q 2956 2369 2687 2733 
Q 2419 3097 1959 3097 
z
M 1959 3584 
Q 2709 3584 3137 3096 
Q 3566 2609 3566 1747 
Q 3566 888 3137 398 
Q 2709 -91 1959 -91 
Q 1206 -91 779 398 
Q 353 888 353 1747 
Q 353 2609 779 3096 
Q 1206 3584 1959 3584 
z
" transform="scale(0.015625)"/>
       <path id="DejaVuSans-20" transform="scale(0.015625)"/>
       <path id="DejaVuSans-56" d="M 1831 0 
L 50 4666 
L 709 4666 
L 2188 738 
L 3669 4666 
L 4325 4666 
L 2547 0 
L 1831 0 
z
" transform="scale(0.015625)"/>
       <path id="DejaVuSans-6c" d="M 603 4863 
L 1178 4863 
L 1178 0 
L 603 0 
L 603 4863 
z
" transform="scale(0.015625)"/>
       <path id="DejaVuSans-75" d="M 544 1381 
L 544 3500 
L 1119 3500 
L 1119 1403 
Q 1119 906 1312 657 
Q 1506 409 1894 409 
Q 2359 409 2629 706 
Q 2900 1003 2900 1516 
L 2900 3500 
L 3475 3500 
L 3475 0 
L 2900 0 
L 2900 538 
Q 2691 219 2414 64 
Q 2138 -91 1772 -91 
Q 1169 -91 856 284 
Q 544 659 544 1381 
z
M 1991 3584 
L 1991 3584 
z
" transform="scale(0.015625)"/>
       <path id="DejaVuSans-6d" d="M 3328 2828 
Q 3544 3216 3844 3400 
Q 4144 3584 4550 3584 
Q 5097 3584 5394 3201 
Q 5691 2819 5691 2113 
L 5691 0 
L 5113 0 
L 5113 2094 
Q 5113 2597 4934 2840 
Q 4756 3084 4391 3084 
Q 3944 3084 3684 2787 
Q 3425 2491 3425 1978 
L 3425 0 
L 2847 0 
L 2847 2094 
Q 2847 2600 2669 2842 
Q 2491 3084 2119 3084 
Q 1678 3084 1418 2786 
Q 1159 2488 1159 1978 
L 1159 0 
L 581 0 
L 581 3500 
L 1159 3500 
L 1159 2956 
Q 1356 3278 1631 3431 
Q 1906 3584 2284 3584 
Q 2666 3584 2933 3390 
Q 3200 3197 3328 2828 
z
" transform="scale(0.015625)"/>
       <path id="DejaVuSans-28" d="M 1984 4856 
Q 1566 4138 1362 3434 
Q 1159 2731 1159 2009 
Q 1159 1288 1364 580 
Q 1569 -128 1984 -844 
L 1484 -844 
Q 1016 -109 783 600 
Q 550 1309 550 2009 
Q 550 2706 781 3412 
Q 1013 4119 1484 4856 
L 1984 4856 
z
" transform="scale(0.015625)"/>
       <path id="DejaVuSans-4c" d="M 628 4666 
L 1259 4666 
L 1259 531 
L 3531 531 
L 3531 0 
L 628 0 
L 628 4666 
z
" transform="scale(0.015625)"/>
       <path id="DejaVuSans-29" d="M 513 4856 
L 1013 4856 
Q 1481 4119 1714 3412 
Q 1947 2706 1947 2009 
Q 1947 1309 1714 600 
Q 1481 -109 1013 -844 
L 513 -844 
Q 928 -128 1133 580 
Q 1338 1288 1338 2009 
Q 1338 2731 1133 3434 
Q 928 4138 513 4856 
z
" transform="scale(0.015625)"/>
      </defs>
      <use xlink:href="#DejaVuSans-52"/>
      <use xlink:href="#DejaVuSans-65" x="64.982422"/>
      <use xlink:href="#DejaVuSans-74" x="126.505859"/>
      <use xlink:href="#DejaVuSans-65" x="165.714844"/>
      <use xlink:href="#DejaVuSans-6e" x="227.238281"/>
      <use xlink:href="#DejaVuSans-74" x="290.617188"/>
      <use xlink:href="#DejaVuSans-69" x="329.826172"/>
      <use xlink:href="#DejaVuSans-6f" x="357.609375"/>
      <use xlink:href="#DejaVuSans-6e" x="418.791016"/>
      <use xlink:href="#DejaVuSans-20" x="482.169922"/>
      <use xlink:href="#DejaVuSans-56" x="513.957031"/>
      <use xlink:href="#DejaVuSans-6f" x="574.615234"/>
      <use xlink:href="#DejaVuSans-6c" x="635.796875"/>
      <use xlink:href="#DejaVuSans-75" x="663.580078"/>
      <use xlink:href="#DejaVuSans-6d" x="726.958984"/>
      <use xlink:href="#DejaVuSans-65" x="824.371094"/>
      <use xlink:href="#DejaVuSans-20" x="885.894531"/>
      <use xlink:href="#DejaVuSans-28" x="917.681641"/>
      <use xlink:href="#DejaVuSans-6d" x="956.695312"/>
      <use xlink:href="#DejaVuSans-4c" x="1054.107422"/>
      <use xlink:href="#DejaVuSans-29" x="1109.820312"/>
     </g>
    </g>
   </g>
   <g id="matplotlib.axis_2">
    <g id="ytick_1">
     <g id="line2d_10">
      <defs>
       <path id="m2fab2056c3" d="M 0 0 
L -3.5 0 
" style="stroke: #000000; stroke-width: 0.8"/>
      </defs>
      <g>
       <use xlink:href="#m2fab2056c3" x="57.6" y="291.407586" style="stroke: #000000; stroke-width: 0.8"/>
      </g>
     </g>
     <g id="text_11">
      <!-- 0 -->
      <g transform="translate(44.2375 295.206805) scale(0.1 -0.1)">
       <use xlink:href="#DejaVuSans-30"/>
      </g>
     </g>
    </g>
    <g id="ytick_2">
     <g id="line2d_11">
      <g>
       <use xlink:href="#m2fab2056c3" x="57.6" y="255.986043" style="stroke: #000000; stroke-width: 0.8"/>
      </g>
     </g>
     <g id="text_12">
      <!-- 200 -->
      <g transform="translate(31.5125 259.785261) scale(0.1 -0.1)">
       <use xlink:href="#DejaVuSans-32"/>
       <use xlink:href="#DejaVuSans-30" x="63.623047"/>
       <use xlink:href="#DejaVuSans-30" x="127.246094"/>
      </g>
     </g>
    </g>
    <g id="ytick_3">
     <g id="line2d_12">
      <g>
       <use xlink:href="#m2fab2056c3" x="57.6" y="220.564499" style="stroke: #000000; stroke-width: 0.8"/>
      </g>
     </g>
     <g id="text_13">
      <!-- 400 -->
      <g transform="translate(31.5125 224.363718) scale(0.1 -0.1)">
       <defs>
        <path id="DejaVuSans-34" d="M 2419 4116 
L 825 1625 
L 2419 1625 
L 2419 4116 
z
M 2253 4666 
L 3047 4666 
L 3047 1625 
L 3713 1625 
L 3713 1100 
L 3047 1100 
L 3047 0 
L 2419 0 
L 2419 1100 
L 313 1100 
L 313 1709 
L 2253 4666 
z
" transform="scale(0.015625)"/>
       </defs>
       <use xlink:href="#DejaVuSans-34"/>
       <use xlink:href="#DejaVuSans-30" x="63.623047"/>
       <use xlink:href="#DejaVuSans-30" x="127.246094"/>
      </g>
     </g>
    </g>
    <g id="ytick_4">
     <g id="line2d_13">
      <g>
       <use xlink:href="#m2fab2056c3" x="57.6" y="185.142956" style="stroke: #000000; stroke-width: 0.8"/>
      </g>
     </g>
     <g id="text_14">
      <!-- 600 -->
      <g transform="translate(31.5125 188.942174) scale(0.1 -0.1)">
       <defs>
        <path id="DejaVuSans-36" d="M 2113 2584 
Q 1688 2584 1439 2293 
Q 1191 2003 1191 1497 
Q 1191 994 1439 701 
Q 1688 409 2113 409 
Q 2538 409 2786 701 
Q 3034 994 3034 1497 
Q 3034 2003 2786 2293 
Q 2538 2584 2113 2584 
z
M 3366 4563 
L 3366 3988 
Q 3128 4100 2886 4159 
Q 2644 4219 2406 4219 
Q 1781 4219 1451 3797 
Q 1122 3375 1075 2522 
Q 1259 2794 1537 2939 
Q 1816 3084 2150 3084 
Q 2853 3084 3261 2657 
Q 3669 2231 3669 1497 
Q 3669 778 3244 343 
Q 2819 -91 2113 -91 
Q 1303 -91 875 529 
Q 447 1150 447 2328 
Q 447 3434 972 4092 
Q 1497 4750 2381 4750 
Q 2619 4750 2861 4703 
Q 3103 4656 3366 4563 
z
" transform="scale(0.015625)"/>
       </defs>
       <use xlink:href="#DejaVuSans-36"/>
       <use xlink:href="#DejaVuSans-30" x="63.623047"/>
       <use xlink:href="#DejaVuSans-30" x="127.246094"/>
      </g>
     </g>
    </g>
    <g id="ytick_5">
     <g id="line2d_14">
      <g>
       <use xlink:href="#m2fab2056c3" x="57.6" y="149.721412" style="stroke: #000000; stroke-width: 0.8"/>
      </g>
     </g>
     <g id="text_15">
      <!-- 800 -->
      <g transform="translate(31.5125 153.520631) scale(0.1 -0.1)">
       <defs>
        <path id="DejaVuSans-38" d="M 2034 2216 
Q 1584 2216 1326 1975 
Q 1069 1734 1069 1313 
Q 1069 891 1326 650 
Q 1584 409 2034 409 
Q 2484 409 2743 651 
Q 3003 894 3003 1313 
Q 3003 1734 2745 1975 
Q 2488 2216 2034 2216 
z
M 1403 2484 
Q 997 2584 770 2862 
Q 544 3141 544 3541 
Q 544 4100 942 4425 
Q 1341 4750 2034 4750 
Q 2731 4750 3128 4425 
Q 3525 4100 3525 3541 
Q 3525 3141 3298 2862 
Q 3072 2584 2669 2484 
Q 3125 2378 3379 2068 
Q 3634 1759 3634 1313 
Q 3634 634 3220 271 
Q 2806 -91 2034 -91 
Q 1263 -91 848 271 
Q 434 634 434 1313 
Q 434 1759 690 2068 
Q 947 2378 1403 2484 
z
M 1172 3481 
Q 1172 3119 1398 2916 
Q 1625 2713 2034 2713 
Q 2441 2713 2670 2916 
Q 2900 3119 2900 3481 
Q 2900 3844 2670 4047 
Q 2441 4250 2034 4250 
Q 1625 4250 1398 4047 
Q 1172 3844 1172 3481 
z
" transform="scale(0.015625)"/>
       </defs>
       <use xlink:href="#DejaVuSans-38"/>
       <use xlink:href="#DejaVuSans-30" x="63.623047"/>
       <use xlink:href="#DejaVuSans-30" x="127.246094"/>
      </g>
     </g>
    </g>
    <g id="ytick_6">
     <g id="line2d_15">
      <g>
       <use xlink:href="#m2fab2056c3" x="57.6" y="114.299869" style="stroke: #000000; stroke-width: 0.8"/>
      </g>
     </g>
     <g id="text_16">
      <!-- 1000 -->
      <g transform="translate(25.15 118.099087) scale(0.1 -0.1)">
       <use xlink:href="#DejaVuSans-31"/>
       <use xlink:href="#DejaVuSans-30" x="63.623047"/>
       <use xlink:href="#DejaVuSans-30" x="127.246094"/>
       <use xlink:href="#DejaVuSans-30" x="190.869141"/>
      </g>
     </g>
    </g>
    <g id="ytick_7">
     <g id="line2d_16">
      <g>
       <use xlink:href="#m2fab2056c3" x="57.6" y="78.878325" style="stroke: #000000; stroke-width: 0.8"/>
      </g>
     </g>
     <g id="text_17">
      <!-- 1200 -->
      <g transform="translate(25.15 82.677544) scale(0.1 -0.1)">
       <use xlink:href="#DejaVuSans-31"/>
       <use xlink:href="#DejaVuSans-32" x="63.623047"/>
       <use xlink:href="#DejaVuSans-30" x="127.246094"/>
       <use xlink:href="#DejaVuSans-30" x="190.869141"/>
      </g>
     </g>
    </g>
    <g id="ytick_8">
     <g id="line2d_17">
      <g>
       <use xlink:href="#m2fab2056c3" x="57.6" y="43.456782" style="stroke: #000000; stroke-width: 0.8"/>
      </g>
     </g>
     <g id="text_18">
      <!-- 1400 -->
      <g transform="translate(25.15 47.256) scale(0.1 -0.1)">
       <use xlink:href="#DejaVuSans-31"/>
       <use xlink:href="#DejaVuSans-34" x="63.623047"/>
       <use xlink:href="#DejaVuSans-30" x="127.246094"/>
       <use xlink:href="#DejaVuSans-30" x="190.869141"/>
      </g>
     </g>
    </g>
    <g id="text_19">
     <!-- Intensity -->
     <g transform="translate(19.070312 196.2905) rotate(-90) scale(0.1 -0.1)">
      <defs>
       <path id="DejaVuSans-49" d="M 628 4666 
L 1259 4666 
L 1259 0 
L 628 0 
L 628 4666 
z
" transform="scale(0.015625)"/>
       <path id="DejaVuSans-73" d="M 2834 3397 
L 2834 2853 
Q 2591 2978 2328 3040 
Q 2066 3103 1784 3103 
Q 1356 3103 1142 2972 
Q 928 2841 928 2578 
Q 928 2378 1081 2264 
Q 1234 2150 1697 2047 
L 1894 2003 
Q 2506 1872 2764 1633 
Q 3022 1394 3022 966 
Q 3022 478 2636 193 
Q 2250 -91 1575 -91 
Q 1294 -91 989 -36 
Q 684 19 347 128 
L 347 722 
Q 666 556 975 473 
Q 1284 391 1588 391 
Q 1994 391 2212 530 
Q 2431 669 2431 922 
Q 2431 1156 2273 1281 
Q 2116 1406 1581 1522 
L 1381 1569 
Q 847 1681 609 1914 
Q 372 2147 372 2553 
Q 372 3047 722 3315 
Q 1072 3584 1716 3584 
Q 2034 3584 2315 3537 
Q 2597 3491 2834 3397 
z
" transform="scale(0.015625)"/>
       <path id="DejaVuSans-79" d="M 2059 -325 
Q 1816 -950 1584 -1140 
Q 1353 -1331 966 -1331 
L 506 -1331 
L 506 -850 
L 844 -850 
Q 1081 -850 1212 -737 
Q 1344 -625 1503 -206 
L 1606 56 
L 191 3500 
L 800 3500 
L 1894 763 
L 2988 3500 
L 3597 3500 
L 2059 -325 
z
" transform="scale(0.015625)"/>
      </defs>
      <use xlink:href="#DejaVuSans-49"/>
      <use xlink:href="#DejaVuSans-6e" x="29.492188"/>
      <use xlink:href="#DejaVuSans-74" x="92.871094"/>
      <use xlink:href="#DejaVuSans-65" x="132.080078"/>
      <use xlink:href="#DejaVuSans-6e" x="193.603516"/>
      <use xlink:href="#DejaVuSans-73" x="256.982422"/>
      <use xlink:href="#DejaVuSans-69" x="309.082031"/>
      <use xlink:href="#DejaVuSans-74" x="336.865234"/>
      <use xlink:href="#DejaVuSans-79" x="376.074219"/>
     </g>
    </g>
   </g>
   <g id="line2d_18">
    <path d="M 73.832727 289.865252 
L 74.040756 289.849834 
L 74.249034 286.469369 
L 74.457063 285.74552 
L 75.497706 284.78289 
L 75.913763 284.220731 
L 76.33007 283.835679 
L 76.538099 283.997369 
L 76.954406 284.497855 
L 77.162434 284.659545 
L 77.78677 284.61329 
L 78.203077 283.696915 
L 78.827413 281.702476 
L 79.035441 281.50995 
L 79.24372 281.671639 
L 80.076084 283.558151 
L 80.284113 283.719841 
L 80.70042 283.334789 
L 80.908448 283.319371 
L 81.532784 283.804439 
L 81.949091 283.419387 
L 82.15712 283.403969 
L 82.365398 283.565659 
L 82.781455 284.420361 
L 83.197762 285.452171 
L 83.405791 285.61386 
L 83.614069 285.598442 
L 84.030127 285.21339 
L 84.238405 285.197972 
L 85.070769 286.376053 
L 85.278798 286.537743 
L 85.487076 286.345217 
L 85.695105 286.329799 
L 86.735748 284.48163 
L 86.943776 284.466212 
L 87.568112 284.951281 
L 87.984419 284.920444 
L 88.192448 284.727918 
L 88.400476 284.7125 
L 89.23309 285.890581 
L 89.441119 285.698055 
L 90.273483 284.042413 
L 90.481762 284.204103 
L 90.897819 285.058805 
L 91.314126 286.267722 
L 91.730433 286.768209 
L 92.979104 285.613053 
L 93.395162 284.696678 
L 93.60344 284.327045 
L 93.811469 284.311627 
L 94.019497 284.473316 
L 94.435804 284.973803 
L 94.643833 284.781277 
L 94.852111 284.765859 
L 95.06014 284.573333 
L 95.476447 284.542496 
L 95.684476 284.34997 
L 96.308811 283.418177 
L 96.51684 283.225651 
L 96.725118 283.387341 
L 97.765511 285.081327 
L 97.97379 285.065909 
L 99.014182 284.103279 
L 99.222461 284.087861 
L 99.43049 283.895335 
L 100.054825 283.84908 
L 101.095468 285.365959 
L 101.303497 285.350541 
L 101.719804 285.67392 
L 102.135861 286.528622 
L 102.552168 287.737539 
L 102.760196 288.076337 
L 102.968475 288.060918 
L 103.384532 287.144543 
L 103.800839 285.696845 
L 104.008868 285.504319 
L 104.841482 286.151077 
L 105.673846 285.380974 
L 105.881875 285.365555 
L 106.50621 285.850624 
L 106.714489 285.658098 
L 106.922517 285.64268 
L 107.130546 285.804369 
L 107.546853 286.659071 
L 107.96316 287.513774 
L 108.171189 287.675463 
L 108.587496 287.644627 
L 109.003553 287.259575 
L 109.41986 286.3432 
L 109.836167 285.78104 
L 110.044196 285.94273 
L 110.87656 287.120811 
L 111.500896 287.605879 
L 111.917203 287.575043 
L 112.125231 287.382517 
L 112.33351 287.367099 
L 112.957845 288.206383 
L 113.165874 288.190965 
L 113.582181 287.27459 
L 113.998238 286.358215 
L 115.871245 283.20862 
L 116.287552 283.177783 
L 116.703859 284.032485 
L 117.328195 285.757308 
L 117.536224 285.918997 
L 118.160559 285.872743 
L 118.368588 286.034432 
L 118.992924 286.873716 
L 119.201202 286.858298 
L 119.825538 287.343367 
L 120.033566 287.150841 
L 120.449873 287.120004 
L 120.657902 287.281694 
L 121.074209 287.250857 
L 121.282238 287.058331 
L 122.114602 284.340043 
L 122.32288 284.324625 
L 122.947216 286.757878 
L 123.363273 288.321011 
L 123.77958 288.998605 
L 124.195887 288.967769 
L 124.820223 288.390191 
L 125.444559 287.458398 
L 126.068894 287.412143 
L 126.69323 288.251427 
L 126.901259 288.413117 
L 127.109287 288.220591 
L 128.14993 288.1435 
L 129.190573 287.18087 
L 129.60663 287.504249 
L 130.439244 287.442576 
L 130.647273 287.250051 
L 130.855301 287.41174 
L 131.687915 288.944037 
L 132.312251 290.314644 
L 132.52028 290.653441 
L 132.936587 290.607493 
L 133.352644 290.20733 
L 134.185258 288.87568 
L 134.809594 288.806759 
L 135.017622 288.606677 
L 135.225651 288.583703 
L 135.641958 288.18354 
L 136.266294 288.114618 
L 136.682601 288.422886 
L 136.890629 288.399912 
L 137.098658 288.554046 
L 137.514965 288.508098 
L 137.722994 288.662232 
L 138.139301 289.147607 
L 138.555608 289.455874 
L 138.763636 289.255793 
L 138.971665 289.409927 
L 139.179943 289.386953 
L 139.387972 289.541087 
L 139.596001 289.518113 
L 140.012308 289.82638 
L 140.636643 290.642997 
L 140.844672 290.442915 
L 141.677286 288.225727 
L 141.885315 288.202753 
L 142.50965 289.373586 
L 142.717679 289.881935 
L 143.133986 291.429957 
L 143.342015 291.938537 
L 143.550293 291.744438 
L 144.590686 288.489448 
L 144.798964 288.29893 
L 145.215022 288.272109 
L 145.4233 288.435806 
L 145.839357 288.408985 
L 146.671971 289.595098 
L 146.88 289.758795 
L 147.088029 289.745385 
L 147.296307 289.554867 
L 147.504336 289.541456 
L 147.920643 289.16042 
L 148.3367 288.248061 
L 148.544978 287.880435 
L 148.961036 287.853614 
L 149.377343 288.181009 
L 149.79365 288.154188 
L 150.001678 288.317886 
L 150.417985 288.822388 
L 150.626014 288.808978 
L 151.042321 289.136373 
L 151.874685 290.322485 
L 152.499021 290.282254 
L 152.70705 290.445951 
L 153.331385 290.40572 
L 153.955721 290.896812 
L 154.163999 290.706294 
L 155.412671 288.677647 
L 155.620699 288.841344 
L 155.828728 288.827934 
L 156.453064 287.547949 
L 156.661342 287.003215 
L 156.869371 286.812697 
L 157.077399 286.799287 
L 157.493706 287.480897 
L 158.742378 291.473912 
L 158.950406 291.284073 
L 159.78302 289.988431 
L 159.991049 290.151567 
L 160.199078 290.49181 
L 160.407356 290.477838 
L 160.615385 290.286759 
L 161.031692 289.727491 
L 161.23972 289.536412 
L 162.072085 289.480524 
L 162.280363 289.289444 
L 162.69642 289.261501 
L 163.737063 290.78561 
L 164.361399 290.212371 
L 164.569427 290.375507 
L 165.193763 291.927587 
L 165.61007 291.916303 
L 166.026377 291.391682 
L 166.234406 291.395684 
L 166.442434 291.576672 
L 166.650713 291.58231 
L 166.858741 291.412661 
L 167.275048 290.187928 
L 167.691106 288.963195 
L 167.899384 288.793598 
L 168.107413 288.801108 
L 168.315441 288.985726 
L 168.939777 290.070904 
L 169.148055 290.078415 
L 169.772391 288.861192 
L 169.98042 289.045811 
L 170.396727 289.94637 
L 170.604755 290.485204 
L 170.812784 290.669822 
L 171.43712 290.161031 
L 171.853427 290.176052 
L 172.061455 290.36067 
L 172.477762 290.900121 
L 172.685791 291.072644 
L 173.102098 290.696905 
L 174.350769 288.624832 
L 174.558798 288.604183 
L 174.767076 288.937751 
L 175.599441 292.028856 
L 175.807469 292.363529 
L 176.015748 292.356084 
L 176.431805 290.597281 
L 177.264419 285.633007 
L 177.472448 285.454584 
L 177.680476 285.45327 
L 177.888755 285.274848 
L 178.304812 284.032464 
L 178.929148 280.309259 
L 180.177819 272.508632 
L 181.010433 268.075681 
L 181.842797 265.059591 
L 182.259104 262.046131 
L 182.675162 257.438701 
L 183.091469 250.705979 
L 183.507776 238.128702 
L 183.923833 214.393638 
L 184.34014 177.729712 
L 185.380783 71.635616 
L 185.79684 53.568 
L 186.005118 53.920901 
L 186.213147 60.295464 
L 186.629454 87.390316 
L 187.878125 187.802504 
L 188.502461 217.906872 
L 189.126797 236.322131 
L 189.751132 248.361512 
L 190.375468 255.973201 
L 190.999804 261.636704 
L 191.624139 265.706238 
L 192.248475 268.181802 
L 192.872811 269.771828 
L 193.080839 269.947621 
L 193.288868 270.300522 
L 193.705175 270.297893 
L 194.121482 271.003695 
L 194.745818 272.770828 
L 195.370153 273.298207 
L 196.410546 274.885604 
L 196.618825 274.88429 
L 197.24316 276.651423 
L 197.659217 278.065656 
L 198.075524 278.417242 
L 198.491831 278.060397 
L 199.324196 278.055139 
L 199.532224 277.876717 
L 199.740503 277.521187 
L 199.948531 277.519872 
L 200.15656 277.34145 
L 200.364838 277.340136 
L 200.989174 278.575946 
L 201.61351 280.165972 
L 201.821538 280.164657 
L 202.029567 279.986235 
L 202.237845 279.453597 
L 202.653903 279.096753 
L 203.278238 280.155455 
L 203.486517 279.977033 
L 203.694545 279.975718 
L 203.902574 279.797296 
L 204.110852 279.795981 
L 204.52691 280.678891 
L 204.943217 281.5618 
L 205.151245 281.560486 
L 205.359524 281.382064 
L 205.775581 280.13968 
L 206.399917 278.36466 
L 207.648588 276.408587 
L 207.856866 276.407273 
L 208.064895 276.583066 
L 208.272924 276.935967 
L 208.481202 276.757545 
L 208.689231 276.402015 
L 209.313566 274.626994 
L 209.521595 274.271464 
L 209.729873 274.447257 
L 210.145931 275.330166 
L 211.186573 278.511532 
L 211.60288 279.394442 
L 212.018938 280.277351 
L 212.643273 281.158946 
L 213.05958 280.802102 
L 213.267609 280.446572 
L 213.475887 280.445257 
L 213.891945 281.328167 
L 214.724559 283.271093 
L 215.140616 283.799787 
L 215.348894 283.97558 
L 215.556923 283.974266 
L 216.181259 284.501645 
L 216.597566 285.384555 
L 217.846237 288.387499 
L 218.054266 288.386184 
L 218.262294 288.561977 
L 218.88663 289.62068 
L 219.094908 289.6011 
L 219.302937 289.386145 
L 219.719244 288.602021 
L 219.927273 288.564174 
L 220.135301 288.703435 
L 220.759637 289.829648 
L 220.967915 290.323125 
L 221.175944 290.451341 
L 221.383973 290.392644 
L 221.592251 290.146539 
L 222.424615 288.630797 
L 223.25698 288.354809 
L 223.673287 288.748138 
L 223.881315 288.856249 
L 224.297622 289.603793 
L 224.713929 290.705553 
L 225.129987 291.09465 
L 225.338265 291.195327 
L 225.546294 291.116708 
L 225.962601 291.305737 
L 226.170629 291.221082 
L 226.378658 290.9574 
L 226.794965 289.889681 
L 227.002994 289.444375 
L 227.211272 289.530393 
L 227.627329 290.233751 
L 228.043636 290.937109 
L 228.459943 291.095724 
L 228.667972 290.992751 
L 229.292308 289.431422 
L 229.500336 288.792907 
L 229.708615 288.685715 
L 229.916643 288.932739 
L 230.33295 289.95811 
L 230.540979 290.559349 
L 230.749008 290.797888 
L 231.165315 290.013568 
L 231.581622 288.865922 
L 231.997679 288.426706 
L 232.205957 288.47276 
L 233.038322 289.365406 
L 233.454629 289.457513 
L 233.662657 289.326459 
L 234.286993 287.870651 
L 234.7033 287.962758 
L 234.911329 287.831704 
L 235.951971 286.468003 
L 236.16 286.691165 
L 236.368029 286.737219 
L 236.992364 287.406703 
L 237.200643 287.452757 
L 237.6167 286.659326 
L 238.241036 285.203517 
L 238.657343 285.295625 
L 239.281678 286.496432 
L 239.489707 286.365378 
L 240.322321 283.892977 
L 240.53035 283.939031 
L 241.362714 285.540108 
L 241.570992 285.409054 
L 241.98705 285.501161 
L 242.403357 286.301699 
L 242.611385 286.347753 
L 242.819664 286.216699 
L 243.235721 285.423268 
L 243.652028 284.452729 
L 243.860057 284.498783 
L 244.068335 284.721944 
L 244.484392 285.345375 
L 244.692671 285.391429 
L 244.900699 285.260375 
L 245.317006 284.821159 
L 246.357399 284.165889 
L 246.773706 284.612212 
L 247.190013 284.704319 
L 247.606071 284.265104 
L 248.230406 284.403265 
L 249.271049 282.862456 
L 249.479078 282.90851 
L 250.51972 284.024317 
L 250.727749 284.070371 
L 250.936027 284.293533 
L 251.144056 284.339586 
L 251.352085 284.208532 
L 251.97642 283.461155 
L 252.184699 283.330101 
L 252.392727 283.021939 
L 253.849427 278.739515 
L 254.057706 278.962676 
L 255.098099 280.786914 
L 255.930713 280.262698 
L 256.138741 279.777429 
L 256.763077 277.258974 
L 257.179384 276.819758 
L 257.80372 277.843458 
L 258.011748 277.889512 
L 258.636084 278.558996 
L 260.092784 278.881372 
L 260.509091 278.087941 
L 261.133427 276.277918 
L 261.341455 275.969756 
L 261.549734 276.01581 
L 262.590127 279.611125 
L 262.798405 279.657179 
L 263.422741 278.555586 
L 264.047076 277.099777 
L 264.463134 276.837669 
L 266.128112 274.549483 
L 266.336141 274.41843 
L 266.544419 274.110268 
L 266.752448 274.156322 
L 267.168755 274.602644 
L 267.79309 274.209482 
L 268.001119 274.255536 
L 268.209148 274.478698 
L 268.625455 274.570805 
L 269.24979 273.823428 
L 270.498462 274.09975 
L 270.914769 273.837642 
L 271.122797 273.52948 
L 271.539104 273.621588 
L 271.955162 274.245018 
L 272.16344 274.291072 
L 272.579497 273.497641 
L 273.203833 271.864725 
L 274.660783 269.884701 
L 274.868811 270.107862 
L 275.285118 270.731293 
L 275.493147 270.777347 
L 276.325511 269.5447 
L 276.53379 269.590753 
L 277.366154 270.483399 
L 277.782461 270.575507 
L 278.198518 270.313399 
L 279.031132 268.549429 
L 279.239161 268.418375 
L 279.447189 268.464428 
L 279.863497 267.670997 
L 280.279804 265.992028 
L 280.695861 264.667273 
L 281.112168 265.113596 
L 281.736503 265.251757 
L 282.152811 265.69808 
L 282.568868 265.790188 
L 282.777146 265.482026 
L 283.193203 264.334379 
L 283.401482 264.203325 
L 283.60951 264.426487 
L 283.817539 264.295433 
L 284.025818 264.341487 
L 284.233846 264.210433 
L 284.650153 264.30254 
L 285.274489 263.909378 
L 285.690546 263.293055 
L 286.52316 260.997762 
L 286.731189 260.866708 
L 286.939217 260.912761 
L 287.563553 261.582246 
L 287.771831 261.628299 
L 288.187889 261.366191 
L 288.396167 261.412245 
L 288.604196 261.635407 
L 289.228531 264.430183 
L 289.43656 264.830453 
L 289.644838 264.876506 
L 290.477203 263.466752 
L 290.89351 262.319105 
L 291.517845 260.154866 
L 292.142181 258.344842 
L 292.558238 257.728519 
L 292.766517 257.95168 
L 292.974545 257.997734 
L 293.182574 258.220896 
L 293.80691 257.827734 
L 294.223217 257.034303 
L 295.263859 253.899525 
L 295.471888 254.299794 
L 295.679917 255.585601 
L 296.096224 260.636725 
L 296.512531 270.469757 
L 297.344895 290.312928 
L 297.761202 295.014235 
L 297.969231 295.488 
L 298.177259 294.613622 
L 298.801595 288.630621 
L 299.425931 283.18673 
L 299.842238 280.679151 
L 300.258545 279.234219 
L 300.466573 278.777414 
L 300.674602 278.674825 
L 300.88288 278.926451 
L 301.090909 279.355185 
L 301.298938 279.429704 
L 301.507216 279.327115 
L 301.715245 279.047418 
L 302.131552 277.602485 
L 302.547609 275.094907 
L 304.212587 263.64773 
L 304.628894 262.734121 
L 305.25323 262.072138 
L 305.669287 261.86696 
L 305.877566 262.118586 
L 307.126237 264.513882 
L 307.334266 264.411293 
L 307.542294 264.485811 
L 307.750573 264.383222 
L 307.958601 264.457741 
L 308.16663 264.178044 
L 308.582937 262.733111 
L 309.207273 259.945836 
L 309.62358 259.209334 
L 309.831608 259.283853 
L 310.039637 259.535479 
L 310.455944 260.215839 
L 310.872251 260.010661 
L 311.288308 259.628375 
L 311.704615 259.777412 
L 311.912644 260.029038 
L 312.328951 261.063614 
L 312.953287 262.881139 
L 313.161315 263.132765 
L 313.369594 263.207284 
L 313.577622 263.104694 
L 313.993929 262.368193 
L 314.201958 262.088496 
L 314.409987 262.163014 
L 314.826294 261.957836 
L 315.034322 262.032355 
L 315.242601 262.283981 
L 316.074965 264.707348 
L 316.907329 265.713853 
L 317.115608 265.788371 
L 317.323636 265.685782 
L 317.947972 264.846691 
L 318.156001 264.92121 
L 318.364279 265.172836 
L 318.988615 266.990361 
L 319.196643 267.06488 
L 319.404672 266.96229 
L 320.029008 265.591877 
L 320.237286 265.489287 
L 320.445315 265.740914 
L 321.06965 266.850008 
L 321.277679 266.924526 
L 322.110293 266.51417 
L 322.318322 266.765796 
L 322.734629 266.914833 
L 323.775022 266.401887 
L 324.399357 265.385689 
L 324.815664 264.649187 
L 325.023693 264.36949 
L 325.231971 264.444009 
L 325.44 264.695635 
L 326.272364 266.233463 
L 326.480643 266.307982 
L 327.521036 264.909497 
L 327.729314 265.161123 
L 328.769707 268.013224 
L 329.186014 268.693584 
L 329.394043 268.590995 
L 329.81035 268.031601 
L 330.018378 268.10612 
L 330.226657 268.357746 
L 331.059021 270.604005 
L 331.475328 271.284365 
L 331.683357 271.358884 
L 331.891385 270.902079 
L 332.307692 268.571608 
L 332.932028 263.481932 
L 333.348335 259.380384 
L 333.972671 249.685907 
L 335.221342 226.223477 
L 335.845678 218.831401 
L 336.261735 216.855145 
L 336.470013 217.106771 
L 336.678042 218.243936 
L 337.094349 222.466451 
L 338.967356 248.994844 
L 340.007749 259.285469 
L 340.424056 262.091122 
L 340.632085 263.051179 
L 340.840363 263.479913 
L 341.048392 263.554431 
L 341.25642 263.806058 
L 341.672727 265.017741 
L 342.297063 267.720805 
L 342.505092 268.326646 
L 342.71337 268.578273 
L 342.921399 268.652791 
L 343.753763 267.00268 
L 343.962041 267.077199 
L 344.378099 268.111775 
L 344.794406 269.500566 
L 345.835048 273.061097 
L 346.251106 274.095673 
L 346.459384 274.347299 
L 346.875441 275.027659 
L 347.291748 275.530912 
L 347.916084 276.640006 
L 348.124113 276.891632 
L 348.332391 276.966151 
L 348.748448 277.469403 
L 348.956727 277.898137 
L 349.372784 277.692959 
L 349.99712 276.145437 
L 350.205398 276.219956 
L 350.413427 276.64869 
L 351.245791 279.780487 
L 351.454069 280.032114 
L 351.662098 280.106632 
L 351.870127 280.004043 
L 352.286434 279.621757 
L 352.702741 279.770794 
L 353.535105 281.308622 
L 353.743134 281.383141 
L 353.951412 281.280551 
L 354.159441 281.35507 
L 354.367469 281.606696 
L 354.575748 281.681215 
L 355.616141 282.939346 
L 355.824419 282.836757 
L 356.656783 281.895077 
L 357.489148 284.141336 
L 357.697426 284.392962 
L 357.905455 284.467481 
L 359.154126 283.851946 
L 359.362155 283.926464 
L 359.98649 284.681343 
L 360.610826 284.904898 
L 360.819104 285.156525 
L 361.235162 285.836885 
L 361.44344 286.088511 
L 362.067776 286.312067 
L 362.275804 286.209478 
L 362.483833 286.283996 
L 362.692111 286.535622 
L 363.108169 287.570198 
L 363.940783 290.330573 
L 364.148811 290.553338 
L 364.35684 290.589635 
L 364.773147 289.923889 
L 364.981175 289.392837 
L 365.397483 289.039163 
L 365.605511 289.039433 
L 365.81379 289.216812 
L 366.021818 289.217082 
L 366.438125 288.863408 
L 367.062461 289.395543 
L 367.478518 289.041869 
L 368.102854 288.157142 
L 368.519161 288.511899 
L 369.143497 289.398249 
L 370.184139 289.399602 
L 370.600196 289.045928 
L 371.016503 288.160931 
L 371.224532 287.984094 
L 371.432811 287.984364 
L 371.640839 287.807527 
L 372.057146 287.808069 
L 372.473203 288.162825 
L 373.097539 289.049176 
L 373.305818 288.872339 
L 373.930153 287.987612 
L 374.138182 287.810775 
L 374.34621 287.811045 
L 374.762517 288.165802 
L 375.178825 289.051882 
L 375.594882 290.292177 
L 375.80316 290.469555 
L 376.011189 290.469826 
L 376.219217 290.292989 
L 376.427496 289.939044 
L 376.635524 289.939315 
L 377.25986 290.47145 
L 377.884196 291.355503 
L 378.092224 291.53005 
L 378.300503 291.528766 
L 378.71656 290.640841 
L 379.132867 289.573464 
L 379.340896 289.571099 
L 380.381538 291.153242 
L 380.589567 290.973769 
L 381.005874 290.260608 
L 381.213903 290.258243 
L 381.63021 290.607728 
L 382.046517 290.602997 
L 382.254545 290.423524 
L 383.08691 288.820094 
L 383.503217 287.929825 
L 383.919524 287.925095 
L 384.543859 289.157753 
L 385.584252 291.802981 
L 385.792531 291.982318 
L 386.208588 291.293007 
L 386.624895 290.07474 
L 387.249231 289.221431 
L 387.665538 289.242918 
L 387.873566 289.076554 
L 388.081595 289.264405 
L 388.705931 290.182173 
L 389.122238 290.20366 
L 389.330266 290.037296 
L 390.16288 290.7887 
L 390.370909 290.799443 
L 390.995245 290.30035 
L 391.411552 290.321837 
L 391.827609 290.697539 
L 392.035887 290.531174 
L 393.07628 288.990922 
L 393.284559 289.178773 
L 393.492587 289.189516 
L 394.324952 289.94092 
L 394.949287 291.212904 
L 395.365594 290.880176 
L 395.573623 290.359596 
L 395.98993 290.026867 
L 396.197959 290.03761 
L 396.406237 290.225461 
L 396.614266 290.236205 
L 397.030573 289.903476 
L 397.654908 289.050167 
L 397.862937 288.883803 
L 398.070966 289.071654 
L 398.487273 290.332895 
L 398.487273 290.332895 
" clip-path="url(#p60b496bdb6)" style="fill: none; stroke: #1f77b4; stroke-width: 1.5; stroke-linecap: square"/>
   </g>
   <g id="patch_3">
    <path d="M 57.6 307.584 
L 57.6 41.472 
" style="fill: none; stroke: #000000; stroke-width: 0.8; stroke-linejoin: miter; stroke-linecap: square"/>
   </g>
   <g id="patch_4">
    <path d="M 414.72 307.584 
L 414.72 41.472 
" style="fill: none; stroke: #000000; stroke-width: 0.8; stroke-linejoin: miter; stroke-linecap: square"/>
   </g>
   <g id="patch_5">
    <path d="M 57.6 307.584 
L 414.72 307.584 
" style="fill: none; stroke: #000000; stroke-width: 0.8; stroke-linejoin: miter; stroke-linecap: square"/>
   </g>
   <g id="patch_6">
    <path d="M 57.6 41.472 
L 414.72 41.472 
" style="fill: none; stroke: #000000; stroke-width: 0.8; stroke-linejoin: miter; stroke-linecap: square"/>
   </g>
  </g>
 </g>
 <defs>
  <clipPath id="p60b496bdb6">
   <rect x="57.6" y="41.472" width="357.12" height="266.112"/>
  </clipPath>
 </defs>
</svg>
