<?xml version="1.0" encoding="utf-8" standalone="no"?>
<!DOCTYPE svg PUBLIC "-//W3C//DTD SVG 1.1//EN"
  "http://www.w3.org/Graphics/SVG/1.1/DTD/svg11.dtd">
<svg xmlns:xlink="http://www.w3.org/1999/xlink" width="460.8pt" height="345.6pt" viewBox="0 0 460.8 345.6" xmlns="http://www.w3.org/2000/svg" version="1.1">
 <metadata>
  <rdf:RDF xmlns:dc="http://purl.org/dc/elements/1.1/" xmlns:cc="http://creativecommons.org/ns#" xmlns:rdf="http://www.w3.org/1999/02/22-rdf-syntax-ns#">
   <cc:Work>
    <dc:type rdf:resource="http://purl.org/dc/dcmitype/StillImage"/>
    <dc:date>2025-01-07T20:19:45.645116</dc:date>
    <dc:format>image/svg+xml</dc:format>
    <dc:creator>
     <cc:Agent>
      <dc:title>Matplotlib v3.8.0, https://matplotlib.org/</dc:title>
     </cc:Agent>
    </dc:creator>
   </cc:Work>
  </rdf:RDF>
 </metadata>
 <defs>
  <style type="text/css">*{stroke-linejoin: round; stroke-linecap: butt}</style>
 </defs>
 <g id="figure_1">
  <g id="patch_1">
   <path d="M 0 345.6 
L 460.8 345.6 
L 460.8 0 
L 0 0 
z
" style="fill: #ffffff"/>
  </g>
  <g id="axes_1">
   <g id="patch_2">
    <path d="M 57.6 307.584 
L 414.72 307.584 
L 414.72 41.472 
L 57.6 41.472 
z
" style="fill: #ffffff"/>
   </g>
   <g id="matplotlib.axis_1">
    <g id="xtick_1">
     <g id="line2d_1">
      <defs>
       <path id="m322216ebdc" d="M 0 0 
L 0 3.5 
" style="stroke: #000000; stroke-width: 0.8"/>
      </defs>
      <g>
       <use xlink:href="#m322216ebdc" x="73.832727" y="307.584" style="stroke: #000000; stroke-width: 0.8"/>
      </g>
     </g>
     <g id="text_1">
      <!-- 0.0 -->
      <g transform="translate(65.881165 322.182437) scale(0.1 -0.1)">
       <defs>
        <path id="DejaVuSans-30" d="M 2034 4250 
Q 1547 4250 1301 3770 
Q 1056 3291 1056 2328 
Q 1056 1369 1301 889 
Q 1547 409 2034 409 
Q 2525 409 2770 889 
Q 3016 1369 3016 2328 
Q 3016 3291 2770 3770 
Q 2525 4250 2034 4250 
z
M 2034 4750 
Q 2819 4750 3233 4129 
Q 3647 3509 3647 2328 
Q 3647 1150 3233 529 
Q 2819 -91 2034 -91 
Q 1250 -91 836 529 
Q 422 1150 422 2328 
Q 422 3509 836 4129 
Q 1250 4750 2034 4750 
z
" transform="scale(0.015625)"/>
        <path id="DejaVuSans-2e" d="M 684 794 
L 1344 794 
L 1344 0 
L 684 0 
L 684 794 
z
" transform="scale(0.015625)"/>
       </defs>
       <use xlink:href="#DejaVuSans-30"/>
       <use xlink:href="#DejaVuSans-2e" x="63.623047"/>
       <use xlink:href="#DejaVuSans-30" x="95.410156"/>
      </g>
     </g>
    </g>
    <g id="xtick_2">
     <g id="line2d_2">
      <g>
       <use xlink:href="#m322216ebdc" x="115.455105" y="307.584" style="stroke: #000000; stroke-width: 0.8"/>
      </g>
     </g>
     <g id="text_2">
      <!-- 2.5 -->
      <g transform="translate(107.503542 322.182437) scale(0.1 -0.1)">
       <defs>
        <path id="DejaVuSans-32" d="M 1228 531 
L 3431 531 
L 3431 0 
L 469 0 
L 469 531 
Q 828 903 1448 1529 
Q 2069 2156 2228 2338 
Q 2531 2678 2651 2914 
Q 2772 3150 2772 3378 
Q 2772 3750 2511 3984 
Q 2250 4219 1831 4219 
Q 1534 4219 1204 4116 
Q 875 4013 500 3803 
L 500 4441 
Q 881 4594 1212 4672 
Q 1544 4750 1819 4750 
Q 2544 4750 2975 4387 
Q 3406 4025 3406 3419 
Q 3406 3131 3298 2873 
Q 3191 2616 2906 2266 
Q 2828 2175 2409 1742 
Q 1991 1309 1228 531 
z
" transform="scale(0.015625)"/>
        <path id="DejaVuSans-35" d="M 691 4666 
L 3169 4666 
L 3169 4134 
L 1269 4134 
L 1269 2991 
Q 1406 3038 1543 3061 
Q 1681 3084 1819 3084 
Q 2600 3084 3056 2656 
Q 3513 2228 3513 1497 
Q 3513 744 3044 326 
Q 2575 -91 1722 -91 
Q 1428 -91 1123 -41 
Q 819 9 494 109 
L 494 744 
Q 775 591 1075 516 
Q 1375 441 1709 441 
Q 2250 441 2565 725 
Q 2881 1009 2881 1497 
Q 2881 1984 2565 2268 
Q 2250 2553 1709 2553 
Q 1456 2553 1204 2497 
Q 953 2441 691 2322 
L 691 4666 
z
" transform="scale(0.015625)"/>
       </defs>
       <use xlink:href="#DejaVuSans-32"/>
       <use xlink:href="#DejaVuSans-2e" x="63.623047"/>
       <use xlink:href="#DejaVuSans-35" x="95.410156"/>
      </g>
     </g>
    </g>
    <g id="xtick_3">
     <g id="line2d_3">
      <g>
       <use xlink:href="#m322216ebdc" x="157.077483" y="307.584" style="stroke: #000000; stroke-width: 0.8"/>
      </g>
     </g>
     <g id="text_3">
      <!-- 5.0 -->
      <g transform="translate(149.12592 322.182437) scale(0.1 -0.1)">
       <use xlink:href="#DejaVuSans-35"/>
       <use xlink:href="#DejaVuSans-2e" x="63.623047"/>
       <use xlink:href="#DejaVuSans-30" x="95.410156"/>
      </g>
     </g>
    </g>
    <g id="xtick_4">
     <g id="line2d_4">
      <g>
       <use xlink:href="#m322216ebdc" x="198.69986" y="307.584" style="stroke: #000000; stroke-width: 0.8"/>
      </g>
     </g>
     <g id="text_4">
      <!-- 7.5 -->
      <g transform="translate(190.748298 322.182437) scale(0.1 -0.1)">
       <defs>
        <path id="DejaVuSans-37" d="M 525 4666 
L 3525 4666 
L 3525 4397 
L 1831 0 
L 1172 0 
L 2766 4134 
L 525 4134 
L 525 4666 
z
" transform="scale(0.015625)"/>
       </defs>
       <use xlink:href="#DejaVuSans-37"/>
       <use xlink:href="#DejaVuSans-2e" x="63.623047"/>
       <use xlink:href="#DejaVuSans-35" x="95.410156"/>
      </g>
     </g>
    </g>
    <g id="xtick_5">
     <g id="line2d_5">
      <g>
       <use xlink:href="#m322216ebdc" x="240.322238" y="307.584" style="stroke: #000000; stroke-width: 0.8"/>
      </g>
     </g>
     <g id="text_5">
      <!-- 10.0 -->
      <g transform="translate(229.189425 322.182437) scale(0.1 -0.1)">
       <defs>
        <path id="DejaVuSans-31" d="M 794 531 
L 1825 531 
L 1825 4091 
L 703 3866 
L 703 4441 
L 1819 4666 
L 2450 4666 
L 2450 531 
L 3481 531 
L 3481 0 
L 794 0 
L 794 531 
z
" transform="scale(0.015625)"/>
       </defs>
       <use xlink:href="#DejaVuSans-31"/>
       <use xlink:href="#DejaVuSans-30" x="63.623047"/>
       <use xlink:href="#DejaVuSans-2e" x="127.246094"/>
       <use xlink:href="#DejaVuSans-30" x="159.033203"/>
      </g>
     </g>
    </g>
    <g id="xtick_6">
     <g id="line2d_6">
      <g>
       <use xlink:href="#m322216ebdc" x="281.944615" y="307.584" style="stroke: #000000; stroke-width: 0.8"/>
      </g>
     </g>
     <g id="text_6">
      <!-- 12.5 -->
      <g transform="translate(270.811803 322.182437) scale(0.1 -0.1)">
       <use xlink:href="#DejaVuSans-31"/>
       <use xlink:href="#DejaVuSans-32" x="63.623047"/>
       <use xlink:href="#DejaVuSans-2e" x="127.246094"/>
       <use xlink:href="#DejaVuSans-35" x="159.033203"/>
      </g>
     </g>
    </g>
    <g id="xtick_7">
     <g id="line2d_7">
      <g>
       <use xlink:href="#m322216ebdc" x="323.566993" y="307.584" style="stroke: #000000; stroke-width: 0.8"/>
      </g>
     </g>
     <g id="text_7">
      <!-- 15.0 -->
      <g transform="translate(312.434181 322.182437) scale(0.1 -0.1)">
       <use xlink:href="#DejaVuSans-31"/>
       <use xlink:href="#DejaVuSans-35" x="63.623047"/>
       <use xlink:href="#DejaVuSans-2e" x="127.246094"/>
       <use xlink:href="#DejaVuSans-30" x="159.033203"/>
      </g>
     </g>
    </g>
    <g id="xtick_8">
     <g id="line2d_8">
      <g>
       <use xlink:href="#m322216ebdc" x="365.189371" y="307.584" style="stroke: #000000; stroke-width: 0.8"/>
      </g>
     </g>
     <g id="text_8">
      <!-- 17.5 -->
      <g transform="translate(354.056558 322.182437) scale(0.1 -0.1)">
       <use xlink:href="#DejaVuSans-31"/>
       <use xlink:href="#DejaVuSans-37" x="63.623047"/>
       <use xlink:href="#DejaVuSans-2e" x="127.246094"/>
       <use xlink:href="#DejaVuSans-35" x="159.033203"/>
      </g>
     </g>
    </g>
    <g id="xtick_9">
     <g id="line2d_9">
      <g>
       <use xlink:href="#m322216ebdc" x="406.811748" y="307.584" style="stroke: #000000; stroke-width: 0.8"/>
      </g>
     </g>
     <g id="text_9">
      <!-- 20.0 -->
      <g transform="translate(395.678936 322.182437) scale(0.1 -0.1)">
       <use xlink:href="#DejaVuSans-32"/>
       <use xlink:href="#DejaVuSans-30" x="63.623047"/>
       <use xlink:href="#DejaVuSans-2e" x="127.246094"/>
       <use xlink:href="#DejaVuSans-30" x="159.033203"/>
      </g>
     </g>
    </g>
    <g id="text_10">
     <!-- Retention Volume (mL) -->
     <g transform="translate(178.718594 335.860562) scale(0.1 -0.1)">
      <defs>
       <path id="DejaVuSans-52" d="M 2841 2188 
Q 3044 2119 3236 1894 
Q 3428 1669 3622 1275 
L 4263 0 
L 3584 0 
L 2988 1197 
Q 2756 1666 2539 1819 
Q 2322 1972 1947 1972 
L 1259 1972 
L 1259 0 
L 628 0 
L 628 4666 
L 2053 4666 
Q 2853 4666 3247 4331 
Q 3641 3997 3641 3322 
Q 3641 2881 3436 2590 
Q 3231 2300 2841 2188 
z
M 1259 4147 
L 1259 2491 
L 2053 2491 
Q 2509 2491 2742 2702 
Q 2975 2913 2975 3322 
Q 2975 3731 2742 3939 
Q 2509 4147 2053 4147 
L 1259 4147 
z
" transform="scale(0.015625)"/>
       <path id="DejaVuSans-65" d="M 3597 1894 
L 3597 1613 
L 953 1613 
Q 991 1019 1311 708 
Q 1631 397 2203 397 
Q 2534 397 2845 478 
Q 3156 559 3463 722 
L 3463 178 
Q 3153 47 2828 -22 
Q 2503 -91 2169 -91 
Q 1331 -91 842 396 
Q 353 884 353 1716 
Q 353 2575 817 3079 
Q 1281 3584 2069 3584 
Q 2775 3584 3186 3129 
Q 3597 2675 3597 1894 
z
M 3022 2063 
Q 3016 2534 2758 2815 
Q 2500 3097 2075 3097 
Q 1594 3097 1305 2825 
Q 1016 2553 972 2059 
L 3022 2063 
z
" transform="scale(0.015625)"/>
       <path id="DejaVuSans-74" d="M 1172 4494 
L 1172 3500 
L 2356 3500 
L 2356 3053 
L 1172 3053 
L 1172 1153 
Q 1172 725 1289 603 
Q 1406 481 1766 481 
L 2356 481 
L 2356 0 
L 1766 0 
Q 1100 0 847 248 
Q 594 497 594 1153 
L 594 3053 
L 172 3053 
L 172 3500 
L 594 3500 
L 594 4494 
L 1172 4494 
z
" transform="scale(0.015625)"/>
       <path id="DejaVuSans-6e" d="M 3513 2113 
L 3513 0 
L 2938 0 
L 2938 2094 
Q 2938 2591 2744 2837 
Q 2550 3084 2163 3084 
Q 1697 3084 1428 2787 
Q 1159 2491 1159 1978 
L 1159 0 
L 581 0 
L 581 3500 
L 1159 3500 
L 1159 2956 
Q 1366 3272 1645 3428 
Q 1925 3584 2291 3584 
Q 2894 3584 3203 3211 
Q 3513 2838 3513 2113 
z
" transform="scale(0.015625)"/>
       <path id="DejaVuSans-69" d="M 603 3500 
L 1178 3500 
L 1178 0 
L 603 0 
L 603 3500 
z
M 603 4863 
L 1178 4863 
L 1178 4134 
L 603 4134 
L 603 4863 
z
" transform="scale(0.015625)"/>
       <path id="DejaVuSans-6f" d="M 1959 3097 
Q 1497 3097 1228 2736 
Q 959 2375 959 1747 
Q 959 1119 1226 758 
Q 1494 397 1959 397 
Q 2419 397 2687 759 
Q 2956 1122 2956 1747 
Q 2956 2369 2687 2733 
Q 2419 3097 1959 3097 
z
M 1959 3584 
Q 2709 3584 3137 3096 
Q 3566 2609 3566 1747 
Q 3566 888 3137 398 
Q 2709 -91 1959 -91 
Q 1206 -91 779 398 
Q 353 888 353 1747 
Q 353 2609 779 3096 
Q 1206 3584 1959 3584 
z
" transform="scale(0.015625)"/>
       <path id="DejaVuSans-20" transform="scale(0.015625)"/>
       <path id="DejaVuSans-56" d="M 1831 0 
L 50 4666 
L 709 4666 
L 2188 738 
L 3669 4666 
L 4325 4666 
L 2547 0 
L 1831 0 
z
" transform="scale(0.015625)"/>
       <path id="DejaVuSans-6c" d="M 603 4863 
L 1178 4863 
L 1178 0 
L 603 0 
L 603 4863 
z
" transform="scale(0.015625)"/>
       <path id="DejaVuSans-75" d="M 544 1381 
L 544 3500 
L 1119 3500 
L 1119 1403 
Q 1119 906 1312 657 
Q 1506 409 1894 409 
Q 2359 409 2629 706 
Q 2900 1003 2900 1516 
L 2900 3500 
L 3475 3500 
L 3475 0 
L 2900 0 
L 2900 538 
Q 2691 219 2414 64 
Q 2138 -91 1772 -91 
Q 1169 -91 856 284 
Q 544 659 544 1381 
z
M 1991 3584 
L 1991 3584 
z
" transform="scale(0.015625)"/>
       <path id="DejaVuSans-6d" d="M 3328 2828 
Q 3544 3216 3844 3400 
Q 4144 3584 4550 3584 
Q 5097 3584 5394 3201 
Q 5691 2819 5691 2113 
L 5691 0 
L 5113 0 
L 5113 2094 
Q 5113 2597 4934 2840 
Q 4756 3084 4391 3084 
Q 3944 3084 3684 2787 
Q 3425 2491 3425 1978 
L 3425 0 
L 2847 0 
L 2847 2094 
Q 2847 2600 2669 2842 
Q 2491 3084 2119 3084 
Q 1678 3084 1418 2786 
Q 1159 2488 1159 1978 
L 1159 0 
L 581 0 
L 581 3500 
L 1159 3500 
L 1159 2956 
Q 1356 3278 1631 3431 
Q 1906 3584 2284 3584 
Q 2666 3584 2933 3390 
Q 3200 3197 3328 2828 
z
" transform="scale(0.015625)"/>
       <path id="DejaVuSans-28" d="M 1984 4856 
Q 1566 4138 1362 3434 
Q 1159 2731 1159 2009 
Q 1159 1288 1364 580 
Q 1569 -128 1984 -844 
L 1484 -844 
Q 1016 -109 783 600 
Q 550 1309 550 2009 
Q 550 2706 781 3412 
Q 1013 4119 1484 4856 
L 1984 4856 
z
" transform="scale(0.015625)"/>
       <path id="DejaVuSans-4c" d="M 628 4666 
L 1259 4666 
L 1259 531 
L 3531 531 
L 3531 0 
L 628 0 
L 628 4666 
z
" transform="scale(0.015625)"/>
       <path id="DejaVuSans-29" d="M 513 4856 
L 1013 4856 
Q 1481 4119 1714 3412 
Q 1947 2706 1947 2009 
Q 1947 1309 1714 600 
Q 1481 -109 1013 -844 
L 513 -844 
Q 928 -128 1133 580 
Q 1338 1288 1338 2009 
Q 1338 2731 1133 3434 
Q 928 4138 513 4856 
z
" transform="scale(0.015625)"/>
      </defs>
      <use xlink:href="#DejaVuSans-52"/>
      <use xlink:href="#DejaVuSans-65" x="64.982422"/>
      <use xlink:href="#DejaVuSans-74" x="126.505859"/>
      <use xlink:href="#DejaVuSans-65" x="165.714844"/>
      <use xlink:href="#DejaVuSans-6e" x="227.238281"/>
      <use xlink:href="#DejaVuSans-74" x="290.617188"/>
      <use xlink:href="#DejaVuSans-69" x="329.826172"/>
      <use xlink:href="#DejaVuSans-6f" x="357.609375"/>
      <use xlink:href="#DejaVuSans-6e" x="418.791016"/>
      <use xlink:href="#DejaVuSans-20" x="482.169922"/>
      <use xlink:href="#DejaVuSans-56" x="513.957031"/>
      <use xlink:href="#DejaVuSans-6f" x="574.615234"/>
      <use xlink:href="#DejaVuSans-6c" x="635.796875"/>
      <use xlink:href="#DejaVuSans-75" x="663.580078"/>
      <use xlink:href="#DejaVuSans-6d" x="726.958984"/>
      <use xlink:href="#DejaVuSans-65" x="824.371094"/>
      <use xlink:href="#DejaVuSans-20" x="885.894531"/>
      <use xlink:href="#DejaVuSans-28" x="917.681641"/>
      <use xlink:href="#DejaVuSans-6d" x="956.695312"/>
      <use xlink:href="#DejaVuSans-4c" x="1054.107422"/>
      <use xlink:href="#DejaVuSans-29" x="1109.820312"/>
     </g>
    </g>
   </g>
   <g id="matplotlib.axis_2">
    <g id="ytick_1">
     <g id="line2d_10">
      <defs>
       <path id="m6bfb4f3896" d="M 0 0 
L -3.5 0 
" style="stroke: #000000; stroke-width: 0.8"/>
      </defs>
      <g>
       <use xlink:href="#m6bfb4f3896" x="57.6" y="290.992446" style="stroke: #000000; stroke-width: 0.8"/>
      </g>
     </g>
     <g id="text_11">
      <!-- 0 -->
      <g transform="translate(44.2375 294.791665) scale(0.1 -0.1)">
       <use xlink:href="#DejaVuSans-30"/>
      </g>
     </g>
    </g>
    <g id="ytick_2">
     <g id="line2d_11">
      <g>
       <use xlink:href="#m6bfb4f3896" x="57.6" y="250.675156" style="stroke: #000000; stroke-width: 0.8"/>
      </g>
     </g>
     <g id="text_12">
      <!-- 200 -->
      <g transform="translate(31.5125 254.474375) scale(0.1 -0.1)">
       <use xlink:href="#DejaVuSans-32"/>
       <use xlink:href="#DejaVuSans-30" x="63.623047"/>
       <use xlink:href="#DejaVuSans-30" x="127.246094"/>
      </g>
     </g>
    </g>
    <g id="ytick_3">
     <g id="line2d_12">
      <g>
       <use xlink:href="#m6bfb4f3896" x="57.6" y="210.357865" style="stroke: #000000; stroke-width: 0.8"/>
      </g>
     </g>
     <g id="text_13">
      <!-- 400 -->
      <g transform="translate(31.5125 214.157084) scale(0.1 -0.1)">
       <defs>
        <path id="DejaVuSans-34" d="M 2419 4116 
L 825 1625 
L 2419 1625 
L 2419 4116 
z
M 2253 4666 
L 3047 4666 
L 3047 1625 
L 3713 1625 
L 3713 1100 
L 3047 1100 
L 3047 0 
L 2419 0 
L 2419 1100 
L 313 1100 
L 313 1709 
L 2253 4666 
z
" transform="scale(0.015625)"/>
       </defs>
       <use xlink:href="#DejaVuSans-34"/>
       <use xlink:href="#DejaVuSans-30" x="63.623047"/>
       <use xlink:href="#DejaVuSans-30" x="127.246094"/>
      </g>
     </g>
    </g>
    <g id="ytick_4">
     <g id="line2d_13">
      <g>
       <use xlink:href="#m6bfb4f3896" x="57.6" y="170.040575" style="stroke: #000000; stroke-width: 0.8"/>
      </g>
     </g>
     <g id="text_14">
      <!-- 600 -->
      <g transform="translate(31.5125 173.839793) scale(0.1 -0.1)">
       <defs>
        <path id="DejaVuSans-36" d="M 2113 2584 
Q 1688 2584 1439 2293 
Q 1191 2003 1191 1497 
Q 1191 994 1439 701 
Q 1688 409 2113 409 
Q 2538 409 2786 701 
Q 3034 994 3034 1497 
Q 3034 2003 2786 2293 
Q 2538 2584 2113 2584 
z
M 3366 4563 
L 3366 3988 
Q 3128 4100 2886 4159 
Q 2644 4219 2406 4219 
Q 1781 4219 1451 3797 
Q 1122 3375 1075 2522 
Q 1259 2794 1537 2939 
Q 1816 3084 2150 3084 
Q 2853 3084 3261 2657 
Q 3669 2231 3669 1497 
Q 3669 778 3244 343 
Q 2819 -91 2113 -91 
Q 1303 -91 875 529 
Q 447 1150 447 2328 
Q 447 3434 972 4092 
Q 1497 4750 2381 4750 
Q 2619 4750 2861 4703 
Q 3103 4656 3366 4563 
z
" transform="scale(0.015625)"/>
       </defs>
       <use xlink:href="#DejaVuSans-36"/>
       <use xlink:href="#DejaVuSans-30" x="63.623047"/>
       <use xlink:href="#DejaVuSans-30" x="127.246094"/>
      </g>
     </g>
    </g>
    <g id="ytick_5">
     <g id="line2d_14">
      <g>
       <use xlink:href="#m6bfb4f3896" x="57.6" y="129.723284" style="stroke: #000000; stroke-width: 0.8"/>
      </g>
     </g>
     <g id="text_15">
      <!-- 800 -->
      <g transform="translate(31.5125 133.522503) scale(0.1 -0.1)">
       <defs>
        <path id="DejaVuSans-38" d="M 2034 2216 
Q 1584 2216 1326 1975 
Q 1069 1734 1069 1313 
Q 1069 891 1326 650 
Q 1584 409 2034 409 
Q 2484 409 2743 651 
Q 3003 894 3003 1313 
Q 3003 1734 2745 1975 
Q 2488 2216 2034 2216 
z
M 1403 2484 
Q 997 2584 770 2862 
Q 544 3141 544 3541 
Q 544 4100 942 4425 
Q 1341 4750 2034 4750 
Q 2731 4750 3128 4425 
Q 3525 4100 3525 3541 
Q 3525 3141 3298 2862 
Q 3072 2584 2669 2484 
Q 3125 2378 3379 2068 
Q 3634 1759 3634 1313 
Q 3634 634 3220 271 
Q 2806 -91 2034 -91 
Q 1263 -91 848 271 
Q 434 634 434 1313 
Q 434 1759 690 2068 
Q 947 2378 1403 2484 
z
M 1172 3481 
Q 1172 3119 1398 2916 
Q 1625 2713 2034 2713 
Q 2441 2713 2670 2916 
Q 2900 3119 2900 3481 
Q 2900 3844 2670 4047 
Q 2441 4250 2034 4250 
Q 1625 4250 1398 4047 
Q 1172 3844 1172 3481 
z
" transform="scale(0.015625)"/>
       </defs>
       <use xlink:href="#DejaVuSans-38"/>
       <use xlink:href="#DejaVuSans-30" x="63.623047"/>
       <use xlink:href="#DejaVuSans-30" x="127.246094"/>
      </g>
     </g>
    </g>
    <g id="ytick_6">
     <g id="line2d_15">
      <g>
       <use xlink:href="#m6bfb4f3896" x="57.6" y="89.405993" style="stroke: #000000; stroke-width: 0.8"/>
      </g>
     </g>
     <g id="text_16">
      <!-- 1000 -->
      <g transform="translate(25.15 93.205212) scale(0.1 -0.1)">
       <use xlink:href="#DejaVuSans-31"/>
       <use xlink:href="#DejaVuSans-30" x="63.623047"/>
       <use xlink:href="#DejaVuSans-30" x="127.246094"/>
       <use xlink:href="#DejaVuSans-30" x="190.869141"/>
      </g>
     </g>
    </g>
    <g id="ytick_7">
     <g id="line2d_16">
      <g>
       <use xlink:href="#m6bfb4f3896" x="57.6" y="49.088703" style="stroke: #000000; stroke-width: 0.8"/>
      </g>
     </g>
     <g id="text_17">
      <!-- 1200 -->
      <g transform="translate(25.15 52.887921) scale(0.1 -0.1)">
       <use xlink:href="#DejaVuSans-31"/>
       <use xlink:href="#DejaVuSans-32" x="63.623047"/>
       <use xlink:href="#DejaVuSans-30" x="127.246094"/>
       <use xlink:href="#DejaVuSans-30" x="190.869141"/>
      </g>
     </g>
    </g>
    <g id="text_18">
     <!-- Intensity -->
     <g transform="translate(19.070312 196.2905) rotate(-90) scale(0.1 -0.1)">
      <defs>
       <path id="DejaVuSans-49" d="M 628 4666 
L 1259 4666 
L 1259 0 
L 628 0 
L 628 4666 
z
" transform="scale(0.015625)"/>
       <path id="DejaVuSans-73" d="M 2834 3397 
L 2834 2853 
Q 2591 2978 2328 3040 
Q 2066 3103 1784 3103 
Q 1356 3103 1142 2972 
Q 928 2841 928 2578 
Q 928 2378 1081 2264 
Q 1234 2150 1697 2047 
L 1894 2003 
Q 2506 1872 2764 1633 
Q 3022 1394 3022 966 
Q 3022 478 2636 193 
Q 2250 -91 1575 -91 
Q 1294 -91 989 -36 
Q 684 19 347 128 
L 347 722 
Q 666 556 975 473 
Q 1284 391 1588 391 
Q 1994 391 2212 530 
Q 2431 669 2431 922 
Q 2431 1156 2273 1281 
Q 2116 1406 1581 1522 
L 1381 1569 
Q 847 1681 609 1914 
Q 372 2147 372 2553 
Q 372 3047 722 3315 
Q 1072 3584 1716 3584 
Q 2034 3584 2315 3537 
Q 2597 3491 2834 3397 
z
" transform="scale(0.015625)"/>
       <path id="DejaVuSans-79" d="M 2059 -325 
Q 1816 -950 1584 -1140 
Q 1353 -1331 966 -1331 
L 506 -1331 
L 506 -850 
L 844 -850 
Q 1081 -850 1212 -737 
Q 1344 -625 1503 -206 
L 1606 56 
L 191 3500 
L 800 3500 
L 1894 763 
L 2988 3500 
L 3597 3500 
L 2059 -325 
z
" transform="scale(0.015625)"/>
      </defs>
      <use xlink:href="#DejaVuSans-49"/>
      <use xlink:href="#DejaVuSans-6e" x="29.492188"/>
      <use xlink:href="#DejaVuSans-74" x="92.871094"/>
      <use xlink:href="#DejaVuSans-65" x="132.080078"/>
      <use xlink:href="#DejaVuSans-6e" x="193.603516"/>
      <use xlink:href="#DejaVuSans-73" x="256.982422"/>
      <use xlink:href="#DejaVuSans-69" x="309.082031"/>
      <use xlink:href="#DejaVuSans-74" x="336.865234"/>
      <use xlink:href="#DejaVuSans-79" x="376.074219"/>
     </g>
    </g>
   </g>
   <g id="line2d_17">
    <path d="M 73.832727 287.65366 
L 74.040756 287.620574 
L 74.457063 289.368679 
L 74.665092 289.738766 
L 75.081399 289.672593 
L 75.289427 289.43792 
L 75.497706 289.404833 
L 75.705734 289.573333 
L 76.538099 290.852093 
L 76.746377 290.61742 
L 77.78677 287.629778 
L 77.995048 287.596691 
L 78.203077 287.765191 
L 78.827413 288.673864 
L 79.035441 288.439191 
L 79.451748 288.373019 
L 80.284113 289.047019 
L 80.492391 289.013932 
L 80.70042 288.779259 
L 81.532784 286.429463 
L 81.741062 286.19479 
L 81.949091 286.161703 
L 82.15712 286.330203 
L 83.405791 288.349136 
L 83.614069 288.517636 
L 83.822098 288.48455 
L 84.030127 288.249877 
L 84.446434 288.183704 
L 84.654462 288.352204 
L 85.278798 289.260877 
L 85.487076 289.429377 
L 85.695105 289.194704 
L 86.111412 289.128531 
L 86.319441 289.297031 
L 86.527469 289.263945 
L 86.735748 289.029272 
L 87.360083 287.92208 
L 87.568112 287.888994 
L 88.400476 289.167754 
L 88.608755 289.134667 
L 88.816783 288.899994 
L 89.024812 289.068494 
L 89.441119 290.010254 
L 90.065455 291.525384 
L 90.273483 291.903324 
L 90.897819 290.463343 
L 91.314126 289.441071 
L 91.522155 289.433901 
L 92.14649 290.420323 
L 92.562797 290.002809 
L 92.979104 288.577364 
L 93.60344 286.338403 
L 93.811469 285.92806 
L 94.019497 285.920889 
L 94.227776 286.316892 
L 95.06014 290.521527 
L 95.268169 290.91753 
L 95.684476 289.895257 
L 96.100783 288.469812 
L 96.51684 288.052299 
L 96.725118 288.246715 
L 97.141175 287.829202 
L 97.557483 287.210102 
L 97.765511 287.001346 
L 98.598125 286.972665 
L 99.638518 285.928882 
L 99.846797 285.921712 
L 100.054825 286.116128 
L 100.887189 287.498553 
L 101.095468 287.692969 
L 101.511525 288.686561 
L 102.135861 290.277742 
L 102.344139 290.270572 
L 102.760196 288.845127 
L 103.384532 286.807752 
L 103.592811 286.598995 
L 103.800839 286.591825 
L 104.008868 286.786242 
L 104.425175 287.779833 
L 104.841482 289.176598 
L 105.257539 289.968604 
L 105.465818 289.759847 
L 105.881875 288.737575 
L 106.714489 286.289857 
L 107.130546 286.275517 
L 107.338825 286.469933 
L 107.754882 287.060352 
L 107.96316 287.053182 
L 108.587496 286.426912 
L 108.795524 286.419742 
L 109.003553 286.614158 
L 109.41986 286.599818 
L 109.836167 286.182305 
L 110.044196 286.376721 
L 111.292867 288.752738 
L 111.500896 288.745568 
L 111.709174 288.536811 
L 112.749567 286.485096 
L 113.373903 286.463585 
L 113.582181 286.254829 
L 113.79021 286.247659 
L 113.998238 286.442075 
L 114.830852 288.026086 
L 115.24691 288.011746 
L 116.287552 286.967963 
L 116.703859 286.953622 
L 116.911888 286.744866 
L 117.536224 285.513837 
L 117.744252 285.506667 
L 117.952531 285.902669 
L 118.784895 288.897786 
L 118.992924 288.890615 
L 119.201202 288.681859 
L 119.409231 288.271516 
L 119.617259 288.264346 
L 119.825538 288.055589 
L 120.033566 288.048419 
L 120.865931 287.213393 
L 121.074209 287.407809 
L 121.490266 287.393469 
L 122.32288 285.55051 
L 122.530909 284.938581 
L 122.738938 284.729824 
L 122.947216 284.92424 
L 123.363273 285.716246 
L 123.77958 285.701905 
L 123.987609 285.493149 
L 124.403916 284.874049 
L 124.611945 285.068466 
L 124.820223 285.061295 
L 125.028252 285.255712 
L 125.652587 285.234201 
L 126.068894 285.623034 
L 127.109287 288.409394 
L 127.317566 288.60381 
L 127.525594 288.59664 
L 127.733623 288.387883 
L 128.14993 288.776716 
L 128.774266 289.763138 
L 128.982294 289.957554 
L 129.190573 289.748797 
L 129.814908 288.316182 
L 130.022937 287.704252 
L 130.230966 287.495496 
L 130.439244 287.488326 
L 131.06358 288.474747 
L 131.271608 288.467577 
L 131.479637 288.258821 
L 132.52028 286.408692 
L 132.728308 286.199935 
L 133.144615 287.193527 
L 134.185258 291.798815 
L 134.393287 291.403331 
L 135.017622 288.416761 
L 135.225651 288.025997 
L 135.433929 288.038406 
L 135.849987 288.466397 
L 136.058265 288.478806 
L 136.474322 287.495692 
L 136.890629 286.512578 
L 137.514965 285.541872 
L 137.931272 285.56669 
L 138.139301 285.780686 
L 139.179943 287.657009 
L 139.387972 287.871004 
L 139.596001 287.681827 
L 139.804279 287.694236 
L 140.012308 287.505058 
L 140.428615 287.529876 
L 140.636643 287.945458 
L 140.844672 287.957867 
L 141.05295 287.76869 
L 141.260979 287.377926 
L 141.885315 285.399288 
L 142.301622 285.424106 
L 142.717679 285.852097 
L 143.342015 285.889324 
L 143.758322 286.922074 
L 144.590686 289.189161 
L 144.798964 288.999984 
L 146.255664 286.466223 
L 147.088029 287.926964 
L 147.296307 287.939373 
L 147.712364 287.157845 
L 147.920643 287.170254 
L 148.753007 288.630995 
L 148.961036 288.643404 
L 149.377343 288.265049 
L 150.209707 288.314685 
L 150.834043 287.142393 
L 151.25035 287.570384 
L 151.458378 287.582793 
L 151.666657 287.796789 
L 152.290992 287.834016 
L 152.499021 288.249598 
L 152.70705 288.262007 
L 152.915328 288.072829 
L 153.747692 285.905014 
L 154.372028 284.732722 
L 154.788335 284.75754 
L 155.204392 285.790291 
L 155.620699 286.823041 
L 155.828728 287.238623 
L 156.245035 287.263441 
L 156.661342 287.691432 
L 156.869371 287.703841 
L 157.077399 287.514663 
L 157.701735 286.342371 
L 157.910013 286.35478 
L 158.534349 286.996767 
L 158.742378 287.009176 
L 159.158685 286.630821 
L 159.366713 286.64323 
L 160.199078 288.103971 
L 160.407356 287.914793 
L 161.031692 286.742502 
L 161.23972 286.754911 
L 161.447749 286.968906 
L 162.072085 288.618825 
L 162.280363 288.83282 
L 162.69642 288.454465 
L 163.112727 288.479283 
L 164.15337 290.349054 
L 164.361399 290.348393 
L 164.985734 289.721987 
L 165.402041 289.707556 
L 166.026377 288.677978 
L 166.234406 288.469176 
L 166.442434 288.46196 
L 167.06677 287.835555 
L 167.275048 287.425166 
L 167.483077 287.417951 
L 167.691106 287.612322 
L 168.107413 288.605823 
L 168.315441 288.800194 
L 168.52372 288.792979 
L 168.939777 288.375375 
L 169.148055 288.569746 
L 169.564113 289.563248 
L 169.772391 290.160792 
L 169.98042 290.345742 
L 170.604755 289.635631 
L 171.229091 288.444898 
L 171.43712 288.383964 
L 171.853427 287.858924 
L 172.269734 286.729124 
L 172.477762 286.466604 
L 172.685791 286.40567 
L 172.894069 286.546323 
L 173.310127 287.029215 
L 173.934462 286.846414 
L 174.350769 287.127719 
L 174.767076 285.997919 
L 175.183134 284.86812 
L 175.391412 285.008773 
L 176.015748 286.640249 
L 176.223776 286.579316 
L 176.431805 285.51045 
L 176.848112 281.760026 
L 177.472448 275.126459 
L 178.721119 264.88312 
L 179.96979 249.801707 
L 180.386097 247.663975 
L 180.802155 245.526243 
L 182.259104 236.43149 
L 182.88344 229.797922 
L 183.299497 223.023702 
L 183.715804 210.806647 
L 184.132111 189.518202 
L 185.380783 110.13071 
L 185.588811 106.239634 
L 185.79684 107.388219 
L 186.005118 112.971706 
L 186.421175 133.411657 
L 187.878125 216.441912 
L 188.502461 236.21617 
L 189.126797 246.717451 
L 189.751132 254.194935 
L 190.375468 258.648622 
L 191.832168 264.874439 
L 192.664532 267.452915 
L 193.288868 268.681219 
L 193.913203 270.111109 
L 194.32951 270.594001 
L 194.537539 270.734654 
L 194.745818 270.67372 
L 194.953846 270.4112 
L 195.161875 270.350266 
L 195.578182 270.631572 
L 195.994489 271.517637 
L 197.034882 273.430419 
L 197.659217 275.263483 
L 197.867496 275.404135 
L 198.283553 274.879095 
L 198.491831 274.414988 
L 199.116167 274.232187 
L 199.948531 272.577347 
L 200.364838 273.463412 
L 200.989174 275.296475 
L 201.197203 275.437128 
L 201.821538 273.843222 
L 202.237845 272.511836 
L 202.445874 272.249316 
L 202.653903 272.188382 
L 204.110852 273.172951 
L 204.318881 272.910431 
L 204.735188 272.183804 
L 204.943217 272.122871 
L 205.359524 273.008935 
L 205.567552 273.552761 
L 205.775581 273.693414 
L 205.983859 273.63248 
L 206.399917 273.10744 
L 206.608195 273.046506 
L 206.816224 273.187159 
L 207.232531 274.073224 
L 207.648588 274.959288 
L 207.856866 275.301528 
L 208.064895 275.240594 
L 208.272924 274.574901 
L 209.105538 270.70261 
L 209.521595 269.975983 
L 209.937902 269.450943 
L 210.145931 269.390009 
L 210.562238 270.276074 
L 211.186573 272.310724 
L 211.394602 272.24979 
L 211.60288 271.98727 
L 212.018938 270.85747 
L 212.227216 270.59495 
L 212.435245 270.534016 
L 213.05958 271.963907 
L 213.267609 272.306146 
L 213.683916 272.184279 
L 213.891945 272.324931 
L 214.100223 272.263998 
L 214.308252 272.40465 
L 214.51628 272.14213 
L 214.932587 272.020263 
L 215.556923 271.232702 
L 215.764952 271.171769 
L 216.389287 271.593727 
L 216.597566 271.532793 
L 217.221901 270.34206 
L 217.42993 270.281126 
L 217.846237 270.562432 
L 218.054266 270.501498 
L 218.470573 270.782803 
L 218.88663 271.265695 
L 219.094908 271.406348 
L 219.302937 271.143828 
L 219.719244 270.014028 
L 220.135301 269.287401 
L 220.967915 269.043667 
L 221.383973 269.526559 
L 221.592251 269.667211 
L 222.632644 269.362543 
L 223.048951 269.643848 
L 223.673287 270.670566 
L 224.089594 270.145526 
L 224.713929 268.954792 
L 225.754322 270.464402 
L 225.962601 270.403468 
L 226.170629 270.544121 
L 226.586936 270.422253 
L 226.794965 270.159733 
L 227.211272 269.029933 
L 228.459943 265.035775 
L 228.667972 264.974841 
L 229.084279 265.860906 
L 229.500336 267.150144 
L 229.708615 267.290797 
L 229.916643 267.229863 
L 230.957286 265.110916 
L 231.165315 265.251569 
L 231.997679 267.225285 
L 232.413986 267.708177 
L 232.622015 267.647244 
L 232.830293 267.384723 
L 233.24635 266.254924 
L 233.662657 265.125124 
L 233.870686 265.06419 
L 234.078964 265.204843 
L 234.495022 266.090908 
L 235.327636 268.064624 
L 235.743693 268.34593 
L 236.784336 267.033329 
L 237.408671 265.641009 
L 237.824978 265.519141 
L 238.241036 266.002033 
L 238.865371 265.819232 
L 239.07365 265.959885 
L 239.697985 266.785016 
L 239.906014 266.724082 
L 240.53035 265.130176 
L 241.154685 263.334683 
L 242.195328 262.022083 
L 242.403357 262.162735 
L 242.819664 263.451973 
L 243.443999 265.285037 
L 243.860057 265.566342 
L 244.068335 265.505408 
L 244.276364 265.242888 
L 245.941342 261.731622 
L 246.149371 261.469102 
L 246.357399 261.408168 
L 246.981735 261.830126 
L 247.190013 261.769192 
L 247.606071 261.244152 
L 247.814349 261.384805 
L 248.230406 262.674043 
L 248.854742 265.111865 
L 249.06302 265.454105 
L 249.271049 265.393171 
L 249.895385 264.202437 
L 250.727749 263.152357 
L 251.144056 262.224144 
L 251.352085 262.16321 
L 251.560363 262.303863 
L 252.184699 263.128994 
L 252.600756 263.007126 
L 253.017063 263.288432 
L 253.43337 263.97291 
L 253.849427 263.851043 
L 254.473763 262.257137 
L 254.89007 261.127337 
L 255.098099 260.864817 
L 255.306377 261.005469 
L 255.930713 262.43536 
L 256.138741 262.576013 
L 256.34677 262.515079 
L 257.387413 260.194546 
L 257.595441 260.133612 
L 258.011748 261.019677 
L 258.636084 262.85274 
L 259.052391 263.335632 
L 259.468448 263.616938 
L 259.676727 263.556004 
L 260.092784 263.030964 
L 260.301062 262.97003 
L 260.71712 262.44499 
L 261.133427 261.718363 
L 261.341455 261.657429 
L 261.549734 261.798082 
L 261.757762 261.737148 
L 261.965791 261.474628 
L 263.006434 258.146163 
L 263.214462 258.085229 
L 263.422741 258.225882 
L 264.463134 260.743424 
L 264.671412 260.884076 
L 264.879441 260.823143 
L 265.087469 260.560623 
L 265.503776 259.833996 
L 265.920083 259.308955 
L 266.544419 259.126154 
L 267.376783 257.471314 
L 267.584812 257.208794 
L 267.79309 257.349447 
L 268.417426 258.174578 
L 268.833483 258.455884 
L 269.24979 258.334016 
L 269.457819 258.474669 
L 269.666097 258.816908 
L 270.082155 260.106146 
L 270.498462 260.790624 
L 270.70649 260.729691 
L 271.122797 260.003064 
L 271.330826 259.740544 
L 271.747133 259.618676 
L 271.955162 259.759329 
L 272.16344 259.698395 
L 272.371469 259.839048 
L 272.787776 259.717181 
L 273.62014 258.6671 
L 274.036447 257.940473 
L 274.244476 257.677953 
L 274.660783 257.556086 
L 274.868811 257.293565 
L 275.909454 255.174619 
L 276.117483 254.912099 
L 276.53379 255.798164 
L 277.158125 257.228054 
L 277.574182 257.509359 
L 278.406797 255.652933 
L 278.614825 255.591999 
L 279.239161 256.618717 
L 279.447189 256.356197 
L 279.863497 255.226397 
L 280.279804 254.096597 
L 280.487832 254.035664 
L 281.112168 254.860795 
L 281.320196 254.799861 
L 281.528475 254.537341 
L 282.152811 253.346608 
L 282.360839 253.084087 
L 282.568868 253.023154 
L 283.193203 252.235593 
L 283.60951 251.105794 
L 284.233846 249.91506 
L 284.441875 249.65254 
L 284.858182 249.530673 
L 285.06621 249.671325 
L 285.274489 249.610392 
L 285.690546 249.085351 
L 286.106853 248.963484 
L 286.731189 249.385442 
L 286.939217 249.324508 
L 287.147496 249.061988 
L 288.812224 245.349135 
L 289.020503 245.489788 
L 290.060896 246.999398 
L 290.89351 245.142971 
L 291.101538 245.082037 
L 292.142181 247.801166 
L 292.35021 247.941818 
L 292.558238 247.880885 
L 292.766517 247.416778 
L 293.390852 244.411767 
L 293.598881 243.342901 
L 294.015188 242.616274 
L 294.223217 242.353754 
L 294.431245 242.29282 
L 295.263859 240.63798 
L 295.471888 241.181806 
L 295.679917 242.733564 
L 295.888195 245.293254 
L 296.304252 254.444363 
L 297.761202 291.109735 
L 297.969231 293.066694 
L 298.177259 293.267437 
L 298.385538 292.325727 
L 299.634209 280.558817 
L 300.050266 280.126985 
L 300.466573 280.703086 
L 301.507216 285.368721 
L 301.715245 285.253598 
L 302.131552 283.612248 
L 302.547609 280.559792 
L 304.004559 266.449228 
L 305.669287 256.25527 
L 305.877566 255.736975 
L 306.085594 255.621852 
L 306.293623 255.909902 
L 307.126237 257.666863 
L 307.542294 257.436618 
L 307.750573 257.119909 
L 308.16663 255.478558 
L 308.790966 252.91574 
L 309.831608 251.533781 
L 310.455944 249.172549 
L 310.872251 247.329612 
L 311.08028 247.012903 
L 311.288308 247.099366 
L 311.704615 247.675467 
L 312.120922 248.453154 
L 312.328951 248.741204 
L 312.745258 249.922064 
L 313.161315 251.102924 
L 313.785651 252.370248 
L 314.201958 252.543176 
L 314.618265 252.312931 
L 315.034322 252.889031 
L 315.866936 254.645992 
L 316.074965 254.530869 
L 316.907329 253.46562 
L 317.115608 253.552083 
L 317.947972 255.51063 
L 318.156001 255.597094 
L 319.61295 253.581717 
L 319.820979 253.466595 
L 320.029008 253.553059 
L 322.318322 258.939063 
L 322.52635 259.025527 
L 322.942657 258.795282 
L 324.191329 257.096614 
L 324.399357 257.183078 
L 324.607636 257.067955 
L 325.648029 254.476477 
L 325.856307 254.361355 
L 326.272364 254.534283 
L 326.688671 255.110383 
L 326.8967 255.196847 
L 327.104978 255.081724 
L 327.521036 255.254652 
L 327.937343 256.233926 
L 328.145371 256.320389 
L 328.35365 256.205267 
L 328.561678 255.888558 
L 328.769707 255.168676 
L 329.186014 254.736844 
L 329.394043 254.823308 
L 331.059021 257.127711 
L 331.26705 257.012588 
L 331.683357 256.177583 
L 332.099664 254.13306 
L 332.723999 249.554377 
L 333.140057 244.687643 
L 333.556364 237.603459 
L 334.180699 223.348625 
L 335.845678 180.497662 
L 336.261735 174.42141 
L 336.470013 172.895182 
L 336.678042 172.578473 
L 336.886071 173.672869 
L 337.094349 175.976784 
L 337.510406 184.21317 
L 339.591692 235.676008 
L 340.216027 244.603617 
L 340.840363 250.709016 
L 341.25642 253.300981 
L 341.672727 255.288187 
L 342.089034 256.469047 
L 342.71337 256.728438 
L 343.337706 257.995762 
L 343.545734 258.283813 
L 344.378099 257.823322 
L 344.586377 257.909786 
L 344.794406 258.197836 
L 346.043077 261.135657 
L 346.875441 261.481512 
L 347.291748 262.259199 
L 347.916084 263.12335 
L 348.124113 263.209814 
L 348.332391 263.497864 
L 348.748448 264.678724 
L 349.372784 266.953981 
L 349.581062 267.645204 
L 349.99712 267.818131 
L 350.413427 267.184713 
L 350.829734 265.946536 
L 351.245791 264.909945 
L 351.662098 264.6797 
L 352.078405 265.2558 
L 352.494462 266.033487 
L 353.118798 266.897638 
L 353.535105 267.070566 
L 354.159441 266.322025 
L 354.367469 266.408489 
L 354.991805 268.078986 
L 356.240476 272.024739 
L 356.448755 272.312789 
L 356.656783 272.197666 
L 357.07309 271.765835 
L 357.697426 272.025226 
L 357.905455 271.708517 
L 358.321762 270.47034 
L 358.52979 269.952044 
L 358.737819 270.240094 
L 359.154126 271.420954 
L 359.778462 273.293038 
L 359.98649 273.379501 
L 360.610826 273.034134 
L 360.819104 272.717425 
L 361.235162 272.890352 
L 361.44344 273.178403 
L 362.483833 275.425 
L 362.692111 275.511464 
L 363.524476 274.446214 
L 363.732504 274.734264 
L 363.940783 275.223901 
L 364.565118 278.103917 
L 364.981175 279.284777 
L 365.189454 279.169654 
L 366.021818 277.902818 
L 366.229847 277.989282 
L 366.438125 278.478918 
L 366.854182 278.651846 
L 367.062461 278.939896 
L 367.894825 281.10003 
L 368.102854 280.783321 
L 368.519161 279.545143 
L 368.727189 279.430021 
L 368.935468 279.516485 
L 369.351525 280.092585 
L 369.559804 280.179049 
L 369.767832 280.063926 
L 370.184139 279.632095 
L 370.600196 280.208195 
L 371.224532 281.475519 
L 371.432811 281.561983 
L 371.640839 281.44686 
L 372.265175 280.09356 
L 372.473203 279.978438 
L 373.097539 280.842589 
L 373.513846 281.620276 
L 373.721875 281.908326 
L 373.930153 281.99479 
L 375.178825 280.296122 
L 375.386853 280.584172 
L 376.219217 282.341133 
L 377.467889 282.859916 
L 377.676167 283.147966 
L 378.508531 285.912859 
L 378.71656 286.20091 
L 379.132867 286.373837 
L 379.757203 286.028469 
L 380.17351 285.596638 
L 380.381538 285.683102 
L 380.589567 285.567979 
L 380.797845 285.654443 
L 381.213903 285.424198 
L 382.462574 283.72553 
L 382.670852 284.01358 
L 383.08691 285.19444 
L 383.711245 287.469696 
L 384.127552 288.247383 
L 384.335581 288.132261 
L 384.751888 288.708361 
L 385.168195 289.669001 
L 385.376224 289.721663 
L 385.584252 289.558168 
L 386.000559 288.595066 
L 386.208588 288.415895 
L 386.416866 288.438311 
L 386.624895 288.662313 
L 386.832924 289.087901 
L 387.041202 289.110317 
L 387.665538 288.572804 
L 388.497902 286.848188 
L 388.914209 285.481913 
L 389.122238 285.101156 
L 389.330266 285.123571 
L 389.538545 285.347573 
L 389.954602 285.997164 
L 390.16288 286.221166 
L 390.787216 287.699517 
L 391.203273 288.75228 
L 391.411552 288.976282 
L 391.61958 288.797111 
L 392.451945 286.669322 
L 392.660223 286.490151 
L 392.868252 286.512567 
L 393.700616 288.416507 
L 393.908894 288.237336 
L 394.741259 286.109547 
L 394.949287 286.333549 
L 395.573623 287.610314 
L 395.781901 287.632729 
L 395.98993 287.453558 
L 396.406237 286.692043 
L 396.614266 286.714459 
L 396.822294 286.938461 
L 397.030573 287.364049 
L 397.44663 288.819985 
L 397.654908 289.245574 
L 397.862937 289.267989 
L 398.487273 288.730476 
L 398.487273 288.730476 
" clip-path="url(#pf131133210)" style="fill: none; stroke: #1f77b4; stroke-width: 1.5; stroke-linecap: square"/>
   </g>
   <g id="line2d_18">
    <path d="M 73.832727 123.837799 
L 74.040756 122.166815 
L 74.249034 254.550821 
L 74.457063 254.089356 
L 74.665092 254.232649 
L 74.87337 255.182289 
L 76.122041 265.315027 
L 78.203077 284.285985 
L 79.035441 289.092475 
L 79.659777 290.933461 
L 80.492391 293.374717 
L 81.116727 294.8986 
L 81.324755 295.021479 
L 81.949091 294.45415 
L 82.365398 294.685768 
L 83.197762 295.488 
L 83.614069 294.887902 
L 84.238405 293.817779 
L 84.446434 293.800442 
L 84.654462 293.613073 
L 85.070769 292.716859 
L 85.278798 292.198917 
L 85.487076 292.096846 
L 85.695105 292.207935 
L 85.903134 292.533407 
L 86.527469 294.037341 
L 86.943776 294.327495 
L 87.151805 294.025582 
L 87.776141 292.285548 
L 87.984419 292.277728 
L 88.400476 292.912141 
L 88.816783 293.022829 
L 89.441119 291.927793 
L 89.857426 290.781815 
L 90.065455 290.310935 
L 90.273483 290.243228 
L 90.68979 291.115747 
L 91.314126 292.967328 
L 91.938462 292.158584 
L 92.354769 291.61951 
L 92.770826 291.307855 
L 93.811469 289.750307 
L 94.019497 290.003239 
L 94.643833 291.16521 
L 95.06014 291.273663 
L 95.268169 291.130289 
L 95.684476 290.644727 
L 95.892504 290.704326 
L 96.308811 291.833215 
L 96.51684 292.508036 
L 96.725118 292.795808 
L 96.933147 292.699819 
L 97.765511 290.210873 
L 97.97379 290.147463 
L 98.389847 290.423817 
L 98.598125 290.360408 
L 98.806154 290.498584 
L 99.014182 290.435175 
L 99.222461 290.573352 
L 99.846797 291.393688 
L 100.054825 291.336991 
L 100.262854 291.082202 
L 101.303497 287.998486 
L 101.511525 288.147771 
L 102.344139 289.551258 
L 102.552168 289.297371 
L 103.592811 287.221587 
L 103.800839 287.169286 
L 104.217146 288.072615 
L 104.841482 289.72999 
L 105.04951 289.879275 
L 105.257539 289.826974 
L 105.881875 289.065311 
L 106.090153 289.01301 
L 106.50621 289.91634 
L 107.130546 291.981286 
L 107.338825 292.346853 
L 107.546853 292.323564 
L 107.754882 292.112745 
L 108.587496 290.337311 
L 109.003553 288.952643 
L 109.211831 288.764275 
L 109.41986 288.97908 
L 109.836167 290.013449 
L 110.044196 290.631427 
L 110.252224 290.846232 
L 110.460503 290.657865 
L 110.87656 289.676369 
L 111.084838 289.084829 
L 111.292867 288.896461 
L 112.125231 290.763613 
L 112.541538 289.782118 
L 113.165874 287.805909 
L 113.373903 287.617541 
L 113.582181 287.832346 
L 113.79021 287.845565 
L 113.998238 288.06037 
L 114.206517 288.073588 
L 114.414545 288.288393 
L 115.038881 288.328049 
L 115.24691 287.938095 
L 115.663217 287.964532 
L 116.079524 288.998901 
L 116.911888 291.269848 
L 117.119917 291.084911 
L 117.952531 288.131425 
L 118.368588 287.763407 
L 118.576866 287.982572 
L 118.784895 288.000149 
L 119.201202 288.438478 
L 119.409231 288.456055 
L 119.617259 288.67522 
L 120.033566 288.307202 
L 120.449873 287.737598 
L 121.282238 287.001564 
L 121.490266 286.615968 
L 122.114602 286.668702 
L 122.530909 287.308617 
L 122.947216 287.746945 
L 123.363273 287.7821 
L 123.571552 287.598092 
L 124.195887 286.441306 
L 124.611945 286.476462 
L 125.028252 287.116377 
L 125.23628 287.335541 
L 125.860616 288.799379 
L 126.69323 291.087141 
L 126.901259 291.105672 
L 127.525594 290.558555 
L 127.733623 290.174367 
L 127.941901 290.193352 
L 128.774266 289.462946 
L 129.190573 288.896157 
L 129.398601 288.915142 
L 130.022937 289.576856 
L 130.230966 289.595841 
L 130.855301 289.048037 
L 131.06358 289.067021 
L 131.271608 289.287593 
L 131.479637 289.306578 
L 131.687915 289.527149 
L 132.103973 289.565119 
L 132.52028 290.207849 
L 132.936587 290.648991 
L 133.352644 290.283788 
L 134.185258 287.940691 
L 134.393287 287.758089 
L 134.601315 287.777074 
L 134.809594 287.997646 
L 135.017622 288.016631 
L 135.225651 287.834029 
L 135.433929 287.853014 
L 135.849987 288.294157 
L 136.266294 289.138473 
L 136.474322 289.157458 
L 136.682601 289.378029 
L 136.890629 289.397014 
L 137.306936 289.838157 
L 137.722994 289.472954 
L 138.347329 288.521977 
L 138.555608 288.540962 
L 138.763636 288.761533 
L 138.971665 288.780518 
L 139.179943 289.001089 
L 139.387972 288.818488 
L 139.804279 287.848526 
L 140.220336 287.483323 
L 140.636643 287.924465 
L 141.469008 287.19406 
L 141.885315 288.239962 
L 142.50965 290.514368 
L 142.717679 290.936525 
L 142.925957 290.954945 
L 143.758322 289.616001 
L 144.174629 289.248908 
L 144.382657 289.266948 
L 144.798964 289.706201 
L 145.215022 289.742282 
L 145.839357 289.191643 
L 146.047636 289.209683 
L 146.255664 289.026137 
L 146.463693 288.641004 
L 147.296307 285.689368 
L 147.504336 285.707408 
L 147.920643 286.751421 
L 148.3367 288.198606 
L 148.961036 289.260659 
L 149.169314 289.480285 
L 149.377343 289.498326 
L 149.79365 289.131233 
L 150.001678 289.35086 
L 150.209707 289.3689 
L 150.417985 289.588526 
L 150.834043 289.624607 
L 151.25035 289.257514 
L 152.082714 287.91857 
L 153.123357 288.00877 
L 153.331385 287.825224 
L 153.747692 287.861304 
L 154.163999 288.502144 
L 154.372028 288.721771 
L 154.788335 288.354678 
L 155.204392 287.785999 
L 155.412671 288.005626 
L 155.620699 288.023666 
L 156.245035 288.682546 
L 156.661342 288.718626 
L 156.869371 288.53508 
L 157.493706 287.581268 
L 158.118042 287.635388 
L 158.326071 287.451842 
L 158.742378 286.883163 
L 158.950406 287.10279 
L 159.78302 288.586055 
L 160.199078 287.211031 
L 160.615385 285.432833 
L 160.823413 284.846114 
L 161.031692 284.864154 
L 161.23972 285.08378 
L 161.864056 286.750592 
L 162.280363 287.593019 
L 162.488392 287.611059 
L 162.69642 287.427512 
L 163.112727 287.463593 
L 163.737063 288.122473 
L 164.569427 286.783528 
L 164.777706 286.801568 
L 164.985734 287.021195 
L 165.402041 288.065207 
L 165.61007 288.688007 
L 165.818099 288.907633 
L 166.026377 288.925674 
L 166.234406 288.540541 
L 166.650713 287.165516 
L 166.858741 286.98197 
L 167.06677 287.201596 
L 167.275048 287.219637 
L 167.483077 287.439263 
L 167.691106 287.457303 
L 168.107413 287.090211 
L 168.315441 287.108251 
L 168.52372 287.327877 
L 168.731748 287.345918 
L 169.148055 286.978825 
L 169.356084 286.996865 
L 169.564113 287.216492 
L 169.98042 287.252572 
L 170.188448 287.069026 
L 170.396727 287.087066 
L 170.604755 286.90352 
L 170.812784 286.92156 
L 172.061455 288.23932 
L 172.269734 288.660533 
L 172.685791 288.696613 
L 172.894069 288.513067 
L 173.102098 288.127934 
L 173.310127 288.145974 
L 174.142741 289.02448 
L 174.558798 289.060561 
L 174.767076 289.280187 
L 175.183134 289.907912 
L 175.391412 289.901721 
L 175.807469 288.438686 
L 176.223776 286.353723 
L 176.640083 285.075107 
L 177.056141 283.594903 
L 177.472448 280.502008 
L 178.304812 269.478144 
L 179.553483 251.531241 
L 180.177819 246.186346 
L 182.467133 227.260353 
L 182.88344 221.345248 
L 183.299497 211.398413 
L 183.715804 193.791294 
L 184.132111 165.500092 
L 185.380783 60.266256 
L 185.588811 54.990459 
L 185.79684 55.963842 
L 186.005118 61.7753 
L 186.421175 86.098163 
L 187.878125 188.463824 
L 188.502461 213.155311 
L 189.126797 228.57382 
L 189.751132 238.952669 
L 190.375468 245.904547 
L 190.999804 250.638975 
L 192.040196 257.320169 
L 193.288868 260.943017 
L 193.705175 262.285024 
L 194.121482 263.223858 
L 194.537539 264.162693 
L 194.745818 264.32973 
L 194.953846 264.093594 
L 195.370153 263.016564 
L 195.578182 262.377256 
L 195.78621 262.14112 
L 195.994489 262.106571 
L 196.410546 263.448578 
L 196.826853 264.588999 
L 197.451189 264.485352 
L 197.659217 264.249216 
L 198.075524 263.575359 
L 198.283553 263.540809 
L 198.907889 264.041922 
L 199.324196 264.577583 
L 199.532224 264.74462 
L 199.740503 265.113244 
L 200.780896 268.569055 
L 200.989174 268.534506 
L 201.197203 268.29837 
L 201.405231 268.263821 
L 201.61351 268.027686 
L 202.029567 268.361761 
L 202.237845 268.327211 
L 202.653903 267.250181 
L 202.862181 266.610873 
L 203.07021 266.374737 
L 203.278238 266.340188 
L 203.694545 267.279022 
L 204.943217 270.498698 
L 205.151245 270.867321 
L 205.359524 270.832772 
L 205.567552 270.596637 
L 206.191888 268.880298 
L 206.399917 268.644162 
L 206.608195 268.8112 
L 207.648588 271.662251 
L 207.856866 271.426116 
L 208.272924 270.349085 
L 208.481202 269.709777 
L 208.689231 269.675228 
L 208.897259 269.842265 
L 210.145931 272.054008 
L 210.354209 272.019459 
L 210.562238 271.783324 
L 211.186573 270.470158 
L 211.394602 270.435609 
L 211.810909 270.769684 
L 212.018938 270.735134 
L 212.227216 270.902172 
L 212.435245 270.666036 
L 212.851552 270.596938 
L 213.475887 271.09805 
L 213.683916 271.063501 
L 214.308252 269.951922 
L 214.51628 270.118959 
L 215.140616 272.232763 
L 215.348894 272.3998 
L 215.556923 272.365251 
L 215.97323 272.699326 
L 216.389287 273.234987 
L 216.597566 273.200438 
L 217.013623 271.720235 
L 217.637959 269.600723 
L 218.262294 269.497076 
L 218.470573 269.260941 
L 218.88663 268.18391 
L 219.510966 266.467571 
L 219.719244 266.029849 
L 219.927273 265.9953 
L 220.135301 266.162338 
L 220.34358 266.732548 
L 221.175944 270.424494 
L 221.383973 270.591532 
L 221.592251 270.355396 
L 222.008308 268.875193 
L 222.424615 267.193403 
L 222.632644 266.755681 
L 222.840922 266.922719 
L 223.048951 267.291342 
L 223.25698 267.256793 
L 223.881315 266.548387 
L 224.089594 266.513838 
L 224.921958 267.786747 
L 225.338265 268.120821 
L 225.754322 267.043791 
L 226.170629 265.765174 
L 226.378658 265.730625 
L 226.586936 265.897663 
L 227.002994 266.433324 
L 227.211272 266.197188 
L 227.835608 264.077677 
L 228.251665 262.79906 
L 228.459943 262.562924 
L 228.667972 262.528375 
L 229.084279 262.056104 
L 229.708615 260.339765 
L 230.33295 259.228186 
L 230.957286 259.124539 
L 231.373343 259.458613 
L 231.997679 260.362898 
L 232.205957 260.529936 
L 232.413986 260.495387 
L 232.622015 260.259251 
L 233.038322 260.996499 
L 233.870686 263.680513 
L 234.078964 263.84755 
L 234.286993 263.813001 
L 234.7033 264.348663 
L 234.911329 264.5157 
L 235.119357 264.481151 
L 235.535664 263.807293 
L 235.743693 263.571158 
L 236.368029 263.467511 
L 237.200643 261.918209 
L 237.408671 262.085247 
L 237.6167 262.45387 
L 238.241036 264.366088 
L 239.07365 265.638997 
L 239.281678 265.402861 
L 239.697985 264.325831 
L 240.114043 263.047214 
L 240.322321 262.811078 
L 240.946657 262.707431 
L 241.154685 262.874469 
L 241.362714 262.83992 
L 241.570992 263.006957 
L 241.779021 262.972408 
L 241.98705 262.736272 
L 242.611385 262.632625 
L 243.027692 262.160354 
L 243.235721 262.125805 
L 243.443999 262.292842 
L 244.068335 263.197128 
L 244.276364 262.960992 
L 245.108728 261.411691 
L 245.317006 261.377142 
L 245.525035 261.544179 
L 245.733064 261.912803 
L 246.357399 263.82502 
L 246.565678 263.992057 
L 246.773706 263.755922 
L 247.190013 262.678892 
L 247.398042 262.442756 
L 247.606071 262.408207 
L 247.814349 262.575244 
L 248.230406 262.102973 
L 248.854742 260.991394 
L 249.271049 260.922296 
L 249.479078 261.089333 
L 249.895385 261.020235 
L 250.103413 260.784099 
L 250.311692 260.951137 
L 250.727749 260.882039 
L 251.768392 258.693429 
L 251.97642 258.65888 
L 252.184699 258.825917 
L 252.600756 260.97427 
L 253.017063 263.928969 
L 253.225092 264.700765 
L 253.43337 264.666216 
L 254.682041 260.02402 
L 255.098099 260.358095 
L 255.722434 261.26238 
L 256.138741 261.596455 
L 256.555048 262.535289 
L 256.971106 263.675709 
L 257.179384 263.64116 
L 257.595441 262.56413 
L 258.011748 261.4871 
L 258.219777 261.452551 
L 258.636084 261.786625 
L 258.844113 261.752076 
L 259.26042 261.279805 
L 259.468448 260.842083 
L 259.676727 260.807534 
L 260.092784 261.343195 
L 260.301062 261.308646 
L 260.71712 260.836375 
L 260.925398 261.003413 
L 261.549734 261.907698 
L 262.174069 261.199291 
L 262.382098 261.366329 
L 264.047076 264.315319 
L 264.463134 262.835116 
L 265.295748 259.874709 
L 265.503776 259.84016 
L 265.920083 260.174235 
L 266.544419 261.68328 
L 266.752448 261.850317 
L 266.960476 261.815768 
L 267.79309 259.460121 
L 268.001119 259.425572 
L 268.625455 260.531443 
L 268.833483 260.295308 
L 269.666097 258.54442 
L 269.874126 258.509871 
L 270.70649 259.78278 
L 270.914769 259.949817 
L 271.122797 259.713681 
L 271.539104 258.636651 
L 271.955162 257.962794 
L 272.16344 257.928244 
L 273.203833 259.569777 
L 273.62014 259.500679 
L 273.828169 259.264544 
L 274.244476 259.195445 
L 274.660783 259.52952 
L 275.07684 259.460422 
L 275.909454 257.911121 
L 276.117483 257.674985 
L 276.741818 257.571338 
L 277.158125 257.099067 
L 277.366154 256.661345 
L 277.782461 256.592247 
L 277.99049 256.759284 
L 278.198518 256.724735 
L 278.406797 256.4886 
L 278.822854 256.419501 
L 279.447189 256.920614 
L 279.655468 256.886065 
L 280.071525 256.413794 
L 280.904139 257.081943 
L 281.112168 257.047394 
L 281.736503 256.338987 
L 281.944532 256.304438 
L 282.360839 255.832167 
L 282.985175 254.317415 
L 283.60951 252.197903 
L 284.025818 251.524046 
L 284.858182 252.192195 
L 285.690546 250.239721 
L 286.314882 248.523382 
L 286.939217 247.411803 
L 287.147496 247.57884 
L 287.563553 248.920847 
L 287.97986 250.262854 
L 288.187889 250.631478 
L 288.604196 250.159207 
L 289.228531 249.047628 
L 289.43656 249.013079 
L 289.644838 248.776943 
L 290.060896 247.901499 
L 290.269174 247.86695 
L 290.477203 248.033987 
L 291.309567 249.306896 
L 291.725874 248.431452 
L 292.558238 245.269459 
L 292.974545 246.208293 
L 293.390852 247.348714 
L 293.598881 247.314165 
L 294.015188 246.237135 
L 294.639524 244.117623 
L 294.847552 243.679901 
L 295.055581 243.645352 
L 295.263859 244.013976 
L 295.471888 244.987359 
L 295.888195 250.159508 
L 296.304252 259.161801 
L 297.552924 291.409925 
L 297.761202 293.597241 
L 297.969231 294.403527 
L 298.177259 293.839383 
L 298.593566 290.576666 
L 299.425931 281.04378 
L 299.842238 278.797167 
L 300.050266 278.077033 
L 300.258545 277.961659 
L 300.674602 278.537257 
L 301.298938 279.803826 
L 301.507216 280.091625 
L 301.923273 279.256117 
L 302.33958 276.404745 
L 304.420616 257.712982 
L 304.836923 255.264783 
L 305.044952 254.746236 
L 305.25323 254.630862 
L 305.669287 254.803286 
L 305.877566 254.687912 
L 306.501901 253.737031 
L 306.917959 253.909455 
L 307.334266 253.073948 
L 307.750573 251.835267 
L 308.16663 250.999759 
L 308.582937 250.164252 
L 308.999244 248.522398 
L 309.415301 247.686891 
L 309.62358 247.773103 
L 309.831608 248.060902 
L 310.039637 248.147114 
L 310.247915 248.03174 
L 310.663973 247.196232 
L 311.08028 246.360725 
L 311.496587 246.533149 
L 312.120922 247.396546 
L 312.328951 247.281172 
L 312.745258 246.647251 
L 312.953287 246.733463 
L 313.161315 247.021262 
L 313.993929 248.777216 
L 314.409987 248.546468 
L 314.618265 248.63268 
L 315.034322 250.21621 
L 315.450629 251.79974 
L 315.658658 252.087539 
L 315.866936 252.173751 
L 316.282994 251.943003 
L 316.907329 250.992121 
L 317.323636 249.955027 
L 317.531665 250.041239 
L 317.739943 250.530624 
L 318.364279 253.611472 
L 318.572308 253.89927 
L 318.780336 253.985483 
L 319.196643 253.553148 
L 319.61295 253.725573 
L 320.237286 254.588969 
L 320.445315 254.675181 
L 320.653343 254.358221 
L 321.485957 251.679273 
L 322.318322 251.217777 
L 322.52635 251.505576 
L 323.358964 254.269462 
L 323.566993 254.154088 
L 324.191329 252.800034 
L 324.607636 252.569285 
L 325.023693 251.733778 
L 325.648029 249.774964 
L 326.272364 249.025668 
L 326.480643 248.910294 
L 326.8967 249.082719 
L 327.313007 249.658316 
L 327.729314 250.838673 
L 328.145371 252.422203 
L 328.977985 255.589263 
L 329.186014 255.675475 
L 329.394043 255.358515 
L 330.226657 252.679567 
L 330.434685 252.765779 
L 330.850992 253.341377 
L 331.059021 253.427589 
L 331.475328 253.196841 
L 331.683357 253.283053 
L 331.891385 253.167679 
L 332.099664 252.850719 
L 332.515721 249.999346 
L 333.140057 240.380247 
L 333.764392 228.342111 
L 334.388728 211.667485 
L 335.429371 182.263752 
L 335.845678 174.372719 
L 336.261735 170.311828 
L 336.470013 170.196454 
L 336.678042 170.887425 
L 336.886071 172.787916 
L 337.302378 179.612693 
L 338.759078 214.889049 
L 339.591692 233.981439 
L 340.007749 239.999871 
L 340.424056 243.196092 
L 341.048392 246.075353 
L 341.464699 247.658883 
L 341.672727 248.148268 
L 342.089034 248.320693 
L 342.505092 248.89629 
L 343.129427 251.170792 
L 343.337706 252.06335 
L 343.545734 252.351149 
L 343.753763 252.437361 
L 344.17007 251.601853 
L 344.378099 251.284893 
L 344.586377 251.572692 
L 344.794406 252.263663 
L 345.62677 256.438655 
L 346.043077 257.619012 
L 346.459384 257.791437 
L 346.667413 257.676063 
L 347.499777 258.827258 
L 347.916084 258.596509 
L 348.332391 258.164175 
L 348.54042 258.250387 
L 348.956727 259.430744 
L 349.372784 260.611101 
L 349.789091 260.783525 
L 349.99712 260.668151 
L 350.621455 260.926788 
L 350.829734 260.811414 
L 351.662098 259.745158 
L 351.870127 259.629784 
L 352.078405 259.715996 
L 352.286434 260.003795 
L 352.702741 260.780979 
L 352.910769 261.068778 
L 353.118798 261.15499 
L 354.159441 262.593984 
L 354.367469 262.680197 
L 354.783776 263.255794 
L 354.991805 263.342006 
L 355.200083 263.226632 
L 355.616141 263.399057 
L 356.032448 264.579414 
L 356.240476 265.270386 
L 356.448755 265.558184 
L 357.07309 265.816821 
L 357.697426 267.083391 
L 357.905455 266.968016 
L 358.113483 266.651056 
L 358.321762 265.930922 
L 358.737819 265.498588 
L 359.362155 265.757225 
L 359.570433 265.64185 
L 359.778462 265.32489 
L 359.98649 265.411102 
L 360.194769 265.900487 
L 360.819104 268.376575 
L 361.027133 268.664374 
L 361.859497 267.598118 
L 362.067776 267.885917 
L 362.483833 268.663101 
L 362.692111 268.547727 
L 363.316447 267.798432 
L 363.524476 267.884644 
L 364.565118 270.533157 
L 364.773147 270.417782 
L 364.981175 270.503995 
L 365.189454 270.388621 
L 365.397483 270.676419 
L 366.021818 270.935056 
L 366.229847 271.222855 
L 366.646154 271.39528 
L 366.854182 271.279906 
L 367.27049 271.45233 
L 367.478518 271.740129 
L 367.686797 272.431101 
L 368.102854 273.006698 
L 368.311132 273.092911 
L 368.519161 272.977537 
L 369.351525 271.911281 
L 369.559804 271.795907 
L 369.975861 271.968331 
L 370.600196 271.622209 
L 370.808475 271.910008 
L 371.016503 272.399393 
L 371.432811 273.982923 
L 371.640839 274.472308 
L 371.848868 274.55852 
L 372.265175 273.723013 
L 372.473203 273.406052 
L 372.88951 273.578477 
L 373.097539 273.866275 
L 373.305818 274.355661 
L 373.930153 274.614298 
L 374.970546 276.859637 
L 375.386853 277.032062 
L 375.80316 275.793381 
L 376.427496 273.229808 
L 376.635524 272.912847 
L 376.843553 272.99906 
L 377.676167 274.755014 
L 378.300503 275.618411 
L 378.71656 275.790835 
L 379.132867 275.560087 
L 379.549174 275.732512 
L 379.757203 275.617138 
L 380.381538 275.875774 
L 381.005874 276.739171 
L 381.213903 276.825383 
L 381.63021 276.594635 
L 382.670852 278.033629 
L 382.878881 278.523014 
L 383.919524 278.954076 
L 384.127552 278.838701 
L 384.543859 278.003194 
L 384.959917 276.764513 
L 385.168195 276.649139 
L 385.376224 276.735352 
L 385.584252 277.02315 
L 386.000559 277.800334 
L 386.416866 277.972759 
L 386.832924 277.742011 
L 387.249231 277.309676 
L 387.457259 277.194302 
L 387.665538 277.482101 
L 388.497902 279.439642 
L 388.705931 279.525854 
L 389.330266 278.574972 
L 389.538545 278.661184 
L 389.746573 278.948983 
L 390.16288 279.726167 
L 390.370909 280.013966 
L 390.995245 280.272603 
L 391.61958 281.539172 
L 391.827609 281.625385 
L 392.451945 281.279262 
L 393.07628 281.537899 
L 393.492587 280.702392 
L 393.908894 280.06847 
L 394.741259 281.824425 
L 395.157566 281.593677 
L 395.365594 281.276716 
L 395.98993 281.535353 
L 396.197959 281.823152 
L 396.406237 281.707778 
L 396.822294 280.87227 
L 397.030573 280.353723 
L 397.238601 280.238349 
L 397.654908 280.813946 
L 398.279244 282.080516 
L 398.487273 282.368314 
L 398.487273 282.368314 
" clip-path="url(#pf131133210)" style="fill: none; stroke: #ff7f0e; stroke-width: 1.5; stroke-linecap: square"/>
   </g>
   <g id="line2d_19">
    <path d="M 73.832727 290.005046 
L 74.040756 289.995175 
L 74.249034 287.969439 
L 75.497706 290.329249 
L 75.705734 290.117791 
L 75.913763 289.50316 
L 76.122041 289.291702 
L 76.33007 289.281831 
L 76.746377 289.866848 
L 76.954406 290.058563 
L 77.162434 289.847105 
L 78.411106 287.570426 
L 78.827413 287.953857 
L 79.24372 288.942046 
L 79.659777 289.527063 
L 80.492391 288.681232 
L 81.324755 288.641747 
L 81.532784 288.833462 
L 81.949091 289.821652 
L 82.573427 291.404921 
L 82.781455 291.601352 
L 82.989734 291.401579 
L 83.197762 291.004704 
L 83.822098 287.596999 
L 84.238405 285.795564 
L 84.446434 285.398813 
L 84.654462 285.606821 
L 85.487076 287.043613 
L 85.695105 287.050035 
L 85.903134 287.258043 
L 86.319441 287.270886 
L 86.735748 286.880556 
L 86.943776 286.483805 
L 87.151805 286.490227 
L 87.360083 286.698235 
L 88.816783 289.36381 
L 89.23309 288.368721 
L 89.649148 287.373632 
L 89.857426 287.380054 
L 90.481762 288.407251 
L 90.897819 288.420094 
L 91.314126 287.828178 
L 91.730433 287.437849 
L 91.938462 287.44427 
L 92.354769 287.053941 
L 92.562797 287.261949 
L 93.187133 289.095492 
L 93.395162 289.101913 
L 93.60344 288.705162 
L 94.019497 287.508487 
L 94.227776 287.313322 
L 94.852111 287.937346 
L 95.476447 289.367716 
L 95.892504 290.388492 
L 96.100783 290.394913 
L 96.51684 289.399824 
L 97.349454 286.200128 
L 97.557483 286.004963 
L 97.765511 286.011385 
L 97.97379 286.219393 
L 98.598125 288.456109 
L 99.014182 288.872125 
L 99.43049 288.481795 
L 100.054825 287.089955 
L 100.262854 286.491617 
L 100.471132 286.296452 
L 100.679161 286.302874 
L 100.887189 286.510882 
L 101.095468 286.920477 
L 101.303497 286.926898 
L 101.511525 287.134906 
L 101.719804 287.141328 
L 101.927832 287.349336 
L 102.344139 287.966939 
L 102.552168 288.174947 
L 102.968475 287.784617 
L 103.384532 287.192701 
L 103.592811 287.199123 
L 104.217146 288.22632 
L 104.425175 288.232742 
L 105.257539 286.645737 
L 105.465818 286.853745 
L 106.090153 288.485701 
L 106.298182 288.492123 
L 106.50621 288.296958 
L 106.922517 287.705042 
L 107.338825 288.121058 
L 108.379217 289.967444 
L 108.587496 289.973866 
L 109.003553 289.38195 
L 109.211831 289.186785 
L 109.41986 289.394793 
L 109.836167 290.012396 
L 110.044196 289.817231 
L 110.87656 288.230226 
L 111.084838 288.236648 
L 111.292867 288.041483 
L 111.500896 288.047905 
L 112.33351 289.484696 
L 112.541538 289.692704 
L 113.165874 289.10721 
L 113.373903 289.113632 
L 114.206517 290.550423 
L 114.414545 290.355259 
L 114.830852 290.368102 
L 115.038881 290.57611 
L 115.24691 290.985704 
L 115.455188 290.992058 
L 116.287552 290.21111 
L 116.495581 290.217459 
L 116.911888 289.826985 
L 117.744252 288.239691 
L 117.952531 288.24604 
L 118.160559 288.453976 
L 118.576866 289.071434 
L 118.784895 289.27937 
L 118.992924 289.285719 
L 119.617259 288.296835 
L 119.825538 288.504771 
L 120.449873 289.531752 
L 120.657902 289.538101 
L 120.865931 289.342864 
L 121.698545 287.957156 
L 121.906573 287.963506 
L 122.114602 288.171442 
L 122.530909 288.7889 
L 122.738938 288.795249 
L 123.571552 288.014301 
L 123.77958 288.222237 
L 124.403916 288.241285 
L 124.820223 287.850811 
L 125.23628 287.86351 
L 125.444559 288.071446 
L 125.652587 288.077795 
L 126.484952 286.692087 
L 127.109287 287.315895 
L 128.14993 289.363506 
L 128.357959 289.168269 
L 129.190573 287.782562 
L 129.60663 287.795261 
L 129.814908 287.600023 
L 130.439244 288.82859 
L 130.647273 288.83494 
L 130.855301 288.639703 
L 131.479637 287.046059 
L 131.687915 286.850822 
L 132.312251 288.280976 
L 132.728308 289.301607 
L 133.144615 289.919065 
L 133.352644 290.127001 
L 133.560922 290.13335 
L 133.768951 289.938113 
L 135.225651 287.361935 
L 135.641958 287.374634 
L 136.682601 289.220659 
L 137.306936 289.844466 
L 137.514965 289.850816 
L 137.931272 289.460342 
L 138.139301 289.466691 
L 138.555608 290.084149 
L 138.763636 290.292085 
L 138.971665 290.298434 
L 139.387972 289.90796 
L 139.804279 289.920659 
L 140.220336 290.336531 
L 140.428615 290.34288 
L 140.636643 290.147643 
L 140.844672 289.75082 
L 141.260979 288.150827 
L 141.469008 287.95559 
L 141.885315 287.968288 
L 142.093343 288.176224 
L 142.50965 288.188923 
L 142.925957 288.806381 
L 143.133986 288.812731 
L 144.174629 287.030199 
L 144.382657 287.238135 
L 144.590686 287.244485 
L 144.798964 287.049248 
L 145.215022 287.061946 
L 145.839357 286.476235 
L 146.255664 285.682588 
L 146.463693 285.688938 
L 146.671971 285.896874 
L 147.088029 286.917505 
L 147.504336 287.534963 
L 147.920643 287.547662 
L 148.3367 286.955601 
L 148.544978 286.96195 
L 148.753007 287.169886 
L 149.377343 288.196867 
L 149.79365 288.209565 
L 150.001678 288.014328 
L 150.209707 288.222264 
L 150.417985 288.228614 
L 151.25035 289.060357 
L 151.666657 288.669883 
L 152.082714 288.077822 
L 152.499021 288.090521 
L 152.915328 288.707979 
L 153.123357 288.915915 
L 153.331385 288.922265 
L 153.955721 289.546072 
L 154.163999 289.350835 
L 154.580057 289.363534 
L 155.204392 290.390514 
L 155.412671 290.59845 
L 155.620699 290.403213 
L 155.828728 290.00639 
L 156.245035 288.607983 
L 156.661342 288.015923 
L 157.077399 288.028621 
L 157.701735 287.44291 
L 157.910013 287.650846 
L 158.326071 289.07465 
L 158.742378 290.70004 
L 158.950406 290.907976 
L 159.158685 290.913467 
L 159.991049 289.319521 
L 160.199078 289.324207 
L 160.407356 289.53048 
L 161.23972 291.161537 
L 161.656027 291.175714 
L 162.072085 290.588924 
L 162.904699 289.8143 
L 163.112727 289.82223 
L 163.737063 291.052059 
L 163.945092 291.057161 
L 164.361399 290.057475 
L 164.777706 289.054403 
L 164.985734 288.65366 
L 165.193763 288.857677 
L 166.442434 288.872257 
L 166.858741 288.473944 
L 167.483077 287.473302 
L 168.107413 287.480593 
L 168.315441 287.281436 
L 168.52372 287.283866 
L 168.939777 288.296659 
L 169.356084 289.511038 
L 169.564113 289.715054 
L 169.772391 289.717484 
L 170.812784 287.915357 
L 171.229091 288.32339 
L 171.645398 288.32825 
L 172.477762 287.531624 
L 172.894069 287.536485 
L 173.518405 288.148534 
L 173.934462 288.95974 
L 174.142741 288.96217 
L 174.558798 288.563857 
L 174.975105 287.963958 
L 175.183134 288.167975 
L 176.015748 289.736958 
L 176.223776 289.488199 
L 176.848112 287.842553 
L 177.472448 285.571364 
L 177.888755 283.183697 
L 178.304812 279.788097 
L 179.137426 270.779447 
L 180.177819 263.90314 
L 180.594126 261.1123 
L 181.218462 254.607795 
L 182.88344 235.784149 
L 183.299497 225.736197 
L 183.715804 207.221613 
L 184.132111 176.611842 
L 185.380783 62.406434 
L 185.588811 54.862627 
L 185.79684 53.568 
L 186.005118 58.522553 
L 186.421175 82.744298 
L 187.878125 193.02109 
L 188.502461 218.770418 
L 189.126797 235.448355 
L 189.751132 246.280286 
L 190.375468 252.475728 
L 191.624139 260.834883 
L 192.456503 265.735698 
L 192.872811 266.573414 
L 193.080839 266.689892 
L 193.288868 266.604784 
L 193.705175 266.83774 
L 194.121482 267.47387 
L 194.745818 269.435996 
L 194.953846 269.552475 
L 195.370153 269.382258 
L 195.578182 269.498737 
L 196.202517 270.251344 
L 197.034882 269.910912 
L 197.24316 270.02739 
L 197.659217 269.454001 
L 198.283553 268.190744 
L 198.491831 268.105636 
L 199.324196 268.571549 
L 199.740503 269.409265 
L 200.15656 270.246981 
L 200.364838 270.161873 
L 200.572867 269.875178 
L 200.989174 269.100203 
L 201.821538 269.566116 
L 202.445874 269.310791 
L 202.862181 269.543748 
L 203.278238 269.373531 
L 203.694545 268.800142 
L 204.52691 266.847018 
L 204.943217 266.676802 
L 205.567552 268.437342 
L 206.191888 270.399468 
L 206.399917 270.717533 
L 207.024252 270.462208 
L 207.440559 269.888819 
L 207.856866 268.912257 
L 208.064895 268.827149 
L 208.689231 269.176584 
L 208.897259 268.889889 
L 209.313566 267.913327 
L 209.521595 267.828219 
L 209.729873 267.944697 
L 210.354209 268.697305 
L 210.562238 268.813783 
L 210.978545 268.643567 
L 211.186573 268.356872 
L 211.60288 267.581897 
L 211.810909 267.496788 
L 212.018938 267.613267 
L 212.643273 268.365875 
L 213.05958 268.598831 
L 213.683916 268.343507 
L 214.724559 268.925898 
L 215.140616 268.352509 
L 215.556923 268.182293 
L 216.389287 269.252965 
L 216.805594 268.679576 
L 217.013623 268.594468 
L 218.262294 266.8743 
L 219.302937 264.432895 
L 219.927273 265.387089 
L 220.135301 265.301981 
L 220.551608 264.527005 
L 220.759637 264.24031 
L 220.967915 264.155202 
L 221.175944 264.271681 
L 221.383973 263.984986 
L 222.424615 260.737235 
L 222.840922 260.567018 
L 223.465258 261.319626 
L 223.673287 261.436105 
L 223.881315 261.350996 
L 224.505651 260.08774 
L 224.921958 259.51435 
L 225.129987 259.429242 
L 225.338265 259.142548 
L 225.546294 259.057439 
L 225.962601 259.290396 
L 226.378658 260.128112 
L 226.586936 260.647763 
L 227.002994 260.88072 
L 227.211272 260.594025 
L 227.835608 259.330768 
L 228.043636 259.24566 
L 228.251665 259.362139 
L 228.667972 260.199854 
L 229.500336 262.076873 
L 230.124672 262.829481 
L 230.957286 262.489048 
L 231.373343 261.915659 
L 231.581622 261.830551 
L 232.622015 263.420874 
L 232.830293 263.335766 
L 233.038322 262.847485 
L 233.24635 262.762377 
L 233.454629 262.878855 
L 234.286993 264.352701 
L 235.535664 262.632533 
L 236.368029 260.679409 
L 236.576307 260.795887 
L 236.992364 261.633603 
L 237.200643 261.951668 
L 237.408671 261.664973 
L 237.6167 260.975105 
L 238.033007 260.401716 
L 238.241036 260.316608 
L 238.657343 260.549565 
L 239.07365 260.379348 
L 239.281678 260.092654 
L 239.489707 260.209132 
L 240.322321 261.481391 
L 240.53035 261.194696 
L 240.946657 260.016548 
L 241.362714 258.838399 
L 241.570992 258.551705 
L 241.779021 258.668183 
L 242.819664 260.05692 
L 243.235721 260.289877 
L 243.652028 260.72442 
L 243.860057 260.639312 
L 244.484392 259.376055 
L 244.692671 259.08936 
L 245.108728 259.322317 
L 245.525035 259.75686 
L 245.733064 259.873338 
L 246.773706 259.447797 
L 247.190013 259.680754 
L 247.606071 260.115297 
L 247.814349 260.030189 
L 248.022378 260.146667 
L 248.230406 259.859972 
L 248.854742 258.395129 
L 249.06302 258.511608 
L 249.271049 258.829672 
L 249.687356 260.272148 
L 249.895385 260.388626 
L 250.103413 260.101931 
L 250.727749 257.427569 
L 250.936027 257.140875 
L 251.144056 257.055767 
L 251.768392 258.211547 
L 252.392727 259.568914 
L 252.600756 259.886979 
L 252.809034 259.600285 
L 253.849427 256.957293 
L 254.265734 255.779144 
L 254.473763 255.49245 
L 254.682041 255.407341 
L 255.098099 256.245057 
L 255.722434 258.005597 
L 255.930713 257.920489 
L 256.555048 257.060405 
L 256.763077 257.176884 
L 257.179384 257.611427 
L 257.387413 257.526319 
L 258.011748 256.263062 
L 258.219777 255.976367 
L 258.428055 256.092845 
L 260.092784 260.048469 
L 260.509091 260.483012 
L 260.71712 260.196317 
L 261.341455 258.328301 
L 261.965791 257.065044 
L 262.174069 256.77835 
L 262.382098 256.693241 
L 262.798405 256.926198 
L 263.214462 257.360741 
L 263.422741 257.275633 
L 263.838798 256.702244 
L 264.255105 256.9352 
L 264.671412 256.361811 
L 265.295748 255.098554 
L 265.920083 254.84323 
L 266.128112 254.556535 
L 266.336141 254.673013 
L 266.752448 255.510729 
L 266.960476 256.030381 
L 267.168755 256.146859 
L 267.376783 256.061751 
L 267.584812 255.775056 
L 267.79309 255.689948 
L 268.001119 255.806426 
L 268.625455 255.551102 
L 269.041762 254.776126 
L 269.24979 254.489431 
L 269.457819 254.404323 
L 269.666097 254.520801 
L 269.874126 254.435693 
L 270.082155 254.552172 
L 270.290433 254.467063 
L 270.70649 254.70002 
L 270.914769 254.614912 
L 271.539104 255.36752 
L 271.747133 255.483998 
L 271.955162 255.39889 
L 272.16344 255.515368 
L 272.995804 253.562244 
L 273.203833 253.477136 
L 273.412111 253.593614 
L 274.244476 255.470632 
L 274.452504 255.587111 
L 274.660783 255.502002 
L 275.701175 254.068529 
L 275.909454 253.983421 
L 276.117483 254.099899 
L 276.325511 254.014791 
L 276.53379 254.13127 
L 276.741818 254.046161 
L 277.366154 253.186078 
L 277.574182 253.100969 
L 277.782461 253.217448 
L 278.614825 254.489707 
L 278.822854 254.404599 
L 279.031132 254.117904 
L 280.695861 250.010069 
L 280.904139 250.126547 
L 281.944532 251.716871 
L 282.360839 251.546655 
L 282.568868 251.25996 
L 283.60951 249.020141 
L 283.817539 248.733446 
L 284.650153 246.981909 
L 285.690546 245.548436 
L 286.314882 245.89787 
L 286.52316 245.812762 
L 287.355524 243.859638 
L 287.563553 243.77453 
L 287.97986 244.612246 
L 288.396167 245.853135 
L 288.812224 247.094024 
L 289.228531 248.133326 
L 289.43656 248.249804 
L 289.644838 248.567869 
L 290.060896 248.397653 
L 290.477203 247.824263 
L 290.685231 247.739155 
L 291.101538 247.972112 
L 291.517845 248.809828 
L 291.725874 249.329479 
L 292.142181 249.562436 
L 292.35021 249.477327 
L 292.558238 249.190633 
L 292.974545 247.206138 
L 293.598881 243.725431 
L 293.80691 242.833977 
L 294.223217 242.260587 
L 294.639524 242.090371 
L 294.847552 242.408436 
L 295.055581 243.33126 
L 295.471888 247.192773 
L 295.888195 254.078082 
L 296.720559 273.694708 
L 297.344895 288.155195 
L 297.761202 292.827884 
L 297.969231 292.788019 
L 298.177259 291.376177 
L 299.425931 276.49151 
L 299.634209 275.08586 
L 299.842238 274.486555 
L 300.674602 274.508375 
L 301.507216 273.11909 
L 301.715245 272.922959 
L 301.923273 272.323654 
L 302.33958 269.915527 
L 304.420616 254.246334 
L 304.836923 253.047725 
L 305.044952 253.05318 
L 305.25323 253.260221 
L 306.501901 256.719921 
L 306.70993 256.725376 
L 307.126237 255.728354 
L 307.958601 252.726377 
L 308.582937 251.331637 
L 309.207273 249.73531 
L 309.415301 249.539179 
L 310.039637 249.555544 
L 310.247915 249.359412 
L 310.663973 249.773495 
L 310.872251 249.77895 
L 311.08028 249.381232 
L 311.912644 246.580842 
L 312.120922 246.98947 
L 313.785651 253.080704 
L 313.993929 253.086159 
L 314.618265 252.497764 
L 314.826294 252.503219 
L 315.242601 253.522062 
L 316.074965 254.954987 
L 316.282994 254.960442 
L 316.699301 253.96342 
L 317.115608 252.160051 
L 317.323636 251.762334 
L 317.531665 251.767789 
L 317.739943 252.176416 
L 318.572308 255.020447 
L 318.988615 255.43453 
L 319.61295 254.846135 
L 319.820979 255.053177 
L 320.237286 256.072019 
L 320.653343 257.292448 
L 320.861622 257.499489 
L 321.277679 257.510399 
L 321.485957 257.314268 
L 322.52635 255.325678 
L 322.734629 255.331133 
L 323.358964 255.952258 
L 323.566993 255.756126 
L 324.191329 253.958213 
L 324.399357 253.963668 
L 324.607636 254.17071 
L 325.44 255.603635 
L 325.648029 255.810676 
L 325.856307 255.816131 
L 326.064336 255.62 
L 327.104978 252.825065 
L 327.313007 252.628933 
L 327.521036 252.634388 
L 327.729314 252.84143 
L 327.937343 253.250058 
L 328.561678 255.282287 
L 328.977985 255.897956 
L 329.186014 255.903411 
L 329.394043 256.110453 
L 329.81035 256.726122 
L 330.226657 257.140205 
L 330.850992 256.551811 
L 331.059021 256.557266 
L 331.683357 255.968872 
L 331.891385 255.974327 
L 332.099664 255.576609 
L 332.515721 253.571654 
L 332.932028 249.752422 
L 333.348335 243.917324 
L 333.764392 236.267949 
L 334.388728 220.963744 
L 335.221342 199.214227 
L 335.637399 193.177543 
L 335.845678 191.97348 
L 336.053706 191.777348 
L 336.470013 193.804123 
L 336.886071 198.451521 
L 337.510406 209.555141 
L 338.967356 236.202738 
L 339.591692 244.685734 
L 340.216027 249.338587 
L 340.840363 252.378749 
L 341.048392 253.392136 
L 341.464699 254.007806 
L 342.297063 254.029626 
L 342.71337 254.443709 
L 343.129427 254.454619 
L 343.337706 254.66166 
L 343.545734 254.667115 
L 343.962041 255.484371 
L 345.835048 262.387406 
L 347.291748 265.449387 
L 347.708055 266.669816 
L 347.916084 266.876858 
L 348.332391 267.492527 
L 348.54042 267.296395 
L 348.956727 266.702546 
L 349.164755 266.506415 
L 349.372784 266.713456 
L 350.413427 268.756596 
L 350.829734 268.767506 
L 351.662098 267.378221 
L 352.078405 267.792303 
L 352.494462 268.407973 
L 353.118798 269.029097 
L 353.535105 268.636834 
L 353.743134 268.843876 
L 353.951412 269.252504 
L 354.991805 272.908335 
L 355.200083 273.316963 
L 355.616141 273.327873 
L 356.032448 273.741956 
L 356.448755 274.357625 
L 356.656783 274.564667 
L 356.864812 274.570122 
L 357.07309 274.37399 
L 357.281119 274.379445 
L 358.113483 275.81237 
L 358.321762 276.019412 
L 358.52979 276.42804 
L 358.737819 276.433495 
L 358.946097 276.640536 
L 359.362155 276.248273 
L 359.778462 275.654424 
L 359.98649 275.659879 
L 360.402797 276.678721 
L 360.610826 277.288936 
L 360.819104 277.495977 
L 361.235162 277.506887 
L 362.275804 278.542094 
L 362.692111 278.553004 
L 362.90014 278.760046 
L 363.108169 278.765501 
L 363.316447 278.972542 
L 363.524476 278.977997 
L 364.148811 280.002295 
L 364.565118 280.013205 
L 364.981175 279.620942 
L 365.397483 280.639784 
L 365.81379 282.263386 
L 366.021818 282.470427 
L 366.646154 281.277273 
L 366.854182 281.282728 
L 367.27049 282.301571 
L 367.478518 282.508612 
L 367.686797 282.514067 
L 368.311132 280.91774 
L 368.519161 280.923195 
L 369.351525 282.557707 
L 369.559804 282.563162 
L 369.767832 282.367031 
L 370.600196 280.977745 
L 370.808475 281.184787 
L 371.848868 284.840618 
L 372.265175 284.448355 
L 372.473203 284.45381 
L 372.681482 284.257679 
L 373.513846 284.279499 
L 373.930153 284.895168 
L 374.138182 285.10221 
L 374.554489 285.919465 
L 374.762517 285.92492 
L 374.970546 285.728789 
L 375.178825 285.734244 
L 375.386853 285.538113 
L 375.594882 285.543568 
L 377.25986 288.788374 
L 377.467889 288.746797 
L 377.676167 288.279329 
L 378.300503 286.070579 
L 378.508531 285.603111 
L 378.71656 285.740402 
L 379.340896 286.555448 
L 379.549174 286.692739 
L 380.589567 288.185541 
L 380.797845 288.121246 
L 381.005874 287.855364 
L 381.213903 287.992655 
L 381.63021 288.871997 
L 381.838238 289.412461 
L 382.046517 289.549752 
L 382.254545 289.485456 
L 382.878881 287.478292 
L 383.08691 287.212411 
L 383.295188 287.349702 
L 383.711245 288.632216 
L 384.127552 289.914731 
L 384.543859 290.383227 
L 384.751888 290.304799 
L 385.584252 287.543518 
L 385.792531 287.457957 
L 386.000559 287.573982 
L 386.416866 288.00762 
L 386.624895 288.123645 
L 387.249231 287.866962 
L 387.457259 287.982988 
L 387.873566 288.819798 
L 388.497902 290.377393 
L 388.705931 290.291832 
L 388.914209 290.004685 
L 389.330266 289.228804 
L 389.538545 288.941656 
L 389.954602 288.770534 
L 390.16288 288.88656 
L 390.370909 288.599412 
L 390.578938 288.513851 
L 390.787216 288.629877 
L 391.61958 290.908257 
L 392.035887 290.733569 
L 393.07628 288.464928 
L 393.284559 288.575642 
L 393.492587 288.887943 
L 394.116923 290.228017 
L 394.53323 290.449445 
L 394.741259 290.358572 
L 394.949287 290.469286 
L 395.157566 290.378414 
L 395.573623 289.793496 
L 395.98993 288.603819 
L 396.406237 287.817315 
L 396.614266 287.928029 
L 398.070966 292.56774 
L 398.279244 292.727571 
L 398.487273 292.510805 
L 398.487273 292.510805 
" clip-path="url(#pf131133210)" style="fill: none; stroke: #2ca02c; stroke-width: 1.5; stroke-linecap: square"/>
   </g>
   <g id="patch_3">
    <path d="M 57.6 307.584 
L 57.6 41.472 
" style="fill: none; stroke: #000000; stroke-width: 0.8; stroke-linejoin: miter; stroke-linecap: square"/>
   </g>
   <g id="patch_4">
    <path d="M 414.72 307.584 
L 414.72 41.472 
" style="fill: none; stroke: #000000; stroke-width: 0.8; stroke-linejoin: miter; stroke-linecap: square"/>
   </g>
   <g id="patch_5">
    <path d="M 57.6 307.584 
L 414.72 307.584 
" style="fill: none; stroke: #000000; stroke-width: 0.8; stroke-linejoin: miter; stroke-linecap: square"/>
   </g>
   <g id="patch_6">
    <path d="M 57.6 41.472 
L 414.72 41.472 
" style="fill: none; stroke: #000000; stroke-width: 0.8; stroke-linejoin: miter; stroke-linecap: square"/>
   </g>
  </g>
 </g>
 <defs>
  <clipPath id="pf131133210">
   <rect x="57.6" y="41.472" width="357.12" height="266.112"/>
  </clipPath>
 </defs>
</svg>
