<?xml version="1.0" encoding="utf-8" standalone="no"?>
<!DOCTYPE svg PUBLIC "-//W3C//DTD SVG 1.1//EN"
  "http://www.w3.org/Graphics/SVG/1.1/DTD/svg11.dtd">
<svg xmlns:xlink="http://www.w3.org/1999/xlink" width="460.8pt" height="345.6pt" viewBox="0 0 460.8 345.6" xmlns="http://www.w3.org/2000/svg" version="1.1">
 <metadata>
  <rdf:RDF xmlns:dc="http://purl.org/dc/elements/1.1/" xmlns:cc="http://creativecommons.org/ns#" xmlns:rdf="http://www.w3.org/1999/02/22-rdf-syntax-ns#">
   <cc:Work>
    <dc:type rdf:resource="http://purl.org/dc/dcmitype/StillImage"/>
    <dc:date>2025-01-07T20:19:46.541438</dc:date>
    <dc:format>image/svg+xml</dc:format>
    <dc:creator>
     <cc:Agent>
      <dc:title>Matplotlib v3.8.0, https://matplotlib.org/</dc:title>
     </cc:Agent>
    </dc:creator>
   </cc:Work>
  </rdf:RDF>
 </metadata>
 <defs>
  <style type="text/css">*{stroke-linejoin: round; stroke-linecap: butt}</style>
 </defs>
 <g id="figure_1">
  <g id="patch_1">
   <path d="M 0 345.6 
L 460.8 345.6 
L 460.8 0 
L 0 0 
z
" style="fill: #ffffff"/>
  </g>
  <g id="axes_1">
   <g id="patch_2">
    <path d="M 57.6 307.584 
L 414.72 307.584 
L 414.72 41.472 
L 57.6 41.472 
z
" style="fill: #ffffff"/>
   </g>
   <g id="matplotlib.axis_1">
    <g id="xtick_1">
     <g id="line2d_1">
      <defs>
       <path id="m62c8832367" d="M 0 0 
L 0 3.5 
" style="stroke: #000000; stroke-width: 0.8"/>
      </defs>
      <g>
       <use xlink:href="#m62c8832367" x="73.832727" y="307.584" style="stroke: #000000; stroke-width: 0.8"/>
      </g>
     </g>
     <g id="text_1">
      <!-- 0.0 -->
      <g transform="translate(65.881165 322.182437) scale(0.1 -0.1)">
       <defs>
        <path id="DejaVuSans-30" d="M 2034 4250 
Q 1547 4250 1301 3770 
Q 1056 3291 1056 2328 
Q 1056 1369 1301 889 
Q 1547 409 2034 409 
Q 2525 409 2770 889 
Q 3016 1369 3016 2328 
Q 3016 3291 2770 3770 
Q 2525 4250 2034 4250 
z
M 2034 4750 
Q 2819 4750 3233 4129 
Q 3647 3509 3647 2328 
Q 3647 1150 3233 529 
Q 2819 -91 2034 -91 
Q 1250 -91 836 529 
Q 422 1150 422 2328 
Q 422 3509 836 4129 
Q 1250 4750 2034 4750 
z
" transform="scale(0.015625)"/>
        <path id="DejaVuSans-2e" d="M 684 794 
L 1344 794 
L 1344 0 
L 684 0 
L 684 794 
z
" transform="scale(0.015625)"/>
       </defs>
       <use xlink:href="#DejaVuSans-30"/>
       <use xlink:href="#DejaVuSans-2e" x="63.623047"/>
       <use xlink:href="#DejaVuSans-30" x="95.410156"/>
      </g>
     </g>
    </g>
    <g id="xtick_2">
     <g id="line2d_2">
      <g>
       <use xlink:href="#m62c8832367" x="115.455105" y="307.584" style="stroke: #000000; stroke-width: 0.8"/>
      </g>
     </g>
     <g id="text_2">
      <!-- 2.5 -->
      <g transform="translate(107.503542 322.182437) scale(0.1 -0.1)">
       <defs>
        <path id="DejaVuSans-32" d="M 1228 531 
L 3431 531 
L 3431 0 
L 469 0 
L 469 531 
Q 828 903 1448 1529 
Q 2069 2156 2228 2338 
Q 2531 2678 2651 2914 
Q 2772 3150 2772 3378 
Q 2772 3750 2511 3984 
Q 2250 4219 1831 4219 
Q 1534 4219 1204 4116 
Q 875 4013 500 3803 
L 500 4441 
Q 881 4594 1212 4672 
Q 1544 4750 1819 4750 
Q 2544 4750 2975 4387 
Q 3406 4025 3406 3419 
Q 3406 3131 3298 2873 
Q 3191 2616 2906 2266 
Q 2828 2175 2409 1742 
Q 1991 1309 1228 531 
z
" transform="scale(0.015625)"/>
        <path id="DejaVuSans-35" d="M 691 4666 
L 3169 4666 
L 3169 4134 
L 1269 4134 
L 1269 2991 
Q 1406 3038 1543 3061 
Q 1681 3084 1819 3084 
Q 2600 3084 3056 2656 
Q 3513 2228 3513 1497 
Q 3513 744 3044 326 
Q 2575 -91 1722 -91 
Q 1428 -91 1123 -41 
Q 819 9 494 109 
L 494 744 
Q 775 591 1075 516 
Q 1375 441 1709 441 
Q 2250 441 2565 725 
Q 2881 1009 2881 1497 
Q 2881 1984 2565 2268 
Q 2250 2553 1709 2553 
Q 1456 2553 1204 2497 
Q 953 2441 691 2322 
L 691 4666 
z
" transform="scale(0.015625)"/>
       </defs>
       <use xlink:href="#DejaVuSans-32"/>
       <use xlink:href="#DejaVuSans-2e" x="63.623047"/>
       <use xlink:href="#DejaVuSans-35" x="95.410156"/>
      </g>
     </g>
    </g>
    <g id="xtick_3">
     <g id="line2d_3">
      <g>
       <use xlink:href="#m62c8832367" x="157.077483" y="307.584" style="stroke: #000000; stroke-width: 0.8"/>
      </g>
     </g>
     <g id="text_3">
      <!-- 5.0 -->
      <g transform="translate(149.12592 322.182437) scale(0.1 -0.1)">
       <use xlink:href="#DejaVuSans-35"/>
       <use xlink:href="#DejaVuSans-2e" x="63.623047"/>
       <use xlink:href="#DejaVuSans-30" x="95.410156"/>
      </g>
     </g>
    </g>
    <g id="xtick_4">
     <g id="line2d_4">
      <g>
       <use xlink:href="#m62c8832367" x="198.69986" y="307.584" style="stroke: #000000; stroke-width: 0.8"/>
      </g>
     </g>
     <g id="text_4">
      <!-- 7.5 -->
      <g transform="translate(190.748298 322.182437) scale(0.1 -0.1)">
       <defs>
        <path id="DejaVuSans-37" d="M 525 4666 
L 3525 4666 
L 3525 4397 
L 1831 0 
L 1172 0 
L 2766 4134 
L 525 4134 
L 525 4666 
z
" transform="scale(0.015625)"/>
       </defs>
       <use xlink:href="#DejaVuSans-37"/>
       <use xlink:href="#DejaVuSans-2e" x="63.623047"/>
       <use xlink:href="#DejaVuSans-35" x="95.410156"/>
      </g>
     </g>
    </g>
    <g id="xtick_5">
     <g id="line2d_5">
      <g>
       <use xlink:href="#m62c8832367" x="240.322238" y="307.584" style="stroke: #000000; stroke-width: 0.8"/>
      </g>
     </g>
     <g id="text_5">
      <!-- 10.0 -->
      <g transform="translate(229.189425 322.182437) scale(0.1 -0.1)">
       <defs>
        <path id="DejaVuSans-31" d="M 794 531 
L 1825 531 
L 1825 4091 
L 703 3866 
L 703 4441 
L 1819 4666 
L 2450 4666 
L 2450 531 
L 3481 531 
L 3481 0 
L 794 0 
L 794 531 
z
" transform="scale(0.015625)"/>
       </defs>
       <use xlink:href="#DejaVuSans-31"/>
       <use xlink:href="#DejaVuSans-30" x="63.623047"/>
       <use xlink:href="#DejaVuSans-2e" x="127.246094"/>
       <use xlink:href="#DejaVuSans-30" x="159.033203"/>
      </g>
     </g>
    </g>
    <g id="xtick_6">
     <g id="line2d_6">
      <g>
       <use xlink:href="#m62c8832367" x="281.944615" y="307.584" style="stroke: #000000; stroke-width: 0.8"/>
      </g>
     </g>
     <g id="text_6">
      <!-- 12.5 -->
      <g transform="translate(270.811803 322.182437) scale(0.1 -0.1)">
       <use xlink:href="#DejaVuSans-31"/>
       <use xlink:href="#DejaVuSans-32" x="63.623047"/>
       <use xlink:href="#DejaVuSans-2e" x="127.246094"/>
       <use xlink:href="#DejaVuSans-35" x="159.033203"/>
      </g>
     </g>
    </g>
    <g id="xtick_7">
     <g id="line2d_7">
      <g>
       <use xlink:href="#m62c8832367" x="323.566993" y="307.584" style="stroke: #000000; stroke-width: 0.8"/>
      </g>
     </g>
     <g id="text_7">
      <!-- 15.0 -->
      <g transform="translate(312.434181 322.182437) scale(0.1 -0.1)">
       <use xlink:href="#DejaVuSans-31"/>
       <use xlink:href="#DejaVuSans-35" x="63.623047"/>
       <use xlink:href="#DejaVuSans-2e" x="127.246094"/>
       <use xlink:href="#DejaVuSans-30" x="159.033203"/>
      </g>
     </g>
    </g>
    <g id="xtick_8">
     <g id="line2d_8">
      <g>
       <use xlink:href="#m62c8832367" x="365.189371" y="307.584" style="stroke: #000000; stroke-width: 0.8"/>
      </g>
     </g>
     <g id="text_8">
      <!-- 17.5 -->
      <g transform="translate(354.056558 322.182437) scale(0.1 -0.1)">
       <use xlink:href="#DejaVuSans-31"/>
       <use xlink:href="#DejaVuSans-37" x="63.623047"/>
       <use xlink:href="#DejaVuSans-2e" x="127.246094"/>
       <use xlink:href="#DejaVuSans-35" x="159.033203"/>
      </g>
     </g>
    </g>
    <g id="xtick_9">
     <g id="line2d_9">
      <g>
       <use xlink:href="#m62c8832367" x="406.811748" y="307.584" style="stroke: #000000; stroke-width: 0.8"/>
      </g>
     </g>
     <g id="text_9">
      <!-- 20.0 -->
      <g transform="translate(395.678936 322.182437) scale(0.1 -0.1)">
       <use xlink:href="#DejaVuSans-32"/>
       <use xlink:href="#DejaVuSans-30" x="63.623047"/>
       <use xlink:href="#DejaVuSans-2e" x="127.246094"/>
       <use xlink:href="#DejaVuSans-30" x="159.033203"/>
      </g>
     </g>
    </g>
    <g id="text_10">
     <!-- Retention Volume (mL) -->
     <g transform="translate(178.718594 335.860562) scale(0.1 -0.1)">
      <defs>
       <path id="DejaVuSans-52" d="M 2841 2188 
Q 3044 2119 3236 1894 
Q 3428 1669 3622 1275 
L 4263 0 
L 3584 0 
L 2988 1197 
Q 2756 1666 2539 1819 
Q 2322 1972 1947 1972 
L 1259 1972 
L 1259 0 
L 628 0 
L 628 4666 
L 2053 4666 
Q 2853 4666 3247 4331 
Q 3641 3997 3641 3322 
Q 3641 2881 3436 2590 
Q 3231 2300 2841 2188 
z
M 1259 4147 
L 1259 2491 
L 2053 2491 
Q 2509 2491 2742 2702 
Q 2975 2913 2975 3322 
Q 2975 3731 2742 3939 
Q 2509 4147 2053 4147 
L 1259 4147 
z
" transform="scale(0.015625)"/>
       <path id="DejaVuSans-65" d="M 3597 1894 
L 3597 1613 
L 953 1613 
Q 991 1019 1311 708 
Q 1631 397 2203 397 
Q 2534 397 2845 478 
Q 3156 559 3463 722 
L 3463 178 
Q 3153 47 2828 -22 
Q 2503 -91 2169 -91 
Q 1331 -91 842 396 
Q 353 884 353 1716 
Q 353 2575 817 3079 
Q 1281 3584 2069 3584 
Q 2775 3584 3186 3129 
Q 3597 2675 3597 1894 
z
M 3022 2063 
Q 3016 2534 2758 2815 
Q 2500 3097 2075 3097 
Q 1594 3097 1305 2825 
Q 1016 2553 972 2059 
L 3022 2063 
z
" transform="scale(0.015625)"/>
       <path id="DejaVuSans-74" d="M 1172 4494 
L 1172 3500 
L 2356 3500 
L 2356 3053 
L 1172 3053 
L 1172 1153 
Q 1172 725 1289 603 
Q 1406 481 1766 481 
L 2356 481 
L 2356 0 
L 1766 0 
Q 1100 0 847 248 
Q 594 497 594 1153 
L 594 3053 
L 172 3053 
L 172 3500 
L 594 3500 
L 594 4494 
L 1172 4494 
z
" transform="scale(0.015625)"/>
       <path id="DejaVuSans-6e" d="M 3513 2113 
L 3513 0 
L 2938 0 
L 2938 2094 
Q 2938 2591 2744 2837 
Q 2550 3084 2163 3084 
Q 1697 3084 1428 2787 
Q 1159 2491 1159 1978 
L 1159 0 
L 581 0 
L 581 3500 
L 1159 3500 
L 1159 2956 
Q 1366 3272 1645 3428 
Q 1925 3584 2291 3584 
Q 2894 3584 3203 3211 
Q 3513 2838 3513 2113 
z
" transform="scale(0.015625)"/>
       <path id="DejaVuSans-69" d="M 603 3500 
L 1178 3500 
L 1178 0 
L 603 0 
L 603 3500 
z
M 603 4863 
L 1178 4863 
L 1178 4134 
L 603 4134 
L 603 4863 
z
" transform="scale(0.015625)"/>
       <path id="DejaVuSans-6f" d="M 1959 3097 
Q 1497 3097 1228 2736 
Q 959 2375 959 1747 
Q 959 1119 1226 758 
Q 1494 397 1959 397 
Q 2419 397 2687 759 
Q 2956 1122 2956 1747 
Q 2956 2369 2687 2733 
Q 2419 3097 1959 3097 
z
M 1959 3584 
Q 2709 3584 3137 3096 
Q 3566 2609 3566 1747 
Q 3566 888 3137 398 
Q 2709 -91 1959 -91 
Q 1206 -91 779 398 
Q 353 888 353 1747 
Q 353 2609 779 3096 
Q 1206 3584 1959 3584 
z
" transform="scale(0.015625)"/>
       <path id="DejaVuSans-20" transform="scale(0.015625)"/>
       <path id="DejaVuSans-56" d="M 1831 0 
L 50 4666 
L 709 4666 
L 2188 738 
L 3669 4666 
L 4325 4666 
L 2547 0 
L 1831 0 
z
" transform="scale(0.015625)"/>
       <path id="DejaVuSans-6c" d="M 603 4863 
L 1178 4863 
L 1178 0 
L 603 0 
L 603 4863 
z
" transform="scale(0.015625)"/>
       <path id="DejaVuSans-75" d="M 544 1381 
L 544 3500 
L 1119 3500 
L 1119 1403 
Q 1119 906 1312 657 
Q 1506 409 1894 409 
Q 2359 409 2629 706 
Q 2900 1003 2900 1516 
L 2900 3500 
L 3475 3500 
L 3475 0 
L 2900 0 
L 2900 538 
Q 2691 219 2414 64 
Q 2138 -91 1772 -91 
Q 1169 -91 856 284 
Q 544 659 544 1381 
z
M 1991 3584 
L 1991 3584 
z
" transform="scale(0.015625)"/>
       <path id="DejaVuSans-6d" d="M 3328 2828 
Q 3544 3216 3844 3400 
Q 4144 3584 4550 3584 
Q 5097 3584 5394 3201 
Q 5691 2819 5691 2113 
L 5691 0 
L 5113 0 
L 5113 2094 
Q 5113 2597 4934 2840 
Q 4756 3084 4391 3084 
Q 3944 3084 3684 2787 
Q 3425 2491 3425 1978 
L 3425 0 
L 2847 0 
L 2847 2094 
Q 2847 2600 2669 2842 
Q 2491 3084 2119 3084 
Q 1678 3084 1418 2786 
Q 1159 2488 1159 1978 
L 1159 0 
L 581 0 
L 581 3500 
L 1159 3500 
L 1159 2956 
Q 1356 3278 1631 3431 
Q 1906 3584 2284 3584 
Q 2666 3584 2933 3390 
Q 3200 3197 3328 2828 
z
" transform="scale(0.015625)"/>
       <path id="DejaVuSans-28" d="M 1984 4856 
Q 1566 4138 1362 3434 
Q 1159 2731 1159 2009 
Q 1159 1288 1364 580 
Q 1569 -128 1984 -844 
L 1484 -844 
Q 1016 -109 783 600 
Q 550 1309 550 2009 
Q 550 2706 781 3412 
Q 1013 4119 1484 4856 
L 1984 4856 
z
" transform="scale(0.015625)"/>
       <path id="DejaVuSans-4c" d="M 628 4666 
L 1259 4666 
L 1259 531 
L 3531 531 
L 3531 0 
L 628 0 
L 628 4666 
z
" transform="scale(0.015625)"/>
       <path id="DejaVuSans-29" d="M 513 4856 
L 1013 4856 
Q 1481 4119 1714 3412 
Q 1947 2706 1947 2009 
Q 1947 1309 1714 600 
Q 1481 -109 1013 -844 
L 513 -844 
Q 928 -128 1133 580 
Q 1338 1288 1338 2009 
Q 1338 2731 1133 3434 
Q 928 4138 513 4856 
z
" transform="scale(0.015625)"/>
      </defs>
      <use xlink:href="#DejaVuSans-52"/>
      <use xlink:href="#DejaVuSans-65" x="64.982422"/>
      <use xlink:href="#DejaVuSans-74" x="126.505859"/>
      <use xlink:href="#DejaVuSans-65" x="165.714844"/>
      <use xlink:href="#DejaVuSans-6e" x="227.238281"/>
      <use xlink:href="#DejaVuSans-74" x="290.617188"/>
      <use xlink:href="#DejaVuSans-69" x="329.826172"/>
      <use xlink:href="#DejaVuSans-6f" x="357.609375"/>
      <use xlink:href="#DejaVuSans-6e" x="418.791016"/>
      <use xlink:href="#DejaVuSans-20" x="482.169922"/>
      <use xlink:href="#DejaVuSans-56" x="513.957031"/>
      <use xlink:href="#DejaVuSans-6f" x="574.615234"/>
      <use xlink:href="#DejaVuSans-6c" x="635.796875"/>
      <use xlink:href="#DejaVuSans-75" x="663.580078"/>
      <use xlink:href="#DejaVuSans-6d" x="726.958984"/>
      <use xlink:href="#DejaVuSans-65" x="824.371094"/>
      <use xlink:href="#DejaVuSans-20" x="885.894531"/>
      <use xlink:href="#DejaVuSans-28" x="917.681641"/>
      <use xlink:href="#DejaVuSans-6d" x="956.695312"/>
      <use xlink:href="#DejaVuSans-4c" x="1054.107422"/>
      <use xlink:href="#DejaVuSans-29" x="1109.820312"/>
     </g>
    </g>
   </g>
   <g id="matplotlib.axis_2">
    <g id="ytick_1">
     <g id="line2d_10">
      <defs>
       <path id="mded1f11f96" d="M 0 0 
L -3.5 0 
" style="stroke: #000000; stroke-width: 0.8"/>
      </defs>
      <g>
       <use xlink:href="#mded1f11f96" x="57.6" y="294.212331" style="stroke: #000000; stroke-width: 0.8"/>
      </g>
     </g>
     <g id="text_11">
      <!-- 0 -->
      <g transform="translate(44.2375 298.01155) scale(0.1 -0.1)">
       <use xlink:href="#DejaVuSans-30"/>
      </g>
     </g>
    </g>
    <g id="ytick_2">
     <g id="line2d_11">
      <g>
       <use xlink:href="#mded1f11f96" x="57.6" y="236.819085" style="stroke: #000000; stroke-width: 0.8"/>
      </g>
     </g>
     <g id="text_12">
      <!-- 500 -->
      <g transform="translate(31.5125 240.618304) scale(0.1 -0.1)">
       <use xlink:href="#DejaVuSans-35"/>
       <use xlink:href="#DejaVuSans-30" x="63.623047"/>
       <use xlink:href="#DejaVuSans-30" x="127.246094"/>
      </g>
     </g>
    </g>
    <g id="ytick_3">
     <g id="line2d_12">
      <g>
       <use xlink:href="#mded1f11f96" x="57.6" y="179.425839" style="stroke: #000000; stroke-width: 0.8"/>
      </g>
     </g>
     <g id="text_13">
      <!-- 1000 -->
      <g transform="translate(25.15 183.225058) scale(0.1 -0.1)">
       <use xlink:href="#DejaVuSans-31"/>
       <use xlink:href="#DejaVuSans-30" x="63.623047"/>
       <use xlink:href="#DejaVuSans-30" x="127.246094"/>
       <use xlink:href="#DejaVuSans-30" x="190.869141"/>
      </g>
     </g>
    </g>
    <g id="ytick_4">
     <g id="line2d_13">
      <g>
       <use xlink:href="#mded1f11f96" x="57.6" y="122.032593" style="stroke: #000000; stroke-width: 0.8"/>
      </g>
     </g>
     <g id="text_14">
      <!-- 1500 -->
      <g transform="translate(25.15 125.831812) scale(0.1 -0.1)">
       <use xlink:href="#DejaVuSans-31"/>
       <use xlink:href="#DejaVuSans-35" x="63.623047"/>
       <use xlink:href="#DejaVuSans-30" x="127.246094"/>
       <use xlink:href="#DejaVuSans-30" x="190.869141"/>
      </g>
     </g>
    </g>
    <g id="ytick_5">
     <g id="line2d_14">
      <g>
       <use xlink:href="#mded1f11f96" x="57.6" y="64.639347" style="stroke: #000000; stroke-width: 0.8"/>
      </g>
     </g>
     <g id="text_15">
      <!-- 2000 -->
      <g transform="translate(25.15 68.438565) scale(0.1 -0.1)">
       <use xlink:href="#DejaVuSans-32"/>
       <use xlink:href="#DejaVuSans-30" x="63.623047"/>
       <use xlink:href="#DejaVuSans-30" x="127.246094"/>
       <use xlink:href="#DejaVuSans-30" x="190.869141"/>
      </g>
     </g>
    </g>
    <g id="text_16">
     <!-- Intensity -->
     <g transform="translate(19.070312 196.2905) rotate(-90) scale(0.1 -0.1)">
      <defs>
       <path id="DejaVuSans-49" d="M 628 4666 
L 1259 4666 
L 1259 0 
L 628 0 
L 628 4666 
z
" transform="scale(0.015625)"/>
       <path id="DejaVuSans-73" d="M 2834 3397 
L 2834 2853 
Q 2591 2978 2328 3040 
Q 2066 3103 1784 3103 
Q 1356 3103 1142 2972 
Q 928 2841 928 2578 
Q 928 2378 1081 2264 
Q 1234 2150 1697 2047 
L 1894 2003 
Q 2506 1872 2764 1633 
Q 3022 1394 3022 966 
Q 3022 478 2636 193 
Q 2250 -91 1575 -91 
Q 1294 -91 989 -36 
Q 684 19 347 128 
L 347 722 
Q 666 556 975 473 
Q 1284 391 1588 391 
Q 1994 391 2212 530 
Q 2431 669 2431 922 
Q 2431 1156 2273 1281 
Q 2116 1406 1581 1522 
L 1381 1569 
Q 847 1681 609 1914 
Q 372 2147 372 2553 
Q 372 3047 722 3315 
Q 1072 3584 1716 3584 
Q 2034 3584 2315 3537 
Q 2597 3491 2834 3397 
z
" transform="scale(0.015625)"/>
       <path id="DejaVuSans-79" d="M 2059 -325 
Q 1816 -950 1584 -1140 
Q 1353 -1331 966 -1331 
L 506 -1331 
L 506 -850 
L 844 -850 
Q 1081 -850 1212 -737 
Q 1344 -625 1503 -206 
L 1606 56 
L 191 3500 
L 800 3500 
L 1894 763 
L 2988 3500 
L 3597 3500 
L 2059 -325 
z
" transform="scale(0.015625)"/>
      </defs>
      <use xlink:href="#DejaVuSans-49"/>
      <use xlink:href="#DejaVuSans-6e" x="29.492188"/>
      <use xlink:href="#DejaVuSans-74" x="92.871094"/>
      <use xlink:href="#DejaVuSans-65" x="132.080078"/>
      <use xlink:href="#DejaVuSans-6e" x="193.603516"/>
      <use xlink:href="#DejaVuSans-73" x="256.982422"/>
      <use xlink:href="#DejaVuSans-69" x="309.082031"/>
      <use xlink:href="#DejaVuSans-74" x="336.865234"/>
      <use xlink:href="#DejaVuSans-79" x="376.074219"/>
     </g>
    </g>
   </g>
   <g id="line2d_15">
    <path d="M 73.832727 291.23385 
L 74.040756 291.204437 
L 74.249034 293.011607 
L 74.457063 293.326553 
L 74.87337 293.15294 
L 75.497706 293.294273 
L 75.705734 293.26486 
L 76.122041 293.550393 
L 76.954406 294.351598 
L 77.162434 294.324335 
L 77.78677 293.55757 
L 77.995048 293.531555 
L 78.827413 293.771853 
L 79.24372 293.605036 
L 79.451748 293.57902 
L 80.076084 293.730547 
L 80.492391 293.56373 
L 80.908448 293.511699 
L 81.949091 294.647608 
L 82.365398 294.274027 
L 82.989734 292.860716 
L 83.405791 292.722014 
L 84.030127 293.260074 
L 84.238405 293.248117 
L 85.903134 292.348951 
L 86.111412 292.336993 
L 86.319441 292.210249 
L 86.943776 292.403949 
L 87.360083 292.380034 
L 87.776141 292.700479 
L 88.816783 294.362488 
L 89.024812 294.467047 
L 89.23309 294.345227 
L 90.273483 292.710599 
L 91.106097 293.032865 
L 91.314126 293.027341 
L 91.730433 292.671935 
L 91.938462 292.781198 
L 92.562797 293.797706 
L 92.770826 293.906969 
L 93.395162 293.546039 
L 93.811469 293.879352 
L 94.227776 294.327451 
L 94.852111 294.203652 
L 95.268169 293.625967 
L 95.892504 292.472473 
L 96.100783 292.470596 
L 96.308811 292.583506 
L 97.141175 293.838652 
L 97.557483 293.949686 
L 97.97379 293.945933 
L 98.389847 294.056967 
L 98.806154 293.479282 
L 99.222461 292.78681 
L 99.638518 292.668271 
L 99.846797 292.666395 
L 100.471132 292.431193 
L 100.887189 292.7718 
L 101.511525 293.914035 
L 101.719804 294.026945 
L 101.927832 293.910283 
L 102.968475 292.29389 
L 103.384532 291.945778 
L 103.800839 291.827239 
L 105.04951 292.504699 
L 105.881875 293.874632 
L 106.714489 294.211497 
L 106.922517 294.209623 
L 108.171189 292.705978 
L 108.587496 292.013453 
L 108.795524 291.896763 
L 109.211831 292.237316 
L 109.627889 292.692655 
L 109.836167 292.690752 
L 111.084838 291.416681 
L 111.709174 291.870117 
L 112.125231 292.440242 
L 112.33351 292.667912 
L 112.749567 292.664105 
L 113.165874 292.775085 
L 113.373903 292.658396 
L 113.79021 292.080656 
L 113.998238 291.84918 
L 114.206517 291.847277 
L 114.830852 292.874645 
L 115.038881 292.872742 
L 115.24691 292.756052 
L 115.871245 291.83205 
L 116.287552 291.828244 
L 117.744252 292.733212 
L 118.368588 293.301435 
L 118.784895 293.297628 
L 119.201202 293.179035 
L 119.409231 293.177132 
L 119.825538 293.632471 
L 120.241595 293.628665 
L 120.865931 292.819449 
L 121.282238 292.126924 
L 121.698545 291.778758 
L 121.906573 291.776854 
L 122.32288 291.887834 
L 122.530909 291.885931 
L 123.363273 291.533958 
L 123.77958 291.530151 
L 123.987609 291.413462 
L 124.403916 291.639228 
L 124.820223 292.209354 
L 125.028252 292.20745 
L 125.23628 292.320334 
L 126.068894 291.968361 
L 126.276923 292.081244 
L 126.69323 291.962651 
L 126.901259 291.960748 
L 128.14993 292.638047 
L 128.566237 292.289881 
L 128.982294 291.941715 
L 129.60663 291.476859 
L 130.230966 290.897216 
L 130.647273 291.122983 
L 131.271608 292.035565 
L 132.103973 292.831457 
L 132.312251 292.829553 
L 133.352644 291.786958 
L 133.768951 291.668365 
L 134.393287 291.662655 
L 134.809594 291.314489 
L 135.017622 290.968226 
L 135.433929 290.849633 
L 135.849987 291.419759 
L 136.682601 292.789584 
L 137.098658 292.900564 
L 137.306936 292.89866 
L 138.763636 292.196618 
L 139.179943 292.192812 
L 139.387972 292.076122 
L 139.804279 291.498383 
L 140.220336 291.265003 
L 140.636643 291.605556 
L 141.05295 292.175682 
L 141.677286 293.088264 
L 141.885315 293.201147 
L 142.301622 292.852981 
L 142.717679 292.275242 
L 143.550293 291.464123 
L 143.96635 291.230743 
L 144.590686 291.454606 
L 145.215022 291.104537 
L 145.4233 291.332207 
L 146.255664 293.046391 
L 146.463693 293.274061 
L 146.671971 293.272157 
L 146.88 293.155467 
L 147.504336 292.001893 
L 147.712364 291.999989 
L 148.3367 292.568212 
L 148.544978 292.221949 
L 148.961036 291.185064 
L 149.169314 290.838801 
L 149.585371 290.720208 
L 149.79365 290.833091 
L 150.626014 290.481118 
L 151.042321 290.477312 
L 151.458378 290.817865 
L 151.666657 291.160321 
L 152.499021 293.218864 
L 153.539664 292.750202 
L 153.747692 292.748299 
L 154.580057 291.478034 
L 154.788335 291.246558 
L 155.412671 291.699994 
L 155.620699 292.04245 
L 155.828728 292.155333 
L 156.661342 291.688574 
L 156.869371 291.801457 
L 157.493706 292.714039 
L 157.701735 292.826922 
L 157.910013 292.710232 
L 158.534349 291.78623 
L 158.950406 291.438064 
L 159.158685 291.436161 
L 159.991049 290.969402 
L 160.407356 291.309955 
L 161.23972 292.909352 
L 161.447749 293.137022 
L 161.656027 293.135119 
L 162.072085 293.350698 
L 162.488392 293.066381 
L 163.112727 292.164894 
L 163.737063 291.148621 
L 163.945092 291.001173 
L 164.777706 291.214891 
L 165.193763 290.575637 
L 165.61007 289.936384 
L 166.026377 289.756276 
L 166.442434 290.035314 
L 167.275048 291.626469 
L 167.483077 291.593809 
L 168.315441 291.118807 
L 168.52372 291.086147 
L 168.731748 290.9387 
L 169.148055 290.069873 
L 169.564113 289.08626 
L 169.98042 288.561793 
L 170.188448 288.529132 
L 170.396727 288.840831 
L 171.43712 291.432404 
L 171.645398 291.399744 
L 171.853427 291.13751 
L 172.685791 289.399857 
L 172.894069 289.25241 
L 173.518405 289.498788 
L 174.142741 290.319098 
L 174.558798 290.712923 
L 174.767076 290.680262 
L 174.975105 290.532815 
L 176.431805 287.319742 
L 176.848112 286.795275 
L 177.056141 286.762615 
L 177.264419 286.615168 
L 177.680476 285.401982 
L 178.929148 280.040626 
L 180.594126 272.088647 
L 182.88344 261.169023 
L 183.299497 256.856602 
L 183.715804 249.330159 
L 184.132111 237.671402 
L 185.588811 189.576811 
L 185.79684 188.396285 
L 186.005118 189.396703 
L 186.213147 192.578064 
L 186.837483 211.419854 
L 187.669847 238.378824 
L 188.294182 252.399581 
L 188.918518 260.7958 
L 189.959161 269.471057 
L 190.583497 272.81667 
L 190.999804 274.243573 
L 192.456503 276.999398 
L 192.872811 277.278436 
L 193.080839 277.360562 
L 193.913203 278.492571 
L 194.121482 278.459911 
L 194.537539 278.279803 
L 194.953846 278.558842 
L 195.370153 279.297026 
L 196.410546 281.19988 
L 196.618825 281.511579 
L 196.826853 281.593705 
L 197.034882 281.446258 
L 197.659217 280.315198 
L 197.867496 280.282537 
L 198.491831 280.643701 
L 198.907889 280.92274 
L 199.324196 280.513059 
L 200.364838 278.627959 
L 201.405231 279.497735 
L 202.029567 279.629326 
L 202.237845 279.596665 
L 203.694545 280.171547 
L 205.151245 279.024631 
L 205.567552 278.61495 
L 205.775581 278.58229 
L 207.024252 279.763764 
L 207.440559 279.354084 
L 207.856866 278.485257 
L 208.064895 278.223024 
L 208.272924 278.30515 
L 208.897259 279.355033 
L 209.313566 279.404498 
L 210.145931 278.81471 
L 210.562238 278.175456 
L 210.770266 278.142796 
L 211.394602 278.963106 
L 211.810909 279.242144 
L 212.018938 279.209484 
L 213.05958 278.587035 
L 214.100223 280.030743 
L 214.51628 280.309782 
L 215.140616 280.441373 
L 215.556923 280.031692 
L 216.181259 279.244992 
L 216.389287 279.212331 
L 216.597566 279.294457 
L 217.221901 280.114767 
L 217.42993 280.31168 
L 217.637959 280.279019 
L 218.470573 279.344871 
L 219.302937 279.214229 
L 220.551608 277.755614 
L 220.759637 277.722954 
L 221.592251 277.936671 
L 221.80028 277.904011 
L 222.632644 277.429009 
L 223.25698 278.019746 
L 223.673287 277.954425 
L 224.089594 277.544744 
L 225.129987 276.348363 
L 225.962601 277.595159 
L 226.170629 277.562498 
L 226.586936 277.152818 
L 227.002994 276.97271 
L 227.211272 276.94005 
L 227.627329 276.530369 
L 227.835608 276.268135 
L 228.043636 276.235475 
L 228.251665 276.317601 
L 229.292308 278.450028 
L 229.708615 278.384707 
L 230.124672 277.975026 
L 231.373343 276.401625 
L 231.581622 276.368964 
L 232.205957 276.04141 
L 232.622015 276.550021 
L 233.454629 278.485536 
L 233.662657 278.912021 
L 234.078964 278.961486 
L 235.743693 276.863618 
L 235.951971 276.830957 
L 236.992364 276.208509 
L 237.200643 276.405421 
L 237.824978 277.570091 
L 238.033007 277.767003 
L 238.241036 277.734343 
L 238.657343 277.324662 
L 239.697985 276.702213 
L 240.322321 276.604232 
L 240.738378 275.964978 
L 241.154685 275.325724 
L 241.570992 275.489976 
L 242.403357 277.081132 
L 243.443999 277.950907 
L 243.652028 278.033033 
L 244.068335 277.623352 
L 244.692671 276.721865 
L 245.108728 276.082612 
L 245.525035 275.902504 
L 246.149371 276.608028 
L 246.357399 276.460581 
L 247.190013 275.182074 
L 247.814349 275.543238 
L 248.230406 275.822276 
L 248.438685 275.789616 
L 249.479078 275.167167 
L 250.103413 275.069185 
L 250.51972 275.118651 
L 250.727749 274.971204 
L 251.352085 273.725357 
L 251.97642 272.020364 
L 252.600756 270.430158 
L 252.809034 270.167925 
L 253.017063 270.135264 
L 254.057706 270.545894 
L 254.265734 270.398447 
L 254.682041 269.52962 
L 255.098099 268.546007 
L 255.306377 268.283774 
L 255.514406 268.251113 
L 256.34677 268.694403 
L 256.555048 268.891316 
L 257.387413 271.400763 
L 257.595441 271.712462 
L 258.011748 271.761927 
L 258.219777 271.729267 
L 258.636084 272.008305 
L 259.884755 273.304566 
L 260.925398 275.781353 
L 261.549734 276.257303 
L 261.965791 276.191982 
L 263.006434 275.33996 
L 263.630769 274.55326 
L 263.838798 274.520599 
L 264.047076 274.602725 
L 264.671412 275.423035 
L 265.295748 274.865908 
L 266.128112 273.93176 
L 266.544419 273.751653 
L 266.752448 273.833778 
L 267.584812 274.965788 
L 268.625455 273.65462 
L 269.457819 274.09791 
L 270.290433 274.770773 
L 270.498462 274.50854 
L 270.914769 273.639713 
L 271.122797 273.37748 
L 271.539104 273.312159 
L 271.955162 273.591197 
L 272.371469 273.640662 
L 273.412111 273.47736 
L 274.244476 272.543212 
L 274.660783 272.477891 
L 275.285118 272.839055 
L 276.117483 274.085851 
L 276.53379 274.135316 
L 276.741818 274.102655 
L 277.366154 274.349033 
L 277.782461 273.939353 
L 278.406797 273.152652 
L 278.614825 273.119991 
L 278.822854 272.972544 
L 279.239161 273.02201 
L 279.655468 272.612329 
L 280.071525 271.858289 
L 280.487832 271.678182 
L 280.695861 271.875094 
L 281.112168 272.613278 
L 281.528475 272.77753 
L 281.944532 272.36785 
L 282.985175 271.171468 
L 283.193203 271.138808 
L 283.817539 270.811253 
L 284.233846 270.745932 
L 284.441875 270.828058 
L 284.858182 270.418377 
L 285.274489 269.779124 
L 285.690546 269.599016 
L 286.314882 270.189753 
L 286.731189 269.780073 
L 287.563553 267.927633 
L 287.97986 267.977099 
L 288.187889 267.944438 
L 288.812224 267.272524 
L 289.228531 267.092416 
L 289.644838 267.141882 
L 290.477203 266.207734 
L 291.309567 265.503159 
L 291.517845 265.240926 
L 291.933903 265.175605 
L 292.35021 265.22507 
L 292.766517 265.159749 
L 292.974545 265.012302 
L 293.598881 265.143893 
L 294.223217 264.586765 
L 294.847552 263.914851 
L 295.055581 263.882191 
L 295.263859 264.079103 
L 295.471888 264.620375 
L 295.888195 267.424716 
L 296.304252 273.09872 
L 297.552924 293.679111 
L 297.761202 294.903703 
L 297.969231 295.343675 
L 298.177259 295.024537 
L 298.593566 292.827747 
L 299.634209 284.578772 
L 300.050266 282.955064 
L 300.674602 281.609975 
L 301.715245 280.707335 
L 302.131552 279.542774 
L 303.79628 273.047944 
L 304.212587 272.112956 
L 304.836923 270.079148 
L 305.25323 269.488519 
L 305.461259 269.537564 
L 306.293623 270.078103 
L 306.501901 269.897575 
L 307.542294 267.273138 
L 307.958601 266.797295 
L 308.582937 266.026139 
L 309.62358 265.697431 
L 310.247915 266.188926 
L 310.663973 265.82787 
L 311.08028 265.122454 
L 311.288308 265.056713 
L 311.496587 265.335331 
L 312.120922 266.745117 
L 312.328951 266.908949 
L 312.953287 266.826511 
L 313.161315 266.990342 
L 313.577622 268.006724 
L 313.993929 268.90832 
L 314.409987 269.350769 
L 314.826294 269.793219 
L 315.242601 270.465241 
L 315.866936 270.841949 
L 316.074965 270.890994 
L 316.491272 270.759511 
L 316.907329 270.283669 
L 317.323636 270.037399 
L 317.947972 270.184534 
L 318.364279 270.512197 
L 319.404672 272.249647 
L 319.61295 272.298692 
L 320.029008 272.052422 
L 320.653343 271.281265 
L 321.06965 271.034996 
L 322.318322 272.591917 
L 322.942657 272.509479 
L 323.358964 272.607569 
L 323.9833 273.443423 
L 324.191329 273.492468 
L 324.607636 272.787053 
L 325.023693 271.622492 
L 325.231971 271.327177 
L 325.648029 271.310481 
L 326.064336 271.523357 
L 326.480643 271.277088 
L 327.729314 270.308706 
L 327.937343 270.357751 
L 328.145371 270.521583 
L 329.394043 272.652437 
L 329.81035 273.094886 
L 330.018378 273.258718 
L 330.434685 273.242021 
L 330.642714 273.405853 
L 331.475328 275.209044 
L 331.683357 275.143302 
L 332.099664 274.093527 
L 332.515721 272.12546 
L 332.932028 269.468675 
L 333.556364 263.187766 
L 334.597006 247.248096 
L 335.429371 234.014256 
L 336.053706 227.274202 
L 336.470013 225.306135 
L 336.678042 225.240393 
L 336.886071 225.863371 
L 337.302378 229.290269 
L 337.926713 238.39075 
L 338.759078 251.328231 
L 339.383413 258.132983 
L 340.216027 264.068487 
L 340.840363 267.659217 
L 341.25642 269.134745 
L 341.464699 269.642936 
L 341.672727 269.806768 
L 342.297063 269.72433 
L 342.505092 269.773375 
L 343.337706 269.625195 
L 343.753763 270.067645 
L 344.378099 271.018285 
L 346.667413 276.723172 
L 346.875441 276.772217 
L 347.708055 275.935319 
L 348.124113 276.377769 
L 348.54042 276.820218 
L 348.956727 277.033095 
L 349.372784 277.131185 
L 350.621455 278.688106 
L 351.037762 278.441837 
L 351.662098 278.015039 
L 352.078405 278.113129 
L 353.535105 279.145163 
L 353.951412 278.669321 
L 354.367469 278.078692 
L 354.783776 278.061995 
L 355.200083 278.504445 
L 355.616141 279.176467 
L 356.032448 280.078063 
L 356.656783 281.832209 
L 357.07309 282.274658 
L 357.489148 282.257962 
L 357.905455 282.356052 
L 358.52979 282.044041 
L 359.154126 281.617243 
L 359.362155 281.666288 
L 359.98649 282.042996 
L 360.610826 281.960558 
L 361.027133 282.058648 
L 362.067776 281.844727 
L 363.316447 284.090368 
L 363.524476 284.139413 
L 364.148811 284.056975 
L 364.565118 284.499424 
L 364.981175 284.941874 
L 365.81379 285.482413 
L 366.021818 285.531458 
L 367.478518 285.071268 
L 368.727189 286.169044 
L 369.351525 287.234471 
L 369.559804 287.283516 
L 369.975861 287.037246 
L 370.392168 286.790977 
L 370.808475 286.77428 
L 371.016503 286.938112 
L 371.432811 286.691842 
L 372.057146 286.265045 
L 372.473203 286.248348 
L 372.681482 286.297393 
L 373.097539 286.739843 
L 373.513846 287.297079 
L 373.930153 287.395169 
L 374.554489 287.771877 
L 375.178825 287.459866 
L 375.386853 287.279338 
L 375.594882 287.328383 
L 376.219217 287.934664 
L 376.635524 288.377113 
L 377.467889 288.917653 
L 378.508531 288.588945 
L 379.340896 289.129485 
L 379.757203 288.883215 
L 380.17351 288.52216 
L 380.381538 288.571205 
L 380.797845 288.554508 
L 382.046517 289.422711 
L 382.254545 289.471756 
L 383.295188 288.683902 
L 383.919524 288.601464 
L 384.127552 288.765296 
L 385.168195 290.502745 
L 386.000559 289.89542 
L 386.208588 290.059251 
L 386.832924 291.009892 
L 387.041202 291.058937 
L 387.665538 290.517353 
L 387.873566 290.566398 
L 388.914209 291.385555 
L 389.122238 291.319814 
L 389.538545 290.843971 
L 389.954602 290.597702 
L 390.370909 291.040151 
L 391.411552 292.318455 
L 391.61958 292.3675 
L 392.035887 292.12123 
L 392.868252 291.513905 
L 393.07628 291.56295 
L 393.492587 292.0054 
L 394.116923 292.726467 
L 394.324952 292.775512 
L 394.741259 292.758816 
L 394.949287 292.807861 
L 395.365594 293.469365 
L 395.573623 293.498543 
L 396.406237 292.086858 
L 396.614266 292.106993 
L 397.44663 292.761465 
L 398.279244 292.038498 
L 398.487273 292.17342 
L 398.487273 292.17342 
" clip-path="url(#p327161bd1e)" style="fill: none; stroke: #1f77b4; stroke-width: 1.5; stroke-linecap: square"/>
   </g>
   <g id="line2d_16">
    <path d="M 73.832727 290.418243 
L 74.040756 290.380645 
L 74.249034 292.294417 
L 75.289427 294.402157 
L 75.497706 294.481516 
L 75.913763 294.074112 
L 76.538099 293.178048 
L 76.954406 293.001556 
L 77.370713 293.28421 
L 78.203077 293.964303 
L 78.619384 294.017384 
L 79.035441 293.611319 
L 79.451748 293.205254 
L 80.076084 292.883122 
L 81.116727 293.30279 
L 81.532784 292.896725 
L 81.741062 292.636299 
L 81.949091 292.720233 
L 83.197762 294.602078 
L 83.614069 294.673545 
L 84.030127 294.078055 
L 84.446434 293.370346 
L 84.654462 293.246064 
L 84.862741 293.466142 
L 85.278798 294.250658 
L 85.487076 294.471134 
L 85.695105 294.350343 
L 86.319441 293.41862 
L 86.527469 293.414142 
L 86.735748 293.639238 
L 86.943776 293.634761 
L 87.984419 293.038442 
L 88.816783 293.594466 
L 89.024812 293.819562 
L 89.441119 293.466248 
L 89.857426 292.883361 
L 90.273483 292.530047 
L 90.481762 292.640356 
L 91.522155 294.224981 
L 91.730433 294.220632 
L 92.354769 293.633906 
L 92.562797 293.514855 
L 92.979104 293.621113 
L 93.187133 293.616848 
L 94.643833 292.668704 
L 95.06014 292.315816 
L 95.476447 292.1925 
L 95.892504 292.298758 
L 96.725118 291.822554 
L 97.141175 292.158384 
L 97.557483 292.723788 
L 97.97379 293.289191 
L 98.389847 293.625021 
L 99.014182 293.153082 
L 99.43049 292.57062 
L 100.054825 292.328254 
L 100.262854 292.323989 
L 101.095468 292.880864 
L 101.303497 293.106172 
L 101.719804 293.097643 
L 102.135861 292.744755 
L 102.760196 292.158029 
L 102.968475 292.153764 
L 103.800839 292.481065 
L 104.217146 292.472536 
L 104.633203 292.69358 
L 105.881875 292.094061 
L 106.714489 292.421362 
L 107.130546 292.068474 
L 107.96316 291.24791 
L 108.379217 291.583741 
L 108.587496 291.809049 
L 109.211831 291.796255 
L 109.627889 292.132086 
L 110.044196 292.697489 
L 110.460503 292.68896 
L 111.709174 293.237306 
L 111.917203 293.118255 
L 112.33351 293.454085 
L 113.165874 294.240532 
L 113.373903 294.351342 
L 113.79021 294.117086 
L 114.206517 294.227586 
L 114.622574 293.879425 
L 115.455188 292.609171 
L 115.871245 292.261011 
L 116.495581 292.025736 
L 116.703859 292.023835 
L 117.119917 292.364393 
L 117.952531 293.160296 
L 118.784895 293.497053 
L 119.825538 292.913618 
L 120.241595 293.024603 
L 120.657902 293.020802 
L 121.282238 292.441167 
L 121.698545 292.207793 
L 122.32288 292.661237 
L 122.947216 293.229468 
L 123.77958 293.681011 
L 124.611945 293.214263 
L 125.652587 291.597749 
L 125.860616 291.595848 
L 126.484952 292.508438 
L 126.901259 292.848996 
L 127.317566 292.959981 
L 127.733623 292.841394 
L 128.357959 293.065265 
L 128.566237 292.948578 
L 129.190573 292.024584 
L 129.60663 291.676423 
L 129.814908 291.674522 
L 130.022937 291.787408 
L 130.647273 292.929571 
L 130.855301 292.927671 
L 131.271608 292.120364 
L 131.687915 291.427844 
L 133.144615 292.332831 
L 133.768951 293.015848 
L 133.97698 293.013948 
L 134.601315 292.778673 
L 135.225651 293.232117 
L 135.641958 293.572675 
L 136.058265 293.568874 
L 136.266294 293.452187 
L 136.682601 293.563172 
L 137.098658 293.100225 
L 137.722994 291.946658 
L 137.931272 291.944757 
L 138.139301 292.057643 
L 138.971665 293.657052 
L 140.428615 294.333998 
L 141.677286 293.076605 
L 141.885315 293.077481 
L 142.301622 292.964447 
L 142.717679 293.31056 
L 143.133986 293.771458 
L 143.342015 293.772335 
L 143.96635 292.971459 
L 144.382657 292.399279 
L 145.006993 291.827976 
L 145.631329 292.289751 
L 146.255664 292.866312 
L 146.671971 292.982852 
L 147.712364 292.413301 
L 148.753007 293.450762 
L 148.961036 293.451638 
L 149.377343 293.338605 
L 149.585371 293.339481 
L 150.001678 293.45602 
L 150.417985 293.457773 
L 150.626014 293.343863 
L 151.042321 293.919548 
L 151.25035 294.264784 
L 151.458378 294.381018 
L 151.666657 294.269657 
L 152.70705 292.682915 
L 153.123357 292.346663 
L 153.539664 292.239984 
L 154.163999 292.826078 
L 154.372028 292.830132 
L 155.620699 291.477016 
L 156.037006 291.485124 
L 157.493706 292.202219 
L 157.701735 292.206272 
L 159.158685 293.15294 
L 159.366713 293.386567 
L 159.574742 293.390621 
L 159.78302 293.279888 
L 160.615385 292.033452 
L 160.823413 292.037505 
L 161.23972 292.389972 
L 161.656027 292.972012 
L 162.280363 293.443319 
L 162.488392 293.676946 
L 162.69642 293.681 
L 163.320756 293.119228 
L 163.945092 292.78703 
L 165.193763 293.385285 
L 165.61007 293.278606 
L 166.858741 293.989234 
L 167.06677 293.87368 
L 167.691106 292.942834 
L 168.315441 292.700706 
L 168.52372 292.926094 
L 168.731748 292.92191 
L 169.98042 292.093296 
L 170.396727 291.510994 
L 170.604755 291.392022 
L 170.812784 291.502624 
L 171.229091 292.29776 
L 171.43712 292.523148 
L 171.645398 292.518963 
L 172.061455 292.166234 
L 172.477762 291.698719 
L 172.894069 291.690349 
L 173.102098 291.800951 
L 174.350769 293.719719 
L 174.558798 293.816791 
L 174.975105 293.419862 
L 175.599441 292.501538 
L 176.431805 290.856222 
L 176.848112 289.172666 
L 177.264419 286.570818 
L 178.096783 278.727032 
L 181.010433 245.591849 
L 181.842797 238.321995 
L 182.675162 231.855647 
L 183.091469 226.154563 
L 183.507776 215.288088 
L 184.132111 187.280152 
L 185.380783 119.900417 
L 185.588811 117.795987 
L 185.79684 120.168231 
L 186.213147 136.047008 
L 188.086154 231.090128 
L 188.71049 246.586273 
L 189.334825 256.572666 
L 189.959161 263.115464 
L 190.999804 269.926076 
L 191.624139 272.451347 
L 192.456503 274.708772 
L 193.080839 276.200965 
L 193.705175 277.004438 
L 193.913203 277.195739 
L 194.953846 279.300105 
L 195.370153 279.338346 
L 195.578182 279.300073 
L 195.994489 279.79746 
L 197.24316 282.093126 
L 198.075524 282.284394 
L 198.283553 282.246121 
L 199.740503 281.289493 
L 200.15656 281.557307 
L 200.780896 282.360781 
L 201.197203 282.169449 
L 201.61351 282.092903 
L 202.029567 282.59029 
L 202.237845 282.78159 
L 202.445874 282.743317 
L 203.278238 281.786721 
L 203.694545 281.595389 
L 204.735188 281.404025 
L 205.567552 280.906574 
L 205.983859 281.403961 
L 206.608195 282.896154 
L 207.024252 282.934395 
L 207.440559 282.51349 
L 208.689231 281.709921 
L 209.521595 282.589908 
L 209.729873 282.895995 
L 210.145931 282.934236 
L 210.978545 281.63328 
L 211.186573 281.595007 
L 211.60288 282.092394 
L 212.018938 282.819354 
L 212.643273 282.934108 
L 212.851552 282.895836 
L 213.267609 283.048863 
L 213.683916 282.627958 
L 214.308252 281.594848 
L 214.932587 281.250456 
L 215.140616 281.212184 
L 215.764952 281.441725 
L 216.389287 282.245198 
L 216.805594 282.513012 
L 217.846237 282.780794 
L 218.054266 282.742522 
L 219.302937 281.938953 
L 219.510966 281.90068 
L 220.34358 281.403229 
L 221.592251 281.747525 
L 222.216587 281.632707 
L 222.840922 281.977034 
L 223.25698 282.359635 
L 223.465258 282.321362 
L 223.673287 282.168303 
L 224.505651 280.408201 
L 224.921958 280.216869 
L 225.338265 280.25511 
L 225.962601 280.140291 
L 227.419301 279.183663 
L 227.627329 279.14539 
L 228.251665 279.604504 
L 228.667972 279.642745 
L 230.33295 278.533058 
L 230.540979 278.494785 
L 231.165315 278.953899 
L 231.581622 278.877353 
L 231.997679 278.456448 
L 232.413986 278.379903 
L 233.24635 278.800744 
L 233.662657 279.298131 
L 234.286993 279.757245 
L 234.495022 279.718973 
L 234.911329 279.52764 
L 235.327636 279.451095 
L 236.16 278.724071 
L 236.576307 278.303166 
L 236.784336 278.150107 
L 237.200643 278.188348 
L 237.408671 278.150075 
L 238.449314 276.925633 
L 238.657343 276.88736 
L 239.489707 277.537775 
L 239.906014 277.576015 
L 240.738378 277.422924 
L 241.362714 277.078533 
L 241.570992 277.04026 
L 242.195328 277.384588 
L 242.611385 277.652402 
L 242.819664 277.614129 
L 243.443999 277.040165 
L 245.108728 275.012185 
L 245.525035 274.820853 
L 245.733064 274.78258 
L 246.149371 275.050394 
L 246.565678 275.662568 
L 246.773706 275.739081 
L 247.814349 275.088572 
L 248.230406 275.241599 
L 248.854742 276.274646 
L 249.271049 276.886819 
L 249.479078 276.963333 
L 249.687356 276.810274 
L 250.103413 276.045009 
L 250.311692 275.89195 
L 251.768392 276.542332 
L 252.184699 277.039719 
L 252.392727 277.231019 
L 252.809034 276.810114 
L 253.849427 275.126526 
L 254.265734 275.164767 
L 254.682041 274.973435 
L 254.89007 274.935162 
L 255.306377 275.202976 
L 255.722434 275.47079 
L 256.34677 275.929904 
L 256.763077 275.968145 
L 256.971106 275.929872 
L 258.011748 276.197655 
L 258.636084 275.853263 
L 258.844113 275.81499 
L 259.26042 275.853231 
L 259.468448 275.814959 
L 260.092784 275.470567 
L 260.301062 275.432295 
L 261.549734 275.77659 
L 261.757762 275.738318 
L 261.965791 275.814831 
L 262.590127 275.240867 
L 263.006434 274.819962 
L 263.214462 274.781689 
L 263.630769 275.049503 
L 264.671412 276.006004 
L 264.879441 275.967731 
L 265.503776 275.393767 
L 265.920083 274.972862 
L 266.336141 274.896317 
L 266.960476 275.011071 
L 267.376783 274.590166 
L 267.79309 273.939688 
L 268.209148 273.748356 
L 268.417426 273.710083 
L 269.041762 274.169197 
L 269.457819 274.437011 
L 270.082155 275.240485 
L 270.498462 275.393512 
L 271.122797 275.049121 
L 271.330826 275.010848 
L 271.747133 275.049089 
L 272.787776 274.398579 
L 272.995804 274.360307 
L 273.828169 275.010721 
L 274.036447 274.972448 
L 274.660783 274.283698 
L 275.493147 274.474966 
L 275.701175 274.321907 
L 276.325511 273.403583 
L 276.53379 273.250524 
L 277.158125 273.365278 
L 277.366154 273.327005 
L 278.198518 272.829555 
L 278.614825 272.753009 
L 279.239161 272.408618 
L 279.447189 272.370345 
L 280.071525 272.4851 
L 280.279804 272.446827 
L 281.112168 271.375444 
L 281.320196 271.337171 
L 281.736503 271.031053 
L 282.152811 270.151002 
L 283.401482 266.133411 
L 283.817539 265.482933 
L 284.025818 265.44466 
L 284.650153 264.870696 
L 286.52316 261.197433 
L 287.563553 256.873755 
L 289.020503 253.621397 
L 289.43656 253.889211 
L 290.269174 255.802277 
L 290.685231 257.103169 
L 291.517845 260.1641 
L 291.933903 261.120632 
L 292.35021 261.618019 
L 292.766517 262.115406 
L 293.182574 262.842366 
L 293.598881 263.45454 
L 294.015188 263.492781 
L 294.639524 262.918816 
L 295.055581 262.497911 
L 295.263859 262.574425 
L 295.471888 262.995298 
L 295.888195 265.788415 
L 296.304252 271.336407 
L 297.761202 294.599729 
L 297.969231 295.488 
L 298.177259 295.160774 
L 298.593566 291.803118 
L 299.425931 283.356152 
L 299.842238 281.256219 
L 300.258545 280.304151 
L 300.466573 280.115083 
L 301.298938 280.277103 
L 301.507216 280.202822 
L 301.923273 279.480327 
L 302.33958 278.413472 
L 303.380223 273.565392 
L 304.004559 270.587672 
L 304.420616 269.750391 
L 304.628894 269.561323 
L 305.044952 269.642333 
L 306.085594 269.385713 
L 306.501901 269.466723 
L 306.917959 269.66252 
L 307.334266 269.399171 
L 308.582937 267.116899 
L 308.790966 267.157404 
L 308.999244 267.427482 
L 309.207273 267.467987 
L 309.415301 267.393706 
L 309.831608 266.326851 
L 310.247915 265.374783 
L 310.663973 264.881861 
L 311.08028 264.962871 
L 311.704615 264.854813 
L 311.912644 264.895318 
L 312.53698 265.361193 
L 313.369594 267.589371 
L 313.785651 268.703459 
L 314.201958 269.128829 
L 314.409987 269.169334 
L 314.826294 268.905985 
L 315.034322 268.94649 
L 315.450629 269.601433 
L 315.866936 270.485949 
L 316.074965 270.64124 
L 316.491272 270.148318 
L 316.907329 269.655396 
L 317.323636 269.62162 
L 317.531665 269.662125 
L 318.780336 270.479088 
L 319.196643 270.330525 
L 319.820979 270.911187 
L 320.653343 271.876713 
L 321.06965 271.957723 
L 321.902015 271.545811 
L 322.52635 271.093394 
L 322.734629 271.133899 
L 323.358964 271.484988 
L 323.566993 271.525493 
L 324.399357 271.343154 
L 324.815664 270.391086 
L 325.856307 267.494376 
L 326.064336 267.190522 
L 326.480643 267.156745 
L 327.104978 267.737407 
L 327.937343 268.932506 
L 328.35365 269.817022 
L 328.561678 270.0871 
L 328.769707 270.127605 
L 329.186014 270.323402 
L 329.394043 270.363907 
L 330.226657 270.870287 
L 330.434685 270.796005 
L 331.26705 269.695375 
L 332.099664 269.398249 
L 332.515721 268.331394 
L 332.932028 266.231461 
L 333.348335 262.868877 
L 333.764392 257.554922 
L 334.597006 243.253845 
L 335.637399 226.353183 
L 336.053706 221.842733 
L 336.470013 219.857587 
L 336.678042 219.898092 
L 336.886071 220.742103 
L 337.302378 224.381494 
L 337.718685 230.431402 
L 339.175385 255.50882 
L 339.79972 261.36966 
L 340.632085 266.4675 
L 341.048392 268.155521 
L 341.672727 269.654474 
L 342.297063 271.038641 
L 342.921399 272.537595 
L 343.129427 272.692886 
L 343.545734 272.429537 
L 344.378099 271.328906 
L 344.586377 271.369411 
L 345.62677 272.031083 
L 345.835048 272.071588 
L 346.459384 272.652249 
L 347.916084 274.42801 
L 348.332391 274.85338 
L 348.748448 275.508322 
L 349.789091 276.169994 
L 350.205398 276.136218 
L 350.621455 276.332015 
L 351.662098 276.075394 
L 351.870127 276.115899 
L 352.286434 275.85255 
L 353.118798 275.211065 
L 353.327076 275.25157 
L 353.951412 275.602659 
L 354.367469 275.683669 
L 354.575748 275.609388 
L 354.991805 276.034757 
L 355.200083 276.304836 
L 356.032448 278.073867 
L 356.448755 278.269664 
L 356.656783 278.310169 
L 356.864812 278.235888 
L 357.697426 278.742268 
L 357.905455 278.782773 
L 358.321762 279.208142 
L 358.946097 279.90359 
L 359.362155 280.099387 
L 360.402797 279.842767 
L 360.610826 279.883272 
L 361.859497 278.863651 
L 362.067776 278.904157 
L 362.483833 279.329526 
L 363.732504 282.786579 
L 363.940783 283.056657 
L 364.148811 283.097162 
L 365.189454 282.151823 
L 365.605511 282.232833 
L 365.81379 282.388125 
L 367.27049 281.982942 
L 369.559804 283.576363 
L 370.184139 283.468306 
L 370.808475 283.934181 
L 371.848868 283.67756 
L 372.88951 285.027951 
L 373.305818 284.535029 
L 373.930153 283.508679 
L 374.34621 282.90097 
L 374.970546 282.792913 
L 375.386853 283.447856 
L 375.80316 284.217585 
L 376.011189 284.487663 
L 376.219217 284.528168 
L 376.843553 284.190538 
L 377.467889 283.623334 
L 377.884196 283.933917 
L 378.508531 284.973725 
L 378.924838 285.284308 
L 379.340896 285.020959 
L 379.757203 284.41325 
L 379.965231 284.338969 
L 380.589567 284.91963 
L 381.005874 285.345 
L 381.213903 285.385505 
L 381.838238 285.85138 
L 382.462574 285.628536 
L 383.08691 285.979624 
L 383.295188 286.020129 
L 383.711245 286.560285 
L 384.335581 287.944452 
L 384.543859 287.984957 
L 384.959917 287.262462 
L 385.376224 286.654754 
L 386.208588 287.161134 
L 386.416866 287.201639 
L 387.041202 287.093581 
L 387.665538 287.44467 
L 387.873566 287.485175 
L 388.497902 287.377117 
L 388.705931 287.417622 
L 389.746573 288.19408 
L 390.16288 287.930731 
L 390.578938 287.437809 
L 390.995245 286.944887 
L 391.203273 286.755819 
L 391.411552 286.796324 
L 392.243916 287.876637 
L 392.660223 287.957647 
L 393.07628 288.383017 
L 393.492587 289.037959 
L 393.908894 288.77461 
L 394.741259 288.133125 
L 395.573623 287.950786 
L 395.98993 288.031797 
L 396.197959 288.187088 
L 397.238601 289.881838 
L 397.654908 290.307208 
L 397.862937 290.4625 
L 398.487273 290.124869 
L 398.487273 290.124869 
" clip-path="url(#p327161bd1e)" style="fill: none; stroke: #ff7f0e; stroke-width: 1.5; stroke-linecap: square"/>
   </g>
   <g id="line2d_17">
    <path d="M 73.832727 293.867918 
L 74.040756 293.864485 
L 74.249034 292.94276 
L 74.457063 292.939328 
L 74.87337 293.047249 
L 75.289427 292.696024 
L 75.913763 292.111793 
L 76.122041 292.223147 
L 77.162434 293.812994 
L 77.578741 293.461769 
L 77.995048 293.110544 
L 78.203077 293.107112 
L 78.619384 293.329819 
L 79.24372 292.860375 
L 80.492391 291.462341 
L 80.70042 291.458908 
L 81.116727 292.025975 
L 81.741062 293.163542 
L 82.365398 293.497603 
L 82.781455 293.375951 
L 83.197762 293.713445 
L 83.405791 293.939585 
L 83.614069 293.936153 
L 84.654462 293.459843 
L 85.070769 293.567764 
L 85.487076 293.216539 
L 85.903134 292.635741 
L 86.943776 293.077724 
L 87.360083 292.496926 
L 87.568112 292.26392 
L 87.776141 292.260487 
L 88.608755 293.050262 
L 88.816783 293.046829 
L 89.024812 292.813823 
L 89.441119 292.806958 
L 89.649148 292.918312 
L 90.273483 293.941092 
L 90.481762 293.937659 
L 90.897819 293.586434 
L 91.314126 293.23521 
L 91.522155 293.231777 
L 91.938462 293.569271 
L 92.354769 293.677192 
L 92.562797 293.673759 
L 93.187133 293.433888 
L 93.811469 293.653163 
L 94.019497 293.64973 
L 95.06014 292.599488 
L 95.476447 293.166555 
L 95.892504 294.077982 
L 96.100783 294.304122 
L 96.308811 294.301656 
L 96.725118 293.724673 
L 96.933147 293.378788 
L 97.349454 293.375737 
L 98.389847 292.908964 
L 99.014182 293.13396 
L 99.638518 292.899811 
L 100.887189 292.890658 
L 101.719804 292.540196 
L 101.927832 292.653457 
L 102.344139 292.420833 
L 102.968475 291.383178 
L 103.384532 291.724487 
L 104.008868 292.408629 
L 104.425175 292.405578 
L 104.841482 292.058168 
L 105.257539 291.710757 
L 105.465818 291.594445 
L 105.881875 291.935754 
L 106.298182 292.621422 
L 106.714489 292.733157 
L 106.922517 292.731632 
L 107.546853 292.497483 
L 107.754882 292.495957 
L 108.795524 292.947476 
L 109.003553 292.94595 
L 109.41986 292.828113 
L 109.836167 292.939848 
L 110.044196 292.938323 
L 110.460503 292.705699 
L 111.084838 293.160268 
L 111.292867 293.388316 
L 111.500896 293.38679 
L 112.125231 292.808281 
L 112.749567 292.574132 
L 112.957845 292.572606 
L 113.165874 292.341508 
L 113.373903 292.339982 
L 114.414545 292.906287 
L 115.038881 292.672138 
L 115.455188 292.89866 
L 116.495581 292.3171 
L 117.744252 292.881879 
L 118.368588 292.877303 
L 119.617259 293.442083 
L 120.033566 293.324245 
L 120.241595 293.32272 
L 120.657902 293.434455 
L 120.865931 293.43293 
L 121.490266 292.969207 
L 121.906573 292.621797 
L 122.114602 292.620271 
L 122.32288 292.733532 
L 122.738938 293.533987 
L 123.155245 294.219655 
L 123.363273 294.332989 
L 124.403916 293.299121 
L 124.820223 293.413591 
L 125.028252 293.413433 
L 125.652587 293.183386 
L 125.860616 293.183228 
L 127.525594 292.378458 
L 127.941901 292.722501 
L 128.14993 293.066703 
L 128.566237 293.181173 
L 128.982294 292.606925 
L 129.398601 292.032676 
L 129.60663 291.802945 
L 129.814908 291.802787 
L 130.022937 292.032202 
L 131.06358 294.097569 
L 131.479637 294.212038 
L 131.895944 293.98214 
L 132.312251 293.407883 
L 133.144615 292.603728 
L 133.352644 292.603566 
L 133.768951 293.177174 
L 134.185258 293.980354 
L 134.393287 294.209765 
L 134.809594 293.865029 
L 135.225651 293.061148 
L 135.849987 292.486651 
L 136.266294 292.830634 
L 137.098658 294.092533 
L 137.514965 294.321678 
L 138.555608 293.752217 
L 138.971665 294.098346 
L 139.179943 294.328804 
L 139.387972 294.330945 
L 139.804279 293.763855 
L 140.636643 292.170528 
L 141.05295 292.062583 
L 141.469008 292.413785 
L 141.885315 292.764986 
L 142.093343 292.883194 
L 142.50965 292.775249 
L 142.717679 292.77867 
L 143.133986 293.129872 
L 143.550293 293.710646 
L 143.96635 293.832275 
L 144.174629 293.835696 
L 145.215022 293.164082 
L 145.839357 292.600412 
L 146.255664 292.492468 
L 146.463693 292.495889 
L 147.088029 293.080085 
L 147.504336 292.742567 
L 147.712364 292.286842 
L 148.128671 292.178898 
L 148.3367 292.297105 
L 148.753007 292.87788 
L 148.961036 292.881301 
L 149.377343 292.31421 
L 149.585371 292.088058 
L 149.79365 292.091479 
L 150.626014 292.908669 
L 151.042321 292.800724 
L 151.458378 292.807566 
L 151.874685 293.158768 
L 152.915328 293.635019 
L 153.123357 293.63844 
L 154.163999 294.114691 
L 154.372028 294.118112 
L 154.788335 294.239995 
L 154.996364 294.243964 
L 155.412671 293.907427 
L 155.828728 293.340524 
L 156.245035 293.11798 
L 156.661342 293.469369 
L 156.869371 293.702457 
L 157.077399 293.705971 
L 157.493706 293.368641 
L 157.910013 292.801738 
L 158.742378 292.815797 
L 159.574742 293.174215 
L 160.823413 291.932652 
L 161.031692 291.936166 
L 161.23972 292.169254 
L 162.072085 293.790323 
L 162.69642 294.028536 
L 163.945092 293.452885 
L 165.193763 293.451166 
L 165.818099 292.646802 
L 166.234406 292.072296 
L 166.442434 292.07201 
L 166.650713 292.416083 
L 167.06677 293.448589 
L 167.275048 293.677875 
L 167.483077 293.677589 
L 168.107413 292.758438 
L 168.315441 292.643365 
L 168.731748 292.987151 
L 169.148055 293.445724 
L 169.356084 293.445438 
L 169.98042 293.100219 
L 170.396727 293.444006 
L 171.021062 294.118318 
L 171.43712 293.752037 
L 172.269734 292.856774 
L 172.477762 292.832044 
L 173.310127 293.077483 
L 173.934462 292.739539 
L 174.142741 292.703416 
L 176.015748 291.345224 
L 176.640083 291.810785 
L 176.848112 291.774662 
L 177.264419 291.472841 
L 178.721119 288.809459 
L 179.137426 287.130201 
L 180.386097 281.748067 
L 181.010433 280.147471 
L 181.634769 278.432089 
L 182.675162 274.578303 
L 183.091469 271.292034 
L 183.507776 266.054394 
L 183.923833 258.176665 
L 185.380783 224.52093 
L 185.588811 223.796087 
L 185.79684 224.563469 
L 186.213147 230.345333 
L 188.086154 266.637111 
L 188.71049 273.301143 
L 189.126797 275.983771 
L 189.959161 279.856804 
L 190.375468 281.161994 
L 190.791525 281.893252 
L 192.040196 283.168734 
L 192.872811 284.401678 
L 193.705175 284.257183 
L 194.745818 284.765283 
L 195.161875 285.266968 
L 195.578182 285.768653 
L 195.78621 285.73253 
L 197.034882 286.08972 
L 197.24316 286.053596 
L 197.867496 286.289585 
L 198.69986 285.80073 
L 199.116167 286.072842 
L 199.532224 286.344955 
L 199.740503 286.194044 
L 200.15656 285.547865 
L 200.572867 285.246044 
L 200.989174 285.518156 
L 201.405231 285.790268 
L 201.821538 285.488448 
L 202.237845 284.957055 
L 202.653903 285.229167 
L 203.278238 285.694728 
L 203.486517 285.658604 
L 204.318881 284.595818 
L 204.943217 284.487447 
L 205.775581 283.769019 
L 206.399917 284.349367 
L 207.440559 283.594816 
L 207.856866 283.866928 
L 208.481202 284.906422 
L 208.897259 285.63768 
L 209.313566 285.909792 
L 209.521595 285.873669 
L 209.937902 285.457062 
L 210.354209 284.581309 
L 210.770266 283.475983 
L 211.186573 282.94459 
L 211.394602 283.138039 
L 211.810909 283.869297 
L 212.227216 284.141409 
L 212.643273 284.069162 
L 215.348894 284.976992 
L 215.764952 284.904744 
L 216.389287 285.025946 
L 217.013623 284.458429 
L 217.42993 283.927036 
L 217.637959 283.890912 
L 219.302937 284.405428 
L 219.510966 284.369304 
L 219.927273 284.411843 
L 220.759637 283.693416 
L 221.383973 282.78154 
L 223.048951 281.689045 
L 223.25698 281.767707 
L 223.673287 282.269392 
L 223.881315 282.462842 
L 224.297622 282.390594 
L 224.713929 281.973987 
L 225.129987 281.786954 
L 225.754322 282.252515 
L 226.170629 282.180268 
L 226.586936 281.763661 
L 226.794965 281.612751 
L 227.419301 281.963525 
L 228.043636 282.429087 
L 228.459943 282.471626 
L 228.667972 282.320716 
L 229.292308 281.294053 
L 229.500336 281.257929 
L 230.33295 282.031726 
L 230.749008 281.959479 
L 231.165315 281.772445 
L 231.373343 281.736321 
L 231.78965 281.77886 
L 232.413986 281.211343 
L 232.830293 280.565163 
L 233.24635 280.263343 
L 234.495022 280.620533 
L 234.911329 280.433499 
L 235.535664 280.554701 
L 235.743693 280.518578 
L 235.951971 280.367667 
L 236.368029 280.524993 
L 236.784336 281.141465 
L 237.200643 281.29879 
L 237.6167 280.882183 
L 238.033007 280.236003 
L 238.865371 278.943644 
L 239.281678 278.75661 
L 240.322321 279.838643 
L 240.738378 280.340328 
L 241.154685 280.382867 
L 241.570992 280.081047 
L 242.611385 278.063844 
L 242.819664 278.142507 
L 243.235721 278.873765 
L 243.652028 279.605023 
L 243.860057 279.798472 
L 244.068335 279.647562 
L 244.900699 278.240416 
L 245.108728 278.089506 
L 245.941342 278.289371 
L 246.565678 277.607067 
L 246.773706 277.68573 
L 247.190013 278.302201 
L 247.606071 278.34474 
L 248.230406 277.662437 
L 248.854742 277.783639 
L 249.06302 277.747515 
L 249.479078 277.560481 
L 249.687356 277.524358 
L 250.311692 277.989919 
L 250.727749 277.573312 
L 251.768392 275.21175 
L 252.600756 274.608109 
L 253.017063 273.96193 
L 253.225092 273.811019 
L 254.057706 274.010884 
L 255.306377 273.105423 
L 255.722434 273.377535 
L 256.34677 274.302242 
L 256.763077 274.459568 
L 258.011748 273.668893 
L 258.844113 274.098331 
L 259.26042 274.600016 
L 259.676727 275.675634 
L 260.092784 276.636465 
L 260.301062 276.944701 
L 261.341455 277.223228 
L 261.549734 277.187104 
L 261.757762 277.036194 
L 262.590127 277.350845 
L 263.006434 276.934238 
L 263.422741 276.517632 
L 263.630769 276.481508 
L 264.463134 277.255305 
L 264.671412 277.219181 
L 265.087469 276.802574 
L 265.920083 275.854574 
L 266.752448 276.513585 
L 267.79309 275.299888 
L 268.625455 275.499753 
L 269.666097 274.745202 
L 269.874126 274.938651 
L 270.498462 275.978145 
L 270.914769 276.020684 
L 271.330826 275.948437 
L 271.955162 276.069639 
L 273.203833 275.278964 
L 274.036447 275.478829 
L 274.452504 275.291795 
L 275.07684 275.757356 
L 275.285118 275.836019 
L 275.909454 275.498075 
L 276.949847 275.776602 
L 278.198518 274.756355 
L 278.822854 273.844478 
L 279.031132 273.923141 
L 279.863497 275.500444 
L 280.071525 275.579106 
L 280.487832 275.162499 
L 281.320196 274.099713 
L 281.736503 274.027465 
L 282.777146 272.813768 
L 283.60951 273.013633 
L 284.025818 272.597026 
L 284.858182 271.649026 
L 285.06621 271.612902 
L 285.482517 271.196296 
L 285.898825 270.779689 
L 286.939217 270.139924 
L 287.355524 270.412036 
L 288.187889 271.071047 
L 288.396167 271.034923 
L 289.228531 269.972137 
L 289.43656 270.050799 
L 290.060896 270.86072 
L 290.269174 270.824597 
L 290.477203 270.673686 
L 291.101538 269.647023 
L 292.142181 268.892472 
L 292.558238 268.246293 
L 292.974545 268.059259 
L 293.182574 268.023135 
L 293.80691 267.340831 
L 294.639524 266.622404 
L 295.055581 266.205797 
L 295.263859 266.514033 
L 295.471888 267.510988 
L 295.888195 271.685841 
L 296.512531 281.563894 
L 297.136866 291.097589 
L 297.552924 294.804296 
L 297.761202 295.461808 
L 297.969231 295.243518 
L 298.177259 294.482394 
L 299.425931 287.078092 
L 299.634209 286.551892 
L 299.842238 286.484837 
L 300.050266 286.762143 
L 300.88288 288.904442 
L 301.090909 288.952174 
L 301.298938 288.770333 
L 301.507216 288.244133 
L 302.131552 285.288094 
L 303.79628 277.060965 
L 304.420616 274.908432 
L 305.044952 273.444617 
L 305.461259 272.966149 
L 305.877566 272.946827 
L 306.293623 273.157078 
L 306.70993 273.022969 
L 307.126237 272.429715 
L 308.16663 270.028287 
L 308.790966 269.253191 
L 309.207273 268.88951 
L 309.62358 267.837109 
L 310.039637 266.325563 
L 310.247915 266.028935 
L 310.455944 265.961881 
L 310.872251 266.975637 
L 311.496587 268.496272 
L 312.53698 269.423652 
L 313.577622 270.924964 
L 314.409987 272.83769 
L 314.618265 273.000209 
L 315.034322 272.751314 
L 315.242601 272.569473 
L 315.450629 272.617205 
L 315.866936 272.827456 
L 316.282994 272.922921 
L 316.699301 272.903599 
L 316.907329 272.951331 
L 317.531665 273.3241 
L 317.739943 273.371833 
L 319.404672 272.950185 
L 319.820979 273.045649 
L 320.237286 273.600259 
L 320.653343 273.695724 
L 321.277679 273.609348 
L 321.485957 273.771866 
L 321.902015 274.441263 
L 322.110293 274.603782 
L 322.52635 274.125314 
L 322.734629 273.828686 
L 322.942657 273.761632 
L 323.9833 274.459439 
L 324.191329 274.392385 
L 325.023693 273.091089 
L 325.44 272.383048 
L 326.064336 271.837526 
L 326.272364 271.885258 
L 327.313007 272.812638 
L 327.521036 273.089943 
L 328.35365 274.887883 
L 328.561678 274.706042 
L 328.977985 273.653641 
L 329.186014 273.127441 
L 329.394043 273.060387 
L 329.602321 273.337692 
L 330.226657 274.74354 
L 330.434685 275.020845 
L 330.850992 274.886737 
L 331.475328 273.882068 
L 332.099664 272.418254 
L 332.515721 271.021494 
L 332.932028 268.13251 
L 333.348335 263.292155 
L 334.388728 246.427628 
L 335.845678 221.279153 
L 336.261735 218.619741 
L 336.470013 218.4379 
L 336.678042 219.059565 
L 337.094349 222.483838 
L 337.718685 231.809954 
L 338.759078 249.037016 
L 339.383413 256.985694 
L 340.007749 262.753428 
L 340.632085 266.799366 
L 341.048392 268.616627 
L 341.25642 269.123506 
L 341.880756 269.496275 
L 342.089034 269.544007 
L 342.505092 269.983831 
L 342.921399 270.538442 
L 344.17007 273.464924 
L 345.002434 274.688931 
L 346.875441 278.10297 
L 347.291748 278.313221 
L 347.499777 278.360953 
L 348.124113 277.930217 
L 348.748448 278.53256 
L 348.956727 278.809865 
L 349.164755 278.857597 
L 349.581062 278.379129 
L 349.99712 277.900661 
L 350.205398 277.833607 
L 350.621455 278.273431 
L 351.454069 279.382651 
L 351.662098 279.430384 
L 352.286434 278.999648 
L 352.494462 279.162166 
L 353.118798 280.223655 
L 353.327076 280.386174 
L 353.743134 280.252065 
L 354.367469 280.854408 
L 355.200083 281.848842 
L 356.032448 282.498917 
L 356.656783 283.560405 
L 357.07309 283.31151 
L 357.489148 283.062615 
L 357.697426 283.110347 
L 358.321762 283.597903 
L 358.737819 283.578581 
L 360.610826 284.926463 
L 360.819104 284.974195 
L 361.235162 284.7253 
L 361.44344 284.428673 
L 361.859497 284.409351 
L 362.275804 284.849174 
L 363.316447 286.694846 
L 363.732504 286.905097 
L 364.981175 286.502771 
L 366.021818 285.134422 
L 366.229847 285.182154 
L 366.646154 285.621978 
L 367.27049 286.339107 
L 368.519161 286.051567 
L 368.935468 286.147032 
L 369.351525 286.357283 
L 369.559804 286.405015 
L 370.184139 286.318639 
L 370.808475 286.691408 
L 371.016503 286.73914 
L 371.224532 286.672086 
L 371.640839 286.997123 
L 372.473203 288.335917 
L 372.88951 287.857449 
L 373.097539 287.560822 
L 373.513846 287.5415 
L 373.721875 287.589232 
L 374.34621 287.273282 
L 374.554489 287.091442 
L 374.762517 287.25396 
L 375.178825 287.923357 
L 375.594882 288.133608 
L 375.80316 288.18134 
L 376.011189 288.343859 
L 376.635524 289.405348 
L 377.051831 289.500812 
L 377.676167 289.414436 
L 378.300503 289.557632 
L 378.71656 289.53831 
L 379.340896 289.681507 
L 380.17351 289.528076 
L 380.797845 289.671273 
L 381.005874 289.489432 
L 381.213903 289.537164 
L 381.63021 289.517842 
L 381.838238 289.565574 
L 382.046517 289.728093 
L 383.08691 291.688551 
L 383.503217 290.98051 
L 384.127552 289.861055 
L 384.543859 289.497374 
L 385.168195 289.64057 
L 385.376224 289.573516 
L 385.584252 289.736035 
L 386.000559 290.749791 
L 386.624895 292.155639 
L 387.041202 292.251103 
L 388.081595 291.915832 
L 388.497902 292.585229 
L 388.914209 293.369412 
L 389.330266 293.669045 
L 389.954602 293.37701 
L 391.203273 291.37068 
L 391.61958 291.275836 
L 392.035887 291.869711 
L 392.243916 292.224042 
L 392.660223 292.358771 
L 393.07628 292.034353 
L 394.116923 292.543355 
L 395.157566 291.560133 
L 395.365594 291.570104 
L 395.98993 292.059164 
L 397.030573 293.256885 
L 397.238601 293.266856 
L 397.654908 292.942439 
L 397.862937 292.60805 
L 398.070966 292.618022 
L 398.487273 293.211896 
L 398.487273 293.211896 
" clip-path="url(#p327161bd1e)" style="fill: none; stroke: #2ca02c; stroke-width: 1.5; stroke-linecap: square"/>
   </g>
   <g id="line2d_18">
    <path d="M 73.832727 291.295349 
L 74.040756 291.266198 
L 74.665092 292.900543 
L 75.497706 293.128299 
L 75.913763 293.069997 
L 76.746377 293.7569 
L 76.954406 293.727749 
L 77.370713 293.325087 
L 77.578741 292.951577 
L 77.78677 292.80764 
L 78.203077 293.093698 
L 78.827413 293.924537 
L 79.451748 294.412224 
L 80.492391 294.184179 
L 81.324755 293.756449 
L 81.741062 294.059123 
L 82.365398 294.574751 
L 82.573427 294.561984 
L 83.405791 293.613177 
L 83.614069 293.605846 
L 84.238405 293.813427 
L 84.654462 293.798766 
L 85.070769 293.439745 
L 85.695105 293.18818 
L 86.111412 293.173518 
L 86.735748 292.807167 
L 86.943776 292.914622 
L 87.360083 293.473893 
L 87.568112 293.696136 
L 87.984419 293.681474 
L 88.608755 293.429909 
L 88.816783 293.422578 
L 89.441119 293.630159 
L 89.857426 293.615498 
L 90.481762 294.167438 
L 90.68979 294.274894 
L 91.106097 293.917172 
L 91.522155 293.55945 
L 91.938462 293.890447 
L 92.562797 294.445665 
L 93.187133 293.980894 
L 93.811469 293.287778 
L 94.019497 293.286313 
L 94.643833 293.511489 
L 95.476447 293.161268 
L 96.100783 293.501231 
L 96.51684 293.15394 
L 96.933147 292.577077 
L 98.389847 291.878099 
L 98.598125 292.106207 
L 99.222461 293.364462 
L 99.638518 293.70589 
L 100.471132 293.126096 
L 100.887189 292.778805 
L 101.095468 292.77734 
L 101.927832 293.115837 
L 102.344139 292.768547 
L 102.968475 292.419791 
L 103.384532 292.761219 
L 103.800839 293.102648 
L 104.425175 292.639105 
L 105.257539 291.829738 
L 105.881875 291.480982 
L 106.50621 292.280091 
L 106.714489 292.622985 
L 106.922517 292.736306 
L 107.338825 292.389016 
L 107.546853 292.043191 
L 107.754882 291.926939 
L 107.96316 292.04026 
L 108.587496 293.298514 
L 108.795524 293.411835 
L 109.003553 293.295583 
L 109.41986 292.71872 
L 109.627889 292.487682 
L 109.836167 292.486216 
L 110.668531 292.824714 
L 111.084838 292.706996 
L 111.292867 292.705531 
L 111.709174 292.587813 
L 112.957845 293.152953 
L 113.165874 293.151487 
L 113.582181 293.492915 
L 114.206517 294.062451 
L 114.830852 293.598909 
L 115.663217 292.789542 
L 115.871245 292.788076 
L 116.703859 293.126574 
L 116.911888 293.125108 
L 117.328195 293.35175 
L 117.744252 293.234033 
L 117.952531 293.347354 
L 118.368588 293.918355 
L 118.784895 294.030211 
L 120.241595 293.331233 
L 120.657902 293.328302 
L 121.282238 292.86476 
L 121.906573 292.286431 
L 122.32288 292.168713 
L 122.738938 292.510142 
L 123.155245 293.310716 
L 123.363273 293.424037 
L 123.571552 293.307785 
L 124.195887 292.27031 
L 124.403916 292.154058 
L 124.820223 292.72506 
L 125.23628 293.755207 
L 125.444559 294.098101 
L 125.860616 294.324734 
L 126.276923 294.209365 
L 126.901259 294.208259 
L 127.733623 293.86212 
L 128.566237 293.860341 
L 128.982294 293.400305 
L 129.398601 292.710697 
L 129.814908 292.480234 
L 130.439244 292.823259 
L 131.687915 292.246658 
L 132.103973 292.8197 
L 132.52028 293.392743 
L 132.936587 293.50664 
L 133.352644 293.390964 
L 133.560922 293.390519 
L 135.017622 294.076124 
L 135.849987 293.270839 
L 136.266294 293.26995 
L 137.098658 293.61253 
L 137.514965 293.267281 
L 137.722994 292.922476 
L 138.139301 292.692014 
L 138.555608 293.035484 
L 138.971665 293.378953 
L 139.804279 293.377174 
L 140.428615 293.605413 
L 141.260979 292.800128 
L 141.469008 292.799683 
L 141.885315 292.91358 
L 142.50965 292.682672 
L 143.342015 293.599185 
L 143.550293 293.59874 
L 144.174629 293.023473 
L 144.382657 293.023028 
L 144.798964 293.366498 
L 145.215022 293.939541 
L 145.631329 294.397797 
L 145.839357 294.399435 
L 146.463693 293.836726 
L 146.671971 293.840467 
L 147.088029 294.192308 
L 147.504336 294.315229 
L 147.920643 293.982218 
L 148.961036 292.862565 
L 149.169314 292.868208 
L 149.79365 293.229494 
L 150.834043 292.798561 
L 151.042321 292.804203 
L 151.666657 293.050703 
L 152.082714 293.061988 
L 153.331385 292.52191 
L 153.539664 292.642339 
L 154.580057 292.096619 
L 154.788335 292.331835 
L 155.412671 293.496627 
L 155.620699 293.731842 
L 156.037006 293.169195 
L 156.661342 292.26783 
L 157.077399 292.164328 
L 157.285678 292.169971 
L 157.910013 292.760831 
L 158.326071 292.542543 
L 158.742378 291.979895 
L 159.158685 291.99118 
L 159.574742 292.117251 
L 159.991049 292.01375 
L 160.823413 292.610252 
L 161.447749 293.430685 
L 161.864056 294.015902 
L 162.280363 294.141167 
L 162.69642 293.803126 
L 163.737063 292.78126 
L 163.945092 292.783503 
L 164.361399 292.902774 
L 164.569427 292.905017 
L 164.985734 292.794715 
L 165.818099 293.721977 
L 166.026377 293.72422 
L 166.234406 293.611675 
L 167.275048 292.015877 
L 167.483077 291.903333 
L 168.315441 292.256662 
L 168.939777 292.26339 
L 169.564113 292.49969 
L 169.98042 292.504175 
L 170.604755 291.93697 
L 170.812784 291.939213 
L 171.229091 292.288057 
L 171.645398 292.866474 
L 172.061455 293.215319 
L 173.726434 294.084006 
L 173.934462 294.063966 
L 174.142741 293.927066 
L 174.975105 292.538091 
L 175.807469 291.830322 
L 176.015748 291.56729 
L 176.431805 290.467293 
L 176.848112 288.563791 
L 177.472448 284.445887 
L 178.096783 278.491399 
L 178.929148 266.419768 
L 180.594126 242.965224 
L 181.634769 232.467144 
L 182.467133 222.920816 
L 182.88344 216.425854 
L 183.299497 205.913365 
L 183.715804 187.824968 
L 184.132111 158.94664 
L 185.380783 58.192919 
L 185.588811 53.568 
L 185.79684 55.026765 
L 186.005118 62.110069 
L 186.421175 88.788404 
L 187.669847 186.156168 
L 188.294182 215.900279 
L 188.918518 234.624886 
L 189.542854 246.462305 
L 190.167189 254.052622 
L 190.999804 260.691189 
L 192.040196 267.411084 
L 192.456503 268.951177 
L 193.497146 271.423971 
L 193.913203 272.160558 
L 194.537539 274.011551 
L 194.953846 275.207285 
L 195.370153 275.714299 
L 195.78621 275.647381 
L 196.826853 276.168805 
L 197.451189 276.871933 
L 198.491831 278.311649 
L 198.907889 278.58909 
L 199.532224 278.488713 
L 199.948531 278.766155 
L 200.364838 279.043596 
L 200.572867 279.124923 
L 201.197203 278.794973 
L 201.405231 278.876301 
L 202.029567 279.923789 
L 202.237845 280.005116 
L 202.862181 279.330806 
L 203.07021 279.297347 
L 204.52691 279.751853 
L 205.775581 279.551099 
L 206.399917 279.795081 
L 206.816224 279.613377 
L 207.024252 279.579918 
L 207.440559 279.398213 
L 207.856866 279.675655 
L 208.064895 279.986555 
L 208.481202 280.034423 
L 209.105538 279.934046 
L 209.729873 280.178029 
L 210.145931 279.996324 
L 210.562238 280.273766 
L 211.186573 281.206467 
L 211.394602 281.287794 
L 212.018938 280.843058 
L 212.435245 281.120499 
L 212.851552 281.397941 
L 213.683916 280.460599 
L 213.891945 280.312354 
L 214.51628 280.671122 
L 215.348894 281.340792 
L 216.181259 280.862596 
L 216.597566 281.36961 
L 216.805594 281.680511 
L 217.221901 281.728379 
L 219.094908 279.475878 
L 219.510966 279.40896 
L 221.175944 280.863085 
L 223.25698 279.495416 
L 223.881315 279.739398 
L 224.921958 278.998171 
L 226.586936 279.763577 
L 226.794965 279.959691 
L 227.002994 279.926232 
L 227.211272 279.777986 
L 227.835608 278.874104 
L 228.251665 278.807186 
L 228.667972 278.510695 
L 229.708615 278.917332 
L 230.33295 277.898663 
L 230.540979 277.865204 
L 231.165315 277.9944 
L 231.581622 277.927482 
L 232.622015 277.186254 
L 233.038322 277.463695 
L 233.454629 277.97071 
L 234.495022 277.803415 
L 234.911329 278.310429 
L 235.327636 279.047016 
L 235.743693 279.439244 
L 235.951971 279.405785 
L 236.992364 279.697636 
L 238.865371 278.24864 
L 239.07365 277.985608 
L 239.697985 277.885231 
L 240.114043 277.473953 
L 240.322321 277.210921 
L 240.53035 277.177462 
L 240.946657 277.684476 
L 241.570992 278.846751 
L 242.195328 279.320306 
L 242.403357 279.286847 
L 242.819664 278.87557 
L 243.443999 278.086473 
L 244.068335 278.215669 
L 244.276364 278.18221 
L 244.692671 277.770933 
L 245.317006 276.752264 
L 245.733064 276.570559 
L 245.941342 276.651887 
L 246.565678 277.469801 
L 247.190013 277.598997 
L 248.022378 276.891229 
L 248.854742 275.839101 
L 249.06302 275.805642 
L 249.895385 277.049243 
L 250.311692 277.097112 
L 252.392727 275.729443 
L 252.600756 275.695984 
L 252.809034 275.777311 
L 253.225092 276.284326 
L 253.641399 276.561767 
L 254.057706 276.609636 
L 254.473763 276.427931 
L 254.682041 276.394472 
L 255.306377 276.753241 
L 255.722434 277.030682 
L 256.34677 276.930305 
L 257.387413 277.222156 
L 258.428055 276.595715 
L 259.676727 277.887185 
L 260.092784 278.3942 
L 260.301062 278.475527 
L 261.965791 277.404349 
L 262.590127 277.763118 
L 263.006434 278.04056 
L 263.214462 278.007101 
L 263.630769 277.825396 
L 264.047076 277.758478 
L 264.463134 277.806346 
L 264.671412 277.772887 
L 266.544419 276.553464 
L 267.376783 276.763987 
L 267.79309 276.697069 
L 268.833483 275.955842 
L 269.24979 276.233283 
L 269.666097 276.855084 
L 269.874126 276.936411 
L 270.290433 276.525134 
L 271.122797 275.243433 
L 271.747133 274.913483 
L 271.955162 274.880024 
L 272.579497 275.238793 
L 273.828169 276.30069 
L 274.244476 276.348558 
L 274.660783 276.28164 
L 276.53379 274.832644 
L 276.949847 274.191793 
L 277.158125 274.043548 
L 277.366154 274.124875 
L 278.406797 275.679378 
L 278.614825 275.760705 
L 279.031132 275.349427 
L 279.655468 274.675118 
L 280.071525 274.6082 
L 280.904139 273.900431 
L 281.528475 273.226122 
L 282.568868 272.370108 
L 283.193203 271.351438 
L 283.60951 270.940161 
L 283.817539 270.677129 
L 285.06621 267.951072 
L 285.898825 267.01373 
L 286.106853 266.980271 
L 286.52316 267.02814 
L 286.939217 266.616862 
L 288.812224 264.36436 
L 289.228531 264.067869 
L 289.644838 264.345311 
L 290.060896 265.311471 
L 290.685231 266.932891 
L 291.309567 267.980379 
L 291.725874 268.716967 
L 292.142181 268.764835 
L 292.766517 267.860953 
L 293.182574 267.794034 
L 293.80691 266.890152 
L 294.223217 266.019728 
L 294.639524 265.493664 
L 294.847552 265.460205 
L 295.055581 265.656319 
L 295.263859 266.082006 
L 295.679917 267.851672 
L 296.096224 271.113562 
L 296.720559 279.392599 
L 297.761202 294.147548 
L 297.969231 295.260963 
L 298.177259 295.370124 
L 298.385538 294.709358 
L 298.801595 291.456672 
L 299.425931 285.601957 
L 299.842238 283.497136 
L 300.050266 283.190837 
L 300.258545 283.114112 
L 300.466573 283.266959 
L 301.090909 284.184648 
L 301.507216 284.605129 
L 301.715245 284.64319 
L 301.923273 284.566465 
L 302.33958 283.609508 
L 302.963916 280.16531 
L 303.79628 275.496521 
L 304.628894 273.123462 
L 305.044952 272.396079 
L 305.25323 272.319354 
L 305.877566 272.663109 
L 306.293623 272.394872 
L 306.501901 272.088573 
L 306.917959 272.164695 
L 307.334266 272.355604 
L 308.16663 271.589556 
L 308.582937 271.665678 
L 308.999244 271.167867 
L 309.831608 269.483528 
L 310.039637 269.406802 
L 310.663973 269.750558 
L 311.08028 269.252748 
L 311.704615 268.104279 
L 311.912644 268.027554 
L 312.328951 268.448035 
L 312.745258 269.098089 
L 313.161315 270.092503 
L 313.577622 271.201704 
L 313.785651 271.469338 
L 313.993929 271.507399 
L 315.034322 271.123771 
L 315.450629 271.544253 
L 316.282994 272.500002 
L 316.907329 272.843758 
L 317.323636 272.91988 
L 317.531665 272.843155 
L 318.780336 273.760239 
L 319.196643 273.492002 
L 319.820979 273.032252 
L 320.237286 273.452734 
L 320.653343 273.873215 
L 321.485957 273.6811 
L 321.902015 273.872008 
L 322.110293 273.910069 
L 323.150686 272.837723 
L 323.566993 272.339912 
L 323.775022 272.377973 
L 323.9833 272.530821 
L 324.607636 273.563296 
L 324.815664 273.716143 
L 325.231971 273.333119 
L 325.856307 272.299437 
L 326.064336 272.107925 
L 326.688671 272.222108 
L 327.937343 271.876542 
L 328.145371 271.914603 
L 328.769707 272.487932 
L 329.186014 272.908413 
L 329.81035 272.793023 
L 330.018378 272.831084 
L 330.642714 273.17484 
L 331.059021 272.906603 
L 332.307692 271.757531 
L 332.515721 271.336446 
L 332.932028 269.575984 
L 333.348335 266.667657 
L 333.972671 260.124223 
L 334.597006 250.366768 
L 335.429371 237.433352 
L 336.053706 231.349064 
L 336.261735 230.23926 
L 336.470013 229.818175 
L 336.678042 230.200596 
L 336.886071 231.156949 
L 337.302378 234.791452 
L 337.926713 242.940689 
L 338.967356 257.938452 
L 339.591692 264.021532 
L 340.216027 268.382816 
L 340.840363 271.137088 
L 341.880756 273.967482 
L 342.297063 274.50275 
L 342.921399 274.157787 
L 343.337706 273.659977 
L 343.753763 273.391739 
L 344.17007 273.353075 
L 344.586377 273.543983 
L 345.62677 273.160356 
L 346.459384 274.460464 
L 347.08372 275.14858 
L 347.499777 275.569061 
L 347.916084 276.219116 
L 348.956727 277.901645 
L 349.372784 278.436913 
L 349.581062 278.474974 
L 350.205398 278.359584 
L 350.413427 278.397645 
L 350.621455 278.550493 
L 351.037762 278.282255 
L 351.662098 277.133787 
L 352.078405 277.095122 
L 353.743134 278.432688 
L 354.367469 279.23559 
L 355.200083 279.387834 
L 355.616141 279.693529 
L 356.656783 281.376059 
L 357.07309 281.566967 
L 357.281119 281.605028 
L 357.697426 281.336791 
L 358.113483 281.298126 
L 358.737819 281.756669 
L 359.570433 281.105407 
L 359.98649 281.640675 
L 360.402797 282.520302 
L 360.610826 282.787936 
L 360.819104 282.825997 
L 361.859497 282.557156 
L 362.90014 283.206607 
L 363.316447 283.167943 
L 363.524476 283.206004 
L 364.148811 283.54976 
L 364.565118 283.396309 
L 364.981175 283.81679 
L 365.81379 285.116899 
L 366.021818 285.269747 
L 366.854182 284.618485 
L 367.27049 284.579821 
L 367.478518 284.847455 
L 368.102854 284.961638 
L 368.519161 284.808187 
L 369.351525 285.534363 
L 369.975861 286.222478 
L 370.392168 286.413387 
L 370.808475 286.489509 
L 371.224532 286.680417 
L 371.432811 286.718478 
L 371.640839 286.526966 
L 372.057146 285.799583 
L 372.265175 285.608071 
L 372.681482 285.684193 
L 372.88951 285.607467 
L 373.513846 284.688572 
L 373.721875 284.841419 
L 374.34621 286.218254 
L 374.554489 286.715461 
L 374.970546 286.906369 
L 375.386853 286.638132 
L 376.011189 286.178382 
L 376.427496 286.139718 
L 376.843553 286.330626 
L 377.467889 286.215236 
L 377.884196 286.635718 
L 378.508531 287.323833 
L 379.549174 287.973284 
L 379.757203 288.011345 
L 381.63021 287.435602 
L 382.670852 288.773772 
L 382.878881 288.811833 
L 384.543859 287.394523 
L 384.751888 287.432584 
L 385.168195 287.853066 
L 385.584252 288.732693 
L 386.832924 289.649778 
L 387.041202 289.573053 
L 388.081595 288.156347 
L 388.289873 288.194408 
L 388.705931 288.385316 
L 389.122238 288.346652 
L 389.330266 288.384713 
L 389.746573 288.805194 
L 390.16288 289.455249 
L 390.578938 290.105303 
L 390.787216 290.143364 
L 391.61958 289.836462 
L 392.035887 290.02737 
L 392.660223 289.797194 
L 393.284559 290.14095 
L 393.700616 290.217072 
L 393.908894 290.02556 
L 394.116923 290.063621 
L 394.949287 290.675011 
L 395.157566 290.598285 
L 395.781901 289.67939 
L 395.98993 289.602664 
L 396.822294 290.099268 
L 397.654908 289.907152 
L 398.070966 290.44242 
L 398.279244 290.480481 
L 398.487273 290.403756 
L 398.487273 290.403756 
" clip-path="url(#p327161bd1e)" style="fill: none; stroke: #d62728; stroke-width: 1.5; stroke-linecap: square"/>
   </g>
   <g id="patch_3">
    <path d="M 57.6 307.584 
L 57.6 41.472 
" style="fill: none; stroke: #000000; stroke-width: 0.8; stroke-linejoin: miter; stroke-linecap: square"/>
   </g>
   <g id="patch_4">
    <path d="M 414.72 307.584 
L 414.72 41.472 
" style="fill: none; stroke: #000000; stroke-width: 0.8; stroke-linejoin: miter; stroke-linecap: square"/>
   </g>
   <g id="patch_5">
    <path d="M 57.6 307.584 
L 414.72 307.584 
" style="fill: none; stroke: #000000; stroke-width: 0.8; stroke-linejoin: miter; stroke-linecap: square"/>
   </g>
   <g id="patch_6">
    <path d="M 57.6 41.472 
L 414.72 41.472 
" style="fill: none; stroke: #000000; stroke-width: 0.8; stroke-linejoin: miter; stroke-linecap: square"/>
   </g>
  </g>
 </g>
 <defs>
  <clipPath id="p327161bd1e">
   <rect x="57.6" y="41.472" width="357.12" height="266.112"/>
  </clipPath>
 </defs>
</svg>
