<?xml version="1.0" encoding="utf-8" standalone="no"?>
<!DOCTYPE svg PUBLIC "-//W3C//DTD SVG 1.1//EN"
  "http://www.w3.org/Graphics/SVG/1.1/DTD/svg11.dtd">
<svg xmlns:xlink="http://www.w3.org/1999/xlink" width="460.8pt" height="345.6pt" viewBox="0 0 460.8 345.6" xmlns="http://www.w3.org/2000/svg" version="1.1">
 <metadata>
  <rdf:RDF xmlns:dc="http://purl.org/dc/elements/1.1/" xmlns:cc="http://creativecommons.org/ns#" xmlns:rdf="http://www.w3.org/1999/02/22-rdf-syntax-ns#">
   <cc:Work>
    <dc:type rdf:resource="http://purl.org/dc/dcmitype/StillImage"/>
    <dc:date>2025-01-07T20:19:45.056952</dc:date>
    <dc:format>image/svg+xml</dc:format>
    <dc:creator>
     <cc:Agent>
      <dc:title>Matplotlib v3.8.0, https://matplotlib.org/</dc:title>
     </cc:Agent>
    </dc:creator>
   </cc:Work>
  </rdf:RDF>
 </metadata>
 <defs>
  <style type="text/css">*{stroke-linejoin: round; stroke-linecap: butt}</style>
 </defs>
 <g id="figure_1">
  <g id="patch_1">
   <path d="M 0 345.6 
L 460.8 345.6 
L 460.8 0 
L 0 0 
z
" style="fill: #ffffff"/>
  </g>
  <g id="axes_1">
   <g id="patch_2">
    <path d="M 57.6 307.584 
L 414.72 307.584 
L 414.72 41.472 
L 57.6 41.472 
z
" style="fill: #ffffff"/>
   </g>
   <g id="matplotlib.axis_1">
    <g id="xtick_1">
     <g id="line2d_1">
      <defs>
       <path id="m9761ef7ed2" d="M 0 0 
L 0 3.5 
" style="stroke: #000000; stroke-width: 0.8"/>
      </defs>
      <g>
       <use xlink:href="#m9761ef7ed2" x="73.832727" y="307.584" style="stroke: #000000; stroke-width: 0.8"/>
      </g>
     </g>
     <g id="text_1">
      <!-- 0.0 -->
      <g transform="translate(65.881165 322.182437) scale(0.1 -0.1)">
       <defs>
        <path id="DejaVuSans-30" d="M 2034 4250 
Q 1547 4250 1301 3770 
Q 1056 3291 1056 2328 
Q 1056 1369 1301 889 
Q 1547 409 2034 409 
Q 2525 409 2770 889 
Q 3016 1369 3016 2328 
Q 3016 3291 2770 3770 
Q 2525 4250 2034 4250 
z
M 2034 4750 
Q 2819 4750 3233 4129 
Q 3647 3509 3647 2328 
Q 3647 1150 3233 529 
Q 2819 -91 2034 -91 
Q 1250 -91 836 529 
Q 422 1150 422 2328 
Q 422 3509 836 4129 
Q 1250 4750 2034 4750 
z
" transform="scale(0.015625)"/>
        <path id="DejaVuSans-2e" d="M 684 794 
L 1344 794 
L 1344 0 
L 684 0 
L 684 794 
z
" transform="scale(0.015625)"/>
       </defs>
       <use xlink:href="#DejaVuSans-30"/>
       <use xlink:href="#DejaVuSans-2e" x="63.623047"/>
       <use xlink:href="#DejaVuSans-30" x="95.410156"/>
      </g>
     </g>
    </g>
    <g id="xtick_2">
     <g id="line2d_2">
      <g>
       <use xlink:href="#m9761ef7ed2" x="115.455105" y="307.584" style="stroke: #000000; stroke-width: 0.8"/>
      </g>
     </g>
     <g id="text_2">
      <!-- 2.5 -->
      <g transform="translate(107.503542 322.182437) scale(0.1 -0.1)">
       <defs>
        <path id="DejaVuSans-32" d="M 1228 531 
L 3431 531 
L 3431 0 
L 469 0 
L 469 531 
Q 828 903 1448 1529 
Q 2069 2156 2228 2338 
Q 2531 2678 2651 2914 
Q 2772 3150 2772 3378 
Q 2772 3750 2511 3984 
Q 2250 4219 1831 4219 
Q 1534 4219 1204 4116 
Q 875 4013 500 3803 
L 500 4441 
Q 881 4594 1212 4672 
Q 1544 4750 1819 4750 
Q 2544 4750 2975 4387 
Q 3406 4025 3406 3419 
Q 3406 3131 3298 2873 
Q 3191 2616 2906 2266 
Q 2828 2175 2409 1742 
Q 1991 1309 1228 531 
z
" transform="scale(0.015625)"/>
        <path id="DejaVuSans-35" d="M 691 4666 
L 3169 4666 
L 3169 4134 
L 1269 4134 
L 1269 2991 
Q 1406 3038 1543 3061 
Q 1681 3084 1819 3084 
Q 2600 3084 3056 2656 
Q 3513 2228 3513 1497 
Q 3513 744 3044 326 
Q 2575 -91 1722 -91 
Q 1428 -91 1123 -41 
Q 819 9 494 109 
L 494 744 
Q 775 591 1075 516 
Q 1375 441 1709 441 
Q 2250 441 2565 725 
Q 2881 1009 2881 1497 
Q 2881 1984 2565 2268 
Q 2250 2553 1709 2553 
Q 1456 2553 1204 2497 
Q 953 2441 691 2322 
L 691 4666 
z
" transform="scale(0.015625)"/>
       </defs>
       <use xlink:href="#DejaVuSans-32"/>
       <use xlink:href="#DejaVuSans-2e" x="63.623047"/>
       <use xlink:href="#DejaVuSans-35" x="95.410156"/>
      </g>
     </g>
    </g>
    <g id="xtick_3">
     <g id="line2d_3">
      <g>
       <use xlink:href="#m9761ef7ed2" x="157.077483" y="307.584" style="stroke: #000000; stroke-width: 0.8"/>
      </g>
     </g>
     <g id="text_3">
      <!-- 5.0 -->
      <g transform="translate(149.12592 322.182437) scale(0.1 -0.1)">
       <use xlink:href="#DejaVuSans-35"/>
       <use xlink:href="#DejaVuSans-2e" x="63.623047"/>
       <use xlink:href="#DejaVuSans-30" x="95.410156"/>
      </g>
     </g>
    </g>
    <g id="xtick_4">
     <g id="line2d_4">
      <g>
       <use xlink:href="#m9761ef7ed2" x="198.69986" y="307.584" style="stroke: #000000; stroke-width: 0.8"/>
      </g>
     </g>
     <g id="text_4">
      <!-- 7.5 -->
      <g transform="translate(190.748298 322.182437) scale(0.1 -0.1)">
       <defs>
        <path id="DejaVuSans-37" d="M 525 4666 
L 3525 4666 
L 3525 4397 
L 1831 0 
L 1172 0 
L 2766 4134 
L 525 4134 
L 525 4666 
z
" transform="scale(0.015625)"/>
       </defs>
       <use xlink:href="#DejaVuSans-37"/>
       <use xlink:href="#DejaVuSans-2e" x="63.623047"/>
       <use xlink:href="#DejaVuSans-35" x="95.410156"/>
      </g>
     </g>
    </g>
    <g id="xtick_5">
     <g id="line2d_5">
      <g>
       <use xlink:href="#m9761ef7ed2" x="240.322238" y="307.584" style="stroke: #000000; stroke-width: 0.8"/>
      </g>
     </g>
     <g id="text_5">
      <!-- 10.0 -->
      <g transform="translate(229.189425 322.182437) scale(0.1 -0.1)">
       <defs>
        <path id="DejaVuSans-31" d="M 794 531 
L 1825 531 
L 1825 4091 
L 703 3866 
L 703 4441 
L 1819 4666 
L 2450 4666 
L 2450 531 
L 3481 531 
L 3481 0 
L 794 0 
L 794 531 
z
" transform="scale(0.015625)"/>
       </defs>
       <use xlink:href="#DejaVuSans-31"/>
       <use xlink:href="#DejaVuSans-30" x="63.623047"/>
       <use xlink:href="#DejaVuSans-2e" x="127.246094"/>
       <use xlink:href="#DejaVuSans-30" x="159.033203"/>
      </g>
     </g>
    </g>
    <g id="xtick_6">
     <g id="line2d_6">
      <g>
       <use xlink:href="#m9761ef7ed2" x="281.944615" y="307.584" style="stroke: #000000; stroke-width: 0.8"/>
      </g>
     </g>
     <g id="text_6">
      <!-- 12.5 -->
      <g transform="translate(270.811803 322.182437) scale(0.1 -0.1)">
       <use xlink:href="#DejaVuSans-31"/>
       <use xlink:href="#DejaVuSans-32" x="63.623047"/>
       <use xlink:href="#DejaVuSans-2e" x="127.246094"/>
       <use xlink:href="#DejaVuSans-35" x="159.033203"/>
      </g>
     </g>
    </g>
    <g id="xtick_7">
     <g id="line2d_7">
      <g>
       <use xlink:href="#m9761ef7ed2" x="323.566993" y="307.584" style="stroke: #000000; stroke-width: 0.8"/>
      </g>
     </g>
     <g id="text_7">
      <!-- 15.0 -->
      <g transform="translate(312.434181 322.182437) scale(0.1 -0.1)">
       <use xlink:href="#DejaVuSans-31"/>
       <use xlink:href="#DejaVuSans-35" x="63.623047"/>
       <use xlink:href="#DejaVuSans-2e" x="127.246094"/>
       <use xlink:href="#DejaVuSans-30" x="159.033203"/>
      </g>
     </g>
    </g>
    <g id="xtick_8">
     <g id="line2d_8">
      <g>
       <use xlink:href="#m9761ef7ed2" x="365.189371" y="307.584" style="stroke: #000000; stroke-width: 0.8"/>
      </g>
     </g>
     <g id="text_8">
      <!-- 17.5 -->
      <g transform="translate(354.056558 322.182437) scale(0.1 -0.1)">
       <use xlink:href="#DejaVuSans-31"/>
       <use xlink:href="#DejaVuSans-37" x="63.623047"/>
       <use xlink:href="#DejaVuSans-2e" x="127.246094"/>
       <use xlink:href="#DejaVuSans-35" x="159.033203"/>
      </g>
     </g>
    </g>
    <g id="xtick_9">
     <g id="line2d_9">
      <g>
       <use xlink:href="#m9761ef7ed2" x="406.811748" y="307.584" style="stroke: #000000; stroke-width: 0.8"/>
      </g>
     </g>
     <g id="text_9">
      <!-- 20.0 -->
      <g transform="translate(395.678936 322.182437) scale(0.1 -0.1)">
       <use xlink:href="#DejaVuSans-32"/>
       <use xlink:href="#DejaVuSans-30" x="63.623047"/>
       <use xlink:href="#DejaVuSans-2e" x="127.246094"/>
       <use xlink:href="#DejaVuSans-30" x="159.033203"/>
      </g>
     </g>
    </g>
    <g id="text_10">
     <!-- Retention Volume (mL) -->
     <g transform="translate(178.718594 335.860562) scale(0.1 -0.1)">
      <defs>
       <path id="DejaVuSans-52" d="M 2841 2188 
Q 3044 2119 3236 1894 
Q 3428 1669 3622 1275 
L 4263 0 
L 3584 0 
L 2988 1197 
Q 2756 1666 2539 1819 
Q 2322 1972 1947 1972 
L 1259 1972 
L 1259 0 
L 628 0 
L 628 4666 
L 2053 4666 
Q 2853 4666 3247 4331 
Q 3641 3997 3641 3322 
Q 3641 2881 3436 2590 
Q 3231 2300 2841 2188 
z
M 1259 4147 
L 1259 2491 
L 2053 2491 
Q 2509 2491 2742 2702 
Q 2975 2913 2975 3322 
Q 2975 3731 2742 3939 
Q 2509 4147 2053 4147 
L 1259 4147 
z
" transform="scale(0.015625)"/>
       <path id="DejaVuSans-65" d="M 3597 1894 
L 3597 1613 
L 953 1613 
Q 991 1019 1311 708 
Q 1631 397 2203 397 
Q 2534 397 2845 478 
Q 3156 559 3463 722 
L 3463 178 
Q 3153 47 2828 -22 
Q 2503 -91 2169 -91 
Q 1331 -91 842 396 
Q 353 884 353 1716 
Q 353 2575 817 3079 
Q 1281 3584 2069 3584 
Q 2775 3584 3186 3129 
Q 3597 2675 3597 1894 
z
M 3022 2063 
Q 3016 2534 2758 2815 
Q 2500 3097 2075 3097 
Q 1594 3097 1305 2825 
Q 1016 2553 972 2059 
L 3022 2063 
z
" transform="scale(0.015625)"/>
       <path id="DejaVuSans-74" d="M 1172 4494 
L 1172 3500 
L 2356 3500 
L 2356 3053 
L 1172 3053 
L 1172 1153 
Q 1172 725 1289 603 
Q 1406 481 1766 481 
L 2356 481 
L 2356 0 
L 1766 0 
Q 1100 0 847 248 
Q 594 497 594 1153 
L 594 3053 
L 172 3053 
L 172 3500 
L 594 3500 
L 594 4494 
L 1172 4494 
z
" transform="scale(0.015625)"/>
       <path id="DejaVuSans-6e" d="M 3513 2113 
L 3513 0 
L 2938 0 
L 2938 2094 
Q 2938 2591 2744 2837 
Q 2550 3084 2163 3084 
Q 1697 3084 1428 2787 
Q 1159 2491 1159 1978 
L 1159 0 
L 581 0 
L 581 3500 
L 1159 3500 
L 1159 2956 
Q 1366 3272 1645 3428 
Q 1925 3584 2291 3584 
Q 2894 3584 3203 3211 
Q 3513 2838 3513 2113 
z
" transform="scale(0.015625)"/>
       <path id="DejaVuSans-69" d="M 603 3500 
L 1178 3500 
L 1178 0 
L 603 0 
L 603 3500 
z
M 603 4863 
L 1178 4863 
L 1178 4134 
L 603 4134 
L 603 4863 
z
" transform="scale(0.015625)"/>
       <path id="DejaVuSans-6f" d="M 1959 3097 
Q 1497 3097 1228 2736 
Q 959 2375 959 1747 
Q 959 1119 1226 758 
Q 1494 397 1959 397 
Q 2419 397 2687 759 
Q 2956 1122 2956 1747 
Q 2956 2369 2687 2733 
Q 2419 3097 1959 3097 
z
M 1959 3584 
Q 2709 3584 3137 3096 
Q 3566 2609 3566 1747 
Q 3566 888 3137 398 
Q 2709 -91 1959 -91 
Q 1206 -91 779 398 
Q 353 888 353 1747 
Q 353 2609 779 3096 
Q 1206 3584 1959 3584 
z
" transform="scale(0.015625)"/>
       <path id="DejaVuSans-20" transform="scale(0.015625)"/>
       <path id="DejaVuSans-56" d="M 1831 0 
L 50 4666 
L 709 4666 
L 2188 738 
L 3669 4666 
L 4325 4666 
L 2547 0 
L 1831 0 
z
" transform="scale(0.015625)"/>
       <path id="DejaVuSans-6c" d="M 603 4863 
L 1178 4863 
L 1178 0 
L 603 0 
L 603 4863 
z
" transform="scale(0.015625)"/>
       <path id="DejaVuSans-75" d="M 544 1381 
L 544 3500 
L 1119 3500 
L 1119 1403 
Q 1119 906 1312 657 
Q 1506 409 1894 409 
Q 2359 409 2629 706 
Q 2900 1003 2900 1516 
L 2900 3500 
L 3475 3500 
L 3475 0 
L 2900 0 
L 2900 538 
Q 2691 219 2414 64 
Q 2138 -91 1772 -91 
Q 1169 -91 856 284 
Q 544 659 544 1381 
z
M 1991 3584 
L 1991 3584 
z
" transform="scale(0.015625)"/>
       <path id="DejaVuSans-6d" d="M 3328 2828 
Q 3544 3216 3844 3400 
Q 4144 3584 4550 3584 
Q 5097 3584 5394 3201 
Q 5691 2819 5691 2113 
L 5691 0 
L 5113 0 
L 5113 2094 
Q 5113 2597 4934 2840 
Q 4756 3084 4391 3084 
Q 3944 3084 3684 2787 
Q 3425 2491 3425 1978 
L 3425 0 
L 2847 0 
L 2847 2094 
Q 2847 2600 2669 2842 
Q 2491 3084 2119 3084 
Q 1678 3084 1418 2786 
Q 1159 2488 1159 1978 
L 1159 0 
L 581 0 
L 581 3500 
L 1159 3500 
L 1159 2956 
Q 1356 3278 1631 3431 
Q 1906 3584 2284 3584 
Q 2666 3584 2933 3390 
Q 3200 3197 3328 2828 
z
" transform="scale(0.015625)"/>
       <path id="DejaVuSans-28" d="M 1984 4856 
Q 1566 4138 1362 3434 
Q 1159 2731 1159 2009 
Q 1159 1288 1364 580 
Q 1569 -128 1984 -844 
L 1484 -844 
Q 1016 -109 783 600 
Q 550 1309 550 2009 
Q 550 2706 781 3412 
Q 1013 4119 1484 4856 
L 1984 4856 
z
" transform="scale(0.015625)"/>
       <path id="DejaVuSans-4c" d="M 628 4666 
L 1259 4666 
L 1259 531 
L 3531 531 
L 3531 0 
L 628 0 
L 628 4666 
z
" transform="scale(0.015625)"/>
       <path id="DejaVuSans-29" d="M 513 4856 
L 1013 4856 
Q 1481 4119 1714 3412 
Q 1947 2706 1947 2009 
Q 1947 1309 1714 600 
Q 1481 -109 1013 -844 
L 513 -844 
Q 928 -128 1133 580 
Q 1338 1288 1338 2009 
Q 1338 2731 1133 3434 
Q 928 4138 513 4856 
z
" transform="scale(0.015625)"/>
      </defs>
      <use xlink:href="#DejaVuSans-52"/>
      <use xlink:href="#DejaVuSans-65" x="64.982422"/>
      <use xlink:href="#DejaVuSans-74" x="126.505859"/>
      <use xlink:href="#DejaVuSans-65" x="165.714844"/>
      <use xlink:href="#DejaVuSans-6e" x="227.238281"/>
      <use xlink:href="#DejaVuSans-74" x="290.617188"/>
      <use xlink:href="#DejaVuSans-69" x="329.826172"/>
      <use xlink:href="#DejaVuSans-6f" x="357.609375"/>
      <use xlink:href="#DejaVuSans-6e" x="418.791016"/>
      <use xlink:href="#DejaVuSans-20" x="482.169922"/>
      <use xlink:href="#DejaVuSans-56" x="513.957031"/>
      <use xlink:href="#DejaVuSans-6f" x="574.615234"/>
      <use xlink:href="#DejaVuSans-6c" x="635.796875"/>
      <use xlink:href="#DejaVuSans-75" x="663.580078"/>
      <use xlink:href="#DejaVuSans-6d" x="726.958984"/>
      <use xlink:href="#DejaVuSans-65" x="824.371094"/>
      <use xlink:href="#DejaVuSans-20" x="885.894531"/>
      <use xlink:href="#DejaVuSans-28" x="917.681641"/>
      <use xlink:href="#DejaVuSans-6d" x="956.695312"/>
      <use xlink:href="#DejaVuSans-4c" x="1054.107422"/>
      <use xlink:href="#DejaVuSans-29" x="1109.820312"/>
     </g>
    </g>
   </g>
   <g id="matplotlib.axis_2">
    <g id="ytick_1">
     <g id="line2d_10">
      <defs>
       <path id="m82ee61e44b" d="M 0 0 
L -3.5 0 
" style="stroke: #000000; stroke-width: 0.8"/>
      </defs>
      <g>
       <use xlink:href="#m82ee61e44b" x="57.6" y="293.892075" style="stroke: #000000; stroke-width: 0.8"/>
      </g>
     </g>
     <g id="text_11">
      <!-- 0 -->
      <g transform="translate(44.2375 297.691293) scale(0.1 -0.1)">
       <use xlink:href="#DejaVuSans-30"/>
      </g>
     </g>
    </g>
    <g id="ytick_2">
     <g id="line2d_11">
      <g>
       <use xlink:href="#m82ee61e44b" x="57.6" y="248.716917" style="stroke: #000000; stroke-width: 0.8"/>
      </g>
     </g>
     <g id="text_12">
      <!-- 500 -->
      <g transform="translate(31.5125 252.516136) scale(0.1 -0.1)">
       <use xlink:href="#DejaVuSans-35"/>
       <use xlink:href="#DejaVuSans-30" x="63.623047"/>
       <use xlink:href="#DejaVuSans-30" x="127.246094"/>
      </g>
     </g>
    </g>
    <g id="ytick_3">
     <g id="line2d_12">
      <g>
       <use xlink:href="#m82ee61e44b" x="57.6" y="203.54176" style="stroke: #000000; stroke-width: 0.8"/>
      </g>
     </g>
     <g id="text_13">
      <!-- 1000 -->
      <g transform="translate(25.15 207.340979) scale(0.1 -0.1)">
       <use xlink:href="#DejaVuSans-31"/>
       <use xlink:href="#DejaVuSans-30" x="63.623047"/>
       <use xlink:href="#DejaVuSans-30" x="127.246094"/>
       <use xlink:href="#DejaVuSans-30" x="190.869141"/>
      </g>
     </g>
    </g>
    <g id="ytick_4">
     <g id="line2d_13">
      <g>
       <use xlink:href="#m82ee61e44b" x="57.6" y="158.366603" style="stroke: #000000; stroke-width: 0.8"/>
      </g>
     </g>
     <g id="text_14">
      <!-- 1500 -->
      <g transform="translate(25.15 162.165821) scale(0.1 -0.1)">
       <use xlink:href="#DejaVuSans-31"/>
       <use xlink:href="#DejaVuSans-35" x="63.623047"/>
       <use xlink:href="#DejaVuSans-30" x="127.246094"/>
       <use xlink:href="#DejaVuSans-30" x="190.869141"/>
      </g>
     </g>
    </g>
    <g id="ytick_5">
     <g id="line2d_14">
      <g>
       <use xlink:href="#m82ee61e44b" x="57.6" y="113.191445" style="stroke: #000000; stroke-width: 0.8"/>
      </g>
     </g>
     <g id="text_15">
      <!-- 2000 -->
      <g transform="translate(25.15 116.990664) scale(0.1 -0.1)">
       <use xlink:href="#DejaVuSans-32"/>
       <use xlink:href="#DejaVuSans-30" x="63.623047"/>
       <use xlink:href="#DejaVuSans-30" x="127.246094"/>
       <use xlink:href="#DejaVuSans-30" x="190.869141"/>
      </g>
     </g>
    </g>
    <g id="ytick_6">
     <g id="line2d_15">
      <g>
       <use xlink:href="#m82ee61e44b" x="57.6" y="68.016288" style="stroke: #000000; stroke-width: 0.8"/>
      </g>
     </g>
     <g id="text_16">
      <!-- 2500 -->
      <g transform="translate(25.15 71.815507) scale(0.1 -0.1)">
       <use xlink:href="#DejaVuSans-32"/>
       <use xlink:href="#DejaVuSans-35" x="63.623047"/>
       <use xlink:href="#DejaVuSans-30" x="127.246094"/>
       <use xlink:href="#DejaVuSans-30" x="190.869141"/>
      </g>
     </g>
    </g>
    <g id="text_17">
     <!-- Intensity -->
     <g transform="translate(19.070312 196.2905) rotate(-90) scale(0.1 -0.1)">
      <defs>
       <path id="DejaVuSans-49" d="M 628 4666 
L 1259 4666 
L 1259 0 
L 628 0 
L 628 4666 
z
" transform="scale(0.015625)"/>
       <path id="DejaVuSans-73" d="M 2834 3397 
L 2834 2853 
Q 2591 2978 2328 3040 
Q 2066 3103 1784 3103 
Q 1356 3103 1142 2972 
Q 928 2841 928 2578 
Q 928 2378 1081 2264 
Q 1234 2150 1697 2047 
L 1894 2003 
Q 2506 1872 2764 1633 
Q 3022 1394 3022 966 
Q 3022 478 2636 193 
Q 2250 -91 1575 -91 
Q 1294 -91 989 -36 
Q 684 19 347 128 
L 347 722 
Q 666 556 975 473 
Q 1284 391 1588 391 
Q 1994 391 2212 530 
Q 2431 669 2431 922 
Q 2431 1156 2273 1281 
Q 2116 1406 1581 1522 
L 1381 1569 
Q 847 1681 609 1914 
Q 372 2147 372 2553 
Q 372 3047 722 3315 
Q 1072 3584 1716 3584 
Q 2034 3584 2315 3537 
Q 2597 3491 2834 3397 
z
" transform="scale(0.015625)"/>
       <path id="DejaVuSans-79" d="M 2059 -325 
Q 1816 -950 1584 -1140 
Q 1353 -1331 966 -1331 
L 506 -1331 
L 506 -850 
L 844 -850 
Q 1081 -850 1212 -737 
Q 1344 -625 1503 -206 
L 1606 56 
L 191 3500 
L 800 3500 
L 1894 763 
L 2988 3500 
L 3597 3500 
L 2059 -325 
z
" transform="scale(0.015625)"/>
      </defs>
      <use xlink:href="#DejaVuSans-49"/>
      <use xlink:href="#DejaVuSans-6e" x="29.492188"/>
      <use xlink:href="#DejaVuSans-74" x="92.871094"/>
      <use xlink:href="#DejaVuSans-65" x="132.080078"/>
      <use xlink:href="#DejaVuSans-6e" x="193.603516"/>
      <use xlink:href="#DejaVuSans-73" x="256.982422"/>
      <use xlink:href="#DejaVuSans-69" x="309.082031"/>
      <use xlink:href="#DejaVuSans-74" x="336.865234"/>
      <use xlink:href="#DejaVuSans-79" x="376.074219"/>
     </g>
    </g>
   </g>
   <g id="line2d_16">
    <path d="M 73.832727 292.283289 
L 74.040756 292.267224 
L 74.249034 292.793262 
L 74.665092 292.851483 
L 75.289427 292.71294 
L 76.122041 292.287281 
L 76.538099 292.526203 
L 77.162434 293.110462 
L 77.78677 293.965771 
L 78.203077 294.2088 
L 78.619384 294.103477 
L 79.24372 293.734247 
L 79.868055 293.005345 
L 80.284113 292.910928 
L 80.492391 292.908895 
L 80.908448 292.453077 
L 81.532784 291.724174 
L 81.949091 291.900808 
L 82.781455 293.24793 
L 82.989734 293.426597 
L 83.405791 293.15148 
L 83.822098 292.786012 
L 84.446434 292.328161 
L 85.487076 292.227644 
L 85.695105 292.04491 
L 86.319441 292.129161 
L 87.568112 293.110814 
L 88.608755 292.648896 
L 90.273483 293.445783 
L 90.68979 293.983818 
L 90.897819 293.982732 
L 91.314126 293.259629 
L 91.730433 292.446175 
L 91.938462 292.265324 
L 92.14649 292.265174 
L 92.979104 292.897024 
L 94.019497 293.257673 
L 94.435804 292.986321 
L 95.268169 292.353267 
L 95.684476 292.262616 
L 96.100783 292.171965 
L 96.725118 292.532915 
L 96.933147 292.713465 
L 97.141175 292.622964 
L 97.557483 292.261262 
L 97.765511 292.261112 
L 98.181818 292.531862 
L 98.806154 292.621761 
L 99.43049 293.073061 
L 99.638518 293.072911 
L 100.262854 292.620708 
L 100.679161 292.349356 
L 100.887189 292.168505 
L 101.303497 292.258555 
L 102.135861 292.529004 
L 103.176503 291.715099 
L 103.592811 291.985849 
L 104.217146 292.527499 
L 105.04951 292.436547 
L 105.881875 291.984194 
L 106.298182 291.712842 
L 106.50621 291.622341 
L 106.922517 291.893092 
L 107.338825 292.344542 
L 107.546853 292.434742 
L 107.96316 292.344091 
L 109.003553 292.252988 
L 109.41986 291.891286 
L 109.627889 291.891136 
L 110.668531 292.793887 
L 111.084838 292.883936 
L 111.500896 293.064336 
L 111.917203 292.883335 
L 112.749567 291.888879 
L 112.957845 291.798379 
L 113.373903 292.249829 
L 113.998238 293.423932 
L 114.830852 293.694381 
L 115.24691 293.60373 
L 116.287552 292.789825 
L 117.119917 293.692727 
L 118.160559 293.149873 
L 118.784895 292.607319 
L 118.992924 292.697519 
L 119.617259 293.690921 
L 119.825538 293.781121 
L 120.241595 293.329069 
L 120.865931 292.425114 
L 121.490266 291.792211 
L 121.906573 291.88226 
L 122.738938 292.785162 
L 123.77958 292.78441 
L 123.987609 292.96496 
L 124.403916 292.964659 
L 125.028252 292.512456 
L 125.23628 292.421955 
L 126.068894 292.873105 
L 126.276923 293.053655 
L 126.901259 292.962854 
L 127.525594 292.2396 
L 127.941901 292.329649 
L 129.398601 294.046873 
L 129.60663 294.049979 
L 130.230966 293.43186 
L 130.647273 293.170365 
L 131.271608 293.094348 
L 131.895944 292.566579 
L 132.312251 292.937536 
L 132.728308 293.579544 
L 132.936587 293.765022 
L 133.144615 293.7698 
L 133.560922 293.146903 
L 133.97698 292.433656 
L 134.185258 292.257734 
L 134.393287 292.352862 
L 135.017622 293.451399 
L 135.433929 293.551305 
L 136.058265 293.384937 
L 136.474322 293.665544 
L 136.890629 293.94615 
L 137.306936 293.776115 
L 137.931272 292.97896 
L 138.139301 292.984293 
L 138.763636 293.542392 
L 139.179943 293.553057 
L 140.220336 292.766568 
L 140.636643 292.867583 
L 141.05295 293.149299 
L 141.885315 292.899579 
L 142.301622 293.000594 
L 142.925957 293.468343 
L 143.342015 293.207958 
L 144.174629 291.964384 
L 144.590686 292.065399 
L 145.631329 292.905215 
L 145.839357 293.000898 
L 146.255664 292.830862 
L 146.88 292.124058 
L 147.712364 291.874337 
L 148.128671 291.975353 
L 148.961036 293.080887 
L 150.417985 293.027865 
L 150.834043 292.586778 
L 151.042321 292.32106 
L 151.458378 292.241375 
L 152.499021 292.358388 
L 152.915328 292.820805 
L 153.331385 293.283222 
L 153.539664 293.288554 
L 154.163999 292.8528 
L 154.372028 292.858133 
L 155.204392 294.146042 
L 155.412671 293.975153 
L 156.037006 292.200183 
L 156.245035 291.939811 
L 156.453064 291.95049 
L 157.077399 292.524628 
L 157.493706 292.636336 
L 158.118042 292.849073 
L 158.950406 292.440037 
L 159.78302 293.115204 
L 159.991049 293.216233 
L 160.407356 292.96654 
L 160.823413 292.716847 
L 161.23972 292.647854 
L 161.864056 293.041292 
L 162.280363 293.3337 
L 162.69642 293.445408 
L 163.112727 293.376415 
L 164.15337 293.339459 
L 164.777706 292.919744 
L 165.193763 293.031452 
L 165.402041 293.222831 
L 165.818099 293.153839 
L 166.858741 292.845832 
L 167.691106 293.340298 
L 168.107413 293.632707 
L 168.52372 293.202313 
L 168.939777 292.320168 
L 169.148055 292.240496 
L 169.356084 292.431875 
L 169.98042 293.548116 
L 170.188448 293.649145 
L 170.812784 292.868028 
L 171.229091 292.799036 
L 171.645398 293.272145 
L 172.269734 293.936634 
L 172.477762 294.128487 
L 173.310127 294.29331 
L 173.726434 294.266295 
L 173.934462 294.214715 
L 174.350769 293.849171 
L 176.223776 293.360838 
L 176.848112 292.533734 
L 177.264419 291.048711 
L 177.680476 288.479485 
L 178.51309 281.262975 
L 179.96979 264.54573 
L 181.218462 250.78458 
L 182.259104 239.347071 
L 182.88344 230.027037 
L 183.299497 220.320136 
L 183.715804 204.559763 
L 184.132111 179.583659 
L 184.756447 125.178818 
L 185.380783 70.773977 
L 185.79684 53.568 
L 186.005118 54.045218 
L 186.213147 60.214506 
L 186.629454 85.744227 
L 188.086154 196.149875 
L 188.71049 223.241018 
L 189.334825 240.122576 
L 189.959161 250.860312 
L 190.791525 259.635808 
L 191.624139 266.242895 
L 192.456503 270.500875 
L 194.121482 276.758077 
L 194.745818 278.641482 
L 195.370153 279.621384 
L 197.034882 282.174223 
L 198.075524 284.379612 
L 198.283553 284.585779 
L 198.69986 284.546361 
L 199.116167 284.326243 
L 199.532224 284.648227 
L 201.197203 286.207212 
L 201.61351 286.167795 
L 202.237845 286.063493 
L 202.653903 286.385476 
L 203.694545 287.777713 
L 204.110852 287.918996 
L 204.52691 287.698877 
L 205.151245 287.323525 
L 205.567552 287.464808 
L 205.983859 287.606091 
L 206.191888 287.541207 
L 206.399917 287.657023 
L 207.232531 289.023793 
L 207.648588 288.984375 
L 208.064895 288.944958 
L 208.481202 289.266941 
L 209.313566 290.27231 
L 209.521595 290.478477 
L 209.937902 290.439059 
L 210.354209 290.218941 
L 210.562238 290.244407 
L 211.60288 291.184892 
L 212.018938 291.326175 
L 212.643273 291.673625 
L 213.267609 291.569323 
L 213.475887 291.594789 
L 213.891945 292.097473 
L 214.51628 293.066592 
L 215.140616 293.056886 
L 215.97323 292.493585 
L 216.597566 291.951064 
L 217.013623 292.071252 
L 218.262294 293.419282 
L 218.678601 293.239932 
L 219.510966 291.940137 
L 219.719244 291.88624 
L 220.551608 292.664502 
L 220.967915 292.285656 
L 221.592251 291.491511 
L 221.80028 291.076212 
L 222.008308 290.931964 
L 222.216587 290.968416 
L 222.424615 291.18557 
L 222.840922 292.161978 
L 223.25698 292.776985 
L 223.673287 292.75954 
L 224.089594 292.561394 
L 224.505651 292.363249 
L 224.921958 291.984402 
L 225.338265 291.424855 
L 225.754322 291.497761 
L 226.170629 291.841717 
L 226.378658 291.96852 
L 227.627329 291.193382 
L 228.043636 291.175937 
L 228.251665 291.122039 
L 228.876001 290.508595 
L 229.292308 290.49115 
L 229.916643 290.871558 
L 230.540979 290.348464 
L 230.957286 289.879267 
L 233.24635 289.376743 
L 233.870686 289.666801 
L 234.286993 289.468656 
L 234.911329 288.674511 
L 235.327636 289.018467 
L 235.951971 289.760277 
L 236.16 289.796729 
L 236.368029 289.652481 
L 237.200643 288.533387 
L 237.408671 288.47949 
L 238.241036 289.077052 
L 238.657343 288.698205 
L 238.865371 288.463607 
L 239.07365 288.409709 
L 239.281678 288.536512 
L 239.697985 289.061169 
L 239.906014 289.187972 
L 240.322321 288.628425 
L 240.738378 287.888178 
L 241.154685 287.690032 
L 241.570992 287.762937 
L 241.98705 288.287594 
L 242.403357 288.812251 
L 242.819664 288.614105 
L 243.443999 287.458558 
L 243.860057 287.260413 
L 244.692671 287.135172 
L 245.108728 287.298428 
L 245.525035 287.461683 
L 246.357399 287.155742 
L 247.190013 286.669101 
L 247.606071 286.561305 
L 248.022378 286.724561 
L 248.438685 286.526415 
L 248.854742 285.966868 
L 249.271049 285.949423 
L 250.311692 287.30624 
L 250.936027 287.054197 
L 251.352085 286.67535 
L 251.768392 286.115803 
L 252.184699 285.646607 
L 252.600756 285.26776 
L 253.225092 285.196418 
L 254.265734 285.740082 
L 254.473763 285.776535 
L 254.89007 285.578389 
L 255.306377 285.560944 
L 255.722434 285.543499 
L 256.555048 284.876156 
L 256.971106 285.220113 
L 257.387413 285.744769 
L 257.80372 285.908025 
L 258.428055 285.565631 
L 258.844113 285.548186 
L 259.26042 285.530741 
L 259.676727 285.513296 
L 260.092784 285.857252 
L 260.509091 286.201208 
L 260.71712 286.237661 
L 262.590127 285.029779 
L 263.006434 285.373735 
L 263.422741 285.808042 
L 263.838798 285.790597 
L 264.255105 285.592451 
L 265.295748 284.50981 
L 265.711805 284.673065 
L 266.336141 284.963124 
L 267.376783 285.145387 
L 268.001119 284.622293 
L 268.417426 284.062746 
L 268.833483 283.412848 
L 269.24979 283.305053 
L 269.874126 283.866162 
L 270.082155 283.902615 
L 271.122797 283.271725 
L 272.16344 283.002237 
L 272.579497 283.346193 
L 272.995804 283.690149 
L 273.828169 283.384208 
L 274.868811 282.662968 
L 275.701175 282.718428 
L 276.325511 282.647085 
L 276.949847 282.666093 
L 277.366154 282.287247 
L 278.406797 280.843204 
L 278.822854 281.18716 
L 279.239161 281.621467 
L 279.447189 281.567569 
L 280.487832 280.394577 
L 281.736503 280.522943 
L 282.152811 280.324797 
L 282.985175 279.476754 
L 283.60951 279.13436 
L 284.441875 278.828419 
L 284.858182 278.088172 
L 285.06621 277.853573 
L 285.482517 277.836128 
L 285.690546 277.872581 
L 285.898825 277.728333 
L 287.147496 275.959342 
L 287.355524 275.815094 
L 288.187889 275.870554 
L 288.812224 275.34746 
L 289.228531 275.691416 
L 289.852867 276.523576 
L 290.685231 276.579036 
L 291.101538 276.380891 
L 291.517845 276.092395 
L 291.933903 276.074949 
L 292.558238 275.913256 
L 293.182574 275.299812 
L 293.598881 274.920965 
L 294.847552 272.880923 
L 295.055581 272.917376 
L 295.263859 273.224879 
L 295.471888 273.803434 
L 295.888195 275.954396 
L 296.304252 278.918512 
L 296.720559 283.599283 
L 297.344895 291.298067 
L 297.761202 294.804285 
L 297.969231 295.488 
L 298.177259 295.481389 
L 298.385538 294.784308 
L 299.634209 288.235609 
L 300.050266 286.774605 
L 300.258545 286.36033 
L 300.466573 286.217105 
L 301.090909 286.239183 
L 301.507216 286.043084 
L 301.715245 285.899859 
L 302.131552 285.161658 
L 302.755887 283.46708 
L 304.004559 279.626171 
L 305.044952 278.187245 
L 305.669287 277.757571 
L 305.877566 277.795047 
L 306.917959 278.79558 
L 307.542294 278.094855 
L 307.750573 278.041981 
L 308.374908 278.335109 
L 308.582937 278.191884 
L 309.62358 276.301207 
L 310.455944 275.366907 
L 311.08028 275.298634 
L 312.53698 276.916221 
L 312.953287 277.352574 
L 313.161315 277.57075 
L 314.409987 277.705256 
L 314.826294 277.509157 
L 315.034322 277.365932 
L 315.450629 277.531234 
L 315.866936 277.967588 
L 316.907329 277.793566 
L 317.323636 278.139569 
L 318.572308 277.822323 
L 319.404672 278.333628 
L 319.820979 278.860331 
L 320.237286 278.844933 
L 321.06965 278.362385 
L 321.485957 278.346986 
L 322.110293 278.730465 
L 322.734629 278.481492 
L 323.566993 277.998943 
L 323.775022 278.036419 
L 324.191329 277.84032 
L 325.648029 277.56055 
L 326.064336 277.635502 
L 326.688671 277.296178 
L 327.104978 277.46148 
L 327.313007 277.589307 
L 327.937343 277.521034 
L 328.35365 277.867037 
L 329.81035 279.303922 
L 330.226657 279.378874 
L 330.850992 280.033404 
L 331.26705 280.018006 
L 331.683357 280.002607 
L 332.099664 280.077559 
L 332.307692 279.843984 
L 332.723999 278.654032 
L 333.348335 275.604199 
L 333.972671 270.385958 
L 335.429371 256.28259 
L 335.845678 253.556682 
L 336.053706 252.690655 
L 336.261735 252.366729 
L 336.470013 252.494556 
L 336.678042 252.983783 
L 337.302378 255.897071 
L 337.926713 260.346314 
L 339.175385 270.509704 
L 340.007749 274.725372 
L 340.424056 275.974878 
L 340.840363 276.591932 
L 341.25642 276.666884 
L 341.672727 277.193587 
L 342.297063 278.028818 
L 342.921399 278.502647 
L 343.753763 280.007805 
L 344.17007 280.353808 
L 344.794406 280.375886 
L 345.210713 280.360487 
L 345.418741 280.397963 
L 346.251106 281.812771 
L 346.875441 283.009403 
L 347.291748 282.994005 
L 348.748448 282.714234 
L 349.164755 282.879537 
L 349.99712 283.300491 
L 350.413427 283.465794 
L 350.829734 283.992497 
L 351.454069 284.737377 
L 351.662098 284.955554 
L 352.910769 285.18041 
L 353.327076 284.984311 
L 353.535105 284.931436 
L 353.743134 285.059262 
L 354.159441 285.043864 
L 355.200083 285.592645 
L 355.616141 285.396546 
L 355.824419 285.434022 
L 356.656783 286.306728 
L 357.07309 286.29133 
L 357.489148 286.095231 
L 358.113483 286.026958 
L 358.52979 286.372961 
L 358.946097 286.718964 
L 359.570433 286.921742 
L 360.402797 287.704098 
L 361.44344 287.439726 
L 361.859497 287.785729 
L 362.483833 287.988507 
L 362.90014 288.15381 
L 363.732504 287.942312 
L 364.148811 288.288315 
L 364.981175 289.070671 
L 365.397483 289.145623 
L 365.81379 288.949524 
L 366.021818 288.89665 
L 367.894825 289.956736 
L 368.311132 289.670286 
L 368.727189 289.112786 
L 368.935468 288.969561 
L 369.351525 289.134864 
L 369.767832 289.480866 
L 370.184139 289.646169 
L 371.224532 289.833548 
L 371.848868 289.313524 
L 372.265175 288.846374 
L 372.681482 288.830976 
L 373.305818 289.395155 
L 374.34621 289.672885 
L 375.178825 290.455241 
L 376.635524 291.259675 
L 377.051831 291.244276 
L 377.467889 291.048177 
L 377.676167 290.904953 
L 378.508531 289.609252 
L 378.71656 289.556377 
L 379.757203 291.550763 
L 380.17351 291.716065 
L 380.589567 291.881368 
L 381.005874 292.13702 
L 381.422181 291.940921 
L 381.63021 291.707346 
L 381.838238 291.654472 
L 382.254545 292.000475 
L 382.670852 292.436828 
L 383.08691 292.421429 
L 383.503217 292.406031 
L 383.919524 292.390633 
L 384.335581 292.104183 
L 384.959917 292.306962 
L 385.376224 292.652964 
L 385.792531 292.998967 
L 386.208588 293.43532 
L 387.041202 293.632828 
L 387.457259 293.758114 
L 387.873566 293.515362 
L 388.289873 293.180089 
L 388.705931 293.296568 
L 388.914209 293.309633 
L 389.330266 293.06471 
L 389.746573 292.910138 
L 390.370909 293.130032 
L 390.787216 293.06581 
L 391.827609 292.76973 
L 392.243916 293.06691 
L 393.07628 293.751619 
L 393.492587 293.683261 
L 393.908894 293.613601 
L 394.53323 293.825336 
L 394.741259 293.744646 
L 395.157566 293.221864 
L 395.573623 293.060483 
L 396.406237 293.370174 
L 396.822294 293.299144 
L 397.654908 293.608834 
L 398.487273 292.924672 
L 398.487273 292.924672 
" clip-path="url(#pe605fedf99)" style="fill: none; stroke: #1f77b4; stroke-width: 1.5; stroke-linecap: square"/>
   </g>
   <g id="line2d_17">
    <path d="M 73.832727 290.905686 
L 74.040756 290.876092 
L 74.249034 292.382453 
L 75.289427 294.04149 
L 75.497706 294.103954 
L 75.913763 293.78328 
L 76.538099 293.077973 
L 76.954406 292.939054 
L 77.370713 293.161535 
L 78.203077 293.696848 
L 78.619384 293.738629 
L 79.035441 293.419008 
L 79.451748 293.099387 
L 80.076084 292.845832 
L 81.116727 293.17616 
L 81.532784 292.856539 
L 81.741062 292.651554 
L 81.949091 292.717619 
L 83.197762 294.19885 
L 83.614069 294.255104 
L 84.030127 293.786383 
L 84.654462 293.13151 
L 84.862741 293.304737 
L 85.278798 293.922242 
L 85.487076 294.095782 
L 85.695105 294.000706 
L 86.319441 293.267331 
L 86.527469 293.263807 
L 86.735748 293.440984 
L 87.151805 293.343585 
L 87.984419 292.968087 
L 88.816783 293.405743 
L 89.024812 293.582919 
L 89.441119 293.30482 
L 90.065455 292.661796 
L 90.273483 292.567921 
L 90.481762 292.654747 
L 91.522155 293.902031 
L 91.730433 293.898608 
L 92.354769 293.436787 
L 92.562797 293.34308 
L 92.979104 293.426717 
L 93.395162 293.329653 
L 93.811469 293.051889 
L 95.476447 292.302233 
L 95.892504 292.38587 
L 96.725118 292.011042 
L 97.141175 292.275379 
L 97.557483 292.720418 
L 98.181818 293.3428 
L 98.389847 293.429793 
L 99.014182 293.058322 
L 99.43049 292.599857 
L 100.054825 292.409087 
L 100.471132 292.492724 
L 101.095468 292.844055 
L 101.303497 293.021399 
L 101.927832 292.920978 
L 102.760196 292.2751 
L 103.176503 292.358736 
L 103.800839 292.529367 
L 104.425175 292.609647 
L 104.633203 292.696641 
L 105.881875 292.224749 
L 106.714489 292.482374 
L 107.130546 292.204609 
L 107.96316 291.55873 
L 108.379217 291.823068 
L 108.587496 292.000412 
L 109.41986 292.077336 
L 110.252224 292.696361 
L 110.668531 292.779998 
L 111.709174 293.124616 
L 111.917203 293.030909 
L 112.33351 293.295247 
L 113.165874 293.914272 
L 113.373903 294.001493 
L 113.79021 293.817105 
L 114.206517 293.904082 
L 114.622574 293.630039 
L 115.663217 292.448005 
L 116.495581 292.17097 
L 116.911888 292.258328 
L 117.952531 293.064001 
L 118.784895 293.329068 
L 119.825538 292.869836 
L 120.241595 292.957194 
L 120.657902 292.954202 
L 121.282238 292.497963 
L 121.698545 292.31427 
L 122.32288 292.671183 
L 122.947216 293.118447 
L 123.77958 293.473864 
L 124.611945 293.106478 
L 125.652587 291.834094 
L 125.860616 291.832598 
L 126.69323 292.730117 
L 127.317566 292.90633 
L 127.733623 292.812987 
L 128.357959 292.9892 
L 128.566237 292.897354 
L 129.398601 291.987866 
L 129.814908 291.894524 
L 130.022937 291.983378 
L 130.855301 292.880897 
L 131.687915 291.700359 
L 133.144615 292.41269 
L 133.768951 292.950303 
L 134.185258 292.856961 
L 134.601315 292.763619 
L 135.225651 293.120532 
L 135.641958 293.388591 
L 136.682601 293.381111 
L 137.098658 293.016717 
L 137.722994 292.108726 
L 138.139301 292.196084 
L 138.971665 293.455005 
L 140.428615 293.98784 
L 141.677286 292.998126 
L 142.50965 293.000885 
L 143.133986 293.545056 
L 143.342015 293.545746 
L 143.96635 292.915363 
L 144.590686 292.284981 
L 145.006993 292.015309 
L 145.631329 292.37878 
L 146.255664 292.832601 
L 146.671971 292.924331 
L 147.712364 292.476029 
L 148.753007 293.292631 
L 150.834043 293.389879 
L 151.458378 294.024851 
L 151.666657 293.937197 
L 152.70705 292.688246 
L 153.123357 292.423577 
L 153.539664 292.339608 
L 154.163999 292.800932 
L 154.372028 292.804123 
L 155.620699 291.739063 
L 156.245035 291.838986 
L 156.661342 292.116419 
L 157.285678 292.306691 
L 157.910013 292.406614 
L 159.158685 293.058211 
L 159.366713 293.242102 
L 159.78302 293.158133 
L 160.615385 292.177043 
L 161.031692 292.273775 
L 162.488392 293.470664 
L 162.69642 293.473855 
L 163.320756 293.031676 
L 163.945092 292.770197 
L 165.193763 293.241093 
L 165.61007 293.157124 
L 166.858741 293.716471 
L 167.06677 293.625516 
L 167.691106 292.892832 
L 168.315441 292.70225 
L 168.52372 292.879657 
L 168.939777 292.782719 
L 169.98042 292.224147 
L 170.396727 291.765808 
L 170.604755 291.672164 
L 170.812784 291.75922 
L 171.229091 292.385084 
L 171.43712 292.562491 
L 171.853427 292.465553 
L 172.477762 291.913569 
L 173.102098 291.994038 
L 174.350769 293.504331 
L 174.558798 293.580739 
L 174.975105 293.268309 
L 175.599441 292.545481 
L 176.431805 291.250427 
L 176.848112 289.925272 
L 177.264419 287.877315 
L 178.096783 281.703343 
L 181.010433 255.622102 
L 181.842797 249.899882 
L 182.675162 244.810114 
L 183.091469 240.322699 
L 183.507776 231.769519 
L 184.132111 209.724017 
L 185.380783 156.688332 
L 185.588811 155.031901 
L 185.79684 156.899133 
L 186.213147 169.397576 
L 188.086154 244.207562 
L 188.71049 256.404829 
L 189.334825 264.265282 
L 189.959161 269.415224 
L 190.999804 274.775968 
L 191.624139 276.76365 
L 192.456503 278.540506 
L 193.080839 279.715035 
L 193.705175 280.347462 
L 193.913203 280.498038 
L 194.953846 282.154418 
L 195.370153 282.184519 
L 195.578182 282.154393 
L 195.994489 282.545895 
L 197.24316 284.352851 
L 198.075524 284.503401 
L 198.491831 284.352801 
L 199.740503 283.720298 
L 200.15656 283.931099 
L 200.780896 284.563526 
L 201.197203 284.412926 
L 201.61351 284.352676 
L 202.029567 284.744177 
L 202.237845 284.894752 
L 202.445874 284.864627 
L 203.278238 284.111675 
L 203.694545 283.961074 
L 204.943217 283.689973 
L 205.567552 283.418897 
L 205.983859 283.810398 
L 206.608195 284.984927 
L 207.024252 285.015027 
L 207.440559 284.683726 
L 208.689231 284.051224 
L 209.521595 284.743876 
L 209.729873 284.984802 
L 210.145931 285.014902 
L 210.978545 283.990898 
L 211.186573 283.960773 
L 211.60288 284.352275 
L 212.018938 284.924477 
L 212.643273 285.014802 
L 213.05958 285.044902 
L 213.267609 285.105127 
L 213.683916 284.773826 
L 214.308252 283.960648 
L 214.932587 283.689572 
L 215.348894 283.719672 
L 215.764952 283.840123 
L 216.389287 284.47255 
L 216.805594 284.68335 
L 217.846237 284.894126 
L 218.262294 284.743525 
L 219.302937 284.231499 
L 219.719244 284.080898 
L 220.34358 283.809822 
L 221.592251 284.080823 
L 222.424615 284.050673 
L 222.840922 284.261473 
L 223.25698 284.562624 
L 223.673287 284.412024 
L 224.505651 283.026619 
L 224.921958 282.876018 
L 225.338265 282.906118 
L 226.378658 282.665143 
L 227.627329 282.03264 
L 228.251665 282.394016 
L 228.667972 282.424116 
L 230.33295 281.550663 
L 230.540979 281.520538 
L 231.165315 281.881914 
L 231.581622 281.821664 
L 231.997679 281.490363 
L 232.622015 281.490338 
L 233.24635 281.761364 
L 233.662657 282.152865 
L 234.286993 282.514241 
L 235.327636 282.273265 
L 236.16 281.701013 
L 236.576307 281.369712 
L 236.784336 281.249237 
L 237.200643 281.279337 
L 237.408671 281.249212 
L 238.449314 280.285433 
L 238.657343 280.255308 
L 239.489707 280.76726 
L 239.906014 280.79736 
L 240.946657 280.556384 
L 241.362714 280.405783 
L 241.779021 280.435883 
L 242.403357 280.79726 
L 242.819664 280.82736 
L 243.443999 280.375583 
L 245.108728 278.779327 
L 245.525035 278.628727 
L 245.941342 278.658827 
L 246.357399 279.050328 
L 246.565678 279.291254 
L 246.773706 279.351479 
L 247.814349 278.839452 
L 248.230406 278.959903 
L 248.854742 279.773031 
L 249.271049 280.254882 
L 249.479078 280.315107 
L 249.687356 280.194632 
L 250.103413 279.59228 
L 250.311692 279.471804 
L 251.768392 279.983731 
L 252.184699 280.375232 
L 252.392727 280.525808 
L 252.809034 280.194507 
L 253.849427 278.869327 
L 254.265734 278.899427 
L 254.682041 278.748826 
L 254.89007 278.718701 
L 255.306377 278.929502 
L 255.722434 279.140303 
L 256.34677 279.501679 
L 256.763077 279.531779 
L 257.179384 279.561879 
L 258.011748 279.71243 
L 258.636084 279.441354 
L 260.71712 279.230453 
L 261.133427 279.441253 
L 262.174069 279.290628 
L 262.798405 278.748501 
L 263.214462 278.5979 
L 263.630769 278.808701 
L 264.671412 279.561578 
L 265.087469 279.410978 
L 265.503776 279.079677 
L 265.920083 278.748376 
L 266.544419 278.74835 
L 266.960476 278.778451 
L 267.376783 278.447149 
L 267.79309 277.935148 
L 268.209148 277.784547 
L 268.417426 277.754422 
L 269.041762 278.115798 
L 269.457819 278.326599 
L 270.082155 278.959026 
L 270.498462 279.079476 
L 271.122797 278.8084 
L 272.371469 278.537299 
L 272.995804 278.266223 
L 273.828169 278.778175 
L 274.036447 278.74805 
L 274.660783 278.205923 
L 275.493147 278.356473 
L 275.701175 278.235998 
L 276.325511 277.51317 
L 276.53379 277.392695 
L 277.158125 277.48302 
L 277.574182 277.33242 
L 278.198518 277.061344 
L 279.031132 276.850493 
L 279.447189 276.699892 
L 280.071525 276.790217 
L 280.279804 276.760092 
L 281.112168 275.916789 
L 281.528475 275.766189 
L 281.736503 275.645713 
L 282.152811 274.953011 
L 283.401482 271.7907 
L 283.817539 271.278698 
L 284.441875 271.097972 
L 286.52316 267.905511 
L 287.563553 264.502274 
L 289.020503 261.94229 
L 289.43656 262.153091 
L 290.269174 263.658896 
L 290.685231 264.682849 
L 291.517845 267.092158 
L 291.933903 267.84506 
L 292.35021 268.236562 
L 292.766517 268.628063 
L 293.182574 269.200265 
L 293.598881 269.682117 
L 294.015188 269.712217 
L 294.639524 269.26044 
L 295.055581 268.929139 
L 295.263859 268.989364 
L 295.471888 269.32064 
L 295.888195 271.519148 
L 296.304252 275.886063 
L 297.761202 294.197002 
L 297.969231 294.896174 
L 298.177259 294.638609 
L 298.593566 291.995744 
L 299.425931 285.346999 
L 299.842238 283.694108 
L 300.258545 282.944719 
L 300.466573 282.795901 
L 301.507216 282.864962 
L 301.923273 282.296274 
L 302.33958 281.456536 
L 303.380223 277.640533 
L 304.004559 275.296721 
L 304.420616 274.637683 
L 304.628894 274.488865 
L 305.25323 274.494161 
L 306.085594 274.350639 
L 307.126237 274.510051 
L 307.334266 274.361232 
L 308.582937 272.564819 
L 308.790966 272.596701 
L 308.999244 272.809284 
L 309.415301 272.782698 
L 309.831608 271.94296 
L 310.247915 271.193571 
L 310.663973 270.805584 
L 311.288308 270.810881 
L 311.704615 270.784295 
L 312.328951 270.970292 
L 312.53698 271.182875 
L 313.369594 272.936709 
L 313.785651 273.813627 
L 314.201958 274.148442 
L 314.409987 274.180324 
L 314.826294 273.973038 
L 315.034322 274.00492 
L 315.450629 274.520436 
L 315.866936 275.216653 
L 316.074965 275.338886 
L 316.491272 274.950898 
L 316.907329 274.562911 
L 317.323636 274.536326 
L 317.739943 274.69044 
L 318.780336 275.211253 
L 319.196643 275.094317 
L 319.820979 275.551365 
L 320.653343 276.311346 
L 321.277679 276.316642 
L 321.902015 276.050888 
L 322.52635 275.694783 
L 322.942657 275.848898 
L 323.358964 276.003013 
L 323.9833 276.008309 
L 324.399357 275.891373 
L 324.815664 275.141985 
L 325.856307 272.861938 
L 326.064336 272.622769 
L 326.480643 272.596183 
L 327.104978 273.053231 
L 327.937343 273.993913 
L 328.35365 274.69013 
L 328.561678 274.902712 
L 329.394043 275.120592 
L 330.226657 275.519172 
L 330.434685 275.460704 
L 331.26705 274.594379 
L 332.099664 274.360507 
L 332.515721 273.520768 
L 332.932028 271.867877 
L 333.348335 269.221132 
L 333.764392 265.038432 
L 334.597006 253.781821 
L 335.637399 240.479035 
L 336.053706 236.928787 
L 336.470013 235.366246 
L 336.678042 235.398128 
L 336.886071 236.062463 
L 337.302378 238.927087 
L 337.718685 243.689068 
L 339.175385 263.427912 
L 339.79972 268.041074 
L 340.632085 272.053667 
L 341.048392 273.382336 
L 341.672727 274.562186 
L 342.297063 275.651686 
L 342.921399 276.831537 
L 343.129427 276.953769 
L 343.545734 276.746483 
L 344.378099 275.880159 
L 344.794406 276.034273 
L 345.210713 276.369089 
L 346.043077 276.586968 
L 347.499777 277.984698 
L 348.124113 278.441746 
L 349.372784 279.626893 
L 349.581062 279.749126 
L 350.205398 279.664072 
L 350.621455 279.818187 
L 351.662098 279.616197 
L 352.078405 279.589611 
L 353.118798 278.935869 
L 353.743134 279.121866 
L 354.159441 279.275981 
L 354.783776 279.371628 
L 355.200083 279.796794 
L 356.032448 281.189227 
L 356.448755 281.343342 
L 357.489148 281.593103 
L 358.52979 282.294616 
L 358.946097 282.629432 
L 359.362155 282.783547 
L 360.402797 282.581557 
L 360.610826 282.613439 
L 361.859497 281.810879 
L 362.275804 281.964994 
L 362.483833 282.177577 
L 363.732504 284.898679 
L 363.940783 285.111262 
L 364.148811 285.143144 
L 365.189454 284.399052 
L 366.229847 284.468113 
L 366.646154 284.260827 
L 367.062461 284.234241 
L 367.478518 284.388356 
L 369.559804 285.520331 
L 370.184139 285.435277 
L 370.808475 285.801975 
L 371.848868 285.599985 
L 372.88951 286.662899 
L 373.305818 286.274912 
L 373.930153 285.467056 
L 374.34621 284.988719 
L 374.970546 284.903665 
L 375.386853 285.419181 
L 375.80316 286.025047 
L 376.011189 286.23763 
L 376.427496 286.211044 
L 376.843553 286.003758 
L 377.467889 285.557303 
L 377.884196 285.801768 
L 378.508531 286.620217 
L 378.924838 286.864682 
L 379.340896 286.657396 
L 379.757203 286.179058 
L 379.965231 286.12059 
L 380.589567 286.577638 
L 381.005874 286.912454 
L 381.422181 287.066569 
L 381.838238 287.311034 
L 382.462574 287.135629 
L 383.08691 287.411977 
L 383.295188 287.443859 
L 383.711245 287.869025 
L 384.335581 288.958525 
L 384.543859 288.990407 
L 384.959917 288.42172 
L 385.376224 287.943382 
L 386.208588 288.341962 
L 386.624895 288.315376 
L 387.041202 288.288791 
L 387.665538 288.565138 
L 388.289873 288.570434 
L 388.705931 288.543849 
L 389.746573 289.155011 
L 390.16288 288.947725 
L 390.578938 288.559738 
L 390.995245 288.171751 
L 391.203273 288.022932 
L 391.411552 288.054815 
L 392.243916 288.905146 
L 392.868252 289.091143 
L 393.492587 289.819242 
L 393.908894 289.611956 
L 394.741259 289.107033 
L 395.573623 288.963511 
L 396.197959 289.149508 
L 397.238601 290.483473 
L 397.654908 290.818289 
L 397.862937 290.940521 
L 398.487273 290.674767 
L 398.487273 290.674767 
" clip-path="url(#pe605fedf99)" style="fill: none; stroke: #ff7f0e; stroke-width: 1.5; stroke-linecap: square"/>
   </g>
   <g id="line2d_18">
    <path d="M 73.832727 291.547664 
L 74.040756 291.524512 
L 74.249034 292.946965 
L 74.457063 293.194864 
L 74.87337 293.058211 
L 75.497706 293.169456 
L 75.913763 293.213503 
L 76.954406 294.001693 
L 77.162434 293.980235 
L 77.78677 293.376701 
L 78.203077 293.426097 
L 78.827413 293.545367 
L 79.24372 293.414062 
L 79.659777 293.463458 
L 80.076084 293.512854 
L 80.492391 293.38155 
L 80.908448 293.340596 
L 81.949091 294.234688 
L 82.365398 293.940636 
L 82.989734 292.828196 
L 83.405791 292.719022 
L 84.030127 293.142537 
L 84.446434 293.033363 
L 84.654462 292.843251 
L 85.278798 292.724664 
L 86.319441 292.316203 
L 86.943776 292.468668 
L 87.568112 292.530782 
L 87.984419 292.96371 
L 88.816783 294.010266 
L 89.024812 294.092566 
L 89.23309 293.996679 
L 90.273483 292.710037 
L 91.106097 292.963697 
L 91.314126 292.95935 
L 91.730433 292.679604 
L 91.938462 292.765606 
L 92.562797 293.565716 
L 92.770826 293.651719 
L 93.395162 293.367625 
L 93.811469 293.629981 
L 94.227776 293.982687 
L 94.852111 293.885243 
L 95.268169 293.430537 
L 95.892504 292.522604 
L 96.308811 292.61 
L 97.141175 293.597946 
L 97.557483 293.685342 
L 98.598125 293.587607 
L 99.43049 292.678197 
L 100.054825 292.583416 
L 100.471132 292.490111 
L 100.887189 292.758209 
L 101.511525 293.657281 
L 101.719804 293.746154 
L 101.927832 293.654327 
L 103.176503 292.199861 
L 103.800839 292.014729 
L 105.04951 292.54797 
L 106.090153 293.715139 
L 106.714489 293.891418 
L 106.922517 293.889943 
L 108.171189 292.7064 
L 108.587496 292.161302 
L 108.795524 292.069453 
L 109.211831 292.337508 
L 109.627889 292.695913 
L 109.836167 292.694415 
L 111.084838 291.691572 
L 111.709174 292.048479 
L 112.33351 292.676437 
L 113.373903 292.668946 
L 113.998238 292.032 
L 114.206517 292.030502 
L 114.830852 292.83916 
L 115.24691 292.745814 
L 115.871245 292.018517 
L 116.495581 292.104373 
L 117.744252 292.727836 
L 118.368588 293.175093 
L 119.617259 293.256455 
L 119.825538 293.435657 
L 120.241595 293.432661 
L 120.865931 292.795714 
L 121.282238 292.250616 
L 121.698545 291.976569 
L 122.947216 291.87723 
L 123.363273 291.783883 
L 124.403916 291.866743 
L 124.820223 292.315498 
L 125.652587 292.219156 
L 126.068894 292.125809 
L 126.276923 292.214661 
L 126.69323 292.121315 
L 127.109287 292.208669 
L 128.14993 292.65293 
L 128.566237 292.378882 
L 128.982294 292.104835 
L 129.60663 291.73894 
L 130.230966 291.282694 
L 130.647273 291.460398 
L 131.687915 292.627461 
L 132.312251 292.803668 
L 133.352644 291.983024 
L 133.768951 291.889678 
L 134.601315 291.793335 
L 135.225651 291.246738 
L 135.433929 291.24524 
L 135.849987 291.693996 
L 136.890629 292.861059 
L 137.722994 292.764716 
L 138.971665 292.303976 
L 139.387972 292.210629 
L 139.804279 291.755882 
L 140.220336 291.572185 
L 140.636643 291.840239 
L 141.05295 292.288995 
L 141.677286 293.007303 
L 141.885315 293.096155 
L 142.301622 292.822108 
L 142.925957 292.185161 
L 143.342015 291.911114 
L 143.758322 291.637067 
L 143.96635 291.545218 
L 144.590686 291.721425 
L 145.215022 291.445879 
L 145.4233 291.625082 
L 146.255664 292.974344 
L 146.463693 293.153546 
L 146.88 293.0602 
L 147.504336 292.152202 
L 147.712364 292.150704 
L 148.3367 292.597961 
L 148.753007 291.872163 
L 149.169314 291.236714 
L 149.585371 291.143368 
L 149.79365 291.23222 
L 150.626014 290.955176 
L 151.25035 291.041032 
L 151.666657 291.489788 
L 152.499021 293.110101 
L 153.539664 292.741209 
L 153.747692 292.739711 
L 154.788335 291.557666 
L 155.412671 291.914573 
L 155.828728 292.272978 
L 156.661342 291.905584 
L 156.869371 291.994436 
L 157.493706 292.712744 
L 157.701735 292.801596 
L 157.910013 292.709748 
L 158.742378 291.800252 
L 159.991049 291.339512 
L 160.407356 291.607567 
L 161.23972 292.866479 
L 161.447749 293.045681 
L 161.864056 293.133035 
L 162.072085 293.213869 
L 162.69642 292.78367 
L 163.112727 292.280503 
L 163.737063 291.480578 
L 163.945092 291.36452 
L 164.777706 291.53274 
L 165.193763 291.029573 
L 165.61007 290.526407 
L 166.026377 290.384641 
L 166.442434 290.604277 
L 167.275048 291.856701 
L 167.691106 291.714935 
L 168.315441 291.457111 
L 168.731748 291.315346 
L 169.148055 290.631478 
L 169.564113 289.85726 
L 169.98042 289.444444 
L 170.188448 289.418736 
L 170.396727 289.664079 
L 171.43712 291.703949 
L 171.645398 291.678241 
L 171.853427 291.471833 
L 172.685791 290.104098 
L 172.894069 289.98804 
L 173.518405 290.181968 
L 174.142741 290.827647 
L 174.558798 291.137633 
L 174.975105 290.995868 
L 176.431805 288.466806 
L 176.848112 288.053989 
L 177.264419 287.912224 
L 177.680476 286.957305 
L 178.929148 282.737295 
L 180.594126 276.478163 
L 182.88344 267.88315 
L 183.299497 264.488773 
L 183.715804 258.564587 
L 184.132111 249.38779 
L 185.588811 211.531755 
L 185.79684 210.602544 
L 186.005118 211.389989 
L 186.213147 213.89409 
L 186.837483 228.724769 
L 187.669847 249.944613 
L 188.294182 260.980579 
L 188.918518 267.589379 
L 189.959161 274.417815 
L 190.583497 277.051201 
L 190.999804 278.17434 
L 192.456503 280.343495 
L 192.872811 280.56313 
L 193.080839 280.627773 
L 193.913203 281.518796 
L 194.745818 281.415965 
L 195.161875 281.816302 
L 196.410546 283.649763 
L 196.618825 283.895106 
L 196.826853 283.959748 
L 197.034882 283.84369 
L 197.659217 282.953415 
L 198.075524 282.99235 
L 198.491831 283.211985 
L 198.907889 283.431621 
L 199.324196 283.109155 
L 200.364838 281.625362 
L 201.405231 282.309976 
L 202.029567 282.413554 
L 202.445874 282.452489 
L 203.694545 282.840345 
L 205.151245 281.937589 
L 205.567552 281.615122 
L 205.775581 281.589415 
L 207.024252 282.519373 
L 207.440559 282.196906 
L 207.856866 281.513039 
L 208.064895 281.306631 
L 208.272924 281.371273 
L 208.897259 282.197653 
L 209.313566 282.236588 
L 210.145931 281.772356 
L 210.562238 281.26919 
L 210.770266 281.243482 
L 211.394602 281.889161 
L 211.810909 282.108797 
L 212.227216 281.967031 
L 213.05958 281.59315 
L 214.100223 282.729516 
L 214.51628 282.949152 
L 215.140616 283.052729 
L 215.556923 282.730263 
L 216.181259 282.111038 
L 216.597566 282.149973 
L 217.221901 282.795653 
L 217.42993 282.950646 
L 217.637959 282.924938 
L 218.470573 282.189655 
L 219.302937 282.086825 
L 220.551608 280.938725 
L 220.967915 280.97766 
L 221.592251 281.081238 
L 222.008308 280.939472 
L 222.632644 280.681649 
L 223.25698 281.146627 
L 223.881315 280.979154 
L 225.129987 279.831055 
L 225.962601 280.812428 
L 226.170629 280.78672 
L 226.586936 280.464254 
L 227.002994 280.322488 
L 227.419301 280.180723 
L 227.835608 279.767906 
L 228.251665 279.806841 
L 229.292308 281.485309 
L 229.916643 281.317836 
L 231.373343 279.872978 
L 231.78965 279.731212 
L 232.205957 279.589447 
L 232.622015 279.989783 
L 233.454629 281.513258 
L 233.662657 281.848952 
L 234.078964 281.887887 
L 235.743693 280.23662 
L 236.16 280.094855 
L 236.992364 279.720973 
L 237.200643 279.875966 
L 237.824978 280.792696 
L 238.033007 280.947689 
L 238.241036 280.921982 
L 238.657343 280.599516 
L 239.697985 280.109576 
L 240.322321 280.032453 
L 240.738378 279.529286 
L 241.154685 279.026119 
L 241.570992 279.155405 
L 242.403357 280.407829 
L 243.443999 281.092443 
L 243.652028 281.157086 
L 244.068335 280.83462 
L 244.692671 280.125044 
L 245.108728 279.621878 
L 245.525035 279.480112 
L 246.149371 280.035441 
L 246.357399 279.919383 
L 247.190013 278.913049 
L 247.814349 279.197328 
L 248.230406 279.416963 
L 248.646713 279.275198 
L 249.479078 278.901316 
L 250.727749 278.74707 
L 251.560363 277.379335 
L 252.600756 275.17274 
L 252.809034 274.966331 
L 253.225092 275.005266 
L 254.057706 275.263837 
L 254.265734 275.147779 
L 254.682041 274.463911 
L 255.098099 273.689694 
L 255.306377 273.483285 
L 255.722434 273.52222 
L 256.34677 273.806499 
L 256.555048 273.961492 
L 257.387413 275.936718 
L 257.595441 276.182061 
L 258.011748 276.220996 
L 258.428055 276.259931 
L 259.884755 277.435233 
L 260.925398 279.384752 
L 261.549734 279.75938 
L 262.174069 279.591907 
L 263.006434 279.037325 
L 263.630769 278.4181 
L 264.047076 278.457035 
L 264.671412 279.102714 
L 265.295748 278.66419 
L 266.128112 277.928907 
L 266.544419 277.787142 
L 266.752448 277.851784 
L 267.584812 278.742807 
L 268.625455 277.710766 
L 269.457819 278.059687 
L 270.290433 278.589308 
L 270.498462 278.3829 
L 270.914769 277.699032 
L 271.122797 277.492624 
L 271.539104 277.441209 
L 271.955162 277.660844 
L 272.371469 277.699779 
L 273.412111 277.571241 
L 274.244476 276.835958 
L 274.868811 276.849186 
L 275.285118 277.068821 
L 276.117483 278.050194 
L 276.53379 278.089129 
L 276.949847 278.128064 
L 277.366154 278.25735 
L 277.782461 277.934883 
L 278.406797 277.315659 
L 279.447189 277.09677 
L 279.863497 276.593603 
L 280.279804 276.180787 
L 280.487832 276.155079 
L 280.695861 276.310072 
L 281.112168 276.891109 
L 281.528475 277.020394 
L 281.944532 276.697928 
L 282.985175 275.756237 
L 283.60951 275.588763 
L 284.025818 275.446998 
L 284.650153 275.369875 
L 285.482517 274.544242 
L 285.690546 274.518534 
L 286.314882 274.983513 
L 286.731189 274.661047 
L 287.563553 273.202961 
L 287.97986 273.241896 
L 288.187889 273.216189 
L 288.812224 272.687314 
L 289.228531 272.545548 
L 289.644838 272.584483 
L 290.477203 271.849201 
L 291.309567 271.294618 
L 291.517845 271.08821 
L 293.390852 270.947191 
L 293.598881 271.011834 
L 294.223217 270.57331 
L 294.847552 270.044435 
L 295.055581 270.018728 
L 295.263859 270.173721 
L 295.471888 270.599765 
L 295.888195 272.807107 
L 296.304252 277.273208 
L 297.552924 293.472369 
L 297.761202 294.436264 
L 297.969231 294.782574 
L 298.177259 294.531375 
L 298.593566 292.802246 
L 299.634209 286.309343 
L 300.050266 285.031297 
L 300.674602 283.972555 
L 301.715245 283.262073 
L 302.131552 282.345427 
L 303.79628 277.233241 
L 304.212587 276.497297 
L 304.836923 274.896453 
L 305.25323 274.43156 
L 305.669287 274.599118 
L 306.085594 274.947377 
L 306.501901 274.753535 
L 307.542294 272.687797 
L 307.958601 272.313254 
L 308.582937 271.706264 
L 309.62358 271.447533 
L 310.247915 271.834396 
L 310.663973 271.550203 
L 311.08028 270.994959 
L 311.288308 270.943213 
L 311.496587 271.162518 
L 312.120922 272.272184 
L 312.328951 272.401138 
L 312.953287 272.33625 
L 313.161315 272.465204 
L 313.577622 273.265215 
L 313.993929 273.974876 
L 314.409987 274.323135 
L 314.826294 274.671394 
L 315.242601 275.200354 
L 315.866936 275.496867 
L 316.282994 275.483725 
L 316.491272 275.431978 
L 316.907329 275.057435 
L 317.323636 274.863592 
L 318.156001 275.108359 
L 318.364279 275.237314 
L 319.404672 276.604888 
L 319.820979 276.591746 
L 320.445315 276.075107 
L 320.861622 275.700563 
L 321.06965 275.648817 
L 322.318322 276.874295 
L 322.942657 276.809407 
L 323.358964 276.886615 
L 323.9833 277.544529 
L 324.191329 277.583134 
L 324.607636 277.02789 
L 325.023693 276.111244 
L 325.231971 275.878798 
L 325.648029 275.865656 
L 326.064336 276.033214 
L 326.480643 275.839371 
L 327.729314 275.077143 
L 328.145371 275.244701 
L 329.394043 276.921931 
L 329.81035 277.27019 
L 330.018378 277.399145 
L 330.434685 277.386003 
L 330.642714 277.514957 
L 331.475328 278.934278 
L 331.683357 278.882532 
L 332.099664 278.056237 
L 332.515721 276.507139 
L 332.932028 274.41594 
L 333.556364 269.472135 
L 334.597006 256.925761 
L 335.429371 246.509191 
L 336.053706 241.203984 
L 336.470013 239.654887 
L 336.678042 239.603141 
L 336.886071 240.093496 
L 337.302378 242.790864 
L 337.926713 249.954001 
L 338.759078 260.137302 
L 339.383413 265.493433 
L 340.216027 270.165365 
L 340.840363 272.991687 
L 341.25642 274.153099 
L 341.464699 274.553104 
L 341.672727 274.682059 
L 342.297063 274.61717 
L 342.71337 274.604028 
L 343.337706 274.53914 
L 343.753763 274.887399 
L 344.378099 275.635664 
L 346.667413 280.126073 
L 346.875441 280.164677 
L 347.708055 279.505941 
L 348.124113 279.8542 
L 348.54042 280.202459 
L 348.956727 280.370018 
L 349.372784 280.447226 
L 350.621455 281.672704 
L 351.037762 281.478862 
L 351.662098 281.142923 
L 352.286434 281.349085 
L 353.535105 282.032462 
L 353.951412 281.657918 
L 354.367469 281.193025 
L 354.783776 281.179883 
L 355.200083 281.528142 
L 355.616141 282.057102 
L 356.032448 282.766762 
L 356.656783 284.147479 
L 357.07309 284.495738 
L 357.489148 284.482596 
L 358.113483 284.508058 
L 358.52979 284.314215 
L 359.154126 283.978276 
L 359.778462 284.184439 
L 359.98649 284.313393 
L 360.610826 284.248505 
L 361.235162 284.273967 
L 361.651469 284.080124 
L 361.859497 284.028378 
L 362.067776 284.157332 
L 363.316447 285.924913 
L 363.732504 285.911771 
L 364.148811 285.898628 
L 364.565118 286.246888 
L 364.981175 286.595147 
L 365.81379 287.020614 
L 366.229847 287.007472 
L 367.478518 286.696995 
L 368.727189 287.561072 
L 369.351525 288.399687 
L 369.767832 288.386545 
L 370.392168 288.050606 
L 370.808475 288.037464 
L 371.016503 288.166418 
L 371.432811 287.972575 
L 372.057146 287.636636 
L 372.473203 287.623494 
L 372.88951 287.791053 
L 373.513846 288.448967 
L 374.34621 288.693734 
L 374.554489 288.822688 
L 375.178825 288.577099 
L 375.386853 288.435003 
L 375.80316 288.602561 
L 376.219217 288.95082 
L 376.635524 289.29908 
L 377.467889 289.724547 
L 378.508531 289.465816 
L 379.340896 289.891284 
L 379.757203 289.697441 
L 380.17351 289.413248 
L 381.213903 289.696619 
L 382.046517 290.122086 
L 382.254545 290.16069 
L 383.295188 289.540558 
L 383.919524 289.47567 
L 384.127552 289.604624 
L 385.168195 290.972199 
L 386.000559 290.494163 
L 386.208588 290.623118 
L 386.832924 291.371382 
L 387.041202 291.409986 
L 387.665538 290.983697 
L 388.081595 291.151255 
L 388.914209 291.667073 
L 389.122238 291.615327 
L 389.538545 291.240784 
L 389.954602 291.046941 
L 390.370909 291.3952 
L 391.411552 292.401374 
L 391.827609 292.388232 
L 392.868252 291.768099 
L 393.284559 291.935658 
L 394.116923 292.722527 
L 394.949287 292.786593 
L 395.365594 293.307274 
L 395.573623 293.33024 
L 396.406237 292.21908 
L 396.822294 292.341127 
L 397.238601 292.643875 
L 397.44663 292.750074 
L 398.279244 292.181015 
L 398.487273 292.287214 
L 398.487273 292.287214 
" clip-path="url(#pe605fedf99)" style="fill: none; stroke: #2ca02c; stroke-width: 1.5; stroke-linecap: square"/>
   </g>
   <g id="line2d_19">
    <path d="M 73.832727 292.649804 
L 74.249034 292.534684 
L 74.665092 292.238864 
L 74.87337 292.045779 
L 76.122041 292.061821 
L 76.538099 292.488803 
L 77.578741 293.691783 
L 78.619384 294.086475 
L 79.24372 293.707001 
L 80.492391 292.136994 
L 81.116727 291.939268 
L 81.324755 292.023943 
L 82.365398 293.260471 
L 82.781455 293.520172 
L 83.405791 293.683846 
L 84.446434 293.203719 
L 85.070769 293.638445 
L 85.487076 293.536744 
L 86.319441 293.242992 
L 86.735748 293.141291 
L 89.23309 291.898634 
L 89.857426 291.429857 
L 90.273483 291.689557 
L 90.897819 292.395334 
L 91.106097 292.480009 
L 91.522155 292.378308 
L 91.730433 292.372633 
L 92.354769 293.07841 
L 92.770826 292.976709 
L 93.187133 292.694308 
L 93.60344 292.954008 
L 93.811469 293.129033 
L 94.227776 292.846632 
L 95.06014 291.920428 
L 95.476447 292.180128 
L 95.892504 292.80123 
L 96.308811 293.331981 
L 96.51684 293.326306 
L 96.933147 292.863204 
L 97.141175 292.586478 
L 97.349454 292.580803 
L 97.765511 293.021204 
L 97.97379 293.286579 
L 98.389847 293.184879 
L 99.43049 292.34335 
L 99.846797 292.241649 
L 100.471132 292.314973 
L 101.303497 292.924725 
L 101.719804 293.003724 
L 102.552168 292.709973 
L 102.968475 292.788972 
L 103.384532 293.139023 
L 103.592811 293.133348 
L 103.800839 292.946972 
L 104.425175 291.936093 
L 104.841482 292.015093 
L 106.298182 292.607818 
L 107.130546 291.952665 
L 110.252224 293.313141 
L 110.460503 293.488167 
L 111.500896 293.36944 
L 111.917203 292.906338 
L 112.33351 292.443236 
L 112.541538 292.347211 
L 112.957845 292.42621 
L 113.373903 292.234159 
L 113.79021 291.771057 
L 113.998238 291.765382 
L 114.622574 292.651859 
L 115.038881 293.453662 
L 115.663217 294.160414 
L 115.871245 294.249125 
L 116.287552 293.804528 
L 117.328195 292.201019 
L 117.536224 292.024878 
L 117.744252 292.119788 
L 118.992924 293.592749 
L 119.409231 293.150116 
L 119.825538 292.707484 
L 120.865931 292.278529 
L 121.698545 292.567817 
L 122.32288 291.949043 
L 122.738938 292.229213 
L 123.363273 292.875343 
L 123.571552 292.789552 
L 124.195887 292.080428 
L 124.611945 291.999197 
L 125.860616 292.478304 
L 126.276923 292.397073 
L 126.901259 291.959 
L 127.941901 292.072147 
L 128.566237 292.718277 
L 128.982294 292.817746 
L 130.439244 292.759312 
L 131.687915 292.244566 
L 132.103973 292.524736 
L 132.52028 292.895256 
L 132.936587 292.633324 
L 133.352644 292.190691 
L 133.560922 292.01455 
L 133.97698 292.114019 
L 134.809594 292.764708 
L 136.058265 293.334167 
L 137.098658 292.905212 
L 137.514965 293.004681 
L 137.931272 292.652399 
L 138.139301 292.656958 
L 138.971665 293.397998 
L 139.804279 293.506586 
L 140.220336 293.786756 
L 140.428615 293.791315 
L 141.05295 293.082191 
L 141.677286 293.005519 
L 142.301622 292.567445 
L 142.50965 292.481654 
L 142.925957 292.761824 
L 143.550293 293.317604 
L 143.96635 293.236372 
L 144.798964 292.441457 
L 145.215022 291.998824 
L 145.631329 292.278994 
L 146.255664 293.105825 
L 146.463693 293.020034 
L 147.296307 292.044418 
L 147.504336 292.139328 
L 148.128671 292.875809 
L 148.3367 292.880368 
L 148.544978 292.704227 
L 148.961036 292.080893 
L 149.169314 291.995102 
L 149.377343 292.090012 
L 150.209707 293.011753 
L 150.626014 292.749821 
L 151.042321 292.487888 
L 151.25035 292.492448 
L 151.874685 292.957878 
L 152.290992 292.876646 
L 152.915328 292.438573 
L 153.331385 292.538042 
L 153.955721 293.003471 
L 154.996364 292.664867 
L 155.412671 292.945037 
L 156.453064 294.144571 
L 156.661342 294.064138 
L 156.869371 293.804895 
L 157.285678 293.105708 
L 157.701735 293.038973 
L 158.326071 293.255097 
L 158.534349 293.176555 
L 158.950406 292.748419 
L 159.158685 292.669877 
L 159.574742 292.874193 
L 160.407356 293.824927 
L 160.615385 293.836735 
L 161.031692 293.407489 
L 161.656027 292.718445 
L 162.072085 292.831301 
L 162.69642 293.316811 
L 163.529034 293.00042 
L 164.361399 293.316482 
L 164.985734 293.07919 
L 165.402041 293.192045 
L 166.026377 293.135453 
L 166.650713 292.988511 
L 167.275048 293.112619 
L 167.691106 293.406176 
L 169.148055 294.026437 
L 170.188448 293.644321 
L 170.812784 293.953941 
L 171.229091 293.526627 
L 171.645398 293.098198 
L 172.061455 292.94082 
L 173.518405 293.651417 
L 173.934462 293.568788 
L 175.183134 293.510979 
L 175.599441 292.827026 
L 176.431805 291.083239 
L 176.848112 289.759595 
L 177.472448 286.509223 
L 178.096783 281.180795 
L 178.721119 274.04536 
L 181.010433 245.894391 
L 182.050826 237.254611 
L 182.88344 230.631907 
L 183.299497 224.338995 
L 183.715804 213.347867 
L 184.132111 195.761166 
L 185.380783 128.816062 
L 185.588811 124.811278 
L 185.79684 124.872258 
L 186.005118 128.908652 
L 186.421175 145.926122 
L 187.878125 222.518298 
L 188.502461 241.584454 
L 189.126797 254.235738 
L 189.751132 263.001959 
L 190.167189 266.828282 
L 190.791525 270.534885 
L 191.415861 272.886233 
L 193.080839 277.530188 
L 193.497146 278.1039 
L 194.32951 278.709222 
L 194.745818 279.192584 
L 195.161875 279.404894 
L 195.578182 279.617205 
L 196.826853 281.519041 
L 197.451189 281.882682 
L 198.283553 281.765202 
L 198.69986 282.158213 
L 199.532224 283.124936 
L 199.740503 283.185916 
L 199.948531 283.066196 
L 200.572867 282.255283 
L 200.989174 282.286893 
L 201.61351 282.379483 
L 202.029567 282.230393 
L 202.445874 282.081302 
L 204.110852 282.478793 
L 205.567552 282.182852 
L 205.983859 282.033761 
L 207.024252 282.338662 
L 207.856866 281.588729 
L 208.272924 281.620339 
L 208.897259 282.435732 
L 209.313566 282.919093 
L 209.729873 282.860353 
L 210.562238 282.11042 
L 211.394602 282.806092 
L 211.60288 283.047773 
L 212.227216 283.140363 
L 213.475887 282.873792 
L 213.891945 282.724702 
L 214.308252 282.756312 
L 214.724559 283.058973 
L 215.348894 282.880512 
L 215.97323 282.52135 
L 217.013623 282.916602 
L 217.637959 283.280243 
L 219.094908 283.074652 
L 219.927273 283.679973 
L 220.135301 283.650603 
L 221.383973 282.028777 
L 221.80028 281.698986 
L 222.216587 281.911297 
L 222.840922 282.636339 
L 223.25698 282.667949 
L 223.465258 282.457878 
L 224.505651 280.23297 
L 224.921958 280.08388 
L 225.754322 280.23745 
L 225.962601 280.20808 
L 226.378658 280.601091 
L 226.794965 281.084453 
L 227.002994 281.145433 
L 227.211272 281.025713 
L 228.043636 279.643328 
L 228.459943 279.674938 
L 229.084279 279.767528 
L 229.292308 279.738158 
L 229.916643 280.101799 
L 230.33295 280.223759 
L 231.165315 281.190482 
L 231.997679 281.434403 
L 232.830293 282.310776 
L 233.454629 282.403366 
L 233.870686 282.434976 
L 235.119357 282.710507 
L 235.535664 282.561416 
L 235.743693 282.351345 
L 236.16 281.660153 
L 236.368029 281.450082 
L 236.576307 281.511062 
L 236.784336 281.752743 
L 237.200643 282.507155 
L 237.6167 282.719466 
L 237.824978 282.509395 
L 238.241036 281.818203 
L 238.657343 281.669112 
L 239.07365 282.062123 
L 239.906014 283.209547 
L 240.114043 283.089827 
L 240.53035 282.308284 
L 241.154685 281.31667 
L 241.362714 281.2873 
L 241.779021 281.680311 
L 242.195328 282.073323 
L 242.403357 282.043953 
L 243.235721 281.29402 
L 243.443999 281.44535 
L 244.068335 282.441444 
L 244.276364 282.502424 
L 244.692671 281.991932 
L 245.317006 281.181019 
L 245.941342 281.45431 
L 246.565678 281.817951 
L 246.773706 281.788581 
L 246.981735 281.57851 
L 247.606071 280.586896 
L 247.814349 280.467176 
L 248.022378 280.528156 
L 248.646713 281.162848 
L 248.854742 281.223828 
L 249.271049 281.074738 
L 249.687356 281.287048 
L 249.895385 281.348028 
L 250.51972 280.898517 
L 251.560363 279.938513 
L 251.768392 279.909143 
L 252.184699 280.482855 
L 252.600756 281.327618 
L 253.017063 281.539928 
L 254.057706 281.031676 
L 255.306377 281.849309 
L 255.722434 281.700218 
L 256.34677 281.341057 
L 256.763077 281.553367 
L 257.179384 281.946379 
L 257.595441 281.977989 
L 258.011748 282.009599 
L 258.844113 282.52457 
L 259.26042 282.014078 
L 259.676727 281.322886 
L 259.884755 281.112815 
L 260.509091 281.115055 
L 260.71712 281.176035 
L 262.174069 280.428342 
L 262.798405 280.972684 
L 263.214462 281.456046 
L 263.422741 281.517026 
L 264.047076 280.886813 
L 264.463134 280.918423 
L 264.879441 281.130734 
L 265.295748 280.620242 
L 265.920083 279.628629 
L 266.128112 279.508908 
L 266.336141 279.660239 
L 266.960476 280.475631 
L 267.168755 280.626962 
L 267.79309 280.358151 
L 268.417426 280.631442 
L 268.625455 280.782772 
L 268.833483 280.753402 
L 269.874126 279.793398 
L 270.082155 279.673678 
L 270.498462 279.705288 
L 270.914769 279.556197 
L 271.122797 279.436477 
L 271.539104 278.925985 
L 271.747133 278.806264 
L 272.16344 279.018575 
L 272.579497 279.321236 
L 272.995804 279.262496 
L 273.828169 278.241512 
L 274.244476 278.273122 
L 274.868811 278.907814 
L 275.285118 278.939424 
L 275.909454 278.851314 
L 276.117483 279.002644 
L 277.158125 280.572449 
L 277.574182 280.69441 
L 277.782461 280.574689 
L 278.198518 279.793146 
L 278.614825 278.921253 
L 279.031132 278.591462 
L 280.279804 278.324891 
L 280.487832 278.20517 
L 281.320196 278.358741 
L 282.152811 278.15091 
L 282.568868 277.821118 
L 283.193203 277.281256 
L 283.817539 276.831745 
L 284.441875 276.291883 
L 284.650153 276.262512 
L 285.482517 275.422229 
L 285.690546 275.392859 
L 286.314882 275.7565 
L 286.52316 275.72713 
L 287.147496 275.187268 
L 287.563553 275.218878 
L 287.771831 275.370209 
L 288.187889 275.943921 
L 288.604196 276.156231 
L 288.812224 276.036511 
L 289.644838 275.015527 
L 290.060896 275.047137 
L 290.477203 275.620849 
L 290.89351 276.284911 
L 291.101538 276.436242 
L 291.517845 276.10645 
L 292.142181 275.295537 
L 292.766517 274.846026 
L 293.182574 274.516234 
L 293.80691 274.157073 
L 294.847552 272.203216 
L 295.055581 272.083495 
L 295.263859 272.234826 
L 295.471888 272.928258 
L 295.888195 275.670378 
L 296.512531 282.08749 
L 297.552924 293.77653 
L 297.761202 294.739492 
L 297.969231 295.086881 
L 298.177259 294.829414 
L 298.593566 293.091948 
L 299.425931 288.359654 
L 299.634209 287.854208 
L 299.842238 287.800513 
L 300.258545 288.325576 
L 300.674602 288.760289 
L 300.88288 288.796944 
L 301.090909 288.652899 
L 301.715245 287.588312 
L 302.755887 284.880381 
L 304.212587 279.625602 
L 304.628894 278.79541 
L 305.25323 277.911523 
L 305.669287 277.804134 
L 306.085594 278.148497 
L 306.501901 278.67356 
L 306.917959 278.746871 
L 307.334266 278.368431 
L 308.16663 277.5212 
L 308.582937 277.14276 
L 310.039637 274.869541 
L 310.455944 275.033203 
L 310.663973 275.250559 
L 311.08028 275.956323 
L 311.288308 276.173679 
L 312.120922 275.68785 
L 312.328951 275.634155 
L 312.745258 275.978517 
L 313.161315 276.50358 
L 313.993929 277.553706 
L 314.201958 277.680712 
L 314.826294 277.429278 
L 315.034322 277.285233 
L 315.242601 277.321889 
L 316.074965 278.191314 
L 316.282994 278.22797 
L 316.907329 277.795835 
L 317.323636 277.778796 
L 318.156001 277.564018 
L 318.988615 278.704494 
L 319.196643 278.74115 
L 320.237286 278.111275 
L 320.861622 278.221243 
L 321.277679 277.842802 
L 321.693986 277.374012 
L 322.110293 277.356973 
L 322.52635 277.882036 
L 322.942657 278.67815 
L 323.150686 278.805156 
L 323.358964 278.751461 
L 324.399357 277.579485 
L 325.023693 277.328051 
L 325.648029 276.444165 
L 326.064336 276.246425 
L 326.480643 276.590787 
L 327.313007 277.369862 
L 328.35365 277.19174 
L 328.769707 277.536102 
L 329.602321 278.947629 
L 330.434685 279.365303 
L 330.850992 279.348264 
L 331.26705 278.969824 
L 332.307692 277.707497 
L 332.723999 276.877306 
L 333.140057 275.143611 
L 333.556364 272.145011 
L 334.388728 263.075902 
L 335.429371 252.326793 
L 336.053706 247.919244 
L 336.261735 247.323447 
L 336.470013 247.269753 
L 336.678042 247.66781 
L 336.886071 248.517618 
L 337.302378 251.753191 
L 338.759078 266.375481 
L 339.591692 271.581721 
L 340.216027 274.402198 
L 340.632085 275.559713 
L 341.048392 275.994426 
L 341.672727 276.194743 
L 342.089034 276.719806 
L 343.129427 278.077639 
L 343.753763 278.639357 
L 344.378099 278.839675 
L 345.210713 279.61875 
L 345.62677 279.782411 
L 345.835048 279.909417 
L 346.667413 281.320945 
L 347.291748 282.334415 
L 347.708055 282.859478 
L 348.124113 283.384541 
L 348.54042 283.367502 
L 348.956727 282.53731 
L 349.581062 281.472723 
L 349.789091 281.509379 
L 349.99712 281.726735 
L 350.413427 282.613199 
L 350.829734 283.499664 
L 351.037762 283.71702 
L 351.245791 283.753676 
L 352.078405 283.177496 
L 352.910769 283.956571 
L 353.327076 283.939532 
L 353.743134 283.922493 
L 354.159441 284.266856 
L 354.575748 284.069116 
L 354.783776 283.834721 
L 354.991805 283.419625 
L 355.408112 283.221885 
L 355.824419 283.927649 
L 356.656783 285.971628 
L 356.864812 286.369685 
L 357.07309 286.496691 
L 357.281119 286.442997 
L 358.321762 284.819269 
L 358.737819 284.982931 
L 358.946097 285.109937 
L 359.98649 286.467769 
L 360.402797 286.45073 
L 360.610826 286.306685 
L 361.027133 286.470347 
L 361.44344 286.90506 
L 361.651469 286.941715 
L 362.067776 286.563275 
L 362.692111 285.769739 
L 363.108169 285.933401 
L 364.35684 287.689291 
L 364.565118 287.635596 
L 364.981175 287.076455 
L 365.397483 287.059416 
L 366.229847 287.928842 
L 366.646154 288.002153 
L 367.894825 289.396641 
L 368.311132 289.831354 
L 368.519161 289.777659 
L 369.351525 288.659378 
L 369.767832 289.00374 
L 369.975861 289.221096 
L 370.184139 289.167402 
L 371.016503 288.320171 
L 372.057146 288.50345 
L 372.473203 288.30571 
L 372.681482 288.252015 
L 373.097539 288.596378 
L 373.513846 289.392492 
L 374.138182 290.496312 
L 374.34621 290.623318 
L 374.554489 290.479273 
L 375.386853 289.270642 
L 375.594882 289.126597 
L 375.80316 289.163252 
L 376.219217 289.688315 
L 376.635524 290.213378 
L 377.051831 290.196339 
L 378.092224 289.566465 
L 378.300503 289.51277 
L 378.924838 289.803438 
L 379.340896 289.9671 
L 379.965231 290.619169 
L 380.381538 290.60213 
L 381.213903 290.116301 
L 381.63021 290.099262 
L 382.046517 290.262923 
L 383.08691 290.897953 
L 383.503217 290.790564 
L 384.127552 290.177729 
L 384.543859 290.16069 
L 385.168195 290.541708 
L 385.792531 291.284127 
L 387.041202 291.504061 
L 388.081595 292.500493 
L 388.497902 292.483454 
L 389.330266 292.268675 
L 390.370909 293.257377 
L 390.578938 293.189163 
L 391.827609 291.742495 
L 392.451945 291.787138 
L 393.492587 290.958041 
L 394.116923 291.364086 
L 394.53323 292.0263 
L 394.949287 292.778865 
L 395.157566 293.064797 
L 396.197959 293.048853 
L 396.614266 292.626864 
L 397.238601 291.768004 
L 397.654908 292.068817 
L 398.070966 292.369631 
L 398.487273 292.399393 
L 398.487273 292.399393 
" clip-path="url(#pe605fedf99)" style="fill: none; stroke: #d62728; stroke-width: 1.5; stroke-linecap: square"/>
   </g>
   <g id="line2d_20">
    <path d="M 73.832727 287.087371 
L 74.040756 287.019659 
L 74.249034 291.921215 
L 75.913763 293.547927 
L 76.122041 293.570565 
L 76.954406 292.938316 
L 77.578741 293.367633 
L 78.203077 294.068 
L 78.619384 294.029175 
L 79.451748 293.148984 
L 79.868055 292.934764 
L 80.284113 292.901245 
L 80.70042 293.229128 
L 81.532784 293.975242 
L 82.15712 294.252518 
L 82.781455 294.390929 
L 83.197762 294.063393 
L 83.614069 293.744533 
L 84.238405 293.311418 
L 84.862741 292.697603 
L 85.278798 292.740144 
L 85.903134 293.120183 
L 86.111412 293.096278 
L 87.151805 293.880259 
L 87.776141 293.537138 
L 88.816783 293.778423 
L 89.441119 293.525653 
L 89.857426 293.567957 
L 90.68979 293.742915 
L 91.314126 293.038393 
L 91.730433 293.261397 
L 92.14649 293.845803 
L 92.354769 294.002481 
L 92.979104 294.026866 
L 93.395162 294.080049 
L 94.227776 293.751828 
L 94.435804 293.738108 
L 95.06014 293.245199 
L 95.476447 293.037059 
L 95.892504 293.099971 
L 96.308811 292.801481 
L 96.725118 292.322291 
L 96.933147 292.308571 
L 97.141175 292.475553 
L 97.97379 293.685579 
L 98.598125 294.189025 
L 98.806154 294.181381 
L 99.222461 293.722399 
L 99.638518 293.083838 
L 99.846797 292.900083 
L 100.471132 292.98127 
L 100.887189 293.065511 
L 101.511525 293.146698 
L 102.135861 293.679636 
L 102.344139 293.586231 
L 102.760196 292.85732 
L 103.176503 292.038058 
L 103.592811 291.851248 
L 104.633203 292.378077 
L 105.04951 292.643019 
L 105.673846 292.633856 
L 106.714489 293.522086 
L 107.130546 293.425627 
L 108.171189 292.506851 
L 108.587496 292.591093 
L 109.836167 293.024517 
L 110.87656 292.467143 
L 111.292867 292.189983 
L 111.709174 292.093523 
L 112.125231 292.358465 
L 112.749567 292.801053 
L 113.165874 292.885295 
L 113.998238 292.602026 
L 114.414545 292.686267 
L 114.830852 292.589807 
L 115.24691 292.674049 
L 115.871245 293.297337 
L 117.119917 293.730762 
L 117.328195 293.727707 
L 117.744252 293.269847 
L 118.160559 292.811986 
L 119.617259 292.880955 
L 120.241595 293.052492 
L 120.865931 292.591577 
L 121.074209 292.498172 
L 122.114602 292.844301 
L 122.530909 292.567141 
L 122.947216 292.289981 
L 123.155245 292.286926 
L 124.195887 293.084807 
L 126.068894 292.244163 
L 126.276923 292.421809 
L 126.69323 293.048152 
L 126.901259 293.225798 
L 127.317566 293.129339 
L 127.733623 292.852179 
L 128.357959 292.662315 
L 128.774266 292.656206 
L 129.398601 293.189144 
L 129.814908 293.092685 
L 130.230966 292.634824 
L 130.647273 292.538365 
L 130.855301 292.53531 
L 131.479637 292.977899 
L 132.52028 293.324027 
L 132.936587 293.317918 
L 133.352644 292.860058 
L 133.768951 292.492547 
L 133.97698 292.489493 
L 134.393287 292.935135 
L 135.017622 294.010176 
L 135.225651 294.098775 
L 135.433929 294.009081 
L 135.849987 293.561227 
L 136.266294 293.474774 
L 136.682601 293.659372 
L 138.139301 293.13091 
L 138.763636 293.136756 
L 139.179943 292.688902 
L 139.387972 292.69085 
L 140.220336 293.331097 
L 140.428615 293.152345 
L 140.844672 292.52379 
L 141.05295 292.345038 
L 141.469008 292.800687 
L 141.885315 293.437036 
L 142.093343 293.619685 
L 142.50965 293.533232 
L 143.550293 293.181574 
L 143.758322 293.183523 
L 143.96635 293.004771 
L 144.590686 293.100967 
L 145.006993 293.375915 
L 145.215022 293.377863 
L 145.631329 292.930009 
L 146.047636 292.301454 
L 146.463693 292.395702 
L 147.088029 293.12435 
L 147.712364 293.220546 
L 148.128671 293.405144 
L 148.544978 293.13799 
L 148.961036 292.690136 
L 149.377343 292.603683 
L 149.79365 293.059332 
L 150.417985 293.69763 
L 150.834043 293.611177 
L 151.25035 293.524724 
L 151.666657 293.618971 
L 152.082714 293.351817 
L 152.915328 292.72716 
L 153.123357 292.638758 
L 153.539664 292.913706 
L 153.955721 292.646552 
L 154.580057 291.658545 
L 154.788335 291.660493 
L 155.620699 292.662141 
L 156.037006 292.394987 
L 156.869371 291.408928 
L 157.285678 291.503176 
L 158.118042 292.775875 
L 158.534349 293.231524 
L 158.950406 293.325771 
L 159.158685 293.32772 
L 159.78302 292.701113 
L 160.199078 292.162909 
L 160.615385 291.805405 
L 161.031692 292.080353 
L 161.864056 293.443402 
L 162.280363 293.71835 
L 162.69642 293.447596 
L 163.320756 292.725239 
L 163.737063 292.635185 
L 164.777706 293.44908 
L 164.985734 293.539579 
L 165.402041 293.268825 
L 165.818099 292.81737 
L 166.858741 291.643558 
L 167.275048 291.553504 
L 167.483077 291.644003 
L 168.731748 293.180849 
L 169.148055 293.271496 
L 169.98042 293.36244 
L 170.396727 293.633787 
L 170.604755 293.721586 
L 171.021062 293.351312 
L 171.645398 292.434501 
L 172.269734 292.511543 
L 172.477762 292.597457 
L 173.310127 292.218311 
L 173.726434 292.66119 
L 174.350769 293.370685 
L 174.975105 293.525049 
L 175.599441 293.09678 
L 175.807469 292.888183 
L 176.431805 291.62994 
L 177.680476 287.306447 
L 178.096783 285.443648 
L 178.721119 281.113494 
L 179.761762 274.017038 
L 181.010433 265.989183 
L 182.050826 261.332185 
L 182.467133 258.836934 
L 182.88344 255.257479 
L 183.299497 249.238565 
L 183.715804 239.153887 
L 184.132111 223.37714 
L 185.380783 158.157535 
L 185.588811 154.515626 
L 185.79684 154.307029 
L 186.005118 157.170343 
L 186.421175 170.938148 
L 187.878125 234.801247 
L 188.71049 253.301826 
L 189.334825 261.801417 
L 190.167189 268.917856 
L 190.791525 272.177129 
L 191.415861 274.352198 
L 192.040196 275.985164 
L 192.872811 277.499885 
L 193.080839 277.652689 
L 193.705175 277.65935 
L 194.121482 278.50706 
L 194.537539 279.535471 
L 194.745818 279.778626 
L 195.578182 279.395989 
L 196.618825 279.798609 
L 197.24316 280.618423 
L 197.659217 281.104733 
L 198.283553 281.472795 
L 198.69986 281.326652 
L 199.324196 281.062262 
L 199.740503 281.27752 
L 200.364838 281.735933 
L 202.237845 281.484866 
L 204.110852 282.860104 
L 204.52691 282.53326 
L 204.943217 282.116066 
L 205.983859 282.066935 
L 207.232531 282.441658 
L 207.648588 282.114815 
L 208.064895 281.968671 
L 208.272924 282.031125 
L 209.105538 283.003744 
L 209.313566 283.066198 
L 209.729873 282.739354 
L 210.354209 282.113563 
L 210.562238 282.085666 
L 211.60288 282.759337 
L 212.018938 282.974596 
L 212.435245 283.189854 
L 212.643273 283.161957 
L 213.683916 282.209323 
L 214.100223 282.24388 
L 215.140616 282.917551 
L 215.556923 282.861758 
L 215.97323 283.077017 
L 216.389287 283.111574 
L 216.597566 282.902977 
L 217.221901 281.825435 
L 217.42993 281.616838 
L 217.846237 281.832096 
L 218.470573 282.471209 
L 219.094908 283.019972 
L 219.510966 282.783479 
L 219.927273 282.275934 
L 220.135301 282.248038 
L 220.551608 282.643997 
L 220.967915 283.039956 
L 222.216587 282.962928 
L 222.424615 283.025382 
L 222.840922 282.788888 
L 223.673287 281.683449 
L 224.505651 281.481513 
L 224.921958 281.15467 
L 225.338265 281.189227 
L 225.546294 281.251681 
L 225.962601 281.73799 
L 226.170629 281.800444 
L 226.586936 281.473601 
L 227.211272 280.757459 
L 228.043636 280.013422 
L 228.251665 280.075875 
L 229.084279 280.958143 
L 229.500336 280.812 
L 230.33295 280.248663 
L 230.749008 279.92182 
L 231.165315 279.956377 
L 231.581622 280.352336 
L 231.997679 280.567594 
L 233.24635 280.490566 
L 234.286993 280.802836 
L 235.119357 280.420199 
L 235.743693 280.517211 
L 236.368029 280.523872 
L 236.784336 280.55843 
L 237.408671 280.565091 
L 238.033007 280.662102 
L 238.449314 280.515959 
L 239.07365 279.890168 
L 239.489707 280.105426 
L 240.114043 281.376992 
L 240.322321 281.439446 
L 240.53035 281.321199 
L 241.154685 280.514707 
L 241.570992 280.729966 
L 242.195328 281.098028 
L 242.611385 281.042235 
L 243.443999 280.298198 
L 243.860057 280.061704 
L 244.276364 280.276962 
L 244.692671 280.672921 
L 244.900699 280.735375 
L 245.108728 280.617128 
L 245.941342 279.421339 
L 246.149371 279.393443 
L 246.565678 279.608701 
L 246.773706 279.580805 
L 247.190013 279.07326 
L 247.606071 278.656066 
L 247.814349 278.71852 
L 248.230406 279.29518 
L 248.646713 279.781489 
L 248.854742 279.843943 
L 249.479078 279.398852 
L 249.895385 279.704461 
L 250.51972 280.524275 
L 250.936027 280.378132 
L 251.560363 280.113742 
L 251.768392 280.176196 
L 252.392727 280.90566 
L 252.809034 280.759516 
L 253.849427 279.806882 
L 254.89007 279.75775 
L 255.930713 280.16037 
L 256.34677 280.375628 
L 256.763077 280.410186 
L 256.971106 280.291939 
L 257.80372 280.451405 
L 259.468448 280.318584 
L 259.884755 280.714543 
L 260.301062 281.110502 
L 260.509091 281.172955 
L 261.133427 280.908566 
L 261.757762 280.734526 
L 262.174069 280.407683 
L 262.382098 280.199086 
L 262.798405 280.143293 
L 263.630769 281.025561 
L 264.047076 280.879418 
L 264.463134 280.642924 
L 264.879441 280.677482 
L 265.087469 280.559235 
L 265.503776 279.87099 
L 265.711805 279.662393 
L 265.920083 279.724847 
L 266.544419 280.544661 
L 266.752448 280.516765 
L 267.79309 279.56413 
L 268.209148 279.598688 
L 269.457819 279.883061 
L 269.874126 279.736918 
L 270.290433 279.771475 
L 270.914769 280.139538 
L 271.539104 280.3269 
L 272.371469 279.763562 
L 272.579497 279.554965 
L 273.203833 279.561627 
L 273.412111 279.624081 
L 274.452504 278.581095 
L 274.660783 278.553199 
L 274.868811 278.706003 
L 275.285118 278.650211 
L 275.909454 278.11477 
L 276.117483 278.177224 
L 276.949847 279.330543 
L 277.366154 279.1844 
L 278.406797 277.870364 
L 278.614825 278.023168 
L 279.239161 278.933332 
L 279.447189 279.086136 
L 279.863497 278.759293 
L 280.487832 278.043151 
L 281.320196 276.847362 
L 281.528475 276.819466 
L 281.944532 277.396125 
L 282.360839 278.063135 
L 282.568868 277.944888 
L 283.401482 276.206997 
L 284.441875 275.977165 
L 284.858182 275.28892 
L 285.274489 274.510325 
L 285.898825 273.794183 
L 288.604196 271.172772 
L 289.020503 271.026629 
L 289.228531 271.179434 
L 290.269174 273.29871 
L 290.685231 273.333267 
L 291.725874 272.832384 
L 292.974545 273.116757 
L 293.80691 272.914821 
L 294.639524 271.538332 
L 295.055581 270.940437 
L 295.263859 270.91254 
L 295.471888 271.336396 
L 295.888195 273.720061 
L 296.512531 280.141595 
L 297.552924 293.012558 
L 297.969231 294.95235 
L 298.177259 294.778281 
L 298.593566 293.02744 
L 299.425931 288.718296 
L 299.842238 287.512402 
L 300.050266 287.090156 
L 300.258545 286.938961 
L 300.466573 287.058816 
L 300.88288 287.750279 
L 301.298938 288.532092 
L 301.507216 288.832649 
L 301.923273 288.891659 
L 302.131552 288.650114 
L 302.33958 288.227868 
L 302.755887 286.479872 
L 304.004559 280.513082 
L 304.628894 278.613892 
L 305.044952 277.859749 
L 305.669287 277.135112 
L 305.877566 277.074267 
L 306.293623 277.404329 
L 307.126237 278.425854 
L 307.542294 278.213813 
L 307.958601 277.821072 
L 308.582937 276.915735 
L 309.415301 276.310954 
L 310.455944 274.832175 
L 311.288308 274.137043 
L 311.704615 273.744302 
L 311.912644 273.683457 
L 312.328951 274.46527 
L 312.745258 275.518134 
L 312.953287 275.818691 
L 313.161315 275.848196 
L 313.577622 275.455455 
L 313.993929 275.062714 
L 314.409987 275.302426 
L 315.242601 276.32395 
L 315.658658 276.473311 
L 316.699301 277.43399 
L 316.907329 277.463496 
L 317.531665 277.00991 
L 317.947972 276.526819 
L 318.364279 276.67618 
L 319.820979 278.057271 
L 320.237286 278.296982 
L 320.653343 278.084942 
L 321.277679 277.179604 
L 321.485957 277.118759 
L 321.902015 277.448821 
L 322.318322 277.778883 
L 322.52635 277.718038 
L 322.734629 277.476492 
L 323.358964 276.390454 
L 323.566993 276.239259 
L 323.775022 276.268764 
L 324.399357 276.809032 
L 325.856307 276.925218 
L 326.480643 276.019881 
L 326.688671 275.959036 
L 327.104978 276.289098 
L 327.313007 276.680004 
L 327.729314 276.829365 
L 328.35365 276.375779 
L 328.561678 276.405285 
L 329.602321 277.456314 
L 330.018378 277.424975 
L 330.434685 276.941883 
L 330.850992 276.729843 
L 331.475328 277.270111 
L 331.891385 277.05807 
L 332.515721 275.700981 
L 332.932028 274.314387 
L 333.348335 271.933939 
L 333.972671 265.788283 
L 335.637399 245.514805 
L 336.053706 242.682605 
L 336.470013 241.476711 
L 336.678042 241.506217 
L 336.886071 242.077824 
L 337.302378 244.847344 
L 337.926713 251.531433 
L 338.967356 263.695552 
L 339.591692 268.662985 
L 340.216027 272.275163 
L 340.840363 274.712787 
L 341.880756 277.751524 
L 342.297063 277.900885 
L 342.505092 277.93039 
L 342.71337 277.779195 
L 343.337706 277.77736 
L 343.753763 277.56532 
L 344.17007 277.082229 
L 344.586377 277.050889 
L 344.794406 277.170745 
L 345.418741 278.072414 
L 346.251106 278.190435 
L 347.291748 279.241465 
L 348.124113 279.269136 
L 349.372784 280.891773 
L 350.413427 280.948949 
L 351.454069 280.192972 
L 351.870127 280.342333 
L 352.702741 281.183157 
L 353.118798 281.332518 
L 354.159441 281.931796 
L 354.991805 281.778767 
L 355.408112 282.018478 
L 355.824419 282.43889 
L 356.240476 282.768952 
L 356.448755 282.888807 
L 357.281119 282.735778 
L 358.946097 283.604272 
L 359.570433 283.512088 
L 360.194769 283.781304 
L 360.402797 283.81081 
L 361.235162 283.206028 
L 361.44344 283.235534 
L 362.483833 284.376914 
L 363.316447 284.223884 
L 363.732504 284.553946 
L 364.565118 286.388623 
L 364.981175 286.809035 
L 365.81379 286.836706 
L 366.438125 286.654171 
L 366.854182 286.26143 
L 367.27049 286.410791 
L 367.686797 286.831203 
L 368.102854 286.799863 
L 368.935468 285.65298 
L 369.351525 285.802341 
L 369.559804 285.922197 
L 370.184139 285.830012 
L 370.392168 285.859518 
L 371.848868 287.240609 
L 372.473203 286.967724 
L 372.88951 286.484632 
L 373.097539 286.423787 
L 374.138182 286.932715 
L 374.554489 286.720675 
L 374.970546 286.508635 
L 375.594882 286.41645 
L 377.676167 287.615007 
L 378.092224 287.493317 
L 378.508531 287.010225 
L 378.924838 286.888535 
L 379.549174 287.609504 
L 380.17351 288.601523 
L 380.381538 288.721378 
L 380.797845 288.509338 
L 381.005874 288.358143 
L 384.543859 288.859733 
L 385.168195 288.496498 
L 385.584252 288.645859 
L 385.792531 288.765714 
L 386.208588 289.276477 
L 386.624895 289.425838 
L 387.457259 288.821056 
L 387.873566 289.151118 
L 388.289873 288.939078 
L 388.705931 288.455986 
L 388.914209 288.395141 
L 389.330266 288.725203 
L 389.954602 289.446171 
L 390.370909 289.05343 
L 390.787216 288.479989 
L 390.995245 288.509494 
L 391.203273 288.7197 
L 391.827609 290.07312 
L 392.243916 290.403182 
L 392.451945 290.432687 
L 393.700616 289.525515 
L 394.53323 289.733887 
L 394.949287 289.883248 
L 395.98993 289.669373 
L 396.406237 289.818734 
L 397.030573 289.72655 
L 397.44663 290.056611 
L 398.070966 290.77758 
L 398.487273 290.926941 
L 398.487273 290.926941 
" clip-path="url(#pe605fedf99)" style="fill: none; stroke: #9467bd; stroke-width: 1.5; stroke-linecap: square"/>
   </g>
   <g id="patch_3">
    <path d="M 57.6 307.584 
L 57.6 41.472 
" style="fill: none; stroke: #000000; stroke-width: 0.8; stroke-linejoin: miter; stroke-linecap: square"/>
   </g>
   <g id="patch_4">
    <path d="M 414.72 307.584 
L 414.72 41.472 
" style="fill: none; stroke: #000000; stroke-width: 0.8; stroke-linejoin: miter; stroke-linecap: square"/>
   </g>
   <g id="patch_5">
    <path d="M 57.6 307.584 
L 414.72 307.584 
" style="fill: none; stroke: #000000; stroke-width: 0.8; stroke-linejoin: miter; stroke-linecap: square"/>
   </g>
   <g id="patch_6">
    <path d="M 57.6 41.472 
L 414.72 41.472 
" style="fill: none; stroke: #000000; stroke-width: 0.8; stroke-linejoin: miter; stroke-linecap: square"/>
   </g>
  </g>
 </g>
 <defs>
  <clipPath id="pe605fedf99">
   <rect x="57.6" y="41.472" width="357.12" height="266.112"/>
  </clipPath>
 </defs>
</svg>
