<?xml version="1.0" encoding="utf-8" standalone="no"?>
<!DOCTYPE svg PUBLIC "-//W3C//DTD SVG 1.1//EN"
  "http://www.w3.org/Graphics/SVG/1.1/DTD/svg11.dtd">
<svg xmlns:xlink="http://www.w3.org/1999/xlink" width="460.8pt" height="345.6pt" viewBox="0 0 460.8 345.6" xmlns="http://www.w3.org/2000/svg" version="1.1">
 <metadata>
  <rdf:RDF xmlns:dc="http://purl.org/dc/elements/1.1/" xmlns:cc="http://creativecommons.org/ns#" xmlns:rdf="http://www.w3.org/1999/02/22-rdf-syntax-ns#">
   <cc:Work>
    <dc:type rdf:resource="http://purl.org/dc/dcmitype/StillImage"/>
    <dc:date>2025-01-07T20:19:51.597769</dc:date>
    <dc:format>image/svg+xml</dc:format>
    <dc:creator>
     <cc:Agent>
      <dc:title>Matplotlib v3.8.0, https://matplotlib.org/</dc:title>
     </cc:Agent>
    </dc:creator>
   </cc:Work>
  </rdf:RDF>
 </metadata>
 <defs>
  <style type="text/css">*{stroke-linejoin: round; stroke-linecap: butt}</style>
 </defs>
 <g id="figure_1">
  <g id="patch_1">
   <path d="M 0 345.6 
L 460.8 345.6 
L 460.8 0 
L 0 0 
z
" style="fill: #ffffff"/>
  </g>
  <g id="axes_1">
   <g id="patch_2">
    <path d="M 57.6 307.584 
L 414.72 307.584 
L 414.72 41.472 
L 57.6 41.472 
z
" style="fill: #ffffff"/>
   </g>
   <g id="matplotlib.axis_1">
    <g id="xtick_1">
     <g id="line2d_1">
      <defs>
       <path id="m165e18457f" d="M 0 0 
L 0 3.5 
" style="stroke: #000000; stroke-width: 0.8"/>
      </defs>
      <g>
       <use xlink:href="#m165e18457f" x="73.832727" y="307.584" style="stroke: #000000; stroke-width: 0.8"/>
      </g>
     </g>
     <g id="text_1">
      <!-- 0.0 -->
      <g transform="translate(65.881165 322.182437) scale(0.1 -0.1)">
       <defs>
        <path id="DejaVuSans-30" d="M 2034 4250 
Q 1547 4250 1301 3770 
Q 1056 3291 1056 2328 
Q 1056 1369 1301 889 
Q 1547 409 2034 409 
Q 2525 409 2770 889 
Q 3016 1369 3016 2328 
Q 3016 3291 2770 3770 
Q 2525 4250 2034 4250 
z
M 2034 4750 
Q 2819 4750 3233 4129 
Q 3647 3509 3647 2328 
Q 3647 1150 3233 529 
Q 2819 -91 2034 -91 
Q 1250 -91 836 529 
Q 422 1150 422 2328 
Q 422 3509 836 4129 
Q 1250 4750 2034 4750 
z
" transform="scale(0.015625)"/>
        <path id="DejaVuSans-2e" d="M 684 794 
L 1344 794 
L 1344 0 
L 684 0 
L 684 794 
z
" transform="scale(0.015625)"/>
       </defs>
       <use xlink:href="#DejaVuSans-30"/>
       <use xlink:href="#DejaVuSans-2e" x="63.623047"/>
       <use xlink:href="#DejaVuSans-30" x="95.410156"/>
      </g>
     </g>
    </g>
    <g id="xtick_2">
     <g id="line2d_2">
      <g>
       <use xlink:href="#m165e18457f" x="115.455105" y="307.584" style="stroke: #000000; stroke-width: 0.8"/>
      </g>
     </g>
     <g id="text_2">
      <!-- 2.5 -->
      <g transform="translate(107.503542 322.182437) scale(0.1 -0.1)">
       <defs>
        <path id="DejaVuSans-32" d="M 1228 531 
L 3431 531 
L 3431 0 
L 469 0 
L 469 531 
Q 828 903 1448 1529 
Q 2069 2156 2228 2338 
Q 2531 2678 2651 2914 
Q 2772 3150 2772 3378 
Q 2772 3750 2511 3984 
Q 2250 4219 1831 4219 
Q 1534 4219 1204 4116 
Q 875 4013 500 3803 
L 500 4441 
Q 881 4594 1212 4672 
Q 1544 4750 1819 4750 
Q 2544 4750 2975 4387 
Q 3406 4025 3406 3419 
Q 3406 3131 3298 2873 
Q 3191 2616 2906 2266 
Q 2828 2175 2409 1742 
Q 1991 1309 1228 531 
z
" transform="scale(0.015625)"/>
        <path id="DejaVuSans-35" d="M 691 4666 
L 3169 4666 
L 3169 4134 
L 1269 4134 
L 1269 2991 
Q 1406 3038 1543 3061 
Q 1681 3084 1819 3084 
Q 2600 3084 3056 2656 
Q 3513 2228 3513 1497 
Q 3513 744 3044 326 
Q 2575 -91 1722 -91 
Q 1428 -91 1123 -41 
Q 819 9 494 109 
L 494 744 
Q 775 591 1075 516 
Q 1375 441 1709 441 
Q 2250 441 2565 725 
Q 2881 1009 2881 1497 
Q 2881 1984 2565 2268 
Q 2250 2553 1709 2553 
Q 1456 2553 1204 2497 
Q 953 2441 691 2322 
L 691 4666 
z
" transform="scale(0.015625)"/>
       </defs>
       <use xlink:href="#DejaVuSans-32"/>
       <use xlink:href="#DejaVuSans-2e" x="63.623047"/>
       <use xlink:href="#DejaVuSans-35" x="95.410156"/>
      </g>
     </g>
    </g>
    <g id="xtick_3">
     <g id="line2d_3">
      <g>
       <use xlink:href="#m165e18457f" x="157.077483" y="307.584" style="stroke: #000000; stroke-width: 0.8"/>
      </g>
     </g>
     <g id="text_3">
      <!-- 5.0 -->
      <g transform="translate(149.12592 322.182437) scale(0.1 -0.1)">
       <use xlink:href="#DejaVuSans-35"/>
       <use xlink:href="#DejaVuSans-2e" x="63.623047"/>
       <use xlink:href="#DejaVuSans-30" x="95.410156"/>
      </g>
     </g>
    </g>
    <g id="xtick_4">
     <g id="line2d_4">
      <g>
       <use xlink:href="#m165e18457f" x="198.69986" y="307.584" style="stroke: #000000; stroke-width: 0.8"/>
      </g>
     </g>
     <g id="text_4">
      <!-- 7.5 -->
      <g transform="translate(190.748298 322.182437) scale(0.1 -0.1)">
       <defs>
        <path id="DejaVuSans-37" d="M 525 4666 
L 3525 4666 
L 3525 4397 
L 1831 0 
L 1172 0 
L 2766 4134 
L 525 4134 
L 525 4666 
z
" transform="scale(0.015625)"/>
       </defs>
       <use xlink:href="#DejaVuSans-37"/>
       <use xlink:href="#DejaVuSans-2e" x="63.623047"/>
       <use xlink:href="#DejaVuSans-35" x="95.410156"/>
      </g>
     </g>
    </g>
    <g id="xtick_5">
     <g id="line2d_5">
      <g>
       <use xlink:href="#m165e18457f" x="240.322238" y="307.584" style="stroke: #000000; stroke-width: 0.8"/>
      </g>
     </g>
     <g id="text_5">
      <!-- 10.0 -->
      <g transform="translate(229.189425 322.182437) scale(0.1 -0.1)">
       <defs>
        <path id="DejaVuSans-31" d="M 794 531 
L 1825 531 
L 1825 4091 
L 703 3866 
L 703 4441 
L 1819 4666 
L 2450 4666 
L 2450 531 
L 3481 531 
L 3481 0 
L 794 0 
L 794 531 
z
" transform="scale(0.015625)"/>
       </defs>
       <use xlink:href="#DejaVuSans-31"/>
       <use xlink:href="#DejaVuSans-30" x="63.623047"/>
       <use xlink:href="#DejaVuSans-2e" x="127.246094"/>
       <use xlink:href="#DejaVuSans-30" x="159.033203"/>
      </g>
     </g>
    </g>
    <g id="xtick_6">
     <g id="line2d_6">
      <g>
       <use xlink:href="#m165e18457f" x="281.944615" y="307.584" style="stroke: #000000; stroke-width: 0.8"/>
      </g>
     </g>
     <g id="text_6">
      <!-- 12.5 -->
      <g transform="translate(270.811803 322.182437) scale(0.1 -0.1)">
       <use xlink:href="#DejaVuSans-31"/>
       <use xlink:href="#DejaVuSans-32" x="63.623047"/>
       <use xlink:href="#DejaVuSans-2e" x="127.246094"/>
       <use xlink:href="#DejaVuSans-35" x="159.033203"/>
      </g>
     </g>
    </g>
    <g id="xtick_7">
     <g id="line2d_7">
      <g>
       <use xlink:href="#m165e18457f" x="323.566993" y="307.584" style="stroke: #000000; stroke-width: 0.8"/>
      </g>
     </g>
     <g id="text_7">
      <!-- 15.0 -->
      <g transform="translate(312.434181 322.182437) scale(0.1 -0.1)">
       <use xlink:href="#DejaVuSans-31"/>
       <use xlink:href="#DejaVuSans-35" x="63.623047"/>
       <use xlink:href="#DejaVuSans-2e" x="127.246094"/>
       <use xlink:href="#DejaVuSans-30" x="159.033203"/>
      </g>
     </g>
    </g>
    <g id="xtick_8">
     <g id="line2d_8">
      <g>
       <use xlink:href="#m165e18457f" x="365.189371" y="307.584" style="stroke: #000000; stroke-width: 0.8"/>
      </g>
     </g>
     <g id="text_8">
      <!-- 17.5 -->
      <g transform="translate(354.056558 322.182437) scale(0.1 -0.1)">
       <use xlink:href="#DejaVuSans-31"/>
       <use xlink:href="#DejaVuSans-37" x="63.623047"/>
       <use xlink:href="#DejaVuSans-2e" x="127.246094"/>
       <use xlink:href="#DejaVuSans-35" x="159.033203"/>
      </g>
     </g>
    </g>
    <g id="xtick_9">
     <g id="line2d_9">
      <g>
       <use xlink:href="#m165e18457f" x="406.811748" y="307.584" style="stroke: #000000; stroke-width: 0.8"/>
      </g>
     </g>
     <g id="text_9">
      <!-- 20.0 -->
      <g transform="translate(395.678936 322.182437) scale(0.1 -0.1)">
       <use xlink:href="#DejaVuSans-32"/>
       <use xlink:href="#DejaVuSans-30" x="63.623047"/>
       <use xlink:href="#DejaVuSans-2e" x="127.246094"/>
       <use xlink:href="#DejaVuSans-30" x="159.033203"/>
      </g>
     </g>
    </g>
    <g id="text_10">
     <!-- Retention Volume (mL) -->
     <g transform="translate(178.718594 335.860562) scale(0.1 -0.1)">
      <defs>
       <path id="DejaVuSans-52" d="M 2841 2188 
Q 3044 2119 3236 1894 
Q 3428 1669 3622 1275 
L 4263 0 
L 3584 0 
L 2988 1197 
Q 2756 1666 2539 1819 
Q 2322 1972 1947 1972 
L 1259 1972 
L 1259 0 
L 628 0 
L 628 4666 
L 2053 4666 
Q 2853 4666 3247 4331 
Q 3641 3997 3641 3322 
Q 3641 2881 3436 2590 
Q 3231 2300 2841 2188 
z
M 1259 4147 
L 1259 2491 
L 2053 2491 
Q 2509 2491 2742 2702 
Q 2975 2913 2975 3322 
Q 2975 3731 2742 3939 
Q 2509 4147 2053 4147 
L 1259 4147 
z
" transform="scale(0.015625)"/>
       <path id="DejaVuSans-65" d="M 3597 1894 
L 3597 1613 
L 953 1613 
Q 991 1019 1311 708 
Q 1631 397 2203 397 
Q 2534 397 2845 478 
Q 3156 559 3463 722 
L 3463 178 
Q 3153 47 2828 -22 
Q 2503 -91 2169 -91 
Q 1331 -91 842 396 
Q 353 884 353 1716 
Q 353 2575 817 3079 
Q 1281 3584 2069 3584 
Q 2775 3584 3186 3129 
Q 3597 2675 3597 1894 
z
M 3022 2063 
Q 3016 2534 2758 2815 
Q 2500 3097 2075 3097 
Q 1594 3097 1305 2825 
Q 1016 2553 972 2059 
L 3022 2063 
z
" transform="scale(0.015625)"/>
       <path id="DejaVuSans-74" d="M 1172 4494 
L 1172 3500 
L 2356 3500 
L 2356 3053 
L 1172 3053 
L 1172 1153 
Q 1172 725 1289 603 
Q 1406 481 1766 481 
L 2356 481 
L 2356 0 
L 1766 0 
Q 1100 0 847 248 
Q 594 497 594 1153 
L 594 3053 
L 172 3053 
L 172 3500 
L 594 3500 
L 594 4494 
L 1172 4494 
z
" transform="scale(0.015625)"/>
       <path id="DejaVuSans-6e" d="M 3513 2113 
L 3513 0 
L 2938 0 
L 2938 2094 
Q 2938 2591 2744 2837 
Q 2550 3084 2163 3084 
Q 1697 3084 1428 2787 
Q 1159 2491 1159 1978 
L 1159 0 
L 581 0 
L 581 3500 
L 1159 3500 
L 1159 2956 
Q 1366 3272 1645 3428 
Q 1925 3584 2291 3584 
Q 2894 3584 3203 3211 
Q 3513 2838 3513 2113 
z
" transform="scale(0.015625)"/>
       <path id="DejaVuSans-69" d="M 603 3500 
L 1178 3500 
L 1178 0 
L 603 0 
L 603 3500 
z
M 603 4863 
L 1178 4863 
L 1178 4134 
L 603 4134 
L 603 4863 
z
" transform="scale(0.015625)"/>
       <path id="DejaVuSans-6f" d="M 1959 3097 
Q 1497 3097 1228 2736 
Q 959 2375 959 1747 
Q 959 1119 1226 758 
Q 1494 397 1959 397 
Q 2419 397 2687 759 
Q 2956 1122 2956 1747 
Q 2956 2369 2687 2733 
Q 2419 3097 1959 3097 
z
M 1959 3584 
Q 2709 3584 3137 3096 
Q 3566 2609 3566 1747 
Q 3566 888 3137 398 
Q 2709 -91 1959 -91 
Q 1206 -91 779 398 
Q 353 888 353 1747 
Q 353 2609 779 3096 
Q 1206 3584 1959 3584 
z
" transform="scale(0.015625)"/>
       <path id="DejaVuSans-20" transform="scale(0.015625)"/>
       <path id="DejaVuSans-56" d="M 1831 0 
L 50 4666 
L 709 4666 
L 2188 738 
L 3669 4666 
L 4325 4666 
L 2547 0 
L 1831 0 
z
" transform="scale(0.015625)"/>
       <path id="DejaVuSans-6c" d="M 603 4863 
L 1178 4863 
L 1178 0 
L 603 0 
L 603 4863 
z
" transform="scale(0.015625)"/>
       <path id="DejaVuSans-75" d="M 544 1381 
L 544 3500 
L 1119 3500 
L 1119 1403 
Q 1119 906 1312 657 
Q 1506 409 1894 409 
Q 2359 409 2629 706 
Q 2900 1003 2900 1516 
L 2900 3500 
L 3475 3500 
L 3475 0 
L 2900 0 
L 2900 538 
Q 2691 219 2414 64 
Q 2138 -91 1772 -91 
Q 1169 -91 856 284 
Q 544 659 544 1381 
z
M 1991 3584 
L 1991 3584 
z
" transform="scale(0.015625)"/>
       <path id="DejaVuSans-6d" d="M 3328 2828 
Q 3544 3216 3844 3400 
Q 4144 3584 4550 3584 
Q 5097 3584 5394 3201 
Q 5691 2819 5691 2113 
L 5691 0 
L 5113 0 
L 5113 2094 
Q 5113 2597 4934 2840 
Q 4756 3084 4391 3084 
Q 3944 3084 3684 2787 
Q 3425 2491 3425 1978 
L 3425 0 
L 2847 0 
L 2847 2094 
Q 2847 2600 2669 2842 
Q 2491 3084 2119 3084 
Q 1678 3084 1418 2786 
Q 1159 2488 1159 1978 
L 1159 0 
L 581 0 
L 581 3500 
L 1159 3500 
L 1159 2956 
Q 1356 3278 1631 3431 
Q 1906 3584 2284 3584 
Q 2666 3584 2933 3390 
Q 3200 3197 3328 2828 
z
" transform="scale(0.015625)"/>
       <path id="DejaVuSans-28" d="M 1984 4856 
Q 1566 4138 1362 3434 
Q 1159 2731 1159 2009 
Q 1159 1288 1364 580 
Q 1569 -128 1984 -844 
L 1484 -844 
Q 1016 -109 783 600 
Q 550 1309 550 2009 
Q 550 2706 781 3412 
Q 1013 4119 1484 4856 
L 1984 4856 
z
" transform="scale(0.015625)"/>
       <path id="DejaVuSans-4c" d="M 628 4666 
L 1259 4666 
L 1259 531 
L 3531 531 
L 3531 0 
L 628 0 
L 628 4666 
z
" transform="scale(0.015625)"/>
       <path id="DejaVuSans-29" d="M 513 4856 
L 1013 4856 
Q 1481 4119 1714 3412 
Q 1947 2706 1947 2009 
Q 1947 1309 1714 600 
Q 1481 -109 1013 -844 
L 513 -844 
Q 928 -128 1133 580 
Q 1338 1288 1338 2009 
Q 1338 2731 1133 3434 
Q 928 4138 513 4856 
z
" transform="scale(0.015625)"/>
      </defs>
      <use xlink:href="#DejaVuSans-52"/>
      <use xlink:href="#DejaVuSans-65" x="64.982422"/>
      <use xlink:href="#DejaVuSans-74" x="126.505859"/>
      <use xlink:href="#DejaVuSans-65" x="165.714844"/>
      <use xlink:href="#DejaVuSans-6e" x="227.238281"/>
      <use xlink:href="#DejaVuSans-74" x="290.617188"/>
      <use xlink:href="#DejaVuSans-69" x="329.826172"/>
      <use xlink:href="#DejaVuSans-6f" x="357.609375"/>
      <use xlink:href="#DejaVuSans-6e" x="418.791016"/>
      <use xlink:href="#DejaVuSans-20" x="482.169922"/>
      <use xlink:href="#DejaVuSans-56" x="513.957031"/>
      <use xlink:href="#DejaVuSans-6f" x="574.615234"/>
      <use xlink:href="#DejaVuSans-6c" x="635.796875"/>
      <use xlink:href="#DejaVuSans-75" x="663.580078"/>
      <use xlink:href="#DejaVuSans-6d" x="726.958984"/>
      <use xlink:href="#DejaVuSans-65" x="824.371094"/>
      <use xlink:href="#DejaVuSans-20" x="885.894531"/>
      <use xlink:href="#DejaVuSans-28" x="917.681641"/>
      <use xlink:href="#DejaVuSans-6d" x="956.695312"/>
      <use xlink:href="#DejaVuSans-4c" x="1054.107422"/>
      <use xlink:href="#DejaVuSans-29" x="1109.820312"/>
     </g>
    </g>
   </g>
   <g id="matplotlib.axis_2">
    <g id="ytick_1">
     <g id="line2d_10">
      <defs>
       <path id="mf20000d4a8" d="M 0 0 
L -3.5 0 
" style="stroke: #000000; stroke-width: 0.8"/>
      </defs>
      <g>
       <use xlink:href="#mf20000d4a8" x="57.6" y="289.659809" style="stroke: #000000; stroke-width: 0.8"/>
      </g>
     </g>
     <g id="text_11">
      <!-- 0 -->
      <g transform="translate(44.2375 293.459027) scale(0.1 -0.1)">
       <use xlink:href="#DejaVuSans-30"/>
      </g>
     </g>
    </g>
    <g id="ytick_2">
     <g id="line2d_11">
      <g>
       <use xlink:href="#mf20000d4a8" x="57.6" y="233.51246" style="stroke: #000000; stroke-width: 0.8"/>
      </g>
     </g>
     <g id="text_12">
      <!-- 50 -->
      <g transform="translate(37.875 237.311679) scale(0.1 -0.1)">
       <use xlink:href="#DejaVuSans-35"/>
       <use xlink:href="#DejaVuSans-30" x="63.623047"/>
      </g>
     </g>
    </g>
    <g id="ytick_3">
     <g id="line2d_12">
      <g>
       <use xlink:href="#mf20000d4a8" x="57.6" y="177.365112" style="stroke: #000000; stroke-width: 0.8"/>
      </g>
     </g>
     <g id="text_13">
      <!-- 100 -->
      <g transform="translate(31.5125 181.16433) scale(0.1 -0.1)">
       <use xlink:href="#DejaVuSans-31"/>
       <use xlink:href="#DejaVuSans-30" x="63.623047"/>
       <use xlink:href="#DejaVuSans-30" x="127.246094"/>
      </g>
     </g>
    </g>
    <g id="ytick_4">
     <g id="line2d_13">
      <g>
       <use xlink:href="#mf20000d4a8" x="57.6" y="121.217763" style="stroke: #000000; stroke-width: 0.8"/>
      </g>
     </g>
     <g id="text_14">
      <!-- 150 -->
      <g transform="translate(31.5125 125.016982) scale(0.1 -0.1)">
       <use xlink:href="#DejaVuSans-31"/>
       <use xlink:href="#DejaVuSans-35" x="63.623047"/>
       <use xlink:href="#DejaVuSans-30" x="127.246094"/>
      </g>
     </g>
    </g>
    <g id="ytick_5">
     <g id="line2d_14">
      <g>
       <use xlink:href="#mf20000d4a8" x="57.6" y="65.070415" style="stroke: #000000; stroke-width: 0.8"/>
      </g>
     </g>
     <g id="text_15">
      <!-- 200 -->
      <g transform="translate(31.5125 68.869633) scale(0.1 -0.1)">
       <use xlink:href="#DejaVuSans-32"/>
       <use xlink:href="#DejaVuSans-30" x="63.623047"/>
       <use xlink:href="#DejaVuSans-30" x="127.246094"/>
      </g>
     </g>
    </g>
    <g id="text_16">
     <!-- Intensity -->
     <g transform="translate(25.432812 196.2905) rotate(-90) scale(0.1 -0.1)">
      <defs>
       <path id="DejaVuSans-49" d="M 628 4666 
L 1259 4666 
L 1259 0 
L 628 0 
L 628 4666 
z
" transform="scale(0.015625)"/>
       <path id="DejaVuSans-73" d="M 2834 3397 
L 2834 2853 
Q 2591 2978 2328 3040 
Q 2066 3103 1784 3103 
Q 1356 3103 1142 2972 
Q 928 2841 928 2578 
Q 928 2378 1081 2264 
Q 1234 2150 1697 2047 
L 1894 2003 
Q 2506 1872 2764 1633 
Q 3022 1394 3022 966 
Q 3022 478 2636 193 
Q 2250 -91 1575 -91 
Q 1294 -91 989 -36 
Q 684 19 347 128 
L 347 722 
Q 666 556 975 473 
Q 1284 391 1588 391 
Q 1994 391 2212 530 
Q 2431 669 2431 922 
Q 2431 1156 2273 1281 
Q 2116 1406 1581 1522 
L 1381 1569 
Q 847 1681 609 1914 
Q 372 2147 372 2553 
Q 372 3047 722 3315 
Q 1072 3584 1716 3584 
Q 2034 3584 2315 3537 
Q 2597 3491 2834 3397 
z
" transform="scale(0.015625)"/>
       <path id="DejaVuSans-79" d="M 2059 -325 
Q 1816 -950 1584 -1140 
Q 1353 -1331 966 -1331 
L 506 -1331 
L 506 -850 
L 844 -850 
Q 1081 -850 1212 -737 
Q 1344 -625 1503 -206 
L 1606 56 
L 191 3500 
L 800 3500 
L 1894 763 
L 2988 3500 
L 3597 3500 
L 2059 -325 
z
" transform="scale(0.015625)"/>
      </defs>
      <use xlink:href="#DejaVuSans-49"/>
      <use xlink:href="#DejaVuSans-6e" x="29.492188"/>
      <use xlink:href="#DejaVuSans-74" x="92.871094"/>
      <use xlink:href="#DejaVuSans-65" x="132.080078"/>
      <use xlink:href="#DejaVuSans-6e" x="193.603516"/>
      <use xlink:href="#DejaVuSans-73" x="256.982422"/>
      <use xlink:href="#DejaVuSans-69" x="309.082031"/>
      <use xlink:href="#DejaVuSans-74" x="336.865234"/>
      <use xlink:href="#DejaVuSans-79" x="376.074219"/>
     </g>
    </g>
   </g>
   <g id="line2d_15">
    <path d="M 73.832727 290.791979 
L 74.040756 290.803168 
L 74.457063 235.82841 
L 74.665092 239.222072 
L 75.289427 270.739053 
L 75.497706 273.009768 
L 75.705734 266.296908 
L 76.122041 239.395825 
L 76.746377 197.921252 
L 76.954406 190.085445 
L 77.162434 187.864373 
L 77.370713 191.258035 
L 77.78677 210.397777 
L 78.203077 227.291625 
L 78.411106 229.562341 
L 78.619384 228.464216 
L 78.827413 228.489038 
L 79.24372 234.153416 
L 79.451748 238.670026 
L 80.284113 275.826563 
L 80.492391 274.728437 
L 81.116727 250.098069 
L 81.324755 246.75405 
L 81.532784 241.164137 
L 82.573427 196.370367 
L 82.781455 196.395189 
L 82.989734 203.157692 
L 83.614069 235.79762 
L 84.030127 242.584945 
L 84.654462 253.88888 
L 85.070769 260.676205 
L 85.487076 255.111114 
L 85.695105 254.012989 
L 86.319441 260.825136 
L 86.527469 257.481116 
L 87.360083 232.87557 
L 87.568112 230.654498 
L 87.776141 230.67932 
L 88.816783 243.155845 
L 89.23309 254.434958 
L 89.441119 252.213886 
L 90.273483 226.485393 
L 90.481762 225.387268 
L 90.897819 231.051646 
L 91.314126 233.347183 
L 91.522155 236.740846 
L 91.730433 244.626296 
L 92.354769 285.126853 
L 92.562797 288.520515 
L 92.770826 285.176496 
L 94.019497 253.882911 
L 94.435804 247.194873 
L 94.643833 249.465589 
L 95.268169 260.769524 
L 95.684476 263.065061 
L 95.892504 263.089883 
L 96.308811 259.770686 
L 96.51684 259.795507 
L 96.725118 265.435064 
L 97.141175 284.574806 
L 97.349454 289.091415 
L 97.557483 289.110344 
L 97.97379 286.890871 
L 98.181818 286.904082 
L 98.389847 285.794345 
L 98.806154 275.714244 
L 99.222461 260.019408 
L 99.638518 231.972155 
L 99.846797 229.739471 
L 100.054825 237.613311 
L 100.471132 265.713406 
L 100.679161 269.095458 
L 100.887189 265.739828 
L 101.303497 255.659726 
L 101.511525 255.672937 
L 101.719804 259.054988 
L 102.135861 273.67972 
L 102.344139 274.815878 
L 102.552168 271.460247 
L 102.968475 260.257199 
L 103.384532 255.791832 
L 103.800839 231.11342 
L 104.217146 205.312061 
L 105.04951 182.905964 
L 105.257539 182.919175 
L 105.465818 190.793014 
L 106.090153 226.766949 
L 106.714489 243.650786 
L 106.922517 244.786943 
L 107.130546 243.677207 
L 107.546853 233.597106 
L 107.96316 221.27111 
L 108.171189 220.161374 
L 108.379217 221.297531 
L 108.795524 221.323953 
L 109.003553 222.46011 
L 109.211831 225.842162 
L 110.044196 253.968679 
L 110.252224 250.613048 
L 110.460503 245.011524 
L 110.668531 243.901788 
L 110.87656 246.160892 
L 111.292867 252.924995 
L 111.500896 250.692312 
L 111.917203 237.24337 
L 112.33351 226.040321 
L 112.541538 227.176479 
L 112.957845 237.309423 
L 113.165874 231.707899 
L 113.79021 195.813227 
L 113.998238 196.949385 
L 114.414545 218.311799 
L 114.830852 238.551265 
L 115.038881 241.933317 
L 115.24691 243.069475 
L 115.455188 243.082685 
L 115.663217 245.34179 
L 116.287552 261.102679 
L 116.495581 258.869996 
L 117.119917 239.819529 
L 117.536224 236.47711 
L 117.744252 237.613267 
L 117.952531 242.118266 
L 118.576866 271.354519 
L 118.784895 272.490676 
L 118.992924 268.012099 
L 119.617259 245.592792 
L 119.825538 248.974843 
L 120.657902 277.10136 
L 120.865931 278.237518 
L 121.490266 291.750352 
L 121.698545 287.305372 
L 122.32288 248.071178 
L 122.530909 249.217109 
L 122.947216 263.861386 
L 123.155245 262.761423 
L 123.987609 242.640311 
L 124.195887 243.786242 
L 124.611945 239.340421 
L 124.820223 240.486351 
L 125.23628 248.392947 
L 125.444559 247.292984 
L 125.860616 221.51117 
L 126.276923 194.60641 
L 126.69323 178.931119 
L 126.901259 175.585262 
L 127.109287 178.977086 
L 127.733623 210.488552 
L 128.357959 225.155813 
L 129.190573 234.231323 
L 129.814908 245.529743 
L 130.022937 244.42978 
L 130.439244 236.615118 
L 130.647273 235.515154 
L 131.271608 241.19884 
L 131.479637 237.852982 
L 131.895944 227.792427 
L 132.103973 227.81541 
L 132.728308 239.11383 
L 132.936587 235.767973 
L 133.352644 216.723841 
L 133.560922 212.255037 
L 133.768951 211.155073 
L 134.185258 216.815775 
L 134.809594 211.269991 
L 135.433929 220.322517 
L 135.641958 213.607819 
L 136.266294 176.619519 
L 136.474322 174.396609 
L 136.682601 178.91138 
L 137.514965 222.798246 
L 137.931272 228.458948 
L 138.347329 230.750809 
L 138.763636 224.059094 
L 138.971665 225.205025 
L 139.179943 230.842743 
L 140.220336 272.506698 
L 140.428615 274.775576 
L 140.844672 261.346179 
L 141.260979 243.424995 
L 141.469008 243.447978 
L 141.677286 246.839802 
L 141.885315 246.862786 
L 142.301622 241.294018 
L 142.50965 240.194055 
L 142.925957 245.854756 
L 143.133986 249.246581 
L 143.342015 250.392511 
L 143.550293 249.292548 
L 143.758322 244.823743 
L 144.798964 196.651941 
L 145.006993 196.674925 
L 145.4233 207.950361 
L 145.839357 218.102851 
L 146.255664 205.796401 
L 146.463693 205.819385 
L 146.671971 210.334156 
L 147.296307 237.353834 
L 147.504336 240.745659 
L 147.920643 236.299838 
L 148.128671 236.322821 
L 148.3367 237.468752 
L 149.169314 246.544261 
L 149.585371 255.573804 
L 149.79365 256.719735 
L 150.001678 254.496824 
L 150.417985 242.190374 
L 150.626014 239.967464 
L 150.834043 241.113394 
L 151.042321 241.136378 
L 151.25035 240.036414 
L 151.458378 236.690557 
L 151.666657 235.590594 
L 151.874685 236.736524 
L 152.290992 240.151332 
L 152.499021 237.928422 
L 152.915328 224.499025 
L 153.331385 209.946681 
L 153.539664 206.600824 
L 153.747692 207.746754 
L 154.788335 243.795975 
L 154.996364 246.064852 
L 155.412671 261.832077 
L 155.620699 260.732113 
L 155.828728 251.771521 
L 156.453064 213.660275 
L 156.661342 211.437364 
L 156.869371 212.583295 
L 157.285678 217.121049 
L 157.493706 222.758768 
L 157.910013 239.648939 
L 158.118042 241.917817 
L 158.742378 234.126139 
L 158.950406 235.272069 
L 159.78302 244.347579 
L 159.991049 244.370562 
L 160.615385 234.33299 
L 160.823413 237.724814 
L 161.447749 263.621545 
L 161.656027 262.521582 
L 161.864056 255.806883 
L 162.280363 228.902123 
L 162.69642 196.382628 
L 162.904699 188.544983 
L 163.112727 194.182701 
L 163.529034 235.777706 
L 163.945092 268.389135 
L 164.15337 270.658012 
L 164.569427 257.228616 
L 165.193763 239.330415 
L 165.818099 224.801055 
L 166.026377 225.946985 
L 166.650713 237.245405 
L 166.858741 235.022495 
L 167.06677 228.307797 
L 167.899384 181.235958 
L 168.107413 183.504835 
L 169.356084 238.667138 
L 169.564113 239.813068 
L 169.98042 228.629566 
L 170.396727 219.691957 
L 170.604755 218.591993 
L 170.812784 219.737924 
L 171.021062 222.006801 
L 171.229091 227.64452 
L 172.061455 261.424863 
L 172.269734 261.447846 
L 172.477762 258.101989 
L 172.685791 258.124972 
L 172.894069 259.270903 
L 173.102098 261.53978 
L 173.310127 261.562764 
L 173.518405 258.216906 
L 173.934462 239.172775 
L 174.558798 207.79921 
L 175.183134 180.917433 
L 175.391412 179.81747 
L 175.807469 186.601119 
L 176.223776 183.278245 
L 176.431805 184.424175 
L 177.056141 205.829118 
L 177.264419 202.483261 
L 177.472448 190.153827 
L 178.096783 120.600066 
L 178.51309 76.851101 
L 178.721119 63.398721 
L 178.929148 60.052863 
L 179.345455 64.590618 
L 179.553483 64.613602 
L 179.96979 61.290728 
L 180.386097 69.197324 
L 180.594126 68.09736 
L 181.218462 53.568 
L 181.42649 58.082771 
L 181.842797 88.448307 
L 182.259104 121.059736 
L 182.467133 128.943348 
L 182.675162 130.089278 
L 183.091469 118.905776 
L 183.299497 113.314024 
L 183.507776 113.337008 
L 183.715804 116.728832 
L 184.132111 135.864898 
L 184.548169 150.509175 
L 184.756447 147.163318 
L 185.172504 123.627399 
L 185.588811 103.46032 
L 185.79684 102.360357 
L 186.005118 111.366916 
L 186.837483 166.483251 
L 187.25379 174.389847 
L 187.878125 189.057108 
L 188.71049 222.837451 
L 189.542854 270.093158 
L 189.959161 279.122701 
L 190.167189 282.514525 
L 190.375468 282.537509 
L 190.791525 269.108112 
L 191.624139 241.126372 
L 192.040196 216.467506 
L 192.248475 211.998701 
L 192.456503 215.390526 
L 192.872811 245.756061 
L 193.288868 279.490437 
L 193.497146 287.374049 
L 193.705175 289.616575 
L 193.913203 288.489614 
L 194.745818 268.199636 
L 195.578182 233.311348 
L 195.78621 233.292115 
L 196.410546 248.955673 
L 196.618825 247.813493 
L 197.034882 228.684928 
L 197.451189 212.925205 
L 197.659217 211.783025 
L 198.283553 225.200689 
L 198.491831 224.058509 
L 198.907889 216.159414 
L 199.116167 216.140181 
L 199.324196 218.366842 
L 199.532224 218.347609 
L 199.740503 216.082482 
L 200.364838 199.180578 
L 200.572867 205.899026 
L 200.989174 229.442447 
L 201.197203 232.792054 
L 201.821538 206.906575 
L 202.029567 211.37913 
L 202.653903 262.976991 
L 202.862181 267.449546 
L 203.278238 253.935716 
L 203.694545 240.421886 
L 204.110852 234.768685 
L 204.318881 234.749452 
L 204.943217 240.306488 
L 205.151245 241.410201 
L 205.359524 240.268021 
L 205.567552 235.757 
L 206.191888 209.871521 
L 206.399917 208.729341 
L 207.232531 223.250719 
L 207.856866 249.0208 
L 208.064895 246.755673 
L 208.689231 221.99314 
L 208.897259 227.588642 
L 209.521595 264.588193 
L 209.729873 263.446013 
L 210.354209 236.437586 
L 210.562238 234.172459 
L 210.770266 238.645014 
L 211.394602 263.292148 
L 211.60288 265.518809 
L 211.810909 265.499576 
L 212.018938 267.726237 
L 212.643273 287.881583 
L 212.851552 290.089889 
L 213.05958 286.689248 
L 213.267609 278.79682 
L 213.891945 241.644171 
L 214.100223 238.24353 
L 214.308252 237.088783 
L 214.51628 232.565196 
L 214.932587 211.165604 
L 215.140616 208.88791 
L 215.556923 215.561993 
L 215.764952 215.530193 
L 216.181259 210.974806 
L 216.389287 217.680688 
L 217.013623 258.01138 
L 217.221901 257.97958 
L 217.846237 242.162923 
L 218.262294 254.45174 
L 218.470573 254.419941 
L 218.678601 246.527512 
L 219.302937 209.374863 
L 219.510966 210.46601 
L 220.135301 241.813126 
L 220.34358 242.904274 
L 220.759637 233.857098 
L 220.967915 234.948246 
L 221.383973 242.745275 
L 221.80028 256.157039 
L 222.008308 262.862921 
L 222.216587 263.954069 
L 222.424615 260.553428 
L 222.840922 244.768571 
L 223.048951 241.367931 
L 223.465258 241.304331 
L 223.673287 242.395478 
L 223.881315 241.240732 
L 224.089594 237.840091 
L 224.505651 227.669969 
L 224.713929 225.392275 
L 224.921958 225.360476 
L 225.129987 223.082782 
L 225.338265 223.050982 
L 225.546294 228.633917 
L 226.170629 258.858086 
L 226.378658 258.826287 
L 226.586936 252.056805 
L 227.211272 221.641838 
L 227.419301 221.610038 
L 227.835608 244.005378 
L 228.251665 259.663036 
L 228.459943 258.50829 
L 229.084279 248.306368 
L 229.500336 254.98045 
L 229.708615 253.825704 
L 229.916643 243.687381 
L 230.540979 202.042944 
L 230.749008 199.765251 
L 230.957286 199.733451 
L 231.165315 203.070492 
L 231.997679 235.508755 
L 232.205957 236.599903 
L 232.413986 236.568103 
L 232.830293 244.365132 
L 233.038322 240.964492 
L 233.24635 230.826169 
L 233.870686 179.075209 
L 234.078964 175.674569 
L 234.286993 183.503398 
L 234.7033 205.898738 
L 235.119357 221.556396 
L 235.951971 264.101182 
L 236.16 266.315276 
L 236.576307 252.776313 
L 236.784336 244.883885 
L 236.992364 242.606191 
L 237.200643 244.820285 
L 237.408671 249.280274 
L 237.6167 250.371421 
L 238.033007 244.693087 
L 238.241036 239.046552 
L 238.865371 233.336418 
L 239.07365 234.427565 
L 239.489707 241.101648 
L 239.697985 241.069848 
L 240.738378 220.697804 
L 240.946657 226.280739 
L 241.154685 236.355462 
L 241.570992 264.365537 
L 241.779021 266.579631 
L 241.98705 263.178991 
L 242.611385 236.132864 
L 243.443999 198.948416 
L 243.652028 200.039563 
L 244.276364 226.894891 
L 244.484392 227.986038 
L 244.692671 220.09361 
L 245.317006 179.57212 
L 245.525035 176.171479 
L 245.733064 182.877361 
L 246.149371 215.379224 
L 246.357399 219.839212 
L 246.565678 216.438571 
L 246.773706 210.792037 
L 246.981735 208.514343 
L 247.190013 214.097278 
L 247.606071 229.754937 
L 247.814349 233.091978 
L 248.022378 234.183125 
L 248.230406 231.905431 
L 248.646713 221.735309 
L 248.854742 218.334669 
L 249.06302 218.302869 
L 249.895385 238.388716 
L 250.51972 256.260468 
L 250.727749 257.351615 
L 250.936027 251.705081 
L 251.560363 228.027795 
L 251.768392 226.873049 
L 252.184699 234.670078 
L 252.600756 243.590054 
L 252.809034 244.681202 
L 253.017063 242.403508 
L 253.43337 233.356333 
L 253.641399 233.324533 
L 254.057706 241.121562 
L 254.265734 239.966816 
L 254.682041 223.059012 
L 254.89007 214.043636 
L 255.098099 212.88889 
L 255.306377 217.348878 
L 255.930713 238.589471 
L 256.138741 237.434724 
L 256.34677 231.78819 
L 256.971106 206.987957 
L 257.179384 206.956158 
L 257.595441 214.753187 
L 258.219777 225.887258 
L 258.636084 250.528492 
L 259.052391 275.169726 
L 259.26042 271.769085 
L 259.676727 251.49244 
L 259.884755 246.968853 
L 260.092784 251.428841 
L 260.509091 268.209446 
L 260.71712 271.546487 
L 260.925398 270.39174 
L 261.133427 261.376365 
L 261.757762 219.731928 
L 261.965791 216.331287 
L 262.174069 220.791275 
L 263.006434 270.073743 
L 263.214462 273.410785 
L 263.422741 270.010144 
L 263.838798 248.610552 
L 264.255105 230.579801 
L 264.463134 229.425054 
L 264.671412 231.639149 
L 266.128112 262.859066 
L 266.336141 262.827266 
L 266.544419 258.303679 
L 266.960476 240.272928 
L 267.376783 221.11923 
L 267.584812 221.08743 
L 268.001119 228.884459 
L 268.209148 227.729713 
L 268.833483 197.314746 
L 269.041762 193.914105 
L 269.666097 193.818706 
L 269.874126 196.0328 
L 270.082155 204.984576 
L 270.498462 243.101174 
L 270.914769 283.463665 
L 271.122797 287.923653 
L 271.539104 260.864039 
L 271.955162 238.296212 
L 272.16344 240.487662 
L 272.787776 254.922641 
L 272.995804 257.114091 
L 273.203833 257.059647 
L 273.62014 254.704866 
L 273.828169 251.281581 
L 274.036447 245.612403 
L 275.07684 192.561676 
L 275.285118 191.384285 
L 275.493147 193.575735 
L 275.909454 206.942212 
L 276.117483 214.748397 
L 276.325511 218.062794 
L 276.53379 215.762456 
L 276.741818 211.216224 
L 277.158125 192.017238 
L 277.366154 182.979219 
L 277.574182 180.678881 
L 277.782461 183.993278 
L 278.198518 202.974489 
L 278.406797 206.288886 
L 278.614825 206.234442 
L 278.822854 209.54884 
L 279.031132 218.477972 
L 279.655468 259.863678 
L 279.863497 263.178075 
L 280.487832 247.293486 
L 281.528475 220.07054 
L 281.736503 220.016096 
L 281.944532 223.330494 
L 282.568868 246.749049 
L 282.777146 248.940499 
L 283.401482 230.810016 
L 283.60951 230.755572 
L 284.025818 247.490889 
L 284.441875 268.717994 
L 284.650153 274.278285 
L 284.858182 275.346788 
L 285.06621 270.800557 
L 285.482517 249.355677 
L 285.898825 231.279637 
L 286.106853 230.102247 
L 286.731189 236.676597 
L 286.939217 236.622153 
L 287.355524 238.75916 
L 287.771831 244.265007 
L 288.187889 267.738006 
L 288.604196 290.088058 
L 288.812224 290.039187 
L 289.020503 283.257538 
L 289.852867 229.180217 
L 290.060896 224.644462 
L 290.269174 226.84639 
L 290.89351 245.804588 
L 291.101538 246.883569 
L 291.309567 244.593708 
L 291.517845 244.549742 
L 292.142181 255.647311 
L 292.35021 254.480398 
L 293.598881 227.265871 
L 293.80691 227.221904 
L 294.015188 229.423831 
L 294.431245 239.442421 
L 294.847552 253.952798 
L 295.055581 258.400619 
L 295.263859 258.356653 
L 295.679917 243.670409 
L 295.888195 241.380548 
L 296.096224 244.705422 
L 296.720559 262.540674 
L 296.928588 265.865548 
L 297.552924 288.192588 
L 297.761202 291.501086 
L 297.969231 289.225548 
L 298.801595 257.642232 
L 299.009873 254.238191 
L 299.217902 247.465309 
L 300.050266 206.898418 
L 300.258545 213.6009 
L 300.88288 246.060761 
L 301.090909 249.394402 
L 301.507216 251.569896 
L 301.715245 251.534696 
L 301.923273 254.868336 
L 302.755887 279.432369 
L 302.963916 274.905381 
L 303.380223 259.113723 
L 303.588252 256.832629 
L 303.79628 259.043323 
L 304.420616 281.396662 
L 304.628894 280.238515 
L 304.836923 272.342686 
L 305.877566 202.543973 
L 306.085594 204.754667 
L 306.917959 260.761215 
L 307.126237 261.848962 
L 307.334266 258.444921 
L 307.750573 249.390945 
L 307.958601 251.601639 
L 308.16663 256.058226 
L 308.374908 257.145973 
L 308.582937 255.987826 
L 309.207273 246.89865 
L 309.415301 247.986397 
L 310.247915 272.550429 
L 310.455944 270.269335 
L 311.08028 254.442477 
L 311.288308 251.038436 
L 311.496587 249.880289 
L 311.704615 249.845089 
L 311.912644 247.563995 
L 312.328951 227.280549 
L 312.745258 204.75121 
L 312.953287 201.347169 
L 313.161315 203.557862 
L 313.369594 209.137397 
L 313.577622 211.348091 
L 313.993929 200.048221 
L 314.201958 192.152392 
L 314.409987 189.871298 
L 314.826294 206.645102 
L 315.242601 225.6648 
L 315.450629 228.998441 
L 315.658658 227.840294 
L 316.074965 219.909265 
L 316.282994 217.628171 
L 316.907329 225.383199 
L 317.115608 225.347999 
L 317.739943 215.135876 
L 317.947972 213.977729 
L 318.156001 215.065476 
L 318.780336 208.222194 
L 318.988615 209.30994 
L 319.404672 219.346063 
L 319.61295 219.310863 
L 320.029008 213.625728 
L 320.237286 213.590528 
L 320.861622 216.853768 
L 321.06965 220.187409 
L 321.902015 249.24323 
L 322.110293 244.716242 
L 322.52635 221.063955 
L 322.942657 199.657562 
L 323.150686 195.130574 
L 323.358964 200.710109 
L 323.9833 232.047024 
L 324.191329 232.011823 
L 324.399357 225.238942 
L 324.815664 208.324337 
L 325.023693 213.903871 
L 325.648029 255.347309 
L 325.856307 256.435056 
L 326.064336 249.662174 
L 326.688671 220.359952 
L 326.8967 219.201805 
L 327.104978 220.289552 
L 327.313007 219.131405 
L 327.729314 207.831535 
L 327.937343 210.042229 
L 328.145371 218.990604 
L 328.561678 248.116825 
L 328.769707 250.327519 
L 328.977985 244.677584 
L 329.602321 217.621256 
L 329.81035 213.094268 
L 330.642714 179.265059 
L 330.850992 179.229859 
L 331.059021 187.055287 
L 332.307692 263.20448 
L 332.515721 268.784015 
L 332.723999 267.625868 
L 333.140057 242.850634 
L 333.764392 200.073049 
L 333.972671 192.17722 
L 334.180699 189.896126 
L 334.388728 192.10682 
L 334.805035 205.511783 
L 335.013064 206.59953 
L 335.221342 203.195489 
L 335.845678 187.368631 
L 336.261735 182.806443 
L 336.470013 182.771243 
L 337.094349 204.001635 
L 337.302378 203.966435 
L 338.551049 190.27987 
L 338.759078 192.490564 
L 339.383413 211.475062 
L 339.79972 215.89645 
L 340.007749 221.475984 
L 340.632085 250.567005 
L 340.840363 249.408858 
L 341.048392 237.021241 
L 341.672727 175.153558 
L 341.880756 173.995411 
L 342.297063 203.121631 
L 342.71337 225.510171 
L 342.921399 226.597917 
L 343.129427 224.316823 
L 343.545734 216.385794 
L 343.753763 215.227647 
L 344.17007 217.403141 
L 344.794406 222.912275 
L 345.002434 224.000022 
L 345.210713 222.841875 
L 345.418741 220.560781 
L 345.62677 220.525581 
L 346.043077 231.68465 
L 346.251106 237.264185 
L 346.667413 240.562626 
L 346.875441 241.650372 
L 347.08372 241.615172 
L 347.291748 242.702919 
L 347.499777 240.421825 
L 347.708055 240.386625 
L 348.332391 249.2646 
L 348.54042 245.860559 
L 348.956727 226.700061 
L 349.164755 223.296019 
L 349.372784 223.260819 
L 349.789091 228.805154 
L 349.99712 228.769954 
L 350.621455 220.803725 
L 351.245791 208.345708 
L 351.454069 207.18756 
L 351.662098 209.398254 
L 351.870127 214.977789 
L 352.286434 231.751593 
L 352.494462 235.085234 
L 352.702741 235.050034 
L 353.118798 228.241952 
L 353.327076 227.083805 
L 353.535105 227.048605 
L 353.743134 228.136351 
L 353.951412 230.347045 
L 354.783776 261.64876 
L 354.991805 260.490613 
L 355.200083 258.209519 
L 355.616141 249.155543 
L 356.032448 234.486832 
L 356.240476 231.082791 
L 356.448755 232.170538 
L 356.656783 235.504178 
L 356.864812 235.468978 
L 357.07309 227.573149 
L 357.697426 190.410299 
L 357.905455 185.883311 
L 358.113483 188.094005 
L 358.321762 193.673539 
L 358.737819 217.185025 
L 359.362155 256.382569 
L 359.778462 273.156373 
L 359.98649 271.998226 
L 360.194769 260.733556 
L 360.819104 212.341236 
L 361.235162 201.041366 
L 361.859497 189.706296 
L 362.275804 189.635896 
L 362.483833 187.354802 
L 362.692111 187.319602 
L 363.108169 193.986883 
L 363.316447 192.828736 
L 363.940783 175.878931 
L 364.148811 179.212572 
L 364.773147 203.811805 
L 364.981175 208.268393 
L 365.189454 209.356139 
L 365.397483 208.197992 
L 365.81379 204.758751 
L 366.021818 205.846498 
L 366.438125 219.251461 
L 366.854182 236.025266 
L 367.062461 238.235959 
L 367.686797 230.26973 
L 368.102854 218.96986 
L 368.519161 199.809362 
L 369.143497 188.474291 
L 369.351525 185.07025 
L 369.559804 187.280944 
L 369.975861 206.300642 
L 370.184139 215.249018 
L 370.392168 217.459712 
L 370.600196 211.809777 
L 371.016503 193.772225 
L 371.224532 190.368184 
L 371.432811 192.578878 
L 372.057146 210.440429 
L 372.473203 215.984764 
L 372.681482 222.687245 
L 373.305818 254.02416 
L 373.513846 256.234854 
L 373.721875 252.830813 
L 374.138182 237.039155 
L 374.762517 212.228721 
L 375.178825 206.543586 
L 375.386853 206.508386 
L 375.80316 201.946198 
L 376.011189 201.910998 
L 376.427496 215.315961 
L 377.051831 238.792247 
L 377.676167 253.284957 
L 378.092224 261.075186 
L 378.300503 265.531773 
L 378.508531 264.373626 
L 378.71656 255.35485 
L 379.549174 186.714285 
L 379.757203 186.679085 
L 380.17351 196.715207 
L 380.381538 194.434113 
L 380.589567 187.661231 
L 381.005874 169.623679 
L 381.213903 171.834373 
L 381.63021 193.099965 
L 382.254545 224.43688 
L 382.670852 235.595949 
L 382.878881 235.560749 
L 383.08691 237.771443 
L 383.711245 261.247729 
L 383.919524 261.212529 
L 384.127552 253.3167 
L 384.959917 209.380968 
L 385.168195 208.22282 
L 385.376224 210.433514 
L 386.000559 223.803278 
L 386.416866 211.380461 
L 386.624895 211.34526 
L 386.832924 216.924795 
L 387.249231 238.190387 
L 387.457259 238.155187 
L 387.873566 216.748794 
L 388.289873 194.219455 
L 388.497902 193.061308 
L 388.705931 200.886736 
L 389.330266 235.592492 
L 389.538545 234.434345 
L 390.16288 210.746858 
L 390.370909 210.711658 
L 390.995245 220.71258 
L 391.411552 222.888074 
L 392.035887 235.13489 
L 392.243916 230.607902 
L 392.660223 193.480252 
L 393.07628 157.475549 
L 393.284559 161.932136 
L 394.116923 225.799313 
L 394.53323 225.728913 
L 394.741259 227.939607 
L 395.157566 244.713411 
L 395.573623 264.856056 
L 395.98993 291.736383 
L 396.197959 295.106669 
L 396.406237 290.759605 
L 396.822294 261.886582 
L 397.238601 229.644719 
L 397.44663 221.945889 
L 397.654908 220.984742 
L 397.862937 227.884223 
L 398.487273 273.2875 
L 398.487273 273.2875 
" clip-path="url(#p328f46da15)" style="fill: none; stroke: #1f77b4; stroke-width: 1.5; stroke-linecap: square"/>
   </g>
   <g id="line2d_16">
    <path d="M 73.832727 294.595078 
L 74.040756 294.644251 
L 74.249034 256.576732 
L 74.457063 253.32057 
L 74.87337 238.947616 
L 75.081399 236.8144 
L 75.289427 238.050025 
L 75.705734 243.890117 
L 75.913763 244.002795 
L 76.538099 240.971989 
L 77.370713 214.471975 
L 77.578741 213.461706 
L 77.78677 213.574385 
L 78.411106 202.68295 
L 78.619384 205.041522 
L 79.035441 215.373402 
L 79.24372 215.48608 
L 79.868055 209.086433 
L 80.076084 209.199112 
L 80.492391 215.039203 
L 81.116727 231.098496 
L 81.532784 233.569746 
L 81.741062 233.682425 
L 81.949091 234.91805 
L 82.365398 239.635194 
L 82.781455 228.631081 
L 83.197762 215.381074 
L 83.405791 217.739647 
L 84.238405 254.124663 
L 85.070769 262.436005 
L 85.278798 258.056895 
L 85.695105 233.577419 
L 85.903134 230.321256 
L 86.527469 236.274026 
L 86.943776 236.499383 
L 87.360083 246.831262 
L 87.568112 244.698046 
L 88.400476 222.68982 
L 89.024812 191.58534 
L 89.23309 191.698018 
L 89.441119 198.548379 
L 90.065455 235.943664 
L 90.481762 255.259119 
L 90.68979 266.601267 
L 90.897819 271.205733 
L 91.106097 266.826623 
L 91.730433 233.476249 
L 92.354769 240.551966 
L 92.770826 229.547853 
L 93.187133 219.666687 
L 93.395162 222.025259 
L 93.811469 241.340714 
L 94.227776 257.287329 
L 94.435804 257.400007 
L 94.643833 254.143844 
L 95.06014 236.402049 
L 95.476447 218.660255 
L 95.684476 215.404092 
L 95.892504 218.885611 
L 96.51684 233.821957 
L 96.725118 231.688741 
L 97.349454 216.305519 
L 97.557483 223.155879 
L 97.97379 244.717228 
L 98.181818 249.321694 
L 98.389847 248.311425 
L 98.806154 245.167941 
L 99.222461 243.147404 
L 99.43049 241.014188 
L 99.638518 241.126867 
L 100.679161 251.796781 
L 101.095468 274.481077 
L 101.303497 285.823225 
L 101.511525 289.304744 
L 101.719804 280.43005 
L 102.135861 252.574138 
L 102.552168 240.439483 
L 102.760196 237.179524 
L 103.176503 223.921922 
L 103.384532 215.047228 
L 103.800839 180.453634 
L 104.217146 150.351828 
L 104.425175 149.337762 
L 104.633203 159.553166 
L 105.465818 223.996668 
L 105.673846 231.966178 
L 105.881875 232.07506 
L 106.090153 229.938047 
L 106.298182 230.046928 
L 106.50621 231.278756 
L 106.714489 231.387637 
L 106.922517 230.373572 
L 107.130546 231.6054 
L 107.338825 239.57491 
L 107.96316 290.434167 
L 108.171189 295.043643 
L 108.379217 288.498184 
L 109.211831 235.316768 
L 109.41986 232.127937 
L 110.252224 240.708605 
L 110.460503 238.642721 
L 110.668531 235.45389 
L 110.87656 236.756847 
L 111.084838 236.936856 
L 111.292867 231.502131 
L 111.917203 208.460274 
L 112.125231 207.517337 
L 112.749567 220.409783 
L 113.998238 270.899509 
L 114.414545 271.259528 
L 114.830852 277.234283 
L 115.038881 280.783133 
L 115.24691 280.963143 
L 115.455188 275.528418 
L 116.079524 247.994773 
L 116.911888 229.624714 
L 117.536224 198.722228 
L 117.744252 200.025185 
L 118.368588 232.007729 
L 118.576866 234.433633 
L 118.784895 232.367749 
L 118.992924 229.178918 
L 119.201202 230.481874 
L 119.825538 245.620214 
L 120.033566 244.677277 
L 120.449873 238.299615 
L 120.657902 238.479625 
L 121.282238 245.757336 
L 121.490266 244.814399 
L 121.698545 242.748515 
L 121.906573 238.436737 
L 122.32288 220.829605 
L 122.530909 217.640773 
L 122.738938 220.066677 
L 123.363273 250.926275 
L 123.571552 252.229232 
L 123.987609 236.867994 
L 124.403916 222.629702 
L 124.611945 220.563818 
L 124.820223 222.989722 
L 125.23628 234.579211 
L 125.860616 253.086392 
L 126.068894 256.635243 
L 126.276923 256.815253 
L 126.484952 254.749369 
L 126.901259 247.248759 
L 127.109287 246.305822 
L 127.317566 248.731726 
L 128.14993 268.541864 
L 128.357959 268.721873 
L 128.566237 263.287148 
L 129.398601 229.195831 
L 129.60663 229.375841 
L 129.814908 231.801745 
L 130.230966 232.161764 
L 130.439244 233.464721 
L 130.647273 239.259466 
L 131.479637 288.266225 
L 131.687915 288.43094 
L 132.103973 271.888976 
L 132.52028 249.732276 
L 132.936587 238.805047 
L 133.144615 238.956167 
L 133.768951 246.147209 
L 133.97698 245.175382 
L 134.393287 236.494046 
L 134.601315 235.522219 
L 135.225651 246.082102 
L 135.433929 242.864381 
L 136.058265 224.227643 
L 136.266294 224.378763 
L 136.474322 227.898724 
L 136.890629 243.922221 
L 137.306936 263.31456 
L 137.514965 267.957468 
L 137.722994 265.862694 
L 137.931272 257.030238 
L 138.555608 211.442773 
L 138.763636 210.470946 
L 138.971665 218.482695 
L 139.596001 257.116252 
L 139.804279 265.128 
L 140.012308 267.525014 
L 140.636643 261.240693 
L 140.844672 261.391813 
L 141.05295 262.66588 
L 141.260979 260.571106 
L 141.677286 248.520929 
L 141.885315 240.811421 
L 142.093343 237.5937 
L 142.301622 237.74482 
L 143.133986 246.209929 
L 143.342015 245.238102 
L 143.550293 245.389222 
L 143.758322 246.663289 
L 144.382657 254.977278 
L 145.215022 287.024273 
L 145.4233 281.531366 
L 146.047636 252.700228 
L 146.463693 246.206201 
L 146.88 236.343334 
L 147.088029 233.09632 
L 147.296307 234.341095 
L 147.920643 242.567207 
L 148.128671 246.057875 
L 148.544978 259.776894 
L 148.961036 273.495913 
L 149.169314 271.371847 
L 149.79365 243.663656 
L 150.001678 244.908431 
L 150.417985 256.381556 
L 150.626014 258.749277 
L 150.834043 257.748158 
L 151.25035 246.762344 
L 151.666657 217.809378 
L 152.082714 192.225253 
L 152.290992 192.34708 
L 152.70705 209.43494 
L 153.123357 226.5228 
L 153.331385 230.013469 
L 153.539664 227.889402 
L 153.747692 223.519442 
L 154.372028 196.934198 
L 154.580057 197.056026 
L 154.788335 205.038482 
L 155.412671 242.461215 
L 155.828728 250.565499 
L 156.037006 258.547956 
L 156.453064 281.250551 
L 156.661342 282.495325 
L 156.869371 273.633577 
L 157.701735 201.129335 
L 157.910013 194.513481 
L 158.118042 196.881202 
L 158.742378 223.074465 
L 158.950406 224.31924 
L 159.366713 227.931736 
L 159.574742 226.930617 
L 160.199078 203.714214 
L 160.407356 206.081935 
L 160.823413 217.55506 
L 161.447749 229.150013 
L 162.280363 261.079839 
L 162.488392 254.463985 
L 163.112727 223.386953 
L 163.320756 219.016992 
L 163.529034 219.13882 
L 163.737063 220.383595 
L 163.945092 220.505422 
L 164.15337 215.012515 
L 164.985734 181.811417 
L 165.402041 182.055072 
L 165.61007 184.422794 
L 165.818099 192.40525 
L 166.234406 221.845527 
L 166.650713 247.916962 
L 166.858741 252.530578 
L 167.06677 252.652406 
L 167.483077 250.650167 
L 167.691106 248.526101 
L 168.107413 237.540286 
L 168.939777 209.953923 
L 169.356084 206.828737 
L 169.564113 208.073512 
L 169.772391 210.441233 
L 169.98042 216.177796 
L 170.812784 253.722357 
L 171.021062 253.844184 
L 171.43712 242.85837 
L 172.061455 224.133755 
L 172.477762 210.902046 
L 172.685791 208.77798 
L 172.894069 210.022755 
L 173.102098 213.513423 
L 173.310127 219.249986 
L 173.726434 241.95258 
L 174.350769 280.49826 
L 174.558798 285.111876 
L 174.767076 284.060821 
L 175.599441 266.145524 
L 175.807469 267.281434 
L 176.431805 274.058007 
L 176.640083 271.825077 
L 176.848112 266.223305 
L 177.264419 239.298505 
L 179.137426 95.677966 
L 179.761762 63.151394 
L 179.96979 57.549623 
L 180.177819 58.685534 
L 180.386097 65.436179 
L 181.42649 121.648346 
L 181.634769 125.03015 
L 181.842797 123.920167 
L 182.259104 113.839571 
L 182.467133 111.606641 
L 182.675162 116.111392 
L 183.091469 146.456888 
L 183.715804 197.028392 
L 184.132111 218.390312 
L 184.34014 221.772117 
L 184.548169 217.293292 
L 185.172504 180.274933 
L 185.380783 175.796109 
L 185.588811 178.054966 
L 186.005118 192.679204 
L 186.421175 209.549336 
L 186.629454 210.685247 
L 187.25379 201.740562 
L 187.461818 202.876472 
L 187.669847 200.643542 
L 188.294182 174.854653 
L 188.502461 183.851192 
L 189.126797 247.89806 
L 189.334825 251.279865 
L 189.751132 237.830428 
L 189.959161 241.212233 
L 190.375468 260.328258 
L 190.583497 262.587116 
L 191.415861 231.196455 
L 191.832168 239.083011 
L 192.040196 239.095975 
L 192.456503 235.753061 
L 192.664532 235.766025 
L 193.080839 245.898475 
L 194.121482 278.528755 
L 194.32951 277.418772 
L 194.953846 241.523359 
L 195.161875 239.290429 
L 195.78621 259.542365 
L 195.994489 257.309435 
L 196.410546 241.614105 
L 196.618825 240.504121 
L 197.034882 257.374253 
L 197.24316 265.247846 
L 197.451189 265.260809 
L 197.867496 258.549055 
L 198.075524 258.562018 
L 198.69986 266.461538 
L 199.324196 286.713474 
L 199.532224 281.076855 
L 200.15656 242.831004 
L 200.364838 238.317331 
L 200.572867 238.295446 
L 200.989174 241.620518 
L 201.197203 242.72158 
L 201.61351 240.431917 
L 201.821538 238.164138 
L 202.237845 226.890899 
L 202.653903 213.371766 
L 202.862181 211.103988 
L 203.07021 214.450944 
L 203.486517 246.972637 
L 203.902574 281.740223 
L 204.110852 281.718339 
L 204.52691 256.969736 
L 204.943217 236.712921 
L 205.151245 236.691036 
L 205.567552 250.122631 
L 205.983859 261.308331 
L 206.191888 262.409393 
L 206.399917 260.141615 
L 206.816224 253.360164 
L 207.024252 253.338279 
L 207.232531 254.439341 
L 207.440559 254.417457 
L 207.648588 249.903784 
L 208.064895 228.524022 
L 208.272924 229.625084 
L 208.481202 240.83267 
L 208.897259 281.214991 
L 209.105538 289.053735 
L 209.313566 283.40964 
L 209.729873 262.014926 
L 209.937902 261.985566 
L 210.354209 270.91042 
L 210.562238 272.004007 
L 211.186573 258.440562 
L 211.394602 262.902989 
L 211.810909 280.811419 
L 212.018938 284.1509 
L 212.227216 279.574133 
L 212.851552 250.122573 
L 213.05958 248.914647 
L 213.475887 256.605316 
L 213.683916 255.39739 
L 213.891945 253.066517 
L 214.100223 255.227431 
L 214.724559 276.308485 
L 214.932587 267.23993 
L 215.348894 237.87335 
L 215.556923 232.173636 
L 215.764952 232.088656 
L 216.389287 246.432029 
L 217.013623 278.742552 
L 217.221901 282.026414 
L 217.846237 261.55843 
L 218.054266 261.473451 
L 218.262294 264.757312 
L 218.470573 263.549386 
L 218.88663 244.289328 
L 219.302937 229.521059 
L 219.719244 224.859312 
L 220.135301 226.935247 
L 220.759637 221.065574 
L 220.967915 223.226489 
L 221.592251 253.291118 
L 221.80028 256.57498 
L 222.008308 256.49 
L 222.424615 250.705307 
L 223.048951 247.081528 
L 223.465258 243.542728 
L 223.673287 244.580695 
L 224.089594 247.779577 
L 224.297622 248.817545 
L 224.505651 248.732565 
L 224.713929 249.770533 
L 225.129987 258.58415 
L 225.338265 256.253276 
L 226.170629 221.102003 
L 226.586936 226.546779 
L 226.794965 229.83064 
L 227.002994 227.499767 
L 227.419301 216.100338 
L 227.627329 213.769465 
L 227.835608 218.176273 
L 228.459943 250.486797 
L 228.667972 251.524765 
L 228.876001 242.456209 
L 229.708615 183.723049 
L 229.916643 184.761017 
L 230.124672 194.78256 
L 230.957286 262.942407 
L 231.165315 262.857428 
L 231.373343 251.542979 
L 231.997679 199.63248 
L 232.205957 191.686872 
L 232.413986 194.970733 
L 233.24635 226.073331 
L 233.870686 233.679021 
L 234.078964 238.085829 
L 234.495022 255.883022 
L 234.911329 275.926109 
L 235.119357 279.20997 
L 235.327636 274.633203 
L 235.951971 235.075121 
L 236.368029 205.70854 
L 236.576307 200.008826 
L 236.784336 203.292688 
L 237.408671 234.480265 
L 237.6167 234.395285 
L 237.824978 232.064412 
L 238.033007 231.979432 
L 238.449314 243.038943 
L 238.657343 249.691645 
L 238.865371 250.729613 
L 239.07365 241.661058 
L 239.697985 194.242347 
L 239.906014 188.542632 
L 240.114043 190.703547 
L 240.946657 225.174985 
L 241.362714 235.111549 
L 241.570992 241.764252 
L 241.779021 241.679272 
L 242.195328 214.558586 
L 242.403357 200.998243 
L 242.611385 198.667369 
L 242.819664 213.180701 
L 243.235721 252.313886 
L 243.443999 263.458376 
L 243.652028 267.865184 
L 243.860057 266.657258 
L 244.484392 254.049903 
L 244.692671 253.964924 
L 245.108728 260.532647 
L 245.317006 255.955879 
L 245.525035 248.010271 
L 245.941342 225.381373 
L 246.149371 219.681658 
L 246.357399 220.719626 
L 246.981735 242.923627 
L 247.190013 239.469807 
L 247.606071 225.824484 
L 247.814349 224.616558 
L 248.022378 225.654525 
L 248.438685 231.099301 
L 248.646713 233.260216 
L 248.854742 232.052289 
L 249.06302 229.721416 
L 249.271049 230.759384 
L 249.895385 255.209279 
L 250.103413 255.124299 
L 250.311692 252.793426 
L 250.51972 253.831393 
L 251.144056 282.773076 
L 251.352085 283.811044 
L 251.560363 280.298522 
L 251.97642 262.044008 
L 252.600756 226.801609 
L 252.809034 221.043193 
L 253.017063 219.776565 
L 253.225092 227.493513 
L 253.849427 265.242667 
L 254.057706 267.34488 
L 254.682041 246.700791 
L 254.89007 249.925951 
L 255.098099 257.642899 
L 255.306377 260.868059 
L 255.722434 260.580697 
L 255.930713 261.559963 
L 256.34677 266.887335 
L 256.763077 276.706496 
L 257.179384 295.488 
L 257.387413 292.046086 
L 257.80372 262.768455 
L 258.219777 240.228505 
L 258.428055 236.819158 
L 258.636084 237.9016 
L 258.844113 235.615201 
L 259.468448 217.526534 
L 259.676727 217.486028 
L 260.092784 224.1427 
L 260.301062 224.102195 
L 260.509091 222.938742 
L 260.71712 224.021184 
L 261.133427 229.554908 
L 261.341455 229.514403 
L 261.549734 223.859163 
L 262.174069 188.926291 
L 262.382098 186.639892 
L 262.590127 189.968228 
L 263.006434 204.485528 
L 263.214462 205.567969 
L 263.422741 201.035676 
L 263.838798 184.110461 
L 264.047076 188.561744 
L 264.671412 236.726948 
L 264.879441 238.932337 
L 265.087469 233.277096 
L 265.503776 218.597775 
L 265.711805 218.55727 
L 265.920083 223.008553 
L 266.544419 244.223029 
L 266.752448 248.674312 
L 266.960476 249.756754 
L 267.376783 249.675743 
L 267.79309 247.348839 
L 268.209148 242.77604 
L 268.833483 226.933267 
L 269.24979 215.622787 
L 269.457819 215.582282 
L 269.666097 220.033564 
L 270.082155 236.796758 
L 270.498462 256.928793 
L 270.70649 259.134182 
L 271.122797 259.053172 
L 271.330826 262.381507 
L 271.747133 273.529966 
L 271.955162 271.243567 
L 272.787776 241.884925 
L 273.828169 197.887467 
L 274.036447 201.215803 
L 274.244476 209.035926 
L 274.868811 242.602819 
L 275.285118 255.997173 
L 275.493147 259.325508 
L 275.701175 260.40795 
L 275.909454 260.367445 
L 276.117483 259.203992 
L 276.325511 255.794646 
L 276.741818 239.992378 
L 276.949847 236.583032 
L 277.158125 238.788421 
L 277.366154 245.485597 
L 277.99049 276.806597 
L 278.198518 279.011985 
L 278.406797 271.00261 
L 279.031132 204.302497 
L 279.239161 197.416068 
L 279.863497 212.691085 
L 280.071525 210.296444 
L 280.487832 202.138321 
L 280.695861 201.989573 
L 280.904139 202.963773 
L 281.112168 205.06092 
L 281.320196 203.789226 
L 281.736503 190.016368 
L 281.944532 187.621727 
L 282.152811 193.087715 
L 282.777146 226.329883 
L 283.193203 228.278283 
L 283.401482 232.621324 
L 284.025818 252.388128 
L 284.233846 247.747593 
L 285.06621 179.775786 
L 285.274489 180.749986 
L 286.106853 204.859831 
L 286.314882 212.571713 
L 286.52316 215.791807 
L 286.731189 215.64306 
L 286.939217 212.125472 
L 287.355524 198.352614 
L 287.771831 184.579756 
L 287.97986 181.062168 
L 288.187889 180.913421 
L 288.396167 181.887621 
L 288.604196 185.107715 
L 288.812224 191.69665 
L 289.852867 251.592051 
L 290.060896 251.443303 
L 290.685231 234.152858 
L 290.89351 234.004111 
L 291.309567 244.936086 
L 291.517845 241.418498 
L 292.558238 190.142149 
L 292.766517 188.870455 
L 292.974545 193.213496 
L 293.390852 214.251994 
L 293.598881 215.226194 
L 294.223217 205.796377 
L 294.431245 206.770577 
L 294.639524 211.113618 
L 294.847552 212.087818 
L 295.055581 210.816124 
L 295.471888 203.780948 
L 295.888195 214.712923 
L 296.096224 221.301858 
L 296.304252 222.276058 
L 296.928588 199.370877 
L 297.136866 200.345077 
L 297.344895 200.19633 
L 297.552924 198.924636 
L 297.761202 195.407048 
L 297.969231 196.381248 
L 298.593566 213.902158 
L 298.801595 210.38457 
L 299.217902 187.628137 
L 299.634209 163.748756 
L 300.050266 151.098845 
L 300.258545 148.704204 
L 300.466573 149.678404 
L 300.674602 158.513233 
L 301.298938 197.370135 
L 301.507216 200.590229 
L 301.715245 201.564429 
L 301.923273 203.661576 
L 302.547609 217.813645 
L 302.755887 217.664898 
L 302.963916 209.655522 
L 303.588252 172.152031 
L 303.79628 172.003284 
L 304.004559 178.592219 
L 304.420616 197.384823 
L 304.836923 207.193852 
L 305.25323 212.511092 
L 305.669287 218.95128 
L 305.877566 219.92548 
L 306.085594 219.776733 
L 306.293623 218.505039 
L 306.501901 219.479239 
L 306.70993 222.699333 
L 306.917959 228.16532 
L 307.542294 252.423912 
L 307.750573 250.029271 
L 308.790966 208.859445 
L 309.207273 192.840693 
L 309.62358 175.698995 
L 309.831608 174.427301 
L 310.039637 179.893288 
L 310.455944 205.423575 
L 310.872251 227.58502 
L 311.08028 220.698591 
L 311.704615 183.1951 
L 311.912644 193.152875 
L 312.328951 223.174949 
L 312.53698 229.763884 
L 312.745258 227.369243 
L 313.161315 207.98165 
L 313.577622 187.471111 
L 313.785651 181.707629 
L 313.993929 181.558882 
L 314.618265 192.34211 
L 314.826294 198.931045 
L 315.242601 226.707225 
L 315.866936 271.178863 
L 316.074965 272.153063 
L 316.282994 265.266634 
L 317.115608 215.261979 
L 317.323636 212.867338 
L 317.531665 218.333325 
L 317.947972 239.371824 
L 318.156001 242.591918 
L 318.364279 237.951383 
L 318.988615 201.570838 
L 319.196643 198.05325 
L 319.820979 212.20532 
L 320.029008 208.687732 
L 320.445315 191.546033 
L 320.653343 193.64318 
L 321.06965 213.558731 
L 321.693986 260.276263 
L 322.110293 288.052443 
L 322.318322 293.49913 
L 322.52635 294.511866 
L 322.734629 293.354886 
L 322.942657 291.130231 
L 323.358964 269.876868 
L 324.191329 207.157095 
L 324.607636 185.903731 
L 324.815664 180.330311 
L 325.023693 181.494572 
L 325.648029 200.708614 
L 325.856307 198.504034 
L 326.480643 181.783773 
L 326.688671 177.333299 
L 327.313007 141.522939 
L 327.521036 138.195413 
L 327.937343 136.032147 
L 328.145371 133.827568 
L 328.35365 137.237723 
L 328.769707 175.500549 
L 329.186014 209.271587 
L 329.394043 212.681742 
L 329.81035 204.903742 
L 330.226657 194.879848 
L 330.642714 181.487113 
L 330.850992 181.528427 
L 331.475328 202.988363 
L 331.683357 199.660836 
L 332.307692 163.850476 
L 332.515721 160.52295 
L 332.723999 165.056052 
L 332.932028 172.957995 
L 333.348335 194.376616 
L 333.556364 196.663825 
L 333.764392 193.336298 
L 334.180699 182.189457 
L 334.388728 182.230771 
L 335.221342 195.871392 
L 335.637399 208.306438 
L 335.845678 208.347752 
L 336.470013 193.873385 
L 336.678042 193.914699 
L 337.094349 196.243222 
L 337.302378 199.653377 
L 337.718685 213.211369 
L 338.134742 229.015256 
L 338.34302 232.425411 
L 338.551049 230.220831 
L 338.759078 224.647411 
L 339.79972 165.337793 
L 340.007749 159.764373 
L 340.216027 166.543369 
L 340.424056 183.428888 
L 340.840363 235.167077 
L 341.048392 245.314914 
L 341.25642 240.864441 
L 341.880756 196.070505 
L 342.089034 194.988872 
L 342.505092 219.776335 
L 342.921399 242.317903 
L 343.129427 242.359217 
L 343.545734 225.597641 
L 343.962041 209.959012 
L 344.17007 213.369168 
L 344.586377 238.15663 
L 345.002434 265.189986 
L 345.210713 268.600141 
L 345.418741 267.518508 
L 345.835048 257.494614 
L 346.043077 256.412982 
L 346.251106 254.208402 
L 346.459384 246.389088 
L 346.875441 213.906254 
L 347.291748 188.161103 
L 347.499777 187.07947 
L 348.124113 198.432883 
L 348.332391 202.965985 
L 348.956727 231.163602 
L 349.164755 232.327864 
L 349.581062 224.549864 
L 349.789091 224.591178 
L 349.99712 225.755439 
L 350.413427 217.977439 
L 350.621455 213.526966 
L 350.829734 212.445333 
L 351.245791 217.01975 
L 351.454069 215.938117 
L 351.662098 217.102379 
L 352.078405 230.660371 
L 352.286434 230.701685 
L 352.910769 211.73553 
L 353.118798 212.899791 
L 353.535105 220.843049 
L 353.743134 222.00731 
L 353.951412 222.048624 
L 354.367469 216.516518 
L 354.575748 210.943098 
L 354.991805 193.058575 
L 355.200083 189.731048 
L 355.408112 193.141204 
L 356.448755 241.634495 
L 356.656783 240.552863 
L 357.281119 215.971972 
L 357.489148 213.767393 
L 357.697426 214.931654 
L 357.905455 217.218862 
L 358.321762 217.301491 
L 358.737819 222.998855 
L 359.570433 241.131264 
L 359.778462 242.295525 
L 359.98649 241.213893 
L 360.402797 230.067052 
L 360.610826 232.35426 
L 361.027133 242.543411 
L 361.235162 244.83062 
L 361.44344 243.748987 
L 362.067776 225.905779 
L 362.275804 224.824146 
L 362.483833 227.111354 
L 362.90014 237.300506 
L 363.524476 243.039184 
L 363.732504 244.203445 
L 363.940783 240.875918 
L 364.35684 229.729077 
L 364.565118 227.524498 
L 364.773147 230.934653 
L 365.397483 249.025748 
L 365.605511 249.067062 
L 365.81379 244.616589 
L 366.021818 235.674327 
L 366.438125 199.822653 
L 366.854182 163.970979 
L 367.062461 158.397558 
L 367.27049 162.93066 
L 367.686797 177.6116 
L 367.894825 182.144702 
L 368.102854 190.046645 
L 368.519161 219.325895 
L 368.935468 250.851039 
L 369.143497 257.630035 
L 369.351525 254.302509 
L 369.767832 228.557357 
L 370.184139 203.935152 
L 370.392168 199.484679 
L 370.600196 198.403046 
L 370.808475 200.690254 
L 371.848868 246.937652 
L 372.057146 253.716648 
L 372.681482 286.406053 
L 372.88951 287.537374 
L 373.305818 258.312565 
L 373.513846 243.70016 
L 373.721875 238.071332 
L 373.930153 245.917866 
L 374.34621 266.102724 
L 374.554489 267.211577 
L 374.970546 260.445707 
L 375.178825 260.431613 
L 376.011189 280.588282 
L 376.219217 278.328294 
L 376.635524 270.439478 
L 377.051831 276.026024 
L 377.25986 271.520143 
L 377.884196 241.158292 
L 378.092224 241.144198 
L 379.549174 285.963419 
L 379.757203 290.441113 
L 379.965231 291.558801 
L 380.381538 287.097909 
L 380.797845 287.125256 
L 381.63021 274.827532 
L 381.838238 275.964152 
L 382.046517 278.223719 
L 382.254545 275.991499 
L 382.670852 262.543481 
L 384.127552 204.245952 
L 384.335581 202.013731 
L 384.543859 204.273298 
L 385.376224 232.401666 
L 385.584252 232.415339 
L 385.792531 231.306065 
L 386.208588 239.19404 
L 386.624895 247.082016 
L 386.832924 247.095689 
L 387.249231 241.508301 
L 387.665538 235.920912 
L 387.873566 235.934585 
L 388.081595 240.440047 
L 388.289873 248.314349 
L 388.497902 250.573916 
L 388.705931 249.464642 
L 389.746573 216.967546 
L 389.954602 216.981219 
L 390.578938 229.374656 
L 390.787216 226.019488 
L 391.203273 213.694418 
L 391.411552 211.462197 
L 391.827609 211.489544 
L 392.035887 212.626164 
L 392.243916 219.377519 
L 392.660223 248.601487 
L 392.868252 265.459365 
L 393.07628 272.21072 
L 393.284559 268.855552 
L 393.700616 237.440383 
L 393.908894 231.839322 
L 394.116923 236.344783 
L 394.53323 262.19991 
L 394.741259 267.828318 
L 394.949287 268.964938 
L 395.157566 267.855664 
L 395.365594 267.869338 
L 395.98993 271.279198 
L 396.406237 276.92128 
L 396.614266 276.934953 
L 397.030573 260.118095 
L 397.238601 252.271139 
L 397.44663 252.284813 
L 397.654908 259.036168 
L 398.279244 287.150862 
L 398.487273 288.287482 
L 398.487273 288.287482 
" clip-path="url(#p328f46da15)" style="fill: none; stroke: #ff7f0e; stroke-width: 1.5; stroke-linecap: square"/>
   </g>
   <g id="patch_3">
    <path d="M 57.6 307.584 
L 57.6 41.472 
" style="fill: none; stroke: #000000; stroke-width: 0.8; stroke-linejoin: miter; stroke-linecap: square"/>
   </g>
   <g id="patch_4">
    <path d="M 414.72 307.584 
L 414.72 41.472 
" style="fill: none; stroke: #000000; stroke-width: 0.8; stroke-linejoin: miter; stroke-linecap: square"/>
   </g>
   <g id="patch_5">
    <path d="M 57.6 307.584 
L 414.72 307.584 
" style="fill: none; stroke: #000000; stroke-width: 0.8; stroke-linejoin: miter; stroke-linecap: square"/>
   </g>
   <g id="patch_6">
    <path d="M 57.6 41.472 
L 414.72 41.472 
" style="fill: none; stroke: #000000; stroke-width: 0.8; stroke-linejoin: miter; stroke-linecap: square"/>
   </g>
  </g>
 </g>
 <defs>
  <clipPath id="p328f46da15">
   <rect x="57.6" y="41.472" width="357.12" height="266.112"/>
  </clipPath>
 </defs>
</svg>
